<svg width="313" height="178" viewBox="0 0 313 178" fill="none" xmlns="http://www.w3.org/2000/svg">
<g clip-path="url(#clip0_199_1038)">
<path d="M155.078 97.6793C156.981 96.9124 161.516 94.9582 165.758 92.2012C162.49 94.5962 158.924 96.5594 155.107 97.7324C155.098 97.7151 155.087 97.6972 155.078 97.6793ZM185.478 71.0514C179.362 82.7263 168.285 94.2723 155.373 98.2149C155.812 98.9818 156.336 99.7314 156.961 100.458C157.468 101.048 157.997 101.597 158.536 102.129C171.652 100.68 180.656 86.7982 185.66 75.8347C188.862 68.8186 194.392 54.4338 185.704 49.4334C185.482 49.3797 185.261 49.3266 185.039 49.2807C191.417 53.5739 189.016 64.2952 185.478 71.0514ZM133.573 45.0645C133.121 45.2374 132.69 45.4038 132.286 45.5612C129.702 46.5667 127.277 48.2454 125.266 50.0733C126.055 49.5389 126.838 49.038 127.567 48.5663C129.414 47.3718 131.434 46.1856 133.573 45.0645ZM155.752 56.7328C156.172 56.4877 156.622 56.2432 157.093 55.9999C162.882 52.8696 169.44 49.6904 176.13 48.5215C169.401 38.7598 158.517 37.6857 147.954 40.3294C147.343 40.488 146.734 40.6526 146.127 40.8232C139.747 42.6784 133.582 45.7962 128.636 49.0642C126.793 50.282 119.547 54.5597 120.472 57.3381C120.905 58.6405 121.761 59.1379 122.838 59.1284C123.171 59.098 123.508 59.0514 123.84 58.9954C124.255 58.8958 124.69 58.7461 125.136 58.5565C125.653 58.3352 126.186 58.0615 126.72 57.7544C129.387 56.2199 132.092 53.8506 133.163 53.0646C139.842 48.1631 147.575 42.5538 156.179 42.2944C157.344 42.2592 156.131 43.2408 155.503 43.2599C148.05 43.4841 141.192 48.5549 135.361 52.7527C132.678 54.6843 129.926 57.4121 126.803 58.9161C120.587 66.8566 111.51 73.2161 107.863 82.9308C105.962 87.9969 106.414 93.2955 110.664 97.0436C113.374 99.4332 117.01 101.988 120.773 102.076C121.56 102.094 122.302 102.009 123.008 101.854C124.078 101.547 124.732 101.221 124.732 101.221L125.714 100.485C127.501 98.395 129.314 96.3268 131.174 94.3034C130.538 90.4592 130.684 86.5227 131.846 82.734C135.529 70.7287 145.134 62.598 155.752 56.7328ZM124.046 59.847C122.518 61.6611 120.488 64.0895 118.353 66.6985C120.526 64.4246 122.696 62.1465 124.667 59.7104C124.592 59.7301 124.517 59.7551 124.441 59.773C124.318 59.8017 124.186 59.8261 124.046 59.847ZM166.615 52.0997C170.224 50.8539 173.634 49.849 175.675 49.2735C172.571 49.8335 169.521 50.8646 166.615 52.0997ZM173.166 132.264C173.156 132.207 173.16 132.152 173.169 132.1C171.51 129.031 169.727 126.187 166.583 124.429C163.939 122.951 161.08 122.062 158.16 121.311C156.168 120.8 154.22 120.273 152.333 119.638C151.843 120.12 151.147 120.573 150.773 120.907C149.181 122.328 147.583 123.741 145.986 125.156C145.182 125.867 137.818 132.13 137.92 132.298C138.013 132.452 137.696 132.673 137.306 132.812L136.986 133.114C140.866 138.982 145.252 144.535 149.64 150.026C152.351 153.42 155.042 157.735 158.431 160.51C158.437 160.515 158.439 160.521 158.445 160.525C158.594 160.408 159.164 160.281 159.458 160.123C160.365 159.635 161.26 159.127 162.149 158.608C163.571 157.777 164.986 156.936 166.413 156.115C168.02 155.19 169.586 154.189 171.158 153.196C171.127 153.188 171.097 153.185 171.067 153.176C168.492 152.359 169.334 148.784 170.053 146.936C171.956 142.044 174.049 137.703 173.166 132.264ZM158.525 162.05L158.949 161.758C158.755 161.807 158.564 161.845 158.38 161.861L158.525 162.05ZM158.526 160.688C158.563 160.691 158.6 160.694 158.634 160.702C158.591 160.692 158.556 160.682 158.526 160.67C158.527 160.677 158.526 160.682 158.526 160.688ZM212.435 113.624C211.955 113.617 211.895 113.445 212.033 113.248C205.518 107.14 198.89 101.149 192.39 95.0238C189.322 96.6315 187.008 99.3008 184.132 101.259C182.094 102.646 180.03 103.997 177.951 105.322C176.319 106.361 174.423 107.87 172.467 108.982L171.644 109.569L178.095 112.257C178.894 112.502 179.695 112.745 180.499 112.985C184.17 114.083 188.007 116.166 191.03 118.985C191.096 119 191.157 119.022 191.207 119.055C194.121 120.98 196.545 123.59 198.526 126.455C200.216 128.899 202.742 132.322 203.171 135.354C203.257 135.958 203.229 136.527 203.103 137.051C203.746 136.713 204.387 136.37 205.029 136.028C204.971 135.685 205.341 135.233 205.921 135.209C206.144 135.2 206.364 135.206 206.586 135.2C209.305 133.735 212.009 132.243 214.71 130.746C215.786 130.15 216.885 129.57 217.985 128.986L224.398 125.262C220.496 121.294 216.491 117.432 212.435 113.624ZM202.692 138.08C202.564 138.298 202.414 138.504 202.242 138.693C202.254 138.883 202.258 138.99 202.258 138.99L206.434 136.403C206.242 136.407 206.051 136.403 205.858 136.41C204.805 136.972 203.751 137.529 202.692 138.08Z" fill="#F6B00E"/>
<path d="M209.021 49.7218C208.622 49.1171 208.353 48.5428 208.338 47.8099C208.329 47.3787 208.948 47.1265 209.288 47.102C209.683 47.074 210.082 47.2499 210.09 47.6853C210.1 48.1677 210.343 48.5631 210.6 48.9543C211.106 49.7183 209.462 50.3898 209.021 49.7218ZM302.761 161.255C298.595 166.212 293.558 171.681 287.373 173.982C279.684 176.842 273.573 172.765 268.248 167.328C265.78 169.522 262.941 171.345 259.583 172.638C259.633 173.263 258.275 173.712 257.92 173.155C257.914 173.146 257.908 173.138 257.903 173.128C257.395 173.112 257.008 172.869 257.564 172.604C255.704 169.715 253.674 166.779 251.479 163.888C248.983 160.933 246.01 157.443 243.005 153.993C233.063 143.81 220.768 136.078 206.435 136.402C206.243 136.407 206.052 136.402 205.859 136.41C204.806 136.971 203.752 137.529 202.693 138.079C202.566 138.298 202.415 138.503 202.244 138.693C201.707 139.287 200.966 139.736 200.042 139.984C199.398 140.156 198.83 140.129 198.318 139.968C198.101 139.955 197.94 139.91 197.941 139.821C197.69 139.703 197.455 139.549 197.232 139.374C196.934 141.787 196.26 144.085 194.949 146.08C193.833 147.778 192.162 148.65 191.244 148.011C190.827 149.038 190.282 149.983 189.521 150.709C188.726 151.466 187.544 152.255 186.371 152.154C185.417 152.072 184.935 151.521 184.699 150.798C184.047 151.989 183.156 152.994 181.881 153.566C178.473 155.095 177.41 153.528 177.36 150.909C172.763 153.272 168.398 156.333 163.941 158.937C162.728 159.646 160.702 161.319 158.952 161.758C158.758 161.807 158.567 161.845 158.383 161.86C158.118 161.882 157.863 161.868 157.622 161.807C157.252 161.714 157.191 161.523 157.294 161.325C157.109 161.327 156.943 161.293 156.833 161.203C153.266 158.282 150.424 153.721 147.582 150.141C146.576 148.875 145.572 147.607 144.572 146.332C139.257 152.533 132.853 157.89 125.928 162.303C118.229 168.064 108.907 173.352 99.5996 174.516C84.8016 176.366 75.493 172.884 70.91 170.34C67.7612 168.811 64.7848 166.839 62.0231 164.348C57.1878 159.99 52.5088 155.553 47.4856 151.396C42.651 147.395 37.9046 143.321 33.7408 138.609C33.7229 138.589 33.7038 138.57 33.6859 138.549C33.6615 138.521 33.6472 138.494 33.6323 138.466C33.5941 138.393 33.5869 138.319 33.6072 138.248C33.6221 138.15 33.6674 138.041 33.7569 137.922C35.7082 135.319 37.9869 132.895 40.4772 130.694C36.2067 131.209 32.2451 134.6 28.9956 137.14C25.2105 140.098 21.5572 143.286 17.5204 145.905C12.0441 149.458 4.89674 152.463 -0.317815 146.854C-0.661317 146.484 0.962566 145.867 1.30189 146.232C8.19579 153.648 17.6785 144.943 23.4894 140.304C28.6336 136.196 34.5292 130.473 41.4439 129.862C44.3965 127.373 47.6139 125.191 50.9189 123.388C56.7584 120.201 63.8115 117.523 70.4526 119.615C70.8402 119.475 71.2905 119.421 71.4718 119.591C75.852 123.695 79.649 128.371 83.916 132.588C88.0893 136.714 92.9198 141.194 98.7176 142.81C100.217 143.228 101.6 143.385 102.887 143.338C105.548 142.79 107.775 141.831 109.406 140.946C114.789 136.884 117.972 128.585 121.555 123.113C121.579 123.075 121.619 123.04 121.666 123.006L121.684 122.961C118.812 121.161 116.063 119.147 113.417 117.166C113.236 117.03 113.177 116.897 113.288 116.684C115.487 112.469 118.832 108.725 121.845 105.085C122.613 104.157 123.385 103.232 124.161 102.31C122.458 102.893 120.616 103.08 118.68 102.713C112.234 101.492 104.687 96.0266 104.97 88.7785C105.217 82.4875 109.254 76.9605 113.182 72.331C114.828 70.3916 116.59 68.5435 118.354 66.6984C120.528 64.4244 122.698 62.1464 124.669 59.7102C124.594 59.7299 124.519 59.755 124.443 59.7728C124.32 59.8015 124.187 59.8259 124.048 59.8462C121.781 60.1772 117.488 59.3602 118.981 56.3009C120.214 53.7753 122.779 51.7566 125.267 50.0737C126.057 49.5393 126.839 49.0384 127.569 48.5667C129.416 47.3716 131.435 46.186 133.575 45.0649C147.975 37.5192 167.865 32.9147 178.009 48.2488C178.176 48.2297 178.344 48.2107 178.511 48.194C178.469 48.1892 178.432 48.1814 178.389 48.1767C177.948 48.1284 179.408 47.473 179.812 47.5177C180.814 47.6274 181.709 47.8254 182.524 48.0854C182.986 48.1075 183.448 48.1379 183.909 48.1856C184.037 47.7717 184.767 47.3614 185.263 47.5559C186.156 47.9065 186.934 48.3329 187.629 48.8124C188.075 48.2315 188.561 47.6614 189.08 47.1235C186.28 47.0311 182.861 45.5634 183.006 42.5381C181.599 42.9108 180.088 42.8315 179.013 41.8344C177.238 40.1873 178.137 38.2193 179.75 37.0009C178.906 36.729 178.125 36.1905 177.489 35.3717C176.026 33.486 175.373 30.7952 176.917 28.9877C174.817 28.7771 172.75 28.0937 172.117 25.8258C171.455 23.4588 171.854 20.3828 174.195 19.196C174.265 19.0547 174.315 18.9235 174.351 18.8037C174.023 18.9468 173.633 18.9933 173.368 18.8376C170.004 16.8494 171.817 12.7476 174.428 10.8953C177.211 8.91961 180.731 8.25765 184.075 8.75263C184.142 8.74011 184.205 8.72699 184.264 8.71566C184.482 8.01494 184.97 7.28558 185.504 6.66716C185.775 6.23361 186.178 5.79827 186.787 5.43986C188.644 4.02529 191.118 3.21843 193.128 4.1732C194.549 1.18842 199.624 -0.229119 203.394 0.303429C203.437 0.309989 203.482 0.313563 203.525 0.319526C203.55 0.322508 203.574 0.327282 203.6 0.330264C203.779 0.359485 203.952 0.395861 204.124 0.434028C206.341 0.92483 207.927 2.17361 207.688 4.27637C207.673 4.40518 207.528 4.52386 207.332 4.61808C207.344 4.64253 207.355 4.66459 207.364 4.68308C207.392 4.66101 207.417 4.63895 207.452 4.61629C207.856 4.34793 208.326 4.11117 208.835 3.90304C210.454 3.00672 213.226 1.91479 215.855 2.98227C220.217 3.39257 223.919 5.65336 221.97 10.4004C222.324 10.3723 222.69 10.3503 223.067 10.3378C223.501 10.2722 224.06 10.2477 224.689 10.3521C227.077 10.4892 229.485 11.2055 230.553 13.4633C232.069 16.6717 230.934 20.3381 227.723 21.7693C228.919 23.1594 230.39 25.3475 229.31 27.1586C228.411 28.6668 226.817 29.352 225.142 29.6502C224.436 29.776 223.678 29.8333 222.904 29.819C222.346 30.7415 221.782 31.6558 221.328 32.6242C223.656 31.5597 225.426 32.703 225.275 35.3621C225.159 37.4029 224.471 40.1831 222.999 41.897C224.297 42.89 226.597 44.6629 224.402 46.0369C222.609 47.1599 220.518 47.0919 218.565 47.6716C218.843 47.6596 219.048 47.696 219.012 47.7849C217.538 51.4972 216.414 57.1966 211.971 58.4704C209.781 59.0984 207.756 58.7024 205.72 57.6993C202.919 56.3199 200.779 56.5728 198.038 58.2253C196.94 58.8873 195.889 59.6029 194.868 60.3621C194.868 60.4002 194.865 60.439 194.865 60.4783C194.916 60.4771 194.967 60.4801 195.017 60.4885C196.468 60.7282 197.565 61.8297 198.616 62.7892C200.673 64.6654 202.67 66.5516 205.106 67.934C210.601 71.0524 216.256 73.0442 222.617 73.1849C227.806 73.2988 232.987 72.4598 238.034 71.3046C241.926 70.4137 245.914 69.4285 249.572 67.7658C249.692 67.5685 250.452 67.2244 250.814 67.1593C250.939 67.0961 251.067 67.0395 251.19 66.9739C251.629 66.7419 252.097 66.8546 252.292 67.092C258.849 66.4878 262.134 61.1117 267.745 58.1961C268.86 57.6164 269.986 57.1942 271.121 56.8775C273.773 52.7024 275.143 47.4068 278.554 43.7678C281.814 40.2892 286.096 39.9756 290.541 41.0699C290.751 41.1218 290.852 41.2035 290.881 41.2983C298.401 43.4535 294.716 51.7417 291.456 56.9199C292.424 57.3993 293.097 58.6541 293.567 59.904C295.356 64.6624 294.678 71.109 288.91 71.4245C288.148 72.9082 286.709 74.0908 284.93 74.5774C284.47 76.215 283.471 77.79 281.944 79.0555C278.396 81.9961 272.942 81.3688 268.7 81.1577C263.82 80.9149 255.282 79.4652 252.359 84.5271C252.297 84.6338 252.156 84.7263 251.983 84.7978C251.788 85.4878 251.343 85.9923 250.332 86.346C245.567 88.0122 240.883 89.682 235.907 90.638C227.088 92.3328 217.272 93.8106 208.468 91.4049C202.04 89.648 195.258 86.6489 190.281 82.014C189.529 83.9552 188.711 85.8951 187.836 87.8494C185.65 92.73 183.53 99.1361 179.595 103.275C179.819 103.129 180.046 102.984 180.27 102.836C184.346 100.142 187.834 96.2348 192.331 94.2543C192.462 94.197 192.594 94.1434 192.727 94.0891C192.95 93.9984 193.174 93.906 193.402 93.8249C194.091 93.5798 195.178 93.8905 194.022 94.3026C193.989 94.3145 193.958 94.3282 193.926 94.3401C200.463 100.505 207.134 106.531 213.689 112.677C226.399 112.777 239.119 114.668 250.983 119.349C259.291 121.992 268.259 127.814 274.777 132.638C278.109 135.045 281.34 137.602 284.485 140.269C284.925 140.208 285.319 140.26 285.217 140.448C285.162 140.548 285.109 140.65 285.054 140.751C285.09 140.781 285.127 140.811 285.162 140.841C285.397 141.042 285.082 141.315 284.662 141.481C283.219 144.193 281.842 146.999 280.42 149.781C280.47 149.768 280.516 149.76 280.555 149.757C290.337 149.091 299.719 145.759 306.833 138.845C307.113 138.573 308.516 138.392 308.454 138.653C320.752 139.206 305.902 157.518 302.761 161.255ZM287.248 67.2178C286.75 66.2243 285.924 65.2981 284.854 64.8974C283.264 64.3016 282.88 65.6142 282.835 66.9965C282.832 67.0723 282.8 67.142 282.748 67.2065C284.759 68.9556 285.517 71.3816 285.116 73.7652C287.56 72.8409 288.415 69.5418 287.248 67.2178ZM290.668 58.1245C290.493 58.3839 290.321 58.6338 290.157 58.867C290.027 59.0507 289.82 59.1586 289.596 59.2051C289.116 61.0568 288.993 63.0057 289.097 64.9087C289.11 65.149 288.566 65.3422 288.085 65.4216C288.133 65.477 288.187 65.5259 288.234 65.5832C289.583 67.278 289.775 69.1601 289.188 70.7816C293.797 70.9408 293.012 63.4911 291.973 60.7294C291.641 59.8468 291.259 58.87 290.668 58.1245ZM273.081 56.4321C276.268 55.8649 279.543 55.9579 282.933 55.816C283.044 55.8112 283.398 55.7892 283.431 55.9639C284.954 63.9694 277.109 64.0517 271.232 64.032C271.274 64.1662 271.237 64.3308 271.07 64.5234C267.856 68.2298 271.456 71.5253 275.479 71.6338C275.698 71.6398 275.866 71.6917 275.987 71.771C275.185 70.0958 274.721 68.0849 276.109 66.7401C277.264 65.6207 279.141 65.1466 280.66 65.8545C280.885 65.9595 281.087 66.0805 281.294 66.1968C281.638 64.9892 282.462 64.0851 283.921 63.8907C285.119 63.7309 286.359 64.0362 287.337 64.7363C287.241 62.4666 287.257 58.3917 289.142 57.1996C289.301 57.0988 289.454 57.0183 289.604 56.9509C292.459 52.5808 296.808 44.2908 290.03 42.5488C289.695 42.4624 289.534 42.29 289.493 42.0968C284.311 40.8236 280.621 42.2835 278.03 46.9315C276.289 50.0564 274.944 53.3769 273.081 56.4321ZM252.126 82.6044C252.126 82.6694 252.127 82.7326 252.127 82.7959C256.277 78.8957 264.391 79.9846 269.383 80.2255C273.801 80.4396 279.81 81.2877 282.478 76.7583C282.85 76.1268 283.144 75.4362 283.341 74.7229C283.212 74.6353 283.275 74.4778 283.439 74.3299C283.875 72.3757 283.564 70.2902 282.061 68.7516C281.097 67.7658 277.142 64.5878 277.027 68.3383C276.974 70.0994 277.636 71.412 278.601 72.8611C278.973 73.4205 277.295 73.9763 276.992 73.5225C276.747 73.1545 276.482 72.7216 276.231 72.2534C276.213 72.6059 275.882 72.975 275.343 72.9607C273.038 72.8987 270.269 72.2326 268.845 70.2264C267.327 68.0873 267.994 65.8348 269.613 63.9694C269.775 63.7822 270.038 63.6838 270.306 63.6587C270.567 63.4655 271.049 63.2705 271.304 63.2711C274.428 63.2806 281.217 64.2181 281.871 59.8772C281.941 59.4132 282.358 56.5895 281.214 56.6169C279.965 56.6473 278.716 56.6438 277.467 56.6658C275.872 56.6939 274.256 56.7696 272.695 57.063C272.678 57.0886 272.663 57.1155 272.647 57.1417C272.397 57.527 271.416 57.6826 271.067 57.4649C270.004 57.7959 268.982 58.2617 268.029 58.9314C262.697 62.6783 258.5 66.9727 252.109 67.7658C252.082 67.7855 252.05 67.8046 252.019 67.8243C251.701 72.758 252.094 77.6702 252.126 82.6044ZM223.683 28.464C223.918 28.4575 224.145 28.4414 224.369 28.4187C224.13 28.4295 223.901 28.4384 223.693 28.4444C223.69 28.4509 223.687 28.4575 223.683 28.464ZM174.009 17.2901L173.289 15.8511C173.342 16.3651 173.566 16.8553 174.009 17.2901ZM54.5012 122.965C53.0115 123.68 51.5844 124.474 50.2563 125.283C49.5258 125.728 48.8012 126.19 48.0838 126.665C48.3188 126.531 48.5549 126.398 48.7958 126.267C51.3769 124.87 53.1683 123.794 54.5012 122.965ZM68.2079 120.488C66.4665 120.121 64.6888 120.094 62.9152 120.316C64.6667 120.343 66.5751 120.414 68.2079 120.488ZM96.7001 143.41C94.9045 142.82 93.178 141.952 91.5386 140.926C93.1595 142.012 94.9182 142.928 96.7001 143.41ZM193.116 61.6722C192.772 61.8064 192.131 61.8995 191.842 61.8726C191.152 67.0079 189.037 72.3465 187.315 76.0415C182.015 87.4123 173.038 100.993 159.714 103.229C162.772 105.925 166.257 107.854 169.964 109.401C171.111 108.86 173.072 107.438 174.131 106.776C174.62 106.469 175.107 106.158 175.595 105.849C175.211 105.848 174.967 105.762 175.345 105.533C181.252 101.934 183.65 93.4575 186.4 87.5136C187.415 85.3178 188.342 83.1268 189.164 80.9221C189.153 80.9108 189.141 80.9006 189.131 80.8893C188.941 80.6907 189.103 80.4671 189.388 80.3019C191.556 74.3246 192.925 68.2334 193.116 61.6722ZM194.828 61.7587C194.565 68.3389 193.087 74.3836 190.898 80.3693C195.92 85.5361 203.531 89.1429 210.465 90.6863C218.88 92.5594 228.187 91.3357 236.569 89.5723C240.931 88.6545 245.058 87.2172 249.254 85.7502C250.334 85.3727 250.329 85.2779 250.371 84.078C250.427 82.4995 250.362 80.9203 250.304 79.3423C250.173 75.7946 250.062 72.2498 250.252 68.7045C246.224 70.5472 241.776 71.6487 237.488 72.5564C233.019 73.5022 228.397 74.4003 223.811 74.3681C218.429 74.3305 213.227 73.5338 208.313 71.2402C205.437 69.8984 202.641 68.4111 200.194 66.3763C198.736 65.1633 196.774 62.4147 194.828 61.7587ZM219.699 38.7089C219.547 39.5336 219.298 43.4988 221.127 41.7426C222.409 40.5117 223.121 38.3994 223.387 36.6866C223.576 35.4754 223.86 32.8067 221.929 33.7705C221.867 33.8015 221.804 33.8241 221.741 33.842C220.576 34.9536 219.971 37.2347 219.699 38.7089ZM219.084 27.4586C220.026 27.9619 221.112 28.2649 222.192 28.3925C222.196 28.3847 222.201 28.377 222.205 28.3692L219.084 27.4586ZM206.519 33.2707C206.776 34.9011 212.1 35.3013 213.293 35.4957C214.986 35.7718 216.844 35.9048 218.516 36.4278C218.671 35.9764 218.853 35.5369 219.058 35.1176C218.95 35.0961 218.886 35.0544 218.9 34.9864C219.343 33.0214 220.453 31.4011 221.459 29.7087C219.182 29.3979 216.953 28.433 215.652 26.6648C214.624 27.5451 213.357 28.105 212.102 28.1009C212.794 30.9288 209.513 33.0417 206.519 33.2707ZM196.795 28.2655C196.796 28.2816 196.802 28.2953 196.804 28.3108C197.41 28.176 198 28.1021 198.568 28.0907C198.344 23.4785 198.234 18.8347 199.282 14.3071C200.277 10.0121 202.724 6.51152 205.943 3.69253C205.829 3.0747 205.509 2.56302 205.034 2.16108C201.984 4.77969 199.612 7.88016 198.174 11.7809C196.26 16.9699 196.528 22.844 196.795 28.2655ZM201.129 29.8303C200.967 29.9561 200.744 30.0647 200.515 30.1291C203.863 34.7467 204.523 43.8906 199.47 46.7699C201.114 46.4914 202.622 45.536 203.59 43.7177C205.664 39.8205 205.223 32.0619 201.129 29.8303ZM190.977 40.4067L191.835 43.0683C193.112 45.1979 195.445 46.6047 197.778 46.8265C197.799 46.8217 197.82 46.8146 197.84 46.811C201.347 46.0846 201.471 40.3578 201.141 37.6951C200.792 34.8779 200.027 31.6647 197.925 29.6085C193.376 29.2345 190.471 35.8428 190.977 40.4067ZM188.634 49.6014C191.84 52.4901 192.464 56.964 191.876 61.6353C192.28 61.3055 192.702 60.9656 193.143 60.6209C193.143 60.6143 193.144 60.6083 193.144 60.6024C193.146 60.3537 193.492 60.1629 193.874 60.0597C197.154 57.5884 201.242 55.1982 205.188 56.1858C206.717 56.568 207.97 57.6355 209.532 57.9671C211.878 58.4656 213.347 57.0976 214.366 55.2417C215.611 52.972 216.359 50.5054 217.311 48.1081C217.353 48.0001 217.494 47.9113 217.677 47.8415C217.164 47.835 216.808 47.6262 217.659 47.34C219.241 46.8074 220.988 46.8325 222.541 46.2308C224.67 45.4042 223.09 43.862 221.865 42.8798C219.765 44.1817 217.63 43.0414 217.748 40.4616C217.786 39.6171 217.919 38.6534 218.153 37.6849C218.127 37.6778 218.1 37.6724 218.077 37.6629C215.495 36.5423 212.234 36.6067 209.498 36.0265C208.851 35.8893 207.503 35.6985 206.411 35.2679C206.415 35.2929 206.422 35.3162 206.426 35.3412C207.113 39.4639 206.174 45.5288 201.633 47.2142C198.215 48.4832 194.526 47.897 192.021 45.9034C190.725 46.9261 189.561 48.2679 188.634 49.6014ZM185.04 49.2805C191.417 53.5737 189.016 64.2956 185.478 71.0512C179.362 82.7261 168.285 94.2722 155.373 98.2147C155.812 98.9816 156.336 99.7312 156.961 100.458C157.468 101.047 157.997 101.597 158.536 102.129C171.652 100.68 180.656 86.798 185.66 75.8346C188.862 68.8184 194.392 54.4337 185.704 49.4332C185.483 49.3795 185.262 49.3264 185.04 49.2805ZM176.557 49.1302C176.263 49.1744 175.968 49.2197 175.675 49.2734C172.571 49.8333 169.521 50.8645 166.615 52.0995C166.274 52.2444 165.934 52.3899 165.597 52.5402C160.48 54.8195 155.252 57.3874 150.631 60.572C141.136 67.1164 131.889 78.0805 132.522 90.3404C132.581 91.4794 132.712 92.6238 132.903 93.7659C133.079 93.7832 133.185 93.8338 133.139 93.9221C133.087 94.0205 133.033 94.1183 132.98 94.2167C134.698 103.602 140.758 112.74 149.162 117.131C154.206 119.766 159.896 120.365 165.172 122.377C165.71 122.582 166.216 122.808 166.703 123.048C168.968 118.511 173.323 115.021 178.186 113.592C175.779 112.836 173.326 112.189 170.967 111.315C163.867 108.685 154.974 104.046 152.496 96.2205C149.917 88.0736 154.793 79.4062 160.332 73.6626C166.035 67.7486 173.102 63.2741 180.853 60.566C181.889 60.204 182.131 61.2148 181.121 61.5679C172.686 64.5145 164.402 69.9491 159.056 77.2002C154.695 83.1137 151.65 91.0071 155.078 97.6798C155.087 97.6976 155.098 97.7155 155.107 97.7334C158.923 96.5598 162.49 94.5966 165.757 92.2022C168.607 90.1138 171.232 87.7045 173.599 85.2141C177.771 80.8249 181.695 75.8853 184.269 70.3612C187.629 63.1488 189.92 51.8598 181.379 48.835C180.222 48.7927 179.065 48.8428 177.912 48.9603C177.526 49.2346 176.815 49.3676 176.557 49.1302ZM125.223 101.062C125.386 100.87 125.55 100.676 125.714 100.485C127.501 98.3948 129.314 96.3266 131.173 94.3032C130.537 90.4591 130.683 86.5225 131.845 82.7338C135.528 70.7286 145.134 62.5978 155.751 56.7326C155.853 56.6766 155.954 56.6199 156.056 56.5638C156.398 56.3766 156.744 56.1881 157.092 56.0003C162.881 52.87 169.438 49.6908 176.129 48.522C169.4 38.7602 158.516 37.6861 147.953 40.3298C147.343 40.4831 146.733 40.6471 146.126 40.8236C139.746 42.6788 133.581 45.7966 128.634 49.0646C126.792 50.2824 119.546 54.5601 120.47 57.3385C120.904 58.641 121.76 59.1383 122.837 59.1288C123.153 59.1258 123.489 59.0793 123.839 58.9958C124.254 58.8962 124.688 58.7465 125.134 58.5569C125.652 58.3356 126.185 58.0619 126.719 57.7548C129.386 56.2203 132.091 53.851 133.162 53.065C139.841 48.1635 147.574 42.5542 156.178 42.2948C157.343 42.2596 156.13 43.2412 155.502 43.2603C148.049 43.4845 141.191 48.5554 135.36 52.7531C132.677 54.6847 129.924 57.4125 126.802 58.9165C120.586 66.857 111.509 73.2165 107.862 82.9312C105.96 87.9973 106.413 93.2959 110.663 97.044C113.372 99.4337 117.009 101.988 120.772 102.076C121.559 102.094 122.301 102.01 123.007 101.854C123.794 101.681 124.533 101.414 125.223 101.062ZM140.953 128.126C141.779 127.467 142.593 126.821 143.323 126.174C145.173 124.535 147.027 122.9 148.872 121.254C149.394 120.788 150.908 119.762 151.108 119.246C151.112 119.235 151.121 119.225 151.127 119.214C148.093 118.094 145.235 116.624 142.644 114.368C137.406 109.807 133.274 103.338 131.604 96.4155C130.317 98.2063 128.72 99.8177 126.887 100.987C123.36 105.03 119.96 109.206 116.915 113.572C116.423 114.278 115.928 114.984 115.49 115.725C114.93 116.671 115.291 116.676 116.193 117.34C118.476 119.024 120.782 120.694 123.204 122.176C128.633 125.496 134.469 128.171 140.953 128.126ZM158.634 160.703C158.591 160.692 158.556 160.682 158.526 160.671C158.527 160.677 158.526 160.682 158.526 160.687C158.563 160.69 158.6 160.694 158.634 160.703ZM171.158 153.197C171.127 153.189 171.097 153.186 171.067 153.177C168.492 152.36 169.334 148.785 170.053 146.937C171.956 142.044 174.05 137.703 173.166 132.264C173.157 132.207 173.16 132.153 173.169 132.1C171.511 129.031 169.727 126.187 166.583 124.429C163.94 122.951 161.081 122.062 158.16 121.312C156.168 120.8 154.221 120.273 152.333 119.638C151.844 120.121 151.148 120.573 150.774 120.908C149.182 122.328 147.584 123.742 145.987 125.156C145.183 125.868 137.819 132.131 137.921 132.298C138.014 132.452 137.697 132.673 137.306 132.812C137.288 132.819 137.271 132.826 137.253 132.831L136.981 133.104C136.983 133.108 136.985 133.111 136.988 133.115C140.868 138.983 145.253 144.535 149.641 150.027C152.352 153.42 155.044 157.735 158.432 160.51C158.439 160.516 158.44 160.522 158.446 160.526C158.595 160.408 159.165 160.282 159.459 160.123C160.366 159.635 161.261 159.128 162.15 158.608C163.572 157.778 164.987 156.937 166.414 156.116C168.02 155.19 169.586 154.189 171.158 153.197ZM177.485 148.8C177.231 149.156 176.963 149.506 176.667 149.844C176.616 149.902 176.56 149.966 176.504 150.03C176.802 149.872 177.104 149.722 177.406 149.572C177.427 149.32 177.452 149.062 177.485 148.8ZM194.874 127.616C194.663 127.581 194.493 127.482 194.436 127.295C193.022 122.606 188.85 118.658 184.698 116.278C182.97 115.288 181.131 114.564 179.251 113.937C174.428 114.969 170.118 118.917 168.124 123.34C168.075 123.451 167.939 123.544 167.766 123.617C171.068 125.557 173.162 128.39 175.092 132.001C175.125 132.063 175.062 132.143 174.946 132.225C175.393 135.472 174.886 138.453 173.957 141.609C173.224 144.102 171.515 146.36 171.149 148.964C170.832 151.216 172.055 152.619 173.948 150.753C174.665 150.046 175.36 149.307 175.951 148.488C177.988 145.663 178.644 142.3 179.518 139.004C179.521 138.942 179.527 138.876 179.526 138.824C179.526 138.744 179.564 138.672 179.625 138.605C179.656 138.494 179.685 138.382 179.716 138.271C179.915 137.559 181.679 137.339 181.462 138.119C181.381 138.407 181.304 138.696 181.226 138.985C181.082 141.67 179.89 144.368 179.336 146.965C179.174 147.726 178.965 148.574 178.859 149.422C179.092 149.605 179.141 149.899 178.8 150.155C178.778 150.689 178.811 151.214 178.949 151.706C179.491 153.634 181.377 153.46 182.418 151.952C185.331 147.732 185.862 140.601 185.092 135.644C185.014 135.144 186.754 134.759 186.819 135.181C187.327 138.448 186.989 142.084 186.382 145.314C186.234 146.1 186.064 146.947 185.839 147.795C186.064 147.789 186.225 147.823 186.223 147.903C186.201 148.505 186.358 152.687 187.953 150.843C189.131 149.482 189.78 147.762 190.225 146.035C191.18 142.32 191.547 138.464 191.055 134.649C190.997 134.203 192.739 133.85 192.782 134.187C193.17 137.188 193.063 140.287 192.484 143.261C192.395 143.72 192.297 144.209 192.193 144.706C192.331 144.77 192.413 144.881 192.387 145.051C192.34 145.359 191.863 148.252 192.936 146.619C193.553 145.679 194.038 144.661 194.357 143.58C194.803 142.066 195.258 140.468 195.426 138.894C195.478 138.403 195.512 137.913 195.538 137.425C195.524 137.403 195.508 137.382 195.494 137.361C195.363 137.168 195.415 136.98 195.56 136.824C195.665 133.728 195.3 130.687 194.874 127.616ZM201.201 135.014C201.093 134.746 200.986 134.479 200.878 134.212C200.045 132.339 199.157 130.513 198.028 128.795C197.548 128.066 197.049 127.347 196.533 126.642C197 129.898 197.526 133.573 197.407 137.125C197.695 137.562 198.003 138.013 198.387 138.339C201.023 137.744 201.96 136.636 201.201 135.014ZM224.398 125.263C220.496 121.294 216.491 117.432 212.435 113.623C211.955 113.617 211.895 113.444 212.033 113.248C205.518 107.14 198.89 101.149 192.391 95.0236C189.322 96.6314 187.008 99.3007 184.132 101.258C182.094 102.646 180.03 103.997 177.951 105.321C176.319 106.361 174.423 107.87 172.467 108.982C171.939 109.281 171.407 109.553 170.875 109.777C173.218 110.709 175.642 111.503 178.095 112.257C178.894 112.502 179.695 112.745 180.499 112.985C184.17 114.083 188.007 116.166 191.03 118.985C191.096 119 191.157 119.022 191.207 119.054C194.121 120.979 196.545 123.59 198.526 126.455C200.217 128.899 202.742 132.322 203.171 135.354C203.257 135.958 203.229 136.527 203.103 137.051C203.746 136.713 204.387 136.37 205.029 136.028C204.971 135.685 205.341 135.232 205.921 135.209C206.144 135.2 206.364 135.206 206.586 135.2C209.305 133.735 212.009 132.243 214.71 130.746C215.786 130.15 216.885 129.569 217.985 128.986L224.398 125.263ZM234.182 144.325C231.83 142.256 228.975 140.684 225.992 139.498C228.837 140.852 231.568 142.48 234.182 144.325ZM259.375 171.916C259.309 171.918 259.246 171.917 259.186 171.917C259.199 171.938 259.212 171.959 259.226 171.979C259.277 171.959 259.325 171.937 259.375 171.916ZM307.701 139.378C300.154 146.346 290.219 149.729 280.066 150.465C277.044 156.335 273.772 162.043 269.194 166.454C269.404 166.427 269.582 166.441 269.666 166.527C272.475 169.425 275.803 172.703 279.811 173.843C284.645 175.217 288.848 173.028 292.532 169.994C296.476 166.745 299.933 163.097 303.072 159.078C305.698 155.714 317.594 140.245 307.701 139.378ZM2.55663 145.28C5.14304 130.25 15.5859 116.711 28.1756 108.491C34.4964 104.364 45.0358 99.306 51.9351 104.804C54.37 106.744 56.0404 109.845 57.3238 112.612C58.1557 114.405 59.2267 116.754 59.052 118.786C58.9769 119.66 60.7349 119.402 60.8005 118.644C61.2078 113.915 57.1097 107.251 53.7558 104.258C47.4552 98.6345 37.7227 101.917 31.1842 105.308C16.2371 113.058 3.68911 128.686 0.80811 145.423C0.662598 146.27 2.42722 146.033 2.55663 145.28Z" fill="#A51361"/>
</g>
<defs>
<clipPath id="clip0_199_1038">
<rect width="313" height="178" fill="white"/>
</clipPath>
</defs>
</svg>
