<svg width="30" height="18" viewBox="0 0 30 18" fill="none" xmlns="http://www.w3.org/2000/svg">
<path d="M27.1954 17.7491L23.7697 16.0874L26.6051 8.80152L29.7341 14.9039C30.165 15.7544 30.0722 16.5527 29.4556 17.2987C28.8379 18.0468 28.0845 18.1979 27.1954 17.7491ZM18.7151 16.3472L19.9065 3.69061C19.9569 3.1475 20.2047 2.80062 20.6497 2.64999C21.0958 2.49935 21.5691 2.52753 22.0697 2.73453L25.2714 4.01033C25.7407 4.20196 26.0515 4.49606 26.2039 4.89264C26.3563 5.28921 26.3109 5.79492 26.0677 6.40977L22.2286 16.3472H18.7151ZM7.80511 16.3472L4.08115 6.52659C3.87729 5.97118 3.81775 5.46444 3.90252 5.00638C3.98628 4.54832 4.2729 4.21579 4.76236 4.0088L7.96406 2.73453C8.49187 2.52138 8.97175 2.50037 9.40369 2.67151C9.83563 2.84264 10.0768 3.14238 10.1273 3.57072L11.3081 16.3472H7.80511ZM2.75051 17.7491C1.91994 18.1508 1.18625 18.014 0.549442 17.3387C-0.0873649 16.6634 -0.170625 15.8917 0.299664 15.0238L3.49531 8.80152L6.26557 16.0874L2.75051 17.7491ZM12.6493 16.3472L11.2975 1.71388C11.247 1.21996 11.4059 0.811084 11.7743 0.487265C12.1417 0.162422 12.5398 0 12.9687 0H17.056C17.6009 0 18.0283 0.17728 18.3382 0.531841C18.648 0.885378 18.7777 1.31936 18.7272 1.83378L17.3769 16.3472H12.6493Z" fill="#F7F7F7"/>
</svg>
