<svg width="28" height="23" viewBox="0 0 28 23" fill="none" xmlns="http://www.w3.org/2000/svg">
<path d="M21.9085 0H5.9477C3.00826 0 0.627441 2.27192 0.627441 5.07692C0.627441 6.95538 1.70479 8.56731 3.28757 9.45577V20.3077C3.28757 21.7038 4.48463 22.8462 5.9477 22.8462H21.9085C23.3716 22.8462 24.5686 21.7038 24.5686 20.3077V9.45577C26.1514 8.58 27.2288 6.95538 27.2288 5.07692C27.2288 2.27192 24.8479 0 21.9085 0ZM18.8626 13.5808L14.8724 17.3885C14.3537 17.8835 13.5158 17.8835 12.9838 17.3885L8.99356 13.5808C8.87025 13.4633 8.77243 13.3239 8.70569 13.1703C8.63894 13.0168 8.60458 12.8522 8.60458 12.686C8.60458 12.5197 8.63894 12.3551 8.70569 12.2016C8.77243 12.048 8.87025 11.9086 8.99356 11.7912L12.9838 7.98346C13.1068 7.8658 13.253 7.77245 13.4139 7.70876C13.5748 7.64507 13.7473 7.61228 13.9214 7.61228C14.0956 7.61228 14.2681 7.64507 14.429 7.70876C14.5899 7.77245 14.7361 7.8658 14.8591 7.98346L18.8493 11.7912C19.3814 12.2862 19.3814 13.0858 18.8626 13.5808Z" fill="#F7F7F7"/>
</svg>
