<svg width="25" height="15" viewBox="0 0 25 15" fill="none" xmlns="http://www.w3.org/2000/svg">
<path d="M0.416753 0.25H20.9584C21.9198 0.25 22.8419 0.631918 23.5217 1.31174C24.2015 1.99156 24.5834 2.91359 24.5834 3.875C24.5834 4.83641 24.2015 5.75844 23.5217 6.43826C22.8419 7.11808 21.9198 7.5 20.9584 7.5H19.4456C18.8593 9.78031 17.4609 11.7682 15.5129 13.0907C13.5649 14.4131 11.2012 14.9792 8.86553 14.6825C6.52981 14.3859 4.38266 13.247 2.82707 11.4796C1.27149 9.71219 0.414426 7.43781 0.416753 5.08333V0.25ZM19.7501 5.08333H20.9584C21.2789 5.08333 21.5862 4.95603 21.8128 4.72942C22.0394 4.50281 22.1668 4.19547 22.1668 3.875C22.1668 3.55453 22.0394 3.24719 21.8128 3.02058C21.5862 2.79397 21.2789 2.66667 20.9584 2.66667H19.7501V5.08333Z" fill="#F7F7F7"/>
</svg>
