<svg width="24" height="20" viewBox="0 0 24 20" fill="none" xmlns="http://www.w3.org/2000/svg">
<path d="M20 4H16V0H0V8C0.0105588 9.75214 0.596064 11.4524 1.66657 12.8395C2.73709 14.2266 4.23339 15.2239 5.92565 15.6782C7.6179 16.1325 9.4125 16.0187 11.0338 15.3542C12.6551 14.6897 14.0134 13.5113 14.9 12H20C21.0609 12 22.0783 11.5786 22.8284 10.8284C23.5786 10.0783 24 9.06087 24 8C24 6.93913 23.5786 5.92172 22.8284 5.17157C22.0783 4.42143 21.0609 4 20 4ZM20 10H15.72C15.8974 9.34784 15.9915 8.67582 16 8V6H20C20.5304 6 21.0391 6.21071 21.4142 6.58579C21.7893 6.96086 22 7.46957 22 8C22 8.53043 21.7893 9.03914 21.4142 9.41421C21.0391 9.78929 20.5304 10 20 10ZM16 19C16 19.2652 15.8946 19.5196 15.7071 19.7071C15.5196 19.8946 15.2652 20 15 20H1C0.734784 20 0.48043 19.8946 0.292893 19.7071C0.105357 19.5196 0 19.2652 0 19C0 18.7348 0.105357 18.4804 0.292893 18.2929C0.48043 18.1054 0.734784 18 1 18H15C15.2652 18 15.5196 18.1054 15.7071 18.2929C15.8946 18.4804 16 18.7348 16 19Z" fill="white"/>
</svg>
