<svg width="89" height="87" viewBox="0 0 89 87" fill="none" xmlns="http://www.w3.org/2000/svg">
<path fill-rule="evenodd" clip-rule="evenodd" d="M17.5752 0.600511C18.1796 -0.192342 19.3678 -0.20161 19.9845 0.58172L37.8249 23.2434C38.7767 24.4525 37.5483 26.1535 36.1047 25.6256L30.2637 23.4895C30.2585 23.6164 30.2532 23.7434 30.248 23.8702L30.2384 24.1024L30.2251 24.424C30.1127 27.1465 29.9981 29.9224 29.9445 32.78C29.8292 38.938 30.0173 44.893 30.9804 50.093C31.9556 55.3577 33.553 58.8747 35.4988 61.0276C37.1389 62.8424 39.7747 64.5478 45.1289 64.7587C56.0736 65.1899 61.4129 62.5823 63.8037 60.4494C66.021 58.4713 67.0915 55.6782 66.8012 52.0241C66.4956 48.1769 64.6472 43.9505 61.6664 40.7494C58.7388 37.6052 55.3179 36.0412 51.9931 36.0412V35.9846C51.4571 35.8212 51.067 35.3219 51.067 34.7312V15.1917C51.067 14.6012 51.4571 14.1019 51.9931 13.9384V13.8819C52.099 13.8819 52.2048 13.8823 52.3103 13.8834C52.3315 13.8823 52.3528 13.8818 52.3743 13.8818C52.4064 13.8818 52.4381 13.883 52.4696 13.8853C62.8807 14.0335 71.6848 19.0268 77.8352 25.6321C84.0261 32.281 88.121 41.1463 88.8453 50.266C89.5851 59.5787 86.7723 69.6276 78.5082 77.0001C70.4176 84.2176 58.6777 87.4689 44.2601 86.901C33.6825 86.4842 25.1933 82.636 19.1077 75.9024C13.3275 69.5068 10.5981 61.4802 9.23795 54.1369C7.86582 46.729 7.71005 39.0118 7.83462 32.364C7.89305 29.2459 8.01753 26.2347 8.1284 23.5525L8.13886 23.2994L2.0711 25.5909C0.636871 26.1325 -0.609121 24.4537 0.321309 23.2331L17.5752 0.600511Z" fill="#F6B00E"/>
</svg>
