<svg width="54" height="54" viewBox="0 0 54 54" fill="none" xmlns="http://www.w3.org/2000/svg">
<circle cx="27" cy="27" r="26.5" fill="#A51361" stroke="#A51361"/>
<path d="M18.1274 13.8179C17.9117 13.8175 17.7031 13.8947 17.5396 14.0354C17.3761 14.176 17.2686 14.3708 17.2368 14.5841C17.1455 15.2017 16.4243 20.1154 16.4243 22.2876C16.4243 23.7183 17.0406 25.007 18.0192 25.8996C18.472 26.312 18.7046 26.7289 18.7046 27.0997C18.7046 27.129 18.704 27.1531 18.7014 27.1791C18.6401 27.944 18.0531 35.3022 18.0531 36.6209C18.0531 37.4849 18.3963 38.3134 19.0072 38.9244C19.6181 39.5353 20.4467 39.8785 21.3107 39.8785C22.1746 39.8785 23.0032 39.5353 23.6141 38.9244C24.225 38.3134 24.5683 37.4849 24.5683 36.6209C24.5683 35.3022 23.9812 27.944 23.92 27.1791L23.9167 27.0997C23.9167 26.7289 24.1493 26.312 24.6021 25.8996C25.1053 25.4421 25.5071 24.8844 25.7818 24.2623C26.0565 23.6403 26.1979 22.9676 26.197 22.2876C26.197 20.1154 25.4758 15.1991 25.3846 14.5841C25.3527 14.3709 25.2453 14.1762 25.082 14.0356C24.9186 13.895 24.7102 13.8177 24.4946 13.8179H24.4829C23.9643 13.8179 23.5923 14.2446 23.5923 14.7104V21.5579C23.5923 21.6537 23.5734 21.7486 23.5367 21.8371C23.5001 21.9256 23.4463 22.0061 23.3786 22.0738C23.3108 22.1416 23.2304 22.1954 23.1418 22.232C23.0533 22.2687 22.9584 22.2876 22.8626 22.2876C22.7668 22.2876 22.6719 22.2687 22.5833 22.232C22.4948 22.1954 22.4144 22.1416 22.3466 22.0738C22.2789 22.0061 22.2251 21.9256 22.1884 21.8371C22.1518 21.7486 22.1329 21.6537 22.1329 21.5579V14.6772C22.1365 14.5656 22.1173 14.4544 22.0766 14.3504C22.0358 14.2464 21.9743 14.1518 21.8958 14.0723C21.8173 13.9929 21.7235 13.9302 21.62 13.8882C21.5165 13.8462 21.4055 13.8257 21.2938 13.8279C21.1821 13.8302 21.0721 13.8552 20.9704 13.9013C20.8687 13.9475 20.7774 14.0139 20.7022 14.0965C20.627 14.179 20.5693 14.276 20.5328 14.3816C20.4963 14.4872 20.4817 14.599 20.4898 14.7104V21.5579C20.4898 21.7514 20.4129 21.937 20.276 22.0738C20.1392 22.2107 19.9536 22.2876 19.7601 22.2876C19.5665 22.2876 19.3809 22.2107 19.2441 22.0738C19.1073 21.937 19.0304 21.7514 19.0304 21.5579V14.7104C19.0304 14.4741 18.9366 14.2473 18.7696 14.08C18.6027 13.9127 18.3761 13.8184 18.1398 13.8179H18.1274ZM31.3505 26.8482L31.3095 27.4424C31.2482 28.3297 31.1662 29.5272 31.0854 30.7677C30.9238 33.2265 30.7577 35.9114 30.7577 36.6209C30.7577 37.4849 31.1009 38.3134 31.7118 38.9244C32.3227 39.5353 33.1513 39.8785 34.0152 39.8785C34.8792 39.8785 35.7078 39.5353 36.3187 38.9244C36.9296 38.3134 37.2728 37.4849 37.2728 36.6209C37.2728 35.8332 37.0676 32.846 36.8897 30.2673L36.8838 30.1826C36.7418 28.116 36.6213 26.353 36.6213 26.0338V14.6323C36.6213 14.1827 36.2564 13.8179 35.8069 13.8179H35.4811C31.4333 13.8179 28.1516 17.0996 28.1516 21.1474V24.7308C28.1516 25.2923 28.3747 25.8309 28.7718 26.228C29.1689 26.6251 29.7074 26.8482 30.269 26.8482H31.3505Z" fill="#F7F7F7"/>
</svg>
