<svg width="25" height="23" viewBox="0 0 25 23" fill="none" xmlns="http://www.w3.org/2000/svg">
<path d="M2.46795 22.8462C1.78927 22.8462 1.20848 22.5978 0.725581 22.1011C0.242686 21.6044 0.000826905 21.0066 4.25508e-06 20.3077V17.7692C4.25508e-06 17.4096 0.118466 17.1084 0.355389 16.8655C0.592312 16.6227 0.885175 16.5008 1.23398 16.5H23.4455C23.7951 16.5 24.0884 16.6218 24.3253 16.8655C24.5623 17.1092 24.6803 17.4105 24.6795 17.7692V20.3077C24.6795 21.0058 24.438 21.6036 23.9552 22.1011C23.4723 22.5987 22.8911 22.847 22.2115 22.8462H2.46795ZM12.3398 13.3269C11.5994 13.3269 11.0132 13.5385 10.5813 13.9615C10.1494 14.3846 9.35764 14.5962 8.20593 14.5962C7.05422 14.5962 6.27271 14.3846 5.86138 13.9615C5.45006 13.5385 4.8742 13.3269 4.13382 13.3269C3.55796 13.3269 3.08988 13.4699 2.72956 13.7559C2.36924 14.0419 1.88099 14.2691 1.26483 14.4375C0.935768 14.5433 0.642905 14.4747 0.386238 14.2319C0.129572 13.989 0.000826905 13.6874 4.25508e-06 13.3269C-0.000818395 12.9665 0.117643 12.6547 0.355389 12.3915C0.593135 12.1283 0.875715 11.9113 1.20313 11.7404L2.34456 11.121C2.75588 10.8985 3.3523 10.7876 4.13382 10.7885C5.28553 10.7885 6.06705 11 6.47837 11.4231C6.8897 11.8462 7.46555 12.0577 8.20593 12.0577C8.94632 12.0577 9.53246 11.8462 9.96435 11.4231C10.3962 11 11.188 10.7885 12.3398 10.7885C13.4915 10.7885 14.2833 11 14.7152 11.4231C15.147 11.8462 15.7332 12.0577 16.4736 12.0577C17.214 12.0577 17.7898 11.8462 18.2011 11.4231C18.6125 11 19.394 10.7885 20.5457 10.7885C21.2861 10.7885 21.8722 10.8942 22.3041 11.1058C22.736 11.3173 23.1267 11.5183 23.4764 11.7087C23.8054 11.8779 24.0884 12.1 24.3253 12.375C24.5623 12.65 24.6803 12.9673 24.6795 13.3269C24.6787 13.6865 24.5553 13.9882 24.3093 14.2319C24.0633 14.4756 23.7754 14.5441 23.4455 14.4375C22.8491 14.2683 22.3814 14.0411 22.0425 13.7559C21.7036 13.4708 21.2458 13.3278 20.6691 13.3269C19.9287 13.3269 19.3323 13.5385 18.8798 13.9615C18.4274 14.3846 17.6253 14.5962 16.4736 14.5962C15.3219 14.5962 14.5301 14.3846 14.0982 13.9615C13.6663 13.5385 13.0801 13.3269 12.3398 13.3269ZM12.3398 0C13.8617 0 15.3581 0.143 16.8289 0.429C18.2998 0.715 19.6161 1.15923 20.7777 1.76169C21.9392 2.36415 22.8799 3.14685 23.5998 4.10977C24.3196 5.07269 24.6795 6.24123 24.6795 7.61538C24.6795 7.975 24.561 8.27665 24.3241 8.52035C24.0872 8.76404 23.7943 8.88546 23.4455 8.88461H1.23398C0.884353 8.88461 0.59149 8.76277 0.355389 8.51908C0.119289 8.27538 0.000826905 7.97415 4.25508e-06 7.61538C4.25508e-06 6.24038 0.359914 5.07185 1.07973 4.10977C1.79955 3.14769 2.74066 2.365 3.90307 1.76169C5.06547 1.15838 6.38171 0.714154 7.85178 0.429C9.32186 0.143846 10.8178 0.000846154 12.3398 0Z" fill="#F7F7F7"/>
</svg>
