<svg width="16" height="19" viewBox="0 0 16 19" fill="none" xmlns="http://www.w3.org/2000/svg">
<path d="M13.6562 2.30402C10.5322 -0.768982 5.46717 -0.768982 2.34317 2.30402C1.60145 3.02865 1.01207 3.89425 0.60968 4.84993C0.207288 5.8056 0 6.83208 0 7.86902C0 8.90595 0.207288 9.93243 0.60968 10.8881C1.01207 11.8438 1.60145 12.7094 2.34317 13.434L7.99917 18.999L13.6562 13.434C14.3979 12.7094 14.9873 11.8438 15.3897 10.8881C15.792 9.93243 15.9993 8.90595 15.9993 7.86902C15.9993 6.83208 15.792 5.8056 15.3897 4.84993C14.9873 3.89425 14.3979 3.02865 13.6562 2.30402ZM7.99917 10.499C7.33117 10.499 6.70417 10.239 6.23117 9.76702C5.76292 9.29777 5.49994 8.66193 5.49994 7.99902C5.49994 7.3361 5.76292 6.70027 6.23117 6.23102C6.70317 5.75902 7.33117 5.49902 7.99917 5.49902C8.66717 5.49902 9.29517 5.75902 9.76717 6.23102C10.2354 6.70027 10.4984 7.3361 10.4984 7.99902C10.4984 8.66193 10.2354 9.29777 9.76717 9.76702C9.29517 10.239 8.66717 10.499 7.99917 10.499Z" fill="#B8B8B8"/>
</svg>
