<svg width="23" height="26" viewBox="0 0 23 26" fill="none" xmlns="http://www.w3.org/2000/svg">
<path d="M11.5 12.1333V15.6H18.1258L18.5698 12.1333H11.5ZM9.73077 12.1333H4.43015L4.87423 15.6H9.73077V12.1333ZM11.5 5.21733V10.4H18.3487C17.9527 8.91581 17.0658 7.60207 15.8266 6.66432C14.5874 5.72656 13.0658 5.2177 11.5 5.21733ZM9.73077 5.43573C8.50993 5.74575 7.3956 6.36923 6.50272 7.24186C5.60983 8.11449 4.97073 9.20469 4.65131 10.4H9.73077V5.43573ZM11.5 3.484C13.536 3.48423 15.5097 4.17227 17.0883 5.43211C18.6669 6.69195 19.7537 8.44652 20.1657 10.4H22.1154C22.35 10.4 22.575 10.4913 22.7409 10.6538C22.9068 10.8164 23 11.0368 23 11.2667C23 11.4965 22.9068 11.717 22.7409 11.8795C22.575 12.042 22.35 12.1333 22.1154 12.1333H20.3462V12.1853L18.7715 24.4816C18.7181 24.9007 18.5102 25.2863 18.1871 25.5659C17.8639 25.8455 17.4476 25.9999 17.0165 26H5.98354C5.55239 25.9999 5.13612 25.8455 4.81295 25.5659C4.48977 25.2863 4.28192 24.9007 4.22846 24.4816L2.65385 12.1853V12.1333H0.884615C0.650001 12.1333 0.424995 12.042 0.259098 11.8795C0.0932002 11.717 0 11.4965 0 11.2667C0 11.0368 0.0932002 10.8164 0.259098 10.6538C0.424995 10.4913 0.650001 10.4 0.884615 10.4H2.83431C3.18514 8.73865 4.0254 7.2145 5.25113 6.01611C6.47686 4.81771 8.03429 3.99764 9.73077 3.65733V2.6C9.73077 1.91044 10.0104 1.24912 10.5081 0.761522C11.0058 0.273928 11.6808 0 12.3846 0L15.9231 0C16.1577 0 16.3827 0.0913093 16.5486 0.253841C16.7145 0.416372 16.8077 0.636812 16.8077 0.866667C16.8077 1.09652 16.7145 1.31696 16.5486 1.47949C16.3827 1.64202 16.1577 1.73333 15.9231 1.73333H12.3846C12.15 1.73333 11.925 1.82464 11.7591 1.98717C11.5932 2.14971 11.5 2.37015 11.5 2.6V3.484ZM17.9046 17.3333H5.09538L5.98354 24.2667H17.0165L17.9046 17.3333Z" fill="#F7F7F7"/>
<path d="M17.9046 17.3333H5.09538L5.98354 24.2667H17.0165L17.9046 17.3333Z" fill="#F7F7F7"/>
</svg>
