<svg width="54" height="54" viewBox="0 0 54 54" fill="none" xmlns="http://www.w3.org/2000/svg">
<circle cx="27" cy="27" r="27" fill="#A51361"/>
<path d="M27 17.4374C26.5976 17.4373 26.2034 17.5515 25.8633 17.7666C25.5232 17.9818 25.2512 18.2891 25.079 18.6529C24.8938 19.0281 24.5685 19.3155 24.1733 19.453C23.778 19.5904 23.3445 19.5669 22.9665 19.3875C22.5884 19.2081 22.2961 18.8872 22.1526 18.4941C22.0091 18.101 22.026 17.6672 22.1996 17.2865C22.5551 16.5373 23.0811 15.8817 23.7354 15.3723C24.3897 14.8628 25.1542 14.5136 25.9676 14.3526C26.7811 14.1916 27.621 14.2232 28.42 14.445C29.2191 14.6668 29.9551 15.0726 30.5692 15.6298C31.1833 16.1871 31.6584 16.8804 31.9565 17.6542C32.2546 18.428 32.3675 19.2609 32.286 20.0861C32.2044 20.9114 31.9309 21.7061 31.4872 22.4066C31.0434 23.1072 30.4419 23.6941 29.7306 24.1205C29.3905 24.3152 29.0823 24.561 28.8169 24.8494C28.6171 25.0831 28.5937 25.2234 28.5937 25.2871C28.5937 25.4359 28.6745 25.5761 28.8062 25.6484L39.6607 31.6791C40.4956 32.1418 41.153 32.8689 41.5296 33.746C41.9062 34.623 41.9806 35.6004 41.7412 36.5244C41.5019 37.4484 40.9622 38.2666 40.2071 38.8505C39.452 39.4343 38.5243 39.7507 37.5697 39.7499H16.4217C15.4685 39.7495 14.5423 39.4327 13.7884 38.8493C13.0345 38.2658 12.4956 37.4487 12.2562 36.5259C12.0167 35.6032 12.0903 34.6271 12.4654 33.7507C12.8405 32.8743 13.4958 32.1472 14.3286 31.6834L22.5077 27.1359C22.691 27.0283 22.8939 26.9584 23.1046 26.9304C23.3153 26.9024 23.5294 26.9168 23.7344 26.9727C23.9394 27.0287 24.1312 27.1251 24.2984 27.2563C24.4656 27.3874 24.6048 27.5507 24.708 27.7365C24.8112 27.9223 24.8762 28.1269 24.8991 28.3381C24.9221 28.5494 24.9025 28.7631 24.8417 28.9667C24.7808 29.1703 24.6798 29.3597 24.5447 29.5237C24.4095 29.6877 24.243 29.8231 24.0547 29.9217L15.8777 34.4692C15.6603 34.5888 15.489 34.7774 15.3908 35.0053C15.2927 35.2332 15.2732 35.4872 15.3357 35.7274C15.3981 35.9675 15.5387 36.18 15.7354 36.3312C15.9321 36.4824 16.1736 36.5638 16.4217 36.5624H37.5697C37.8176 36.5628 38.0586 36.4808 38.2548 36.3293C38.451 36.1778 38.5912 35.9654 38.6535 35.7255C38.7158 35.4856 38.6966 35.2318 38.5989 35.004C38.5012 34.7762 38.3305 34.5873 38.1137 34.4671L27.255 28.4342C26.6951 28.1215 26.2285 27.6653 25.9033 27.1126C25.578 26.5599 25.4057 25.9306 25.4041 25.2892C25.4041 24.2459 25.861 23.4022 26.3816 22.7881C26.8916 22.1825 27.5291 21.7214 28.088 21.3856C28.4866 21.147 28.7961 20.7843 28.9689 20.353C29.1418 19.9218 29.1686 19.4457 29.0451 18.9978C28.9217 18.5499 28.6549 18.1548 28.2855 17.873C27.9162 17.5911 27.4646 17.4381 27 17.4374Z" fill="#F7F7F7"/>
</svg>
