<svg width="54" height="54" viewBox="0 0 54 54" fill="none" xmlns="http://www.w3.org/2000/svg">
<circle cx="27" cy="27" r="26.5" fill="#A51361" stroke="#A51361"/>
<path d="M20.025 19.7915H15.475C15.2164 19.7915 14.9684 19.889 14.7856 20.0624C14.6027 20.2359 14.5 20.4712 14.5 20.7165V34.2832C14.5 34.4046 14.5252 34.5249 14.5742 34.6372C14.6232 34.7494 14.695 34.8514 14.7856 34.9372C14.8761 35.0231 14.9836 35.0913 15.1019 35.1378C15.2202 35.1842 15.347 35.2082 15.475 35.2082H20.025C20.153 35.2082 20.2798 35.1842 20.3981 35.1378C20.5164 35.0913 20.6239 35.0231 20.7144 34.9372C20.805 34.8514 20.8768 34.7494 20.9258 34.6372C20.9748 34.5249 21 34.4046 21 34.2832V20.7165C21 20.4712 20.8973 20.2359 20.7144 20.0624C20.5316 19.889 20.2836 19.7915 20.025 19.7915ZM39.525 19.7915H34.975C34.7164 19.7915 34.4684 19.889 34.2856 20.0624C34.1027 20.2359 34 20.4712 34 20.7165V34.2832C34 34.4046 34.0252 34.5249 34.0742 34.6372C34.1232 34.7494 34.195 34.8514 34.2856 34.9372C34.3761 35.0231 34.4836 35.0913 34.6019 35.1378C34.7202 35.1842 34.847 35.2082 34.975 35.2082H39.525C39.653 35.2082 39.7798 35.1842 39.8981 35.1378C40.0164 35.0913 40.1239 35.0231 40.2144 34.9372C40.305 34.8514 40.3768 34.7494 40.4258 34.6372C40.4748 34.5249 40.5 34.4046 40.5 34.2832V20.7165C40.5 20.4712 40.3973 20.2359 40.2144 20.0624C40.0316 19.889 39.7836 19.7915 39.525 19.7915Z" stroke="#F7F7F7" stroke-width="2.5" stroke-linecap="round" stroke-linejoin="round"/>
<path d="M21 27.5H34M9.625 31.2V23.8C9.625 23.5547 9.72772 23.3194 9.91057 23.1459C10.0934 22.9725 10.3414 22.875 10.6 22.875H13.525C13.7836 22.875 14.0316 22.9725 14.2144 23.1459C14.3973 23.3194 14.5 23.5547 14.5 23.8V31.2C14.5 31.4453 14.3973 31.6806 14.2144 31.8541C14.0316 32.0275 13.7836 32.125 13.525 32.125H10.6C10.3414 32.125 10.0934 32.0275 9.91057 31.8541C9.72772 31.6806 9.625 31.4453 9.625 31.2ZM45.375 31.2V23.8C45.375 23.5547 45.2723 23.3194 45.0894 23.1459C44.9066 22.9725 44.6586 22.875 44.4 22.875H41.475C41.2164 22.875 40.9684 22.9725 40.7856 23.1459C40.6027 23.3194 40.5 23.5547 40.5 23.8V31.2C40.5 31.4453 40.6027 31.6806 40.7856 31.8541C40.9684 32.0275 41.2164 32.125 41.475 32.125H44.4C44.6586 32.125 44.9066 32.0275 45.0894 31.8541C45.2723 31.6806 45.375 31.4453 45.375 31.2Z" stroke="#F7F7F7" stroke-width="2.5" stroke-linecap="round" stroke-linejoin="round"/>
</svg>
