<svg width="53" height="54" viewBox="0 0 53 54" fill="none" xmlns="http://www.w3.org/2000/svg">
<path d="M52.5 27C52.5 41.6444 40.8506 53.5 26.5 53.5C12.1494 53.5 0.5 41.6444 0.5 27C0.5 12.3556 12.1494 0.5 26.5 0.5C40.8506 0.5 52.5 12.3556 52.5 27Z" fill="#A51361" stroke="#A51361"/>
<path d="M19.75 28.25C21.825 28.25 23.5 26.575 23.5 24.5C23.5 22.425 21.825 20.75 19.75 20.75C17.675 20.75 16 22.425 16 24.5C16 26.575 17.675 28.25 19.75 28.25ZM34.75 20.75H27.25C25.875 20.75 24.75 21.875 24.75 23.25V29.5H14.75V19.5C14.75 18.8125 14.1875 18.25 13.5 18.25C12.8125 18.25 12.25 18.8125 12.25 19.5V35.75C12.25 36.4375 12.8125 37 13.5 37C14.1875 37 14.75 36.4375 14.75 35.75V33.25H37.25V35.75C37.25 36.4375 37.8125 37 38.5 37C39.1875 37 39.75 36.4375 39.75 35.75V25.75C39.75 22.9875 37.5125 20.75 34.75 20.75Z" fill="#F7F7F7"/>
</svg>
