<svg width="23" height="27" viewBox="0 0 23 27" fill="none" xmlns="http://www.w3.org/2000/svg">
<path d="M0.153809 11.8845C0.153809 10.8057 0.466039 9.83258 1.0905 8.96527C1.71496 8.09796 2.50273 7.4845 3.45381 7.12489C3.83458 5.19989 4.78142 3.60785 6.29435 2.34877C7.80727 1.0897 9.56812 0.46058 11.5769 0.461427C13.5857 0.462273 15.3469 1.09181 16.8607 2.35004C18.3745 3.60827 19.3209 5.19989 19.7 7.12489C20.6519 7.4845 21.4401 8.09796 22.0645 8.96527C22.689 9.83258 23.0008 10.8057 23 11.8845C23 13.471 22.4394 14.7297 21.3182 15.6605C20.1971 16.5912 18.9384 17.0249 17.5423 16.9614L12.7509 26.2268C12.6452 26.4595 12.4916 26.6287 12.2902 26.7345C12.0888 26.8403 11.8722 26.8932 11.6403 26.8932C11.4085 26.8932 11.1864 26.8403 10.974 26.7345C10.7616 26.6287 10.603 26.4595 10.498 26.2268L5.67496 16.9614C4.17304 17.0249 2.87758 16.5912 1.78858 15.6605C0.699578 14.7297 0.154655 13.471 0.153809 11.8845ZM11.6403 22.8633L15.0673 16.1999C14.5596 16.4537 14.0096 16.6441 13.4173 16.771C12.825 16.898 12.2115 16.9614 11.5769 16.9614C11.0057 16.9614 10.4295 16.898 9.84819 16.771C9.26688 16.6441 8.70081 16.4537 8.14996 16.1999L11.6403 22.8633Z" fill="#F7F7F7"/>
</svg>
