<svg width="20" height="25" viewBox="0 0 20 25" fill="none" xmlns="http://www.w3.org/2000/svg">
<path d="M4.50197 6.97506C4.63733 5.61089 5.27501 4.34575 6.2911 3.4255C7.30718 2.50525 8.6291 1.99561 9.99997 1.99561C11.3708 1.99561 12.6928 2.50525 13.7088 3.4255C14.7249 4.34575 15.3626 5.61089 15.498 6.97506L15.784 9.84106C15.802 10.0161 15.81 10.1031 15.821 10.1891C15.965 11.3722 16.3716 12.5082 17.011 13.5141L17.203 13.8051L18.064 15.0971C18.851 16.2771 19.244 16.8661 19.072 17.3411C19.0386 17.4317 18.9936 17.5157 18.937 17.5931C18.637 18.0001 17.928 18.0001 16.511 18.0001H3.48897C2.07197 18.0001 1.36297 18.0001 1.06297 17.5931C1.00648 17.5159 0.961359 17.431 0.928971 17.3411C0.755971 16.8661 1.14897 16.2761 1.93497 15.0971L2.79697 13.8051L2.98897 13.5141C3.62837 12.5082 4.03494 11.3722 4.17897 10.1891C4.18897 10.1031 4.19897 10.0161 4.21597 9.84106L4.50197 6.97506Z" fill="#F7F7F7"/>
<path d="M8.06799 20.6299C8.18199 20.7359 8.43299 20.8299 8.78299 20.8969C9.13199 20.9639 9.55999 20.9999 9.99999 20.9999C10.44 20.9999 10.868 20.9639 11.217 20.8969C11.566 20.8299 11.817 20.7359 11.932 20.6289" stroke="#F7F7F7" stroke-width="2" stroke-linecap="round"/>
<line x1="1.40209" y1="1.7028" x2="18.4021" y2="24.7028" stroke="#F7F7F7"/>
<line x1="1.4" y1="0.7" x2="19.4" y2="24.7" stroke="#A51361"/>
</svg>
