<svg width="24" height="24" viewBox="0 0 24 24" fill="none" xmlns="http://www.w3.org/2000/svg">
<path d="M6.50197 6.97506C6.63733 5.61089 7.27501 4.34575 8.2911 3.4255C9.30718 2.50525 10.6291 1.99561 12 1.99561C13.3708 1.99561 14.6928 2.50525 15.7088 3.4255C16.7249 4.34575 17.3626 5.61089 17.498 6.97506L17.784 9.84106C17.802 10.0161 17.81 10.1031 17.821 10.1891C17.965 11.3722 18.3716 12.5082 19.011 13.5141L19.203 13.8051L20.064 15.0971C20.851 16.2771 21.244 16.8661 21.072 17.3411C21.0386 17.4317 20.9936 17.5157 20.937 17.5931C20.637 18.0001 19.928 18.0001 18.511 18.0001H5.48897C4.07197 18.0001 3.36297 18.0001 3.06297 17.5931C3.00648 17.5159 2.96136 17.431 2.92897 17.3411C2.75597 16.8661 3.14897 16.2761 3.93497 15.0971L4.79697 13.8051L4.98897 13.5141C5.62837 12.5082 6.03494 11.3722 6.17897 10.1891C6.18897 10.1031 6.19897 10.0161 6.21597 9.84106L6.50197 6.97506Z" fill="#F7F7F7"/>
<path d="M10.0679 20.6299C10.1819 20.7359 10.4329 20.8299 10.7829 20.8969C11.1319 20.9639 11.5599 20.9999 11.9999 20.9999C12.4399 20.9999 12.8679 20.9639 13.2169 20.8969C13.5659 20.8299 13.8169 20.7359 13.9319 20.6289" stroke="#F7F7F7" stroke-width="2" stroke-linecap="round"/>
</svg>
