<svg width="243" height="224" viewBox="0 0 243 224" fill="none" xmlns="http://www.w3.org/2000/svg">
<g clip-path="url(#clip0_455_1254)">
<path d="M65.7642 134.776C65.7642 134.799 65.7648 134.822 65.7654 134.846L65.7582 134.786C65.76 134.782 65.7624 134.779 65.7642 134.776ZM63.1772 157.985C63.5583 156.422 63.9328 154.857 64.2769 153.284C64.3353 153.018 64.3777 152.751 64.4319 152.485C64.0592 154.057 63.6256 155.966 63.1772 157.985ZM69.1611 129.428C68.7353 129.555 68.2439 129.586 68.1043 129.357C68.4305 129.89 68.9046 129.63 69.1611 129.428ZM88.3709 118.845C88.3518 118.555 88.2558 118.085 88.2165 117.62C75.8617 123.303 61.2432 122.352 49.3912 116.103C48.0052 115.373 46.2203 114.268 45.0151 112.948C44.6382 114.093 44.2822 115.243 43.925 116.393C42.8318 119.915 41.7381 123.438 40.5561 126.938C38.7229 132.365 36.9345 138.356 34.0338 143.597C33.4696 145.584 30.0692 149.956 26.9276 153.702C18.9692 164.684 11.6692 176.094 3.15674 186.714C3.38455 187.07 3.66364 187.395 3.97613 187.693C4.88558 188.318 6.11885 189.132 7.57575 190.016C8.21863 190.338 8.94618 190.699 9.6964 191.061C12.3293 192.259 15.295 193.277 18.1396 193.725C18.5595 193.256 19.7683 193.221 19.751 193.913C20.5811 193.978 21.3946 193.991 22.174 193.929C23.5611 193.82 25.2673 190.645 26.0754 189.595C31.9149 182.01 37.6244 174.34 43.2511 166.623C48.8926 158.885 54.4024 151.125 59.2991 142.975C61.3249 139.603 63.2505 136.143 65.3795 132.811C65.4499 132.666 65.4893 132.583 65.4893 132.583L65.4952 132.631C65.9735 131.886 66.4584 131.145 66.9617 130.416C67.27 129.97 69.071 127.69 69.8325 128.935C69.922 129.082 69.6155 129.279 69.2344 129.405C69.1819 129.472 69.1121 129.563 69.0137 129.697C68.7191 130.099 68.443 130.511 68.1759 130.928C67.9308 131.309 67.6934 131.695 67.4507 132.078C67.6177 139.069 67.6314 146.145 65.9831 153.012C64.7599 158.108 63.4396 163.141 62.4246 168.283C60.3254 178.917 58.7629 189.727 55.9684 200.234C59.834 203.017 67.1126 202.756 71.729 202.345C73.6015 202.122 75.1765 201.851 76.2541 201.642C76.708 201.446 77.0419 201.188 77.1463 200.844C77.3872 200.047 77.5894 199.239 77.7927 198.434C79.8442 190.305 81.6631 182.122 83.4408 173.941C85.2717 165.512 87.2653 157.033 88.3751 148.494C89.3352 141.11 89.2684 133.601 88.857 126.185C88.721 123.736 88.5325 121.291 88.3709 118.845ZM190.029 22.3891C190.029 22.3891 189.781 22.7201 189.375 23.2665C189.904 22.814 190.453 22.3832 191.018 21.9719L190.029 22.3891ZM235.878 61.3235C225.245 73.697 201.898 76.0541 189.095 65.2709C181.371 58.7646 180.487 48.6624 182.022 39.7328C184.114 27.5552 193.251 18.6571 206.933 17.439C220.563 16.7569 233.725 22.0348 239.292 33.8836C243.453 42.7378 242.445 53.6815 235.878 61.3235ZM228.875 29.5379C223.54 24.61 215.805 22.9995 208.434 23.3099C208.372 23.3077 208.304 23.3094 208.23 23.3164C196.22 24.4244 189.031 32.3263 187.663 42.9483C186.581 51.3478 189.499 59.6176 198.057 63.7359C212.501 70.6872 233.551 62.8515 235.503 47.4611C236.333 40.9201 233.956 34.2309 228.875 29.5379ZM225.045 46.7275C224.419 52.5876 218.707 56.3896 212.647 57.1015C206.728 57.7966 200.696 55.273 198.627 49.9962C198.039 48.4959 197.757 46.925 197.745 45.3634C197.761 44.8762 197.784 44.3998 197.811 43.9407C198.385 38.2087 202.64 32.9514 209.345 32.2808C218.781 31.902 225.982 37.9688 225.045 46.7275ZM211.121 38.7388C211.019 38.7182 210.893 38.7138 210.739 38.7323C210.624 38.735 210.518 38.754 210.421 38.7844C206.26 39.4268 204.237 42.575 204.701 46.3721C205.095 49.5876 208.745 50.9294 211.874 50.6891C215.006 50.4481 217.768 48.5105 218.39 45.6722C219.32 41.4247 215.257 38.8007 211.121 38.7388ZM145.723 121.692C145.551 120.756 145.285 119.264 145.067 117.87C145.074 119.188 145.349 120.475 145.723 121.692ZM155.57 59.9323C155.62 58.7733 155.607 58.031 154.763 57.3994L154.855 57.298L154.559 57.3213C152.95 57.9767 151.113 58.3463 149.45 58.1563C149.425 58.2084 149.389 58.2611 149.334 58.3153C151.138 68.1706 152.531 84.4769 146.71 99.9595C146.716 99.96 146.72 99.9611 146.726 99.9622C147.36 100.073 146.961 100.436 146.451 100.654C145.001 104.366 143.129 108.024 140.74 111.527C138.236 115.514 136.206 119.439 138.95 123.433C139.54 124.146 140.466 124.559 141.527 124.559C142.782 124.559 144.062 123.994 144.933 123.068C143.884 120.125 143.139 116.675 145.067 113.168C145.581 112.414 146.069 111.72 146.55 111.032C149 107.54 151.313 104.241 152.787 100.217C156.703 87.9978 157.647 75.8408 155.75 61.9817C155.512 61.2942 155.542 60.6019 155.57 59.9323ZM142.86 41.4214L142.625 41.6162C142.681 41.6021 142.733 41.5831 142.79 41.5706C143.772 41.3493 145.258 41.2836 145.903 42.174C146.346 42.7861 146.296 43.4963 146.051 44.1746C147.163 43.8479 148.34 43.5815 149.52 43.4763L149.344 43.0964C149.374 43.085 149.4 43.0742 149.424 43.0639C149.395 43.0319 149.365 43.0004 149.338 42.9722C149.049 42.6661 148.652 42.2473 148.478 41.6206C145.267 30.0821 132.856 18.9664 119.608 15.7629C117.327 15.2116 114.53 14.9435 111.57 14.6598C102.539 13.7943 92.3188 12.8089 91.6736 3.29822C91.4941 2.75399 91.2531 2.24774 90.8643 1.82506C90.1886 1.45555 89.2863 1.45989 89.0269 1.47074C87.4496 1.53531 85.7827 2.31937 85.8394 3.47348C86.1179 9.11329 88.7013 12.8279 93.9695 15.1649C98.0367 16.9691 102.834 17.4211 107.473 17.8573C108.845 17.9865 110.264 18.1199 111.618 18.2865C126.462 20.1118 139.124 29.5189 142.525 41.2114C142.677 41.2619 142.789 41.3503 142.86 41.4214ZM86.8729 60.6849C86.7274 60.668 86.6099 60.6225 86.552 60.5373C86.5085 60.4733 86.4608 60.4119 86.4167 60.3479C86.3469 60.2882 86.304 60.2264 86.2849 60.1634C86.1751 60.0066 86.063 59.8509 85.9503 59.6963C85.1375 61.4147 84.3258 63.1336 83.5112 64.851C85.1625 67.742 86.5532 70.749 87.7728 73.6807C87.8121 73.7751 87.8473 73.8706 87.8861 73.965C89.3317 73.3449 90.7802 72.729 92.23 72.1164C91.9974 71.0898 91.7421 70.0697 91.4386 69.061C90.8243 67.016 90.0884 64.6025 88.7496 62.6713C88.7496 62.6713 88.7478 62.6708 88.7466 62.6708C88.4103 62.5492 88.3244 62.3631 88.3834 62.1776C87.9451 61.6198 87.4442 61.1162 86.8729 60.6849ZM93.7721 84.5686C93.5861 80.7492 93.2259 76.8821 92.4488 73.1023C91.0486 73.6943 89.6501 74.289 88.2546 74.8886C90.005 79.2337 91.4839 83.6722 92.6993 88.1709C93.0971 88.2599 93.4948 88.3489 93.8926 88.4379C93.8753 87.1362 93.8342 85.8448 93.7721 84.5686ZM82.6036 63.317C83.3848 61.6681 84.1642 60.0191 84.9442 58.3701C82.9608 55.8704 80.7203 53.5448 78.7857 51.0081C76.7258 51.4829 74.6648 51.936 72.5686 52.2338C76.7467 55.1601 79.9903 59.0663 82.6036 63.317ZM78.4535 60.1954C78.0182 59.6121 77.5703 59.0386 77.1027 58.4797C77.5423 59.0283 77.9931 59.5997 78.4535 60.1954ZM93.855 92.7613C93.8896 91.6788 93.901 90.6012 93.898 89.5274C93.6034 89.4617 93.3094 89.3956 93.0154 89.3299C93.3112 90.471 93.5926 91.6143 93.855 92.7613ZM63.6835 112.364C65.0837 111.978 66.4649 111.342 67.6433 110.38C68.0298 109.956 68.375 109.467 68.6595 108.887C71.3509 103.39 70.7247 96.8509 70.6472 90.9328C69.207 91.3978 67.2897 91.5416 66.2616 91.751C64.0002 92.2122 61.7316 92.6495 59.4589 93.0695C58.0664 96.9247 55.5116 100.573 50.7664 101.168C49.9661 102.678 49.0077 104.116 48.1001 105.421C47.3165 106.549 46.4792 107.637 45.6466 108.733C50.1831 109.631 58.1708 113.222 63.6835 112.364ZM58.6371 80.5115C61.8521 79.7351 65.376 78.5614 68.5945 78.5034C69.0913 77.8989 69.6095 77.3156 70.1772 76.7822C69.4574 72.4588 68.1371 68.1288 66.4828 64.0305C65.1827 60.8091 63.0651 54.7168 58.8971 53.4949L47.7852 59.024C54.3553 64.1803 58.3968 72.6655 58.6371 80.5115ZM67.6517 79.3113C67.5896 79.2749 67.5384 79.2277 67.5079 79.1659C67.5396 79.2305 67.5819 79.2782 67.626 79.3151L67.6517 79.3113ZM55.5408 73.309C56.0388 75.1745 56.436 77.0411 56.7097 78.4524C56.4884 76.7361 56.0937 75.009 55.5408 73.309ZM211.2 42.8723C210.102 42.8723 209.212 43.6819 209.212 44.6808C209.212 45.6803 210.102 46.4899 211.2 46.4899C212.298 46.4899 213.188 45.6803 213.188 44.6808C213.188 43.6819 212.298 42.8723 211.2 42.8723Z" fill="#F6B00E"/>
<path d="M67.2451 36.76C66.6118 37.0389 65.9009 37.2201 65.1955 37.2342C64.9098 37.2396 64.348 37.1924 64.4214 36.8012C64.4876 36.4469 65.0368 36.2195 65.3875 36.2125C65.8389 36.2038 66.1431 36.1278 66.5182 35.9629C66.836 35.8229 67.4181 35.748 67.6781 36.0329C67.9488 36.3308 67.5046 36.6455 67.2451 36.76ZM69.0145 42.4551C68.5512 42.4551 68.0872 42.4551 67.6232 42.4551C67.2398 42.4551 66.7227 42.5783 66.4794 42.8724C66.2325 43.1703 66.6881 43.2897 66.9344 43.2897C67.3978 43.2897 67.8618 43.2897 68.3257 43.2897C68.7092 43.2897 69.2262 43.1665 69.4696 42.8724C69.7165 42.5745 69.2614 42.4551 69.0145 42.4551ZM56.8184 40.9912C56.2859 40.5631 54.7497 41.2777 55.4754 41.861C55.6156 41.9738 55.8147 42.0156 55.9489 42.1236C56.2757 42.3868 56.7278 42.3781 57.1148 42.2142C57.3432 42.1176 57.8644 41.715 57.537 41.4508C57.3116 41.2695 57.0403 41.1697 56.8184 40.9912ZM156.66 56.2215C156.376 56.4108 156.07 56.5915 155.75 56.763C156.843 57.7353 156.807 58.9193 156.763 59.9747C156.736 60.5921 156.711 61.1749 156.901 61.692L156.927 61.7962C158.855 75.8284 157.901 88.1395 153.926 100.54C152.398 104.711 150.046 108.065 147.556 111.616C147.076 112.3 146.591 112.992 146.106 113.698C145.342 115.091 145.06 116.496 145.067 117.87C145.074 119.188 145.349 120.475 145.723 121.691C145.861 122.139 146.01 122.579 146.167 123.005L146.266 123.275L146.078 123.502C144.989 124.823 143.246 125.644 141.529 125.644C140.083 125.644 138.818 125.076 137.968 124.045C134.849 119.508 137.123 115.1 139.717 110.971C141.971 107.667 143.75 104.219 145.151 100.719C133.382 98.6318 121.739 95.7451 110.1 93.1472C105.278 92.0706 100.456 90.9914 95.6336 89.9143C95.6216 92.9535 95.4684 96.0197 95.1237 99.0648C95.141 99.1646 95.1619 99.2634 95.1791 99.3627C95.1899 99.4245 95.1458 99.4853 95.07 99.5428C94.3669 105.405 92.9362 111.172 90.3671 116.473C90.2914 116.629 90.1202 116.747 89.9151 116.824C89.9187 117.367 90.0833 118.17 90.1012 118.423C90.1882 119.682 90.2842 120.941 90.3683 122.2C91.1245 133.497 90.9253 144.639 88.8297 155.798C86.9971 165.557 84.8592 175.27 82.6437 184.962C81.7557 188.849 80.8576 192.734 79.9022 196.607C79.6494 197.631 79.5247 200.421 78.5402 201.153C77.5138 201.917 76.1995 202.4 74.7783 202.709C77.719 203.437 85.3613 205.354 84.4197 208.257C83.9092 209.832 81.8869 210.693 79.8516 211.206C79.619 211.265 79.3864 211.32 79.1556 211.37C78.1114 211.596 77.1089 211.741 76.3569 211.853C71.2652 212.611 65.7984 212.73 60.7293 211.758C58.7995 211.388 55.6245 210.883 54.4962 209.212C52.9314 206.895 54.1879 204.058 54.9846 201.679C55.0234 201.563 55.1379 201.462 55.2876 201.38C54.9357 201.191 54.5952 200.988 54.2809 200.756C54.232 200.721 54.2225 200.678 54.238 200.632C54.238 200.624 54.235 200.618 54.2374 200.608C57.0492 190.068 58.6027 179.222 60.7192 168.555C61.4241 165.001 62.321 161.498 63.178 157.985C63.5591 156.422 63.9336 154.857 64.2777 153.284C64.3361 153.018 64.3785 152.751 64.4327 152.485C65.6213 146.641 65.8425 140.763 65.7662 134.846C65.7662 134.822 65.7656 134.799 65.765 134.776C65.7632 134.779 65.7608 134.782 65.759 134.786C61.6143 141.52 57.738 148.381 53.1824 154.907C47.3155 163.312 41.207 171.58 35.04 179.804C32.5198 183.165 29.9913 186.521 27.4198 189.849C26.4596 191.092 25.3874 193.192 23.983 194.088C22.8874 194.788 21.3596 194.926 19.756 194.797C19.9832 198.544 23.1248 201.875 23.3574 205.653C23.6198 209.917 18.6467 210.465 14.9923 210.131C5.93238 209.302 -6.61141 195.739 3.38057 189.184C2.58264 188.57 1.89921 187.884 1.40722 187.104C1.35713 187.024 1.43048 186.928 1.57003 186.836C7.03207 180 11.8429 172.708 16.838 165.59C19.5592 161.712 22.2744 157.83 25.0749 153.998C26.8866 151.52 29.0371 149.154 30.6407 146.56C35.1044 139.34 37.6515 131.056 40.1854 123.147C41.1849 120.027 42.1164 116.888 43.1296 113.772C43.3867 112.982 43.5018 112.13 44.0731 111.624C43.5071 110.513 43.4725 109.303 44.4219 108.067C47.2737 104.355 51.2753 99.329 50.8232 94.5585C50.7696 94.5671 50.7159 94.5764 50.6622 94.5851C45.7518 95.3631 33.7865 97.3822 32.4274 90.592C31.71 87.0092 33.2849 83.2479 34.5176 79.899C36.1141 75.5636 37.9282 71.2982 39.5324 66.9661C40.8146 63.5021 43.1636 61.2221 45.9683 59.381C45.9438 59.2807 46.2408 59.1081 46.5957 58.9806C50.1935 56.7494 54.439 55.1243 58.1376 52.6457C58.2121 52.5958 58.3248 52.5562 58.4548 52.5253C58.5049 52.4878 58.5657 52.4526 58.6302 52.4195C58.5228 51.3185 58.4029 50.1959 58.2044 49.0912C58.0791 49.0955 57.9551 49.0798 57.8418 49.0315C52.4322 46.7314 45.0648 40.6868 45.1405 34.691C45.2115 29.0849 51.249 25.6855 56.3568 23.8336C61.2857 22.0462 78.1412 16.942 75.3139 27.0859C75.2745 27.227 75.1749 27.3464 75.0425 27.4424C75.0193 27.4788 74.9954 27.5157 74.9614 27.5547C74.2697 28.3507 73.2266 28.889 72.1329 29.2997C72.8754 30.4902 73.6691 31.6606 74.4372 32.844C74.4796 32.8652 74.501 32.8945 74.4951 32.9336C75.42 34.3617 76.3026 35.8099 76.9998 37.3406C77.8669 39.2446 79.1735 42.2289 77.3737 44.0574C76.0814 45.3705 74.1945 45.8572 72.3798 46.2967C71.2115 46.5794 69.1982 46.8507 68.9299 48.172C68.6889 49.3549 69.2322 50.478 69.8316 51.5133C69.9413 51.5247 70.0307 51.5475 70.088 51.5828C75.819 51.2681 81.1337 49.0776 86.817 48.4802C87.7855 48.3782 88.7444 48.331 89.6974 48.3255C89.7255 48.2664 89.7535 48.2073 89.7815 48.1476C94.4504 38.2852 98.9118 28.2921 104.012 18.6045C100.354 18.1981 96.7106 17.5893 93.4479 16.1417C87.8231 13.6462 84.945 9.5192 84.6487 3.52345C84.5574 1.6748 86.7765 0.47728 88.974 0.387751C91.2086 0.294966 92.7639 1.34816 92.8456 3.00418C93.2809 11.8166 102.643 12.714 111.696 13.5817C114.703 13.8698 117.544 14.1422 119.914 14.7152C133.548 18.012 146.325 29.4647 149.634 41.3553C149.739 41.734 150.007 42.0162 150.242 42.2652C150.518 42.5566 150.83 42.887 150.717 43.3244C150.715 43.3331 150.708 43.3385 150.706 43.3472C151.035 43.2245 151.414 43.1703 151.644 43.2707C153.581 44.1171 154.684 45.7422 152.85 47.2995C152.768 47.3689 152.676 47.4313 152.589 47.4986C152.8 47.491 153.009 47.4872 153.215 47.491C153.575 47.319 154.055 47.2213 154.327 47.3407C155.309 47.7694 156.634 48.5084 156.534 49.6696C156.456 50.5725 155.709 51.3061 154.944 51.8297C154.964 51.8297 154.984 51.8318 155.004 51.8318C155.363 51.6598 155.843 51.5622 156.116 51.6815C157.097 52.1102 158.423 52.8492 158.322 54.0104C158.243 54.9409 157.451 55.6946 156.66 56.2215ZM150.487 48.7412C149.69 49.0922 148.842 49.3586 147.987 49.5301C147.882 49.5751 147.774 49.6186 147.674 49.6658C147.047 49.9615 145.964 50.5415 146.25 51.3413C146.517 52.0885 147.254 52.6387 148.098 52.7689C148.649 52.8541 149.384 52.8004 150.162 52.6452C150.702 52.4591 151.258 52.3012 151.827 52.1748C154.083 51.3429 155.856 49.8345 153.637 48.5122C153.535 48.535 153.432 48.5442 153.334 48.535C152.437 48.4547 151.45 48.5426 150.487 48.7412ZM147.636 53.8123C147.445 53.7895 147.255 53.7619 147.069 53.7239C144.758 53.2529 143.742 51.1834 145.443 49.764C144.75 49.7504 144.052 49.6555 143.445 49.3679C142.48 48.911 141.439 47.828 141.893 46.7791C142.25 45.9533 143.056 45.3705 143.948 44.9419C144.357 44.288 144.781 43.4074 144.321 42.8675C143.98 42.4676 143.328 42.5425 142.844 42.7259C140.482 43.6168 139.67 45.9337 140.202 48.0873C140.225 48.1807 140.217 48.268 140.187 48.3494C143.097 50.6435 144.828 55.3294 144.175 58.7972C144.186 58.7956 144.197 58.7929 144.208 58.7912C144.212 58.7907 144.216 58.7901 144.22 58.7895C145.523 58.6024 146.781 58.4218 147.895 57.7397C146.168 56.9062 145.712 55.0196 147.636 53.8123ZM113.682 64.0697C113.091 64.3231 112.499 64.5748 111.908 64.8282C113.8 64.8282 115.668 64.7794 117.49 64.6926C118.004 63.8874 118.57 63.1098 119.067 62.2959C119.073 62.2862 119.079 62.2764 119.085 62.2666C119.232 62.0258 119.393 61.7613 119.506 61.5043C119.472 61.5303 119.446 61.5569 119.403 61.5818C117.641 62.5857 115.557 63.2666 113.682 64.0697ZM118.75 61.7897C118.757 61.7875 118.761 61.7864 118.768 61.7848C118.761 61.7853 118.754 61.7853 118.747 61.7853C118.748 61.7869 118.749 61.7886 118.75 61.7897ZM119.163 64.5922C123.444 64.2856 127.693 63.5097 131.864 62.6117C135.176 61.8987 139.263 61.3719 142.233 59.7636C142.24 59.7598 142.247 59.7576 142.255 59.7538C143.295 56.3381 141.51 50.9631 138.355 48.784C138.327 48.9148 138.194 49.0608 137.901 49.2002C127.976 53.9192 116.408 52.6691 105.717 51.3847C100.802 50.7938 95.8554 49.4726 90.8824 49.2718C90.6789 49.7017 90.4755 50.1315 90.2721 50.5613C89.0962 53.0456 87.9204 55.5297 86.7455 58.0142C87.1462 58.5264 87.5344 59.0473 87.9072 59.5791C88.7725 60.164 89.4988 60.8982 90.1149 61.7235C96.054 63.8032 102.824 64.6399 109.442 64.7989C110.615 64.297 111.789 63.7973 112.961 63.2948C114.396 62.6801 116.916 61.7104 118.052 61.1299C118.131 61.0615 118.243 60.9942 118.404 60.9323C118.581 60.8645 118.755 60.8146 118.948 60.7907C119.254 60.7522 119.53 60.8624 119.645 61.0273C119.688 60.6328 119.486 60.3138 118.744 60.2129C116.733 59.9399 114.601 60.3523 112.706 59.5205C112.007 59.2139 113.598 58.5628 114.086 58.7777C115.425 59.3653 116.956 59.2107 118.4 59.2687C119.2 59.3013 120.558 59.272 121.136 59.903C121.738 60.5597 121.275 61.3178 120.873 61.9767C120.864 61.9907 120.856 62.0047 120.847 62.0186C120.315 62.8928 119.714 63.7289 119.163 64.5922ZM63.6837 112.364C65.2509 112.12 66.6142 111.509 67.6435 110.38C68.0299 109.956 68.3752 109.468 68.6597 108.887C71.3511 103.39 70.7249 96.851 70.6474 90.9328C69.2072 91.3978 67.2899 91.5416 66.2618 91.751C64.0004 92.2123 61.7318 92.6496 59.4591 93.0696C58.0666 96.9248 55.5118 100.573 50.7666 101.168C49.9663 102.679 49.0079 104.116 48.1003 105.421C47.3166 106.549 46.4794 107.637 45.6468 108.733C50.1833 109.631 58.171 113.222 63.6837 112.364ZM72.152 87.2203C76.0575 86.0277 88.7111 85.7444 83.9825 81.205C83.911 81.1367 83.8728 81.0667 83.8579 80.9983C83.6712 80.9522 83.5579 80.8507 83.6092 80.6771C84.0618 79.1372 83.6557 78.0368 82.1648 77.2652C82.0145 77.2321 81.9006 77.1626 81.8476 77.0558C81.8279 77.0161 81.8183 76.9706 81.8183 76.9196C81.8183 76.9022 81.8142 76.8865 81.8172 76.8675C82.0205 75.3417 81.1618 74.0655 79.3834 74.028C79.195 74.0237 78.9856 73.9445 78.8884 73.8143C78.5777 73.9217 78.1829 73.9635 77.9211 73.9114C76.7779 74.3612 75.6085 74.7155 74.4331 75.1252C72.44 75.8197 71.1596 77.2533 69.9299 78.7839C70.7362 81.3722 71.7995 84.3706 72.152 87.2203ZM87.8863 73.9651C89.3319 73.3449 90.7804 72.7291 92.2302 72.1165C91.9976 71.0899 91.7423 70.0698 91.4388 69.0611C90.8245 67.016 90.0886 64.6025 88.7498 62.6714C88.7498 62.6714 88.748 62.6708 88.7468 62.6708C88.4105 62.5493 88.3246 62.3632 88.3836 62.1776C87.9447 61.6198 87.4432 61.1163 86.8725 60.6855C86.727 60.6686 86.6095 60.6231 86.5516 60.5379C86.5081 60.4738 86.4604 60.4125 86.4163 60.3485C86.3465 60.2888 86.3036 60.227 86.2845 60.164C86.1747 60.0072 86.0626 59.8515 85.9499 59.6968C85.1371 61.4153 84.3254 63.1342 83.5108 64.8516C85.1621 67.7425 86.5528 70.7496 87.7724 73.6813C87.8123 73.7752 87.8475 73.8707 87.8863 73.9651ZM82.6038 63.3171C83.385 61.6681 84.1644 60.0192 84.9445 58.3702C82.961 55.8704 80.7205 53.5448 78.7859 51.0082C76.726 51.4829 74.665 51.936 72.5688 52.2339C76.7469 55.1601 79.9905 59.0663 82.6038 63.3171ZM82.6002 66.8006C81.6627 68.8864 80.7998 71.1148 79.6035 73.0747C79.7466 73.0459 79.8903 73.028 80.0233 73.0307C82.0342 73.0731 83.3993 74.1881 83.5669 75.8452C84.4668 75.448 85.3697 75.0552 86.2731 74.664C86.195 74.4773 86.124 74.2885 86.0447 74.1018C85.0154 71.6829 83.8871 69.213 82.6002 66.8006ZM83.5174 86.0543C85.9535 86.4748 88.4027 87.204 90.7625 87.7363C89.6277 83.6185 88.2626 79.5555 86.6482 75.588C86.6205 75.6001 86.5927 75.6121 86.5649 75.6241C85.7142 75.993 84.8631 76.3621 84.0159 76.7367C84.5532 77.0552 85.0369 77.454 85.3005 77.9939C85.6762 78.7633 85.5891 79.5881 85.3673 80.383C85.4394 80.4139 85.5068 80.4514 85.5611 80.504C88.1481 82.9869 86.4646 85.0054 83.5174 86.0543ZM93.8976 89.5275C93.603 89.4618 93.309 89.3956 93.015 89.33C93.3108 90.4711 93.5922 91.6143 93.8546 92.7614C93.8892 91.6789 93.9006 90.6013 93.8976 89.5275ZM93.8928 88.4374C93.8755 87.1368 93.8344 85.8454 93.7723 84.5686C93.5863 80.7493 93.2261 76.8821 92.449 73.1024C91.0488 73.6943 89.6503 74.289 88.2548 74.8886C90.0051 79.2338 91.4841 83.6722 92.6995 88.171C93.0973 88.2589 93.495 88.3484 93.8928 88.4374ZM93.8779 71.4219C96.2126 70.4382 98.5486 69.4555 100.877 68.4615C102.897 67.5993 104.916 66.7349 106.936 65.8722C101.567 65.634 96.1828 64.9389 91.205 63.4663C92.0053 64.9812 92.5623 66.6269 93.012 68.1234C93.34 69.2141 93.6239 70.315 93.8779 71.4219ZM150.956 44.4367C150.853 44.4606 150.748 44.4725 150.65 44.4649C149.864 44.4069 147.214 44.765 145.37 45.4742C145.325 45.5431 145.279 45.6109 145.234 45.6766C145.048 45.9484 144.568 46.0873 144.158 46.0851C143.437 46.5935 143.207 47.2127 143.976 47.9311C144.946 48.8372 146.25 48.8698 147.538 48.6164C148.331 48.287 149.185 48.0217 150.059 47.8285C150.702 47.5333 151.29 47.1562 151.717 46.6619C152.539 45.7107 151.846 44.9538 150.956 44.4367ZM90.8657 1.82456C90.19 1.45505 89.2877 1.45939 89.0283 1.47024C87.4509 1.53481 85.7841 2.31887 85.8408 3.47298C86.1193 9.11279 88.7027 12.8274 93.9709 15.1644C98.0381 16.9686 102.835 17.4206 107.474 17.8568C108.846 17.986 110.265 18.1194 111.62 18.286C126.463 20.1113 139.125 29.5184 142.526 41.2109C142.678 41.2614 142.79 41.3498 142.861 41.4209L142.626 41.6157C142.681 41.6016 142.734 41.5826 142.791 41.5701C143.773 41.3488 145.259 41.2831 145.904 42.1735C146.347 42.7856 146.297 43.4958 146.051 44.1741C147.164 43.8474 148.34 43.581 149.52 43.4758L149.345 43.0959C149.374 43.0845 149.401 43.0737 149.425 43.0634C149.396 43.0314 149.365 42.9999 149.339 42.9717C149.049 42.6657 148.653 42.2468 148.479 41.6201C145.268 30.0816 132.856 18.9659 119.608 15.7624C117.327 15.2111 114.531 14.943 111.571 14.6593C102.539 13.7938 92.3196 12.8084 91.6744 3.29772C91.669 3.21471 91.6583 3.13603 91.6541 3.05138C91.6243 2.4339 91.2891 2.05625 90.8657 1.82456ZM91.3148 48.3559C94.9824 48.5084 98.5784 49.2051 102.246 49.8215C113.386 51.6946 126.771 53.4385 137.197 48.4813C137.36 48.4037 137.529 48.3695 137.687 48.3646C137.362 48.121 137.825 47.797 138.337 47.6532C138.125 45.3537 139.293 43.0422 141.557 41.9901C141.489 41.8876 141.458 41.7877 141.444 41.74C138.324 30.526 125.713 21.1146 111.459 19.3625C110.123 19.1981 108.777 19.0712 107.351 18.9371C106.754 18.8807 106.155 18.8243 105.555 18.7651C100.453 28.4685 95.9789 38.4741 91.3148 48.3559ZM80.5475 50.6012C82.1773 52.713 84.007 54.6848 85.7161 56.7386C86.8963 54.2415 88.0783 51.745 89.2597 49.2485C88.0276 49.2648 86.7938 49.3603 85.5587 49.5675C83.871 49.8508 82.206 50.2198 80.5475 50.6012ZM70.6384 52.4596C70.2311 52.4954 69.8214 52.5226 69.4105 52.5432C68.3418 53.7423 67.501 54.8009 65.6135 54.6268C64.747 54.547 63.8119 54.471 62.8756 54.3457C65.2688 56.4483 66.7394 60.0626 67.721 62.4147C69.4851 66.6421 70.9336 71.0774 71.7566 75.5528C72.0667 75.3574 72.3875 75.1724 72.7322 75.0123C74.4104 74.2331 76.277 73.8788 77.9641 73.0915C79.446 70.6883 80.4414 67.8809 81.6305 65.3741C81.6591 65.3144 81.6871 65.2542 81.7158 65.1939C80.73 63.4696 79.6464 61.7924 78.4537 60.1949C78.0183 59.6117 77.5705 59.0381 77.1029 58.4792C75.2357 56.247 73.1085 54.222 70.6378 52.5383C70.6098 52.5198 70.6134 52.4922 70.6384 52.4596ZM70.4792 29.838C70.2752 29.8966 70.0731 29.9536 69.8781 30.0084C66.9977 30.8147 64.0594 31.3519 61.0818 31.7301C62.2477 34.5907 61.3281 37.3037 59.9553 40.0715C59.7125 40.5609 58.6439 40.6749 58.329 40.3363C58.125 40.3411 57.9527 40.301 57.8668 40.1892C57.0462 39.1176 55.6818 39.1664 54.8224 39.7584C54.5374 40.0628 54.3048 40.3601 54.1235 40.6445C53.9923 41.0227 54.0048 41.4519 54.2481 41.8995C54.6346 42.6092 55.3514 42.7438 56.1195 42.9174C57.0898 43.1366 57.8716 43.3738 58.3851 44.2213C59.8962 46.7156 60.1389 49.7699 60.4133 52.5725C62.2023 53.4233 64.5162 53.6474 66.5379 53.7863C67.0853 53.2171 67.6381 52.6512 68.1957 52.0896C67.3262 50.5763 66.3381 48.4178 68.1534 47.1872C69.8107 46.0634 71.8723 45.9305 73.7562 45.2908C78.7298 43.6016 75.9818 38.1284 73.2266 33.8956C73.0543 34.0019 72.8819 34.1067 72.7102 34.2108C72.4758 34.3524 72.1663 34.4442 71.8651 34.4843C73.4276 36.015 75.8244 38.1528 72.9636 39.6021C72.4871 39.8436 70.9181 39.7839 71.9313 39.2711C74.1206 38.1621 70.7398 35.5809 69.85 34.6596C69.4922 34.2884 71.1316 33.7382 71.4674 34.0855C71.4751 34.0936 71.4835 34.1018 71.4912 34.1094C71.9409 33.8375 72.3905 33.5624 72.7859 33.2266C71.8759 31.8657 71.0147 30.6774 70.4792 29.838ZM73.5302 27.0659C73.5516 27.0431 73.5755 27.0208 73.6005 27.0007C73.6226 26.9145 73.6399 26.8314 73.6584 26.7479C73.619 26.8564 73.5755 26.9622 73.5302 27.0659ZM47.7824 59.0213L47.7848 59.0235C54.3549 64.1809 58.3964 72.6661 58.6367 80.5116C61.8517 79.7351 65.3756 78.5615 68.5941 78.5034C69.0909 77.899 69.6091 77.3157 70.1768 76.7823C69.457 72.4588 68.1367 68.1289 66.4824 64.0306C65.1823 60.8092 63.0647 54.7168 58.8967 53.4949C58.827 53.4743 58.7584 53.4515 58.6874 53.4341C55.4838 55.3723 51.2729 56.9187 47.7824 59.0213ZM63.76 91.4179C65.3392 91.1059 66.9195 90.7928 68.488 90.4385C68.8971 90.3463 70.2609 89.9279 70.5281 89.9767C70.6796 86.5627 69.2871 82.6663 68.2601 79.3944C68.024 79.4204 67.8003 79.3998 67.6513 79.3119C67.5892 79.2755 67.538 79.2283 67.5075 79.1665C67.5391 79.2311 67.5815 79.2788 67.6256 79.3157C67.8862 79.5327 68.2512 79.3428 67.4127 79.5121C66.9094 79.6141 66.4061 79.7178 65.9033 79.8247C64.4995 80.122 63.0969 80.4248 61.6936 80.7232C58.8705 81.3233 56.0426 81.9517 53.1866 82.4123C52.264 82.561 49.9359 83.1893 49.6454 81.8372C49.0228 78.9424 50.4815 75.6971 50.8107 72.8153C50.8709 72.2874 52.6099 71.9868 52.5378 72.6167C52.3642 74.1393 52.0249 75.6342 51.7351 77.1404C51.5096 78.313 50.8453 80.2598 51.3737 81.4156C51.772 82.287 55.4921 81.262 56.9085 80.9055C56.8828 80.0938 56.8172 79.275 56.7105 78.4524C56.4886 76.7362 56.0938 75.0091 55.5416 73.3091C53.8688 68.1625 50.738 63.291 46.5074 59.8401C44.3522 61.323 42.6018 63.0968 41.7502 65.4354C39.2563 72.282 35.5684 79.1355 34.2206 86.2751C33.6612 89.2404 34.0799 92.5986 37.6127 93.788C41.2362 95.0083 45.4286 94.5297 49.1522 93.9795C54.043 93.2562 58.917 92.374 63.76 91.4179ZM52.5628 94.272C52.7232 96.2926 52.1364 98.3252 51.221 100.26C54.7807 99.6665 56.6312 96.3029 57.6897 93.3924C55.9829 93.6984 54.2738 93.9909 52.5628 94.272ZM71.8633 203.119C71.4387 203.152 71.0159 203.178 70.5967 203.194C71.1519 203.195 71.5914 203.174 71.8514 203.121C71.8556 203.12 71.8586 203.12 71.8633 203.119ZM62.0395 210.931L58.1871 209.949C59.3249 210.423 60.6053 210.687 61.7825 210.891C61.8678 210.906 61.9543 210.917 62.0395 210.931ZM76.2543 201.642C76.7082 201.445 77.0421 201.188 77.1465 200.843C77.3874 200.046 77.5896 199.239 77.7929 198.433C79.8444 190.304 81.6633 182.122 83.441 173.94C85.2719 165.512 87.2655 157.033 88.3753 148.494C89.3354 141.11 89.2686 133.601 88.8572 126.185C88.7212 123.736 88.5333 121.292 88.3717 118.845C88.3526 118.555 88.2566 118.085 88.2173 117.62C75.8625 123.303 61.244 122.352 49.392 116.104C48.006 115.373 46.2211 114.268 45.0159 112.948C44.639 114.093 44.283 115.243 43.9258 116.393C42.8326 119.915 41.7389 123.438 40.5569 126.938C38.7237 132.365 36.9352 138.356 34.0346 143.597C33.2265 145.057 32.3373 146.463 31.3307 147.777C29.8332 149.732 28.3715 151.711 26.9284 153.702C18.97 164.684 11.6699 176.094 3.15753 186.714C3.38534 187.07 3.66443 187.395 3.97692 187.693C4.49277 188.186 5.09748 188.609 5.71412 188.979C6.2085 189.277 6.73866 189.576 7.29208 189.873C7.38571 189.92 7.47993 189.967 7.57714 190.016C8.22001 190.339 8.94757 190.699 9.69779 191.061C12.3307 192.259 15.2964 193.277 18.141 193.725C18.5609 193.256 19.7697 193.221 19.7524 193.913C20.5825 193.978 21.3959 193.991 22.1754 193.929C23.5625 193.82 25.2687 190.645 26.0768 189.595C31.9163 182.01 37.6258 174.34 43.2525 166.623C48.894 158.886 54.4038 151.125 59.3005 142.975C61.3263 139.603 63.2519 136.143 65.3809 132.811C65.4191 132.751 65.4579 132.691 65.4966 132.631C65.5747 132.509 65.6576 132.391 65.7358 132.269C65.7483 132.236 65.7692 132.205 65.7984 132.175C66.1812 131.585 66.5635 130.995 66.9631 130.416C67.2714 129.97 69.0724 127.69 69.8339 128.936C69.9234 129.082 69.6169 129.279 69.2358 129.405C69.1833 129.472 69.1135 129.563 69.0151 129.697C68.7205 130.099 68.4444 130.511 68.1772 130.928C67.9321 131.309 67.6948 131.695 67.4521 132.078C67.6191 139.069 67.6328 146.145 65.9844 153.012C64.7613 158.109 63.441 163.141 62.426 168.283C60.3268 178.917 58.7643 189.727 55.9698 200.234C59.8354 203.017 67.1139 202.757 71.7304 202.345C71.759 202.343 71.7906 202.34 71.8186 202.338C72.6988 202.258 74.968 202.2 76.2543 201.642ZM69.1612 129.428C68.7354 129.555 68.244 129.586 68.1045 129.357C68.4307 129.891 68.9048 129.63 69.1612 129.428ZM93.3728 99.3697C92.7579 95.864 91.9934 92.3647 91.0756 88.897C90.8138 88.8384 90.552 88.7798 90.2902 88.7212C87.4915 88.0988 83.7338 86.9881 81.185 86.7124C79.7842 87.0413 78.3577 87.2833 76.9312 87.5057C75.7271 87.6935 73.5803 87.6468 72.5277 88.2811C72.443 88.3316 72.3488 88.3674 72.2504 88.3918C72.2701 88.796 72.273 89.1954 72.2546 89.5888C72.3231 89.6224 72.3667 89.668 72.3673 89.7326C72.3822 93.7299 72.5927 97.7533 72.1418 101.738C71.7411 105.28 71.0982 109.122 67.8856 111.48C61.634 116.068 51.9993 111.157 45.2139 109.654C45.1644 111.115 47.4204 113.418 48.2911 113.902C54.6006 117.408 61.1367 120.129 68.6442 120.303C75.5405 120.464 82.4898 119.268 88.5745 116.239C88.6466 116.203 88.7194 116.178 88.7922 116.159C91.3022 110.924 92.6971 105.186 93.3728 99.3697ZM145.531 99.7419C151.238 84.6788 149.988 68.7729 148.243 58.9622C147.504 59.323 146.713 59.5889 145.883 59.7392C145.496 59.8092 145.106 59.8629 144.716 59.9139C144.472 60.1174 144.063 60.2644 143.708 60.2492C143.612 60.3561 143.455 60.444 143.273 60.5102C143.206 60.578 143.119 60.6448 143.003 60.7072C139.895 62.3903 135.65 62.9801 132.186 63.7061C127.513 64.6855 122.722 65.6258 117.918 65.8337C115.114 65.9552 112.215 66.0084 109.291 65.946C106.727 67.0426 104.162 68.1397 101.597 69.2352C99.1008 70.3004 96.5967 71.3525 94.0932 72.4084C94.8321 75.9158 95.2453 79.4855 95.4463 83.0455C95.5537 84.9479 95.6175 86.8801 95.6306 88.8259C100.806 89.9816 105.981 91.1401 111.157 92.2953C122.573 94.8422 133.993 97.6649 145.531 99.7419ZM155.008 57.1287C154.86 57.1954 154.711 57.2589 154.56 57.3208C152.951 57.9763 151.114 58.3458 149.451 58.1559C149.426 58.2079 149.39 58.2606 149.335 58.3148C151.138 68.1701 152.531 84.4764 146.711 99.959C146.716 99.9595 146.721 99.9606 146.727 99.9617C147.361 100.073 146.962 100.436 146.452 100.654C145.002 104.365 143.13 108.024 140.74 111.526C138.237 115.513 136.207 119.438 138.951 123.432C139.541 124.145 140.467 124.559 141.528 124.559C142.783 124.559 144.063 123.994 144.933 123.067C143.884 120.124 143.14 116.675 145.067 113.168C145.582 112.413 146.069 111.719 146.551 111.032C149 107.539 151.314 104.24 152.788 100.216C156.704 87.9973 157.648 75.8403 155.751 61.9812C155.513 61.2937 155.542 60.6019 155.571 59.9318C155.621 58.7728 155.608 58.0305 154.764 57.3989L154.855 57.2975L155.008 57.1287ZM155.426 52.8525C155.323 52.8753 155.22 52.8845 155.123 52.8753C154.363 52.8074 153.539 52.8639 152.718 53.0022C151.876 53.3408 150.975 53.6002 150.069 53.7434C149.859 53.827 149.656 53.9149 149.463 54.006C148.836 54.3018 147.753 54.8818 148.039 55.6816C148.306 56.4288 149.042 56.9789 149.886 57.1092C152.443 57.5053 158.937 54.9453 155.426 52.8525ZM226.381 69.6948C225.744 69.9759 225.087 70.2358 224.424 70.4854C225.37 73.4127 225.527 76.804 226.056 79.7802C227.284 86.6902 228.499 93.6024 229.704 100.516C230.953 107.686 232.197 114.858 233.399 122.035C233.969 125.435 234.938 129.013 235.024 132.463C235.034 132.872 233.301 133.102 233.296 132.884C233.207 129.296 232.195 125.572 231.601 122.037C230.419 115 229.202 107.968 227.976 100.937C226.748 93.89 225.511 86.8438 224.257 79.7997C223.76 77.008 223.605 73.8376 222.748 71.0736C219.008 72.2933 214.942 73.0231 210.848 73.1897C210.253 89.0326 210.02 104.947 209.977 120.797C209.977 121.214 208.249 121.424 208.25 121.218C208.293 105.24 208.528 89.197 209.133 73.2272C204.781 73.2348 200.451 72.5902 196.5 71.2081C195.709 74.0118 195.537 77.1719 195.035 79.9614C193.809 86.7662 192.597 93.5726 191.394 100.381C190.155 107.402 188.921 114.425 187.729 121.453C187.166 124.776 186.209 128.275 186.123 131.648C186.112 132.072 184.39 132.265 184.395 132.069C184.484 128.558 185.484 124.913 186.073 121.454C187.276 114.385 188.515 107.322 189.763 100.258C190.982 93.3615 192.21 86.4656 193.454 79.5718C193.969 76.7161 194.12 73.4561 195.066 70.6645C190.27 68.7165 186.13 65.6112 183.352 61.1592C178.183 52.8731 178.541 41.6624 182.269 32.9601C183.927 29.0919 186.356 25.8499 189.377 23.2649C189.907 22.8124 190.456 22.3816 191.021 21.9703C195.436 18.7581 200.916 16.7993 207.079 16.2507C215.977 15.8052 225.377 17.4792 232.369 22.8102C238.519 27.4988 242.473 34.2184 243.258 41.5067C244.548 53.4971 238.431 64.3828 226.381 69.6948ZM182.021 39.7329C180.488 48.6625 181.371 58.7652 189.095 65.271C201.897 76.0547 225.244 73.6971 235.878 61.3236C242.445 53.6816 243.452 42.7378 239.292 33.8831C233.724 22.0343 220.563 16.7564 206.933 17.4385C193.251 18.6572 184.114 27.5547 182.021 39.7329ZM187.663 42.9484C189.03 32.3264 196.22 24.425 208.23 23.3165C208.298 23.3132 208.367 23.3132 208.435 23.31C215.804 22.9996 223.54 24.61 228.875 29.5379C233.957 34.2309 236.334 40.9206 235.504 47.4612C233.552 62.851 212.502 70.6867 198.057 63.736C189.5 59.6171 186.581 51.3478 187.663 42.9484ZM193.182 58.2172C198.789 64.609 208.753 66.347 217.15 64.2319C226.291 61.9291 233.503 55.2958 233.856 46.3711C234.08 40.677 232.26 34.8109 227.776 30.6698C222.542 25.8352 215.376 24.0935 208.069 24.4375C203.725 24.8385 199.33 26.1483 196.146 28.9888C188.426 35.8745 186.164 50.2143 193.182 58.2172ZM196.476 48.9479C194.842 40.4811 199.575 32.2586 209.316 31.1837C209.38 31.1766 209.442 31.1663 209.506 31.1598C209.581 31.1565 209.657 31.1565 209.731 31.1544C214.451 31.0019 219.455 32.0062 222.804 35.2608C226.014 38.3807 227.56 42.8637 226.716 47.1074C225.433 53.5622 218.982 57.8124 211.979 58.2682C205.13 58.7142 197.771 55.6572 196.476 48.9479ZM197.746 45.3635C197.757 46.9245 198.04 48.4954 198.628 49.9962C200.696 55.273 206.728 57.7967 212.647 57.1016C218.707 56.3897 224.419 52.5877 225.046 46.7276C225.982 37.9689 218.781 31.9021 209.345 32.2808C202.64 32.9509 198.385 38.2087 197.811 43.9408C197.764 44.4128 197.742 44.8871 197.746 45.3635ZM204.701 46.3722C204.238 42.575 206.26 39.4263 210.421 38.7844C210.528 38.7681 210.63 38.7459 210.739 38.7323C210.893 38.7139 211.018 38.7182 211.121 38.7388C215.257 38.8007 219.321 41.4247 218.39 45.6722C217.769 48.51 215.007 50.4482 211.874 50.6891C208.746 50.9295 205.095 49.5876 204.701 46.3722ZM212.036 49.5675C214.411 49.2631 216.603 47.7113 216.695 45.3808C216.83 42.0069 214.276 39.7665 210.577 39.8533C204.215 40.6168 205.333 50.4265 212.036 49.5675Z" fill="#A51361"/>
<path d="M93.3728 99.3697C92.7579 95.864 91.9934 92.3647 91.0756 88.897L90.2902 88.7212C87.4915 88.0988 83.7338 86.9881 81.185 86.7124C79.7842 87.0413 78.3577 87.2833 76.9312 87.5057C75.7271 87.6935 73.5803 87.6468 72.5277 88.2811C72.443 88.3316 72.3488 88.3674 72.2504 88.3918C72.2701 88.796 72.273 89.1954 72.2546 89.5888C72.3231 89.6224 72.3667 89.668 72.3673 89.7326C72.3822 93.7299 72.5927 97.7533 72.1418 101.738C71.7411 105.28 71.0982 109.122 67.8856 111.48C61.634 116.068 51.9993 111.157 45.2139 109.654C45.1644 111.115 47.4204 113.418 48.2911 113.902C54.6006 117.408 61.1367 120.129 68.6442 120.303C75.5405 120.464 82.4898 119.268 88.5745 116.239C88.6466 116.203 88.7194 116.178 88.7922 116.159C91.3022 110.924 92.6971 105.186 93.3728 99.3697Z" fill="white"/>
<path d="M63.76 91.4179C65.3392 91.1059 66.9195 90.7928 68.488 90.4385C68.8971 90.3463 70.2609 89.9279 70.5281 89.9767C70.6796 86.5627 69.2871 82.6663 68.2601 79.3944C68.024 79.4204 67.8003 79.3998 67.6513 79.3119C67.5892 79.2755 67.538 79.2283 67.5075 79.1665C67.5391 79.2311 67.5815 79.2788 67.6256 79.3157C67.8862 79.5327 68.2512 79.3428 67.4127 79.5121C66.9094 79.6141 66.4061 79.7178 65.9033 79.8247C64.4995 80.122 63.0969 80.4248 61.6936 80.7232C58.8705 81.3233 56.0426 81.9517 53.1866 82.4123C52.264 82.561 49.9359 83.1893 49.6454 81.8372C49.0228 78.9424 50.4815 75.6971 50.8107 72.8153C50.8709 72.2874 52.6099 71.9868 52.5378 72.6167C52.3642 74.1393 52.0249 75.6342 51.7351 77.1404C51.5096 78.313 50.8453 80.2598 51.3737 81.4156C51.772 82.287 55.4921 81.262 56.9085 80.9055C56.8828 80.0938 56.8172 79.275 56.7105 78.4524C56.4886 76.7362 56.0938 75.0091 55.5416 73.3091C53.8688 68.1625 50.738 63.291 46.5074 59.8401C44.3522 61.323 42.6018 63.0968 41.7502 65.4354C39.2563 72.282 35.5684 79.1355 34.2206 86.2751C33.6612 89.2404 34.0799 92.5986 37.6127 93.788C41.2362 95.0083 45.4286 94.5297 49.1522 93.9795C54.043 93.2562 58.917 92.374 63.76 91.4179Z" fill="white"/>
<path fill-rule="evenodd" clip-rule="evenodd" d="M193.182 58.2172C198.789 64.609 208.753 66.347 217.15 64.2319C226.291 61.9291 233.503 55.2958 233.856 46.3711C234.08 40.677 232.26 34.8109 227.776 30.6698C222.542 25.8352 215.376 24.0935 208.069 24.4375C203.725 24.8385 199.33 26.1483 196.146 28.9888C188.426 35.8745 186.164 50.2143 193.182 58.2172ZM209.316 31.1837C199.575 32.2586 194.842 40.4811 196.476 48.9479C197.771 55.6572 205.13 58.7142 211.979 58.2682C218.982 57.8124 225.433 53.5622 226.716 47.1074C227.56 42.8637 226.014 38.3807 222.804 35.2608C219.455 32.0062 214.451 31.0019 209.731 31.1544C209.657 31.1565 209.581 31.1565 209.506 31.1598C209.442 31.1663 209.38 31.1766 209.316 31.1837Z" fill="white"/>
<path d="M212.036 49.5675C214.411 49.2631 216.603 47.7113 216.695 45.3808C216.83 42.0069 214.276 39.7665 210.577 39.8533C204.215 40.6168 205.333 50.4265 212.036 49.5675Z" fill="white"/>
<path fill-rule="evenodd" clip-rule="evenodd" d="M70.4792 29.838C70.2752 29.8966 70.0731 29.9536 69.8781 30.0084C66.9977 30.8147 64.0594 31.3519 61.0818 31.7301C62.2477 34.5907 61.3281 37.3037 59.9553 40.0715C59.7125 40.5609 58.6439 40.6749 58.329 40.3363C58.125 40.3411 57.9527 40.301 57.8668 40.1892C57.0462 39.1176 55.6818 39.1664 54.8224 39.7584C54.5374 40.0628 54.3048 40.3601 54.1235 40.6445C53.9923 41.0227 54.0048 41.4519 54.2481 41.8995C54.6346 42.6092 55.3514 42.7438 56.1195 42.9174C57.0898 43.1366 57.8716 43.3738 58.3851 44.2213C59.8962 46.7156 60.1389 49.7699 60.4133 52.5725C62.2023 53.4233 64.5162 53.6474 66.5379 53.7863C67.0853 53.2171 67.6381 52.6512 68.1957 52.0896C67.3262 50.5763 66.3381 48.4178 68.1534 47.1872C69.8107 46.0634 71.8723 45.9305 73.7562 45.2908C78.7298 43.6016 75.9818 38.1284 73.2266 33.8956C73.0543 34.0019 72.8819 34.1067 72.7102 34.2108C72.4758 34.3524 72.1663 34.4442 71.8651 34.4843C73.4276 36.015 75.8244 38.1528 72.9636 39.6021C72.4871 39.8436 70.9181 39.7839 71.9313 39.2711C74.1206 38.1621 70.7398 35.5809 69.85 34.6596C69.4922 34.2884 71.1316 33.7382 71.4674 34.0855C71.4751 34.0936 71.4835 34.1018 71.4912 34.1094C71.9409 33.8375 72.3905 33.5624 72.7859 33.2266C71.8759 31.8657 71.0147 30.6774 70.4792 29.838ZM65.1955 37.2342C65.9009 37.2201 66.6118 37.0389 67.2451 36.76C67.5046 36.6455 67.9488 36.3308 67.6781 36.0329C67.4181 35.748 66.836 35.8229 66.5182 35.9629C66.1431 36.1278 65.8389 36.2038 65.3875 36.2125C65.0368 36.2195 64.4876 36.4469 64.4214 36.8012C64.348 37.1924 64.9098 37.2396 65.1955 37.2342ZM67.6232 42.4551H69.0145C69.2614 42.4551 69.7165 42.5745 69.4696 42.8724C69.2262 43.1665 68.7092 43.2897 68.3257 43.2897H66.9344C66.6881 43.2897 66.2325 43.1703 66.4794 42.8724C66.7227 42.5783 67.2398 42.4551 67.6232 42.4551ZM55.4754 41.861C54.7497 41.2777 56.2859 40.5631 56.8184 40.9912C57.0403 41.1697 57.3116 41.2695 57.537 41.4508C57.8644 41.715 57.3432 42.1176 57.1148 42.2142C56.7278 42.3781 56.2757 42.3868 55.9489 42.1236C55.8147 42.0156 55.6156 41.9738 55.4754 41.861Z" fill="white"/>
<path d="M70.6384 52.4596C70.2311 52.4954 69.8214 52.5226 69.4105 52.5432C68.3418 53.7423 67.501 54.8009 65.6135 54.6268C64.747 54.547 63.8119 54.471 62.8756 54.3457C65.2688 56.4483 66.7394 60.0626 67.721 62.4147C69.4851 66.6421 70.9336 71.0774 71.7566 75.5528C72.0667 75.3574 72.3875 75.1724 72.7322 75.0123C74.4104 74.2331 76.277 73.8788 77.9641 73.0915C79.446 70.6883 80.4414 67.8809 81.6305 65.3741C81.6591 65.3144 81.6871 65.2542 81.7158 65.1939C80.73 63.4696 79.6464 61.7924 78.4537 60.1949C78.0183 59.6117 77.5705 59.0381 77.1029 58.4792C75.2357 56.247 73.1085 54.222 70.6378 52.5383C70.6098 52.5198 70.6134 52.4922 70.6384 52.4596Z" fill="white"/>
<path d="M82.6002 66.8006C81.6627 68.8864 80.7998 71.1148 79.6035 73.0747C79.7466 73.0459 79.8903 73.028 80.0233 73.0307C82.0342 73.0731 83.3993 74.1881 83.5669 75.8452C84.4668 75.448 85.3697 75.0552 86.2731 74.664C86.195 74.4773 86.124 74.2885 86.0447 74.1018C85.0154 71.6829 83.8871 69.213 82.6002 66.8006Z" fill="white"/>
<path d="M72.152 87.2203C76.0575 86.0277 88.7111 85.7444 83.9825 81.205C83.911 81.1367 83.8728 81.0667 83.8579 80.9983C83.6712 80.9522 83.5579 80.8507 83.6092 80.6771C84.0618 79.1372 83.6557 78.0368 82.1648 77.2652C82.0145 77.2321 81.9006 77.1626 81.8476 77.0558C81.8279 77.0161 81.8183 76.9706 81.8183 76.9196C81.8183 76.9022 81.8142 76.8865 81.8172 76.8675C82.0205 75.3417 81.1618 74.0655 79.3834 74.028C79.195 74.0237 78.9856 73.9445 78.8884 73.8143C78.5777 73.9217 78.1829 73.9635 77.9211 73.9114C76.7779 74.3612 75.6085 74.7155 74.4331 75.1252C72.44 75.8197 71.1596 77.2533 69.9299 78.7839C70.7362 81.3722 71.7995 84.3706 72.152 87.2203Z" fill="white"/>
<path d="M83.5174 86.0543C85.9535 86.4748 88.4027 87.204 90.7625 87.7363C89.6277 83.6185 88.2626 79.5555 86.6482 75.588L86.5649 75.6241C85.7142 75.993 84.8631 76.3621 84.0159 76.7367C84.5532 77.0552 85.0369 77.454 85.3005 77.9939C85.6762 78.7633 85.5891 79.5881 85.3673 80.383C85.4394 80.4139 85.5068 80.4514 85.5611 80.504C88.1481 82.9869 86.4646 85.0054 83.5174 86.0543Z" fill="white"/>
<path d="M119.163 64.5922C123.444 64.2856 127.693 63.5097 131.864 62.6117C135.176 61.8987 139.263 61.3719 142.233 59.7636C142.24 59.7598 142.247 59.7576 142.255 59.7538C143.295 56.3381 141.51 50.9631 138.355 48.784C138.327 48.9148 138.194 49.0608 137.901 49.2002C127.976 53.9192 116.408 52.6691 105.717 51.3847C100.802 50.7938 95.8554 49.4726 90.8824 49.2718L90.2721 50.5613C89.0962 53.0456 87.9204 55.5297 86.7455 58.0142C87.1462 58.5264 87.5344 59.0473 87.9072 59.5791C88.7725 60.164 89.4988 60.8982 90.1149 61.7235C96.054 63.8032 102.824 64.6399 109.442 64.7989C110.615 64.297 111.789 63.7973 112.961 63.2948C114.396 62.6801 116.916 61.7104 118.052 61.1299C118.131 61.0615 118.243 60.9942 118.404 60.9323C118.581 60.8645 118.755 60.8146 118.948 60.7907C119.254 60.7522 119.53 60.8624 119.645 61.0273C119.688 60.6328 119.486 60.3138 118.744 60.2129C116.733 59.9399 114.601 60.3523 112.706 59.5205C112.007 59.2139 113.598 58.5628 114.086 58.7777C115.425 59.3653 116.956 59.2107 118.4 59.2687C119.2 59.3013 120.558 59.272 121.136 59.903C121.738 60.5597 121.275 61.3178 120.873 61.9767L120.847 62.0186C120.315 62.8928 119.714 63.7289 119.163 64.5922Z" fill="white"/>
<path d="M80.5475 50.6012C82.1773 52.713 84.007 54.6848 85.7161 56.7386C86.8963 54.2415 88.0783 51.745 89.2597 49.2485C88.0276 49.2648 86.7938 49.3603 85.5587 49.5675C83.871 49.8508 82.206 50.2198 80.5475 50.6012Z" fill="white"/>
<path d="M113.682 64.0697C113.091 64.3231 112.499 64.5748 111.908 64.8282C113.8 64.8282 115.668 64.7794 117.49 64.6926C118.004 63.8874 118.57 63.1098 119.067 62.2959L119.085 62.2666C119.232 62.0258 119.393 61.7613 119.506 61.5043C119.472 61.5303 119.446 61.5569 119.403 61.5818C117.641 62.5857 115.557 63.2666 113.682 64.0697Z" fill="white"/>
<path d="M150.956 44.4367C150.853 44.4606 150.748 44.4725 150.65 44.4649C149.864 44.4069 147.214 44.765 145.37 45.4742C145.325 45.5431 145.279 45.6109 145.234 45.6766C145.048 45.9484 144.568 46.0873 144.158 46.0851C143.437 46.5935 143.207 47.2127 143.976 47.9311C144.946 48.8372 146.25 48.8698 147.538 48.6164C148.331 48.287 149.185 48.0217 150.059 47.8285C150.702 47.5333 151.29 47.1562 151.717 46.6619C152.539 45.7107 151.846 44.9538 150.956 44.4367Z" fill="white"/>
<path d="M150.487 48.7412C149.69 49.0922 148.842 49.3586 147.987 49.5301C147.882 49.5751 147.774 49.6186 147.674 49.6658C147.047 49.9615 145.964 50.5415 146.25 51.3413C146.517 52.0885 147.254 52.6387 148.098 52.7689C148.649 52.8541 149.384 52.8004 150.162 52.6452C150.702 52.4591 151.258 52.3012 151.827 52.1748C154.083 51.3429 155.856 49.8345 153.637 48.5122C153.535 48.535 153.432 48.5442 153.334 48.535C152.437 48.4547 151.45 48.5426 150.487 48.7412Z" fill="white"/>
<path d="M155.426 52.8525C155.323 52.8753 155.22 52.8845 155.123 52.8753C154.363 52.8074 153.539 52.8639 152.718 53.0022C151.876 53.3408 150.975 53.6002 150.069 53.7434C149.859 53.827 149.656 53.9149 149.463 54.006C148.836 54.3018 147.753 54.8818 148.039 55.6816C148.306 56.4288 149.042 56.9789 149.886 57.1092C152.443 57.5053 158.937 54.9453 155.426 52.8525Z" fill="white"/>
<path d="M147.636 53.8123C147.445 53.7895 147.255 53.7619 147.069 53.7239C144.758 53.2529 143.742 51.1834 145.443 49.764C144.75 49.7504 144.052 49.6555 143.445 49.3679C142.48 48.911 141.439 47.828 141.893 46.7791C142.25 45.9533 143.056 45.3705 143.948 44.9419C144.357 44.288 144.781 43.4074 144.321 42.8675C143.98 42.4676 143.328 42.5425 142.844 42.7259C140.482 43.6168 139.67 45.9337 140.202 48.0873C140.225 48.1807 140.217 48.268 140.187 48.3494C143.097 50.6435 144.828 55.3294 144.175 58.7972C144.186 58.7956 144.197 58.7929 144.208 58.7912L144.22 58.7895C145.523 58.6024 146.781 58.4218 147.895 57.7397C146.168 56.9062 145.712 55.0196 147.636 53.8123Z" fill="white"/>
</g>
<defs>
<clipPath id="clip0_455_1254">
<rect width="243" height="224" fill="white"/>
</clipPath>
</defs>
</svg>
