<svg width="313" height="175" viewBox="0 0 313 175" fill="none" xmlns="http://www.w3.org/2000/svg">
<g clip-path="url(#clip0_806_1600)">
<mask id="mask0_806_1600" style="mask-type:luminance" maskUnits="userSpaceOnUse" x="0" y="0" width="313" height="175">
<path d="M313 0H0V175H313V0Z" fill="white"/>
</mask>
<g mask="url(#mask0_806_1600)">
<path d="M155.078 97.6792C156.981 96.9123 161.516 94.958 165.758 92.2011C162.49 94.596 158.924 96.5592 155.107 97.7323C155.098 97.715 155.087 97.6971 155.078 97.6792ZM185.478 71.0512C179.362 82.7261 168.285 94.2722 155.373 98.2147C155.812 98.9817 156.336 99.7313 156.961 100.458C157.468 101.047 157.997 101.597 158.536 102.129C171.652 100.68 180.656 86.7981 185.66 75.8346C188.862 68.8185 194.392 54.4337 185.704 49.4333C185.482 49.3796 185.261 49.3265 185.039 49.2806C191.417 53.5738 189.016 64.2951 185.478 71.0512ZM133.573 45.0643C133.121 45.2373 132.69 45.4037 132.286 45.5611C129.702 46.5666 127.277 48.2453 125.266 50.0731C126.055 49.5388 126.838 49.0379 127.567 48.5662C129.414 47.3716 131.434 46.1855 133.573 45.0643ZM155.752 56.7327C156.172 56.4876 156.622 56.2431 157.093 55.9998C162.882 52.8695 169.44 49.6903 176.13 48.5214C169.401 38.7596 158.517 37.6856 147.954 40.3293C147.343 40.4879 146.734 40.6525 146.127 40.823C139.747 42.6783 133.582 45.7961 128.636 49.0641C126.793 50.2819 119.547 54.5595 120.472 57.338C120.905 58.6404 121.761 59.1378 122.838 59.1282C123.171 59.0978 123.508 59.0513 123.84 58.9953C124.255 58.8957 124.69 58.746 125.136 58.5563C125.653 58.3351 126.186 58.0614 126.72 57.7542C129.387 56.2198 132.092 53.8505 133.163 53.0645C139.842 48.163 147.575 42.5537 156.179 42.2943C157.344 42.2591 156.131 43.2407 155.503 43.2598C148.05 43.484 141.192 48.5548 135.361 52.7526C132.678 54.6842 129.926 57.4119 126.803 58.9159C120.587 66.8564 111.51 73.216 107.863 82.9307C105.962 87.9967 106.414 93.2954 110.664 97.0435C113.374 99.4331 117.01 101.988 120.773 102.076C121.56 102.093 122.302 102.009 123.008 101.854C124.078 101.547 124.732 101.221 124.732 101.221L125.714 100.485C127.501 98.3948 129.314 96.3267 131.174 94.3032C130.538 90.4591 130.684 86.5225 131.846 82.7339C135.529 70.7286 145.134 62.5979 155.752 56.7327ZM124.046 59.8469C122.518 61.661 120.488 64.0893 118.353 66.6984C120.526 64.4245 122.696 62.1464 124.667 59.7103C124.592 59.73 124.517 59.755 124.441 59.7729C124.318 59.8015 124.186 59.826 124.046 59.8469ZM166.615 52.0996C170.224 50.8538 173.634 49.8489 175.675 49.2734C172.571 49.8334 169.521 50.8645 166.615 52.0996ZM173.166 132.264C173.156 132.207 173.16 132.152 173.169 132.1C171.51 129.031 169.727 126.187 166.583 124.429C163.939 122.95 161.08 122.062 158.16 121.311C156.168 120.799 154.22 120.273 152.333 119.638C151.843 120.12 151.147 120.573 150.773 120.907C149.181 122.328 147.583 123.741 145.986 125.156C145.182 125.867 137.818 132.13 137.92 132.298C138.013 132.452 137.696 132.673 137.306 132.812L136.986 133.114C140.866 138.982 145.252 144.534 149.64 150.026C152.351 153.42 155.042 157.735 158.431 160.51C158.437 160.515 158.439 160.521 158.445 160.525C158.594 160.408 159.164 160.281 159.458 160.123C160.365 159.635 161.26 159.127 162.149 158.608C163.571 157.777 164.986 156.936 166.413 156.115C168.02 155.19 169.586 154.189 171.158 153.196C171.127 153.188 171.097 153.185 171.067 153.176C168.492 152.359 169.334 148.784 170.053 146.936C171.956 142.044 174.049 137.703 173.166 132.264ZM158.525 162.049L158.949 161.758C158.755 161.807 158.564 161.845 158.38 161.86L158.525 162.049ZM158.526 160.687C158.563 160.69 158.6 160.694 158.634 160.702C158.591 160.692 158.556 160.681 158.526 160.67C158.527 160.677 158.526 160.681 158.526 160.687ZM212.435 113.623C211.955 113.617 211.895 113.445 212.033 113.248C205.518 107.14 198.89 101.149 192.39 95.0236C189.322 96.6314 187.008 99.3007 184.132 101.259C182.094 102.646 180.03 103.997 177.951 105.322C176.319 106.361 174.423 107.87 172.467 108.982L171.644 109.569L178.095 112.257C178.894 112.502 179.695 112.745 180.499 112.985C184.17 114.083 188.007 116.166 191.03 118.985C191.096 119 191.157 119.022 191.207 119.054C194.121 120.98 196.545 123.59 198.526 126.455C200.216 128.899 202.742 132.322 203.171 135.354C203.257 135.958 203.229 136.527 203.103 137.051C203.746 136.713 204.387 136.37 205.029 136.028C204.971 135.685 205.341 135.232 205.921 135.209C206.144 135.2 206.364 135.206 206.586 135.2C209.305 133.735 212.009 132.243 214.71 130.746C215.786 130.15 216.885 129.569 217.985 128.986L224.398 125.262C220.496 121.294 216.491 117.432 212.435 113.623ZM202.692 138.079C202.564 138.298 202.414 138.503 202.242 138.693C202.254 138.883 202.258 138.99 202.258 138.99L206.434 136.403C206.242 136.407 206.051 136.403 205.858 136.41C204.805 136.972 203.751 137.529 202.692 138.079Z" fill="#F6B00E"/>
<path d="M209.021 49.7219C208.622 49.1172 208.353 48.5429 208.338 47.81C208.329 47.3788 208.948 47.1265 209.288 47.1021C209.682 47.0741 210.082 47.25 210.09 47.6853C210.1 48.1678 210.343 48.5632 210.6 48.9544C211.106 49.7183 209.462 50.3898 209.021 49.7219ZM302.761 161.255C298.595 166.212 293.558 171.681 287.373 173.982C279.684 176.842 273.573 172.765 268.248 167.328C265.78 169.522 262.941 171.345 259.583 172.638C259.633 173.263 258.275 173.712 257.92 173.155C257.914 173.147 257.908 173.138 257.903 173.128C257.395 173.112 257.008 172.869 257.564 172.604C255.704 169.715 253.674 166.779 251.479 163.888C248.983 160.933 246.01 157.443 243.005 153.993C233.063 143.81 220.768 136.078 206.435 136.403C206.243 136.407 206.052 136.403 205.859 136.41C204.806 136.971 203.752 137.529 202.693 138.079C202.565 138.298 202.415 138.504 202.243 138.693C201.707 139.287 200.965 139.736 200.042 139.984C199.398 140.156 198.83 140.129 198.318 139.968C198.101 139.955 197.939 139.91 197.941 139.821C197.69 139.703 197.455 139.55 197.232 139.374C196.934 141.787 196.26 144.085 194.949 146.08C193.833 147.778 192.162 148.65 191.244 148.011C190.827 149.038 190.282 149.983 189.521 150.709C188.726 151.467 187.544 152.256 186.371 152.154C185.417 152.072 184.935 151.521 184.699 150.798C184.047 151.989 183.156 152.994 181.881 153.566C178.473 155.095 177.41 153.528 177.36 150.909C172.762 153.272 168.398 156.333 163.941 158.937C162.728 159.646 160.702 161.319 158.951 161.758C158.758 161.807 158.567 161.845 158.382 161.86C158.118 161.883 157.863 161.868 157.622 161.807C157.252 161.714 157.191 161.523 157.294 161.325C157.109 161.327 156.943 161.293 156.833 161.203C153.266 158.282 150.423 153.721 147.582 150.141C146.576 148.875 145.572 147.607 144.572 146.332C139.257 152.533 132.852 157.89 125.928 162.303C118.229 168.064 108.907 173.352 99.5995 174.516C84.8014 176.366 75.4929 172.884 70.9099 170.34C67.7611 168.811 64.7847 166.839 62.0229 164.348C57.1877 159.99 52.5086 155.553 47.4855 151.396C42.6508 147.395 37.9044 143.321 33.7407 138.609C33.7228 138.589 33.7037 138.57 33.6858 138.549C33.6613 138.521 33.647 138.494 33.6321 138.466C33.594 138.393 33.5868 138.319 33.6071 138.248C33.622 138.15 33.6673 138.041 33.7568 137.922C35.708 135.319 37.9867 132.895 40.4771 130.694C36.2066 131.209 32.245 134.6 28.9954 137.14C25.2104 140.098 21.5571 143.286 17.5203 145.905C12.044 149.458 4.89661 152.463 -0.317945 146.854C-0.646694 146.5 1.00814 145.708 1.44836 145.96C1.46812 145.971 1.48543 145.984 1.5 146C8.3939 153.416 17.6784 144.943 23.4893 140.304C28.6335 136.196 34.529 130.473 41.4438 129.862C44.3964 127.373 47.6137 125.191 50.9188 123.388C53.557 121.948 56.4431 120.612 59.4269 119.773C63.0474 118.755 66.8118 118.468 70.4525 119.615C70.8401 119.476 71.2903 119.421 71.4716 119.591C75.8519 123.695 79.6489 128.371 83.9158 132.588C88.0892 136.714 92.9197 141.194 98.7174 142.81C100.217 143.228 101.6 143.385 102.887 143.338C105.548 142.79 107.775 141.831 109.405 140.946C114.789 136.884 117.971 128.585 121.554 123.113C121.579 123.075 121.619 123.041 121.666 123.007L121.684 122.961C118.812 121.161 116.063 119.147 113.416 117.166C113.236 117.03 113.177 116.897 113.288 116.685C115.487 112.469 118.831 108.726 121.845 105.085C122.613 104.157 123.385 103.233 124.161 102.311C122.458 102.893 120.616 103.08 118.68 102.713C112.234 101.492 104.687 96.0267 104.97 88.7786C105.217 82.4876 109.254 76.9605 113.182 72.331C114.828 70.3917 116.59 68.5435 118.354 66.6984C120.528 64.4245 122.698 62.1464 124.669 59.7103C124.593 59.73 124.519 59.755 124.443 59.7729C124.32 59.8015 124.187 59.826 124.048 59.8463C121.781 60.1772 117.488 59.3602 118.981 56.3009C120.214 53.7753 122.779 51.7567 125.267 50.0737C126.057 49.5394 126.839 49.0385 127.569 48.5667C129.416 47.3716 131.435 46.1861 133.575 45.0649C147.975 37.5192 167.865 32.9147 178.009 48.2489C178.176 48.2298 178.344 48.2107 178.511 48.194C178.469 48.1893 178.431 48.1815 178.389 48.1767C177.948 48.1284 179.408 47.473 179.812 47.5177C180.814 47.6275 181.709 47.8255 182.524 48.0855C182.986 48.1076 183.447 48.138 183.908 48.1857C184.037 47.7718 184.767 47.3615 185.263 47.5559C186.156 47.9066 186.934 48.333 187.628 48.8124C188.075 48.2316 188.561 47.6615 189.08 47.1236C186.28 47.0311 182.861 45.5635 183.006 42.5382C181.599 42.9109 180.088 42.8316 179.013 41.8345C177.238 40.1873 178.137 38.2193 179.749 37.001C178.906 36.729 178.125 36.1905 177.489 35.3717C176.026 33.486 175.373 30.7953 176.917 28.9877C174.817 28.7772 172.75 28.0938 172.117 25.8258C171.455 23.4589 171.854 20.3829 174.195 19.1961C174.265 19.0548 174.315 18.9236 174.351 18.8037C174.023 18.9468 173.633 18.9933 173.368 18.8377C170.004 16.8494 171.817 12.7477 174.428 10.8954C177.211 8.91967 180.731 8.25771 184.075 8.75269C184.142 8.74017 184.205 8.72705 184.264 8.71572C184.482 8.015 184.97 7.28564 185.504 6.66722C185.774 6.23367 186.178 5.79833 186.786 5.43992C188.644 4.02536 191.118 3.21849 193.128 4.17326C194.549 1.18848 199.624 -0.229058 203.394 0.30349C203.437 0.31005 203.481 0.313624 203.524 0.319587C203.549 0.322569 203.574 0.327343 203.6 0.330325C203.778 0.359546 203.952 0.395922 204.124 0.434089C206.34 0.924891 207.927 2.17367 207.688 4.27643C207.673 4.40524 207.528 4.52392 207.332 4.61814C207.344 4.64259 207.355 4.66465 207.364 4.68314C207.392 4.66107 207.417 4.63901 207.451 4.61635C207.856 4.34799 208.326 4.11123 208.835 3.9031C210.453 3.00678 213.226 1.91485 215.855 2.98233C220.217 3.39263 223.919 5.65342 221.97 10.4004C222.323 10.3724 222.69 10.3503 223.067 10.3378C223.501 10.2722 224.059 10.2478 224.689 10.3521C227.077 10.4893 229.485 11.2055 230.553 13.4633C232.069 16.6717 230.934 20.3381 227.723 21.7694C228.919 23.1595 230.39 25.3475 229.31 27.1587C228.411 28.6669 226.817 29.3521 225.142 29.6503C224.436 29.7761 223.678 29.8334 222.904 29.819C222.345 30.7416 221.782 31.6558 221.327 32.6243C223.656 31.5598 225.426 32.703 225.275 35.3622C225.159 37.4029 224.471 40.1831 222.998 41.8971C224.297 42.89 226.597 44.663 224.402 46.037C222.609 47.1599 220.518 47.092 218.565 47.6716C218.843 47.6597 219.048 47.6961 219.012 47.7849C217.538 51.4973 216.414 57.1967 211.971 58.4705C209.781 59.0984 207.756 58.7025 205.72 57.6994C202.919 56.32 200.779 56.5729 198.038 58.2254C196.939 58.8873 195.889 59.603 194.868 60.3621C194.868 60.4003 194.865 60.439 194.865 60.4784C194.916 60.4772 194.967 60.4802 195.017 60.4885C196.468 60.7283 197.564 61.8298 198.616 62.7893C200.673 64.6654 202.67 66.5517 205.106 67.9341C210.601 71.0524 216.256 73.0443 222.617 73.185C227.806 73.2989 232.987 72.4598 238.034 71.3047C241.926 70.4137 245.914 69.4286 249.572 67.7659C249.692 67.5685 250.452 67.2244 250.814 67.1594C250.938 67.0962 251.067 67.0395 251.19 66.9739C251.628 66.742 252.097 66.8547 252.292 67.092C258.849 66.4879 262.134 61.1117 267.744 58.1961C268.86 57.6165 269.986 57.1943 271.121 56.8776C273.773 52.7025 275.143 47.4068 278.553 43.7679C281.814 40.2893 286.096 39.9756 290.541 41.0699C290.751 41.1218 290.851 41.2035 290.881 41.2983C298.401 43.4536 294.716 51.7418 291.456 56.9199C292.424 57.3994 293.097 58.6541 293.567 59.9041C295.356 64.6625 294.678 71.1091 288.91 71.4246C288.148 72.9083 286.709 74.0909 284.93 74.5775C284.47 76.2151 283.471 77.7901 281.944 79.0556C278.396 81.9962 272.942 81.3688 268.7 81.1577C263.82 80.915 255.282 79.4652 252.359 84.5271C252.297 84.6339 252.156 84.7263 251.983 84.7979C251.788 85.4879 251.343 85.9924 250.332 86.346C245.566 88.0122 240.883 89.6821 235.907 90.638C227.088 92.3329 217.272 93.8106 208.468 91.4049C202.039 89.6481 195.258 86.649 190.28 82.0141C189.528 83.9552 188.711 85.8952 187.835 87.8495C185.65 92.73 183.53 99.1361 179.595 103.275C179.819 103.129 180.046 102.984 180.27 102.837C184.346 100.142 187.834 96.2348 192.331 94.2543C192.462 94.1971 192.594 94.1434 192.727 94.0891C192.95 93.9985 193.173 93.9061 193.402 93.825C194.091 93.5799 195.178 93.8905 194.022 94.3026C193.989 94.3146 193.958 94.3283 193.925 94.3402C200.463 100.505 207.134 106.531 213.689 112.677C226.399 112.777 239.119 114.668 250.983 119.349C259.29 121.992 268.259 127.814 274.777 132.638C278.109 135.045 281.34 137.602 284.485 140.269C284.925 140.209 285.319 140.26 285.217 140.448C285.162 140.548 285.109 140.65 285.054 140.751C285.09 140.781 285.126 140.811 285.162 140.841C285.397 141.042 285.082 141.315 284.662 141.481C283.219 144.193 281.842 146.999 280.42 149.781C280.469 149.768 280.516 149.76 280.555 149.757C290.337 149.091 299.719 145.759 306.833 138.845C307.113 138.573 308.516 138.392 308.454 138.653C320.752 139.206 305.902 157.518 302.761 161.255ZM287.248 67.2178C286.75 66.2243 285.924 65.2982 284.854 64.8974C283.264 64.3017 282.88 65.6142 282.835 66.9966C282.832 67.0723 282.8 67.1421 282.748 67.2065C284.759 68.9556 285.517 71.3816 285.116 73.7653C287.56 72.8409 288.415 69.5419 287.248 67.2178ZM290.668 58.1246C290.493 58.384 290.321 58.6339 290.157 58.867C290.027 59.0507 289.82 59.1587 289.596 59.2052C289.115 61.0569 288.993 63.0058 289.096 64.9087C289.11 65.1491 288.566 65.3423 288.085 65.4216C288.133 65.4771 288.187 65.526 288.233 65.5832C289.582 67.2781 289.774 69.1602 289.188 70.7817C293.797 70.9409 293.012 63.4912 291.973 60.7295C291.641 59.8469 291.259 58.87 290.668 58.1246ZM273.081 56.4321C276.268 55.865 279.543 55.958 282.932 55.8161C282.936 55.8159 282.94 55.8157 282.944 55.8155C283.067 55.81 283.399 55.7951 283.43 55.964C284.953 63.9695 277.108 64.0518 271.232 64.0321C271.274 64.1663 271.237 64.3309 271.07 64.5235C267.856 68.2299 271.456 71.5253 275.479 71.6339C275.698 71.6398 275.866 71.6917 275.987 71.771C275.185 70.0959 274.721 68.085 276.109 66.7402C277.264 65.6208 279.141 65.1467 280.66 65.8546C280.885 65.9595 281.087 66.0806 281.294 66.1969C281.638 64.9893 282.462 64.0852 283.921 63.8908C285.119 63.7309 286.358 64.0363 287.337 64.7364C287.241 62.4667 287.257 58.3917 289.142 57.1996C289.301 57.0988 289.454 57.0183 289.604 56.9509C292.459 52.5808 296.808 44.2909 290.03 42.5489C289.695 42.4624 289.534 42.2901 289.492 42.0969C284.311 40.8236 280.621 42.2835 278.03 46.9315C276.288 50.0564 274.944 53.377 273.081 56.4321ZM252.126 82.6045C252.126 82.6695 252.126 82.7327 252.127 82.7959C256.277 78.8957 264.391 79.9847 269.383 80.2256C273.801 80.4397 279.81 81.2877 282.477 76.7584C282.85 76.1268 283.144 75.4362 283.341 74.723C283.212 74.6353 283.275 74.4779 283.439 74.33C283.875 72.3757 283.564 70.2903 282.061 68.7517C281.097 67.7659 277.142 64.5879 277.027 68.3384C276.974 70.0994 277.636 71.412 278.6 72.8612C278.973 73.4206 277.294 73.9764 276.992 73.5225C276.747 73.1546 276.482 72.7216 276.231 72.2535C276.213 72.6059 275.882 72.9751 275.343 72.9608C273.038 72.8988 270.269 72.2326 268.845 70.2265C267.327 68.0873 267.994 65.8349 269.613 63.9695C269.775 63.7822 270.037 63.6838 270.306 63.6588C270.567 63.4656 271.049 63.2705 271.304 63.2711C274.428 63.2807 281.217 64.2182 281.871 59.8773C281.941 59.4133 282.358 56.5896 281.214 56.617C279.964 56.6474 278.716 56.6438 277.467 56.6659C275.872 56.6939 274.255 56.7697 272.695 57.0631C272.678 57.0887 272.663 57.1155 272.646 57.1418C272.397 57.527 271.416 57.6827 271.067 57.465C270.004 57.796 268.982 58.2617 268.029 58.9314C262.697 62.6784 258.5 66.9727 252.109 67.7659C252.082 67.7856 252.049 67.8047 252.018 67.8243C251.701 72.758 252.094 77.6702 252.126 82.6045ZM223.683 28.4641C223.917 28.4576 224.145 28.4415 224.369 28.4188C224.13 28.4295 223.901 28.4385 223.693 28.4444C223.69 28.451 223.687 28.4576 223.683 28.4641ZM174.009 17.2901L173.289 15.8511C173.342 16.3652 173.566 16.8554 174.009 17.2901ZM54.5011 122.965C53.0114 123.68 51.5843 124.474 50.2562 125.283C49.5257 125.728 48.8011 126.19 48.0837 126.665C48.3186 126.531 48.5548 126.398 48.7957 126.267C51.3768 124.87 53.1682 123.794 54.5011 122.965ZM68.2078 120.488C66.4664 120.121 64.6887 120.095 62.9151 120.316C64.6666 120.343 66.5749 120.414 68.2078 120.488ZM96.7 143.41C94.9043 142.821 93.1779 141.952 91.5385 140.927C93.1594 142.012 94.918 142.928 96.7 143.41ZM193.116 61.6723C192.771 61.8065 192.131 61.8995 191.842 61.8727C191.152 67.0079 189.037 72.3465 187.315 76.0416C182.015 87.4123 173.037 100.993 159.714 103.23C162.772 105.925 166.257 107.854 169.964 109.401C171.111 108.86 173.072 107.438 174.131 106.776C174.62 106.47 175.107 106.158 175.595 105.849C175.211 105.848 174.967 105.762 175.345 105.533C181.252 101.934 183.65 93.4576 186.399 87.5137C187.415 85.3179 188.342 83.1269 189.163 80.9221C189.153 80.9108 189.141 80.9007 189.131 80.8894C188.941 80.6908 189.103 80.4671 189.388 80.3019C191.556 74.3246 192.925 68.2334 193.116 61.6723ZM194.828 61.7588C194.565 68.339 193.087 74.3837 190.898 80.3693C195.92 85.5362 203.531 89.143 210.465 90.6863C218.88 92.5595 228.187 91.3357 236.569 89.5723C240.931 88.6545 245.058 87.2173 249.254 85.7503C250.326 85.3756 250.329 85.2794 250.37 84.105C250.371 84.0961 250.371 84.0871 250.371 84.0781C250.424 82.5938 250.369 81.1089 250.314 79.625C250.311 79.5308 250.307 79.4366 250.304 79.3424C250.173 75.7947 250.062 72.2499 250.251 68.7046C246.224 70.5473 241.776 71.6488 237.488 72.5564C233.019 73.5023 228.397 74.4004 223.811 74.3682C218.429 74.3306 213.227 73.5339 208.313 71.2403C205.437 69.8985 202.641 68.4112 200.194 66.3764C198.736 65.1634 196.774 62.4148 194.828 61.7588ZM219.699 38.7089C219.547 39.5337 219.298 43.4989 221.127 41.7426C222.409 40.5117 223.121 38.3994 223.387 36.6867C223.576 35.4755 223.86 32.8068 221.929 33.7705C221.867 33.8015 221.804 33.8242 221.741 33.8421C220.576 34.9537 219.971 37.2347 219.699 38.7089ZM219.084 27.4587C220.026 27.962 221.112 28.2649 222.192 28.3926C222.196 28.3848 222.201 28.377 222.205 28.3693L219.084 27.4587ZM206.519 33.2708C206.776 34.9012 212.1 35.3014 213.293 35.4958C214.986 35.7719 216.843 35.9049 218.516 36.4279C218.671 35.9764 218.853 35.5369 219.058 35.1177C218.95 35.0962 218.885 35.0545 218.9 34.9865C219.343 33.0215 220.453 31.4012 221.459 29.7087C219.182 29.398 216.953 28.4331 215.652 26.6649C214.624 27.5451 213.357 28.1051 212.102 28.1009C212.794 30.9289 209.513 33.0418 206.519 33.2708ZM196.795 28.2655C196.796 28.2816 196.802 28.2953 196.803 28.3109C197.41 28.1761 198 28.1021 198.568 28.0908C198.344 23.4786 198.233 18.8347 199.282 14.3072C200.277 10.0122 202.724 6.51158 205.943 3.69259C205.829 3.07476 205.508 2.56308 205.034 2.16114C201.984 4.77975 199.612 7.88022 198.174 11.781C196.26 16.9699 196.528 22.844 196.795 28.2655ZM201.129 29.8304C200.967 29.9562 200.744 30.0647 200.515 30.1291C203.863 34.7467 204.523 43.8907 199.47 46.7699C201.114 46.4914 202.622 45.5361 203.59 43.7178C205.664 39.8206 205.223 32.0619 201.129 29.8304ZM190.976 40.4068L191.835 43.0683C193.112 45.1979 195.445 46.6047 197.778 46.8266C197.799 46.8218 197.82 46.8146 197.84 46.8111C201.346 46.0847 201.471 40.3579 201.141 37.6951C200.792 34.8779 200.027 31.6648 197.925 29.6085C193.376 29.2346 190.471 35.8428 190.976 40.4068ZM188.634 49.6014C191.84 52.4902 192.464 56.9641 191.876 61.6353C192.28 61.3056 192.702 60.9656 193.143 60.6209C193.143 60.6144 193.144 60.6084 193.144 60.6024C193.146 60.3538 193.492 60.1629 193.874 60.0598C197.154 57.5885 201.242 55.1982 205.188 56.1858C206.717 56.5681 207.97 57.6356 209.532 57.9671C211.878 58.4657 213.347 57.0977 214.366 55.2418C215.611 52.972 216.359 50.5055 217.31 48.1082C217.353 48.0002 217.494 47.9114 217.677 47.8416C217.164 47.835 216.808 47.6263 217.659 47.34C219.241 46.8075 220.988 46.8325 222.54 46.2308C224.669 45.4043 223.09 43.8621 221.865 42.8799C219.765 44.1817 217.629 43.0415 217.748 40.4616C217.786 39.6172 217.919 38.6535 218.152 37.685C218.127 37.6778 218.1 37.6725 218.077 37.6629C215.494 36.5424 212.234 36.6068 209.498 36.0265C208.85 35.8894 207.503 35.6985 206.411 35.268C206.415 35.293 206.422 35.3163 206.426 35.3413C207.113 39.4639 206.173 45.5289 201.633 47.2142C198.214 48.4833 194.526 47.897 192.021 45.9034C190.725 46.9262 189.561 48.268 188.634 49.6014ZM185.04 49.2806C191.417 53.5738 189.016 64.2957 185.477 71.0512C179.362 82.7262 168.284 94.2722 155.373 98.2148C155.812 98.9817 156.336 99.7313 156.961 100.458C157.468 101.047 157.997 101.597 158.536 102.129C171.651 100.68 180.656 86.7981 185.66 75.8346C188.862 68.8185 194.392 54.4337 185.703 49.4333C185.483 49.3796 185.262 49.3265 185.04 49.2806ZM176.557 49.1303C176.262 49.1744 175.968 49.2198 175.674 49.2734C172.57 49.8334 169.521 50.8645 166.615 52.0996C166.274 52.2445 165.934 52.39 165.597 52.5403C160.48 54.8196 155.252 57.3875 150.631 60.572C141.136 67.1165 131.889 78.0805 132.521 90.3404C132.58 91.4795 132.712 92.6239 132.903 93.7659C133.079 93.7832 133.185 93.8339 133.139 93.9222C133.087 94.0206 133.033 94.1184 132.98 94.2168C134.698 103.602 140.758 112.74 149.162 117.131C154.206 119.766 159.895 120.365 165.172 122.377C165.71 122.583 166.216 122.809 166.703 123.048C168.968 118.511 173.323 115.021 178.186 113.592C175.779 112.836 173.325 112.189 170.967 111.315C163.867 108.685 154.974 104.047 152.496 96.2205C149.917 88.0737 154.792 79.4062 160.331 73.6627C166.035 67.7486 173.102 63.2741 180.853 60.5661C181.889 60.2041 182.131 61.2149 181.121 61.568C172.686 64.5146 164.402 69.9492 159.056 77.2003C154.695 83.1138 151.65 91.0072 155.077 97.6798C155.086 97.6977 155.098 97.7156 155.107 97.7335C158.923 96.5599 162.49 94.5966 165.757 92.2023C168.606 90.1138 171.232 87.7045 173.599 85.2141C177.771 80.8249 181.695 75.8853 184.269 70.3613C187.628 63.1489 189.92 51.8598 181.379 48.8351C180.222 48.7928 179.065 48.8429 177.912 48.9603C177.526 49.2347 176.815 49.3677 176.557 49.1303ZM125.223 101.062C125.386 100.87 125.549 100.677 125.713 100.485C127.501 98.3949 129.314 96.3267 131.173 94.3032C130.537 90.4591 130.683 86.5226 131.845 82.7339C135.528 70.7286 145.134 62.5979 155.751 56.7327C155.853 56.6766 155.954 56.62 156.055 56.5639C156.398 56.3767 156.744 56.1882 157.092 56.0004C162.881 52.8701 169.438 49.6909 176.129 48.522C169.4 38.7602 158.515 37.6862 147.953 40.3298C147.343 40.4831 146.733 40.6471 146.126 40.8236C139.746 42.6789 133.581 45.7967 128.634 49.0647C126.792 50.2825 119.546 54.5601 120.47 57.3386C120.904 58.641 121.76 59.1384 122.837 59.1288C123.153 59.1259 123.489 59.0793 123.838 58.9959C124.253 58.8963 124.688 58.7466 125.134 58.5569C125.652 58.3357 126.184 58.062 126.719 57.7548C129.386 56.2204 132.091 53.8511 133.162 53.0651C139.841 48.1636 147.574 42.5543 156.178 42.2948C157.342 42.2597 156.13 43.2413 155.501 43.2604C148.049 43.4846 141.191 48.5554 135.36 52.7532C132.676 54.6848 129.924 57.4125 126.802 58.9165C120.586 66.8571 111.509 73.2166 107.862 82.9313C105.96 87.9973 106.413 93.296 110.662 97.0441C113.372 99.4337 117.009 101.989 120.772 102.076C121.559 102.094 122.3 102.01 123.007 101.854C123.794 101.681 124.533 101.414 125.223 101.062ZM140.953 128.126C140.988 128.098 141.023 128.07 141.058 128.042C141.848 127.412 142.624 126.793 143.323 126.174C145.173 124.535 147.027 122.9 148.872 121.254C149.394 120.788 150.908 119.762 151.108 119.246C151.112 119.235 151.121 119.225 151.127 119.214C148.093 118.094 145.235 116.624 142.644 114.368C137.406 109.807 133.273 103.338 131.604 96.4155C130.317 98.2064 128.72 99.8178 126.887 100.987C123.36 105.031 119.96 109.206 116.915 113.572C116.899 113.595 116.883 113.618 116.867 113.642C116.391 114.324 115.913 115.009 115.489 115.725C114.93 116.671 115.291 116.676 116.193 117.341C118.476 119.024 120.781 120.694 123.204 122.176C128.633 125.496 134.469 128.171 140.953 128.126ZM158.634 160.703C158.591 160.692 158.556 160.682 158.526 160.671C158.527 160.677 158.526 160.682 158.526 160.687C158.563 160.69 158.6 160.694 158.634 160.703ZM171.158 153.197C171.127 153.189 171.097 153.186 171.067 153.177C168.492 152.36 169.334 148.785 170.053 146.937C171.956 142.044 174.049 137.703 173.166 132.264C173.157 132.207 173.16 132.153 173.169 132.1C171.511 129.032 169.727 126.188 166.583 124.429C163.94 122.951 161.08 122.063 158.16 121.312C156.168 120.8 154.22 120.273 152.333 119.638C151.843 120.121 151.147 120.573 150.774 120.908C149.182 122.328 147.584 123.742 145.987 125.156C145.183 125.868 137.819 132.131 137.921 132.298C138.014 132.452 137.697 132.674 137.306 132.812C137.288 132.819 137.271 132.826 137.253 132.832L136.98 133.104C136.983 133.108 136.985 133.111 136.988 133.115C140.867 138.983 145.253 144.535 149.641 150.027C152.352 153.42 155.043 157.735 158.432 160.51C158.439 160.516 158.44 160.522 158.446 160.526C158.595 160.408 159.165 160.282 159.459 160.123C160.366 159.635 161.261 159.128 162.15 158.609C163.572 157.778 164.987 156.937 166.414 156.116C168.02 155.19 169.586 154.189 171.158 153.197ZM177.485 148.8C177.231 149.156 176.963 149.506 176.667 149.844C176.616 149.902 176.559 149.966 176.504 150.03C176.802 149.872 177.104 149.722 177.406 149.573C177.427 149.32 177.452 149.062 177.485 148.8ZM194.874 127.616C194.663 127.581 194.493 127.482 194.436 127.295C193.022 122.606 188.85 118.659 184.697 116.278C182.97 115.288 181.131 114.564 179.251 113.937C174.428 114.969 170.118 118.917 168.124 123.341C168.074 123.451 167.939 123.544 167.766 123.617C171.068 125.557 173.161 128.39 175.092 132.001C175.125 132.063 175.061 132.143 174.946 132.225C175.392 135.472 174.885 138.453 173.957 141.609C173.223 144.102 171.515 146.36 171.149 148.964C170.832 151.216 172.055 152.619 173.947 150.753C174.665 150.046 175.36 149.307 175.951 148.488C177.988 145.663 178.644 142.301 179.517 139.004C179.521 138.942 179.527 138.876 179.526 138.824C179.526 138.744 179.564 138.672 179.625 138.605C179.656 138.494 179.685 138.382 179.716 138.271C179.915 137.559 181.679 137.339 181.462 138.119C181.381 138.407 181.303 138.696 181.226 138.985C181.082 141.67 179.89 144.368 179.336 146.965C179.174 147.726 178.965 148.574 178.858 149.422C179.092 149.605 179.14 149.899 178.799 150.155C178.778 150.689 178.811 151.214 178.948 151.706C179.491 153.634 181.377 153.46 182.418 151.952C185.331 147.732 185.861 140.601 185.092 135.644C185.014 135.144 186.754 134.759 186.819 135.181C187.327 138.448 186.989 142.084 186.381 145.315C186.234 146.1 186.064 146.947 185.839 147.795C186.064 147.789 186.225 147.823 186.223 147.903C186.201 148.505 186.358 152.687 187.953 150.843C189.131 149.482 189.78 147.762 190.224 146.036C191.18 142.32 191.547 138.464 191.055 134.649C190.997 134.203 192.739 133.85 192.782 134.187C193.17 137.189 193.062 140.287 192.484 143.261C192.395 143.72 192.297 144.209 192.193 144.706C192.331 144.77 192.412 144.881 192.387 145.051C192.34 145.359 191.863 148.252 192.935 146.619C193.553 145.679 194.038 144.661 194.357 143.58C194.803 142.066 195.258 140.468 195.426 138.894C195.478 138.403 195.512 137.913 195.538 137.425C195.524 137.403 195.508 137.382 195.494 137.361C195.363 137.168 195.415 136.98 195.56 136.824C195.664 133.728 195.3 130.687 194.874 127.616ZM201.2 135.014C201.093 134.746 200.986 134.479 200.878 134.212C200.045 132.339 199.157 130.513 198.028 128.795C197.548 128.066 197.049 127.347 196.533 126.642C197 129.898 197.526 133.573 197.407 137.125C197.695 137.562 198.003 138.013 198.387 138.34C201.023 137.744 201.96 136.636 201.2 135.014ZM224.398 125.263C220.496 121.294 216.491 117.432 212.435 113.623C211.955 113.617 211.895 113.445 212.033 113.248C205.518 107.14 198.89 101.149 192.39 95.0236C189.322 96.6314 187.008 99.3007 184.132 101.259C182.094 102.646 180.03 103.997 177.951 105.322C176.319 106.361 174.423 107.87 172.467 108.982C171.939 109.281 171.407 109.553 170.874 109.778C173.218 110.709 175.642 111.503 178.094 112.257C178.894 112.502 179.695 112.745 180.498 112.985C184.17 114.083 188.007 116.166 191.03 118.985C191.096 119 191.157 119.022 191.207 119.054C194.12 120.98 196.545 123.59 198.526 126.455C200.216 128.899 202.742 132.322 203.171 135.354C203.257 135.958 203.229 136.527 203.103 137.051C203.746 136.713 204.387 136.37 205.028 136.028C204.971 135.685 205.341 135.232 205.921 135.209C206.144 135.2 206.364 135.206 206.585 135.2C209.305 133.735 212.009 132.243 214.71 130.746C215.786 130.15 216.885 129.569 217.985 128.986L224.398 125.263ZM234.182 144.325C231.83 142.256 228.975 140.684 225.992 139.498C228.837 140.852 231.568 142.48 234.182 144.325ZM259.375 171.916C259.309 171.918 259.246 171.917 259.185 171.917C259.199 171.938 259.212 171.959 259.226 171.979C259.277 171.959 259.325 171.937 259.375 171.916ZM307.701 139.378C300.154 146.346 290.219 149.729 280.066 150.465C277.043 156.335 273.772 162.043 269.194 166.454C269.403 166.427 269.582 166.441 269.666 166.527C272.475 169.425 275.803 172.703 279.811 173.843C284.645 175.217 288.848 173.028 292.531 169.994C296.476 166.745 299.933 163.097 303.071 159.078C305.698 155.714 317.593 140.245 307.701 139.378ZM2.5565 145.28C5.14291 130.251 15.5857 116.711 28.1754 108.491C34.4962 104.364 45.0357 99.3061 51.9349 104.804C54.3699 106.744 56.0403 109.846 57.3236 112.612C58.1556 114.405 59.1746 117.468 58.9999 119.5C58.9787 119.746 59.1659 119.816 59.4269 119.773C59.9459 119.686 60.7568 119.148 60.8004 118.644C61.2077 113.915 57.1095 107.251 53.7556 104.258C47.4551 98.6346 37.7225 101.918 31.1841 105.308C16.237 113.058 3.68899 128.686 0.807979 145.423C0.742528 145.804 1.06354 145.966 1.44836 145.96C1.91908 145.952 2.4853 145.694 2.5565 145.28Z" fill="#A51361"/>
<path d="M176.557 49.1303C176.262 49.1744 175.968 49.2198 175.674 49.2734C172.57 49.8334 169.521 50.8645 166.615 52.0996C166.274 52.2445 165.934 52.39 165.597 52.5403C160.48 54.8196 155.252 57.3875 150.631 60.572C141.136 67.1165 131.889 78.0805 132.521 90.3404C132.58 91.4795 132.712 92.6239 132.903 93.7659C133.079 93.7832 133.185 93.8339 133.139 93.9222C133.087 94.0206 133.033 94.1184 132.98 94.2168C134.698 103.602 140.758 112.74 149.162 117.131C154.206 119.766 159.895 120.365 165.172 122.377C165.71 122.583 166.216 122.809 166.703 123.048C168.968 118.511 173.323 115.021 178.186 113.592C175.779 112.836 173.325 112.189 170.967 111.315C163.867 108.685 154.974 104.047 152.496 96.2205C149.917 88.0737 154.792 79.4062 160.331 73.6627C166.035 67.7486 173.102 63.2741 180.853 60.5661C181.889 60.2041 182.131 61.2149 181.121 61.568C172.686 64.5146 164.402 69.9492 159.056 77.2003C154.695 83.1138 151.65 91.0072 155.077 97.6798C155.086 97.6977 155.098 97.7156 155.107 97.7335C158.923 96.5599 162.49 94.5966 165.757 92.2023C168.606 90.1138 171.232 87.7045 173.599 85.2141C177.771 80.8249 181.695 75.8853 184.269 70.3613C187.628 63.1489 189.92 51.8598 181.379 48.8351C180.222 48.7928 179.065 48.8429 177.912 48.9603C177.526 49.2347 176.815 49.3677 176.557 49.1303Z" fill="#F7F7F7"/>
<path fill-rule="evenodd" clip-rule="evenodd" d="M188.634 49.6014C191.84 52.4902 192.464 56.9641 191.876 61.6353C192.28 61.3056 192.702 60.9656 193.143 60.6209C193.143 60.6144 193.144 60.6084 193.144 60.6024C193.146 60.3538 193.492 60.1629 193.874 60.0598C197.154 57.5885 201.242 55.1982 205.188 56.1858C206.717 56.5681 207.97 57.6356 209.532 57.9671C211.878 58.4657 213.347 57.0977 214.366 55.2418C215.611 52.972 216.359 50.5055 217.31 48.1082C217.353 48.0002 217.494 47.9114 217.677 47.8416C217.164 47.835 216.808 47.6263 217.659 47.34C219.241 46.8075 220.988 46.8325 222.54 46.2308C224.669 45.4043 223.09 43.8621 221.865 42.8799C219.765 44.1817 217.629 43.0415 217.748 40.4616C217.786 39.6172 217.919 38.6535 218.152 37.685C218.127 37.6778 218.1 37.6725 218.077 37.6629C215.494 36.5424 212.234 36.6068 209.498 36.0265C208.85 35.8894 207.503 35.6985 206.411 35.268C206.415 35.293 206.422 35.3163 206.426 35.3413C207.113 39.4639 206.173 45.5289 201.633 47.2142C198.214 48.4833 194.526 47.897 192.021 45.9034C190.725 46.9262 189.561 48.268 188.634 49.6014ZM208.338 47.81C208.353 48.5429 208.622 49.1172 209.021 49.7219C209.462 50.3898 211.106 49.7183 210.6 48.9544C210.343 48.5632 210.1 48.1678 210.09 47.6853C210.082 47.25 209.682 47.0741 209.288 47.1021C208.948 47.1265 208.329 47.3788 208.338 47.81Z" fill="#F7F7F7"/>
<path d="M206.519 33.2708C206.776 34.9012 212.1 35.3014 213.293 35.4958C214.986 35.7719 216.843 35.9049 218.516 36.4279C218.671 35.9764 218.853 35.5369 219.058 35.1177C218.95 35.0962 218.885 35.0545 218.9 34.9865C219.343 33.0215 220.453 31.4012 221.459 29.7087C219.182 29.398 216.953 28.4331 215.652 26.6649C214.624 27.5451 213.357 28.1051 212.102 28.1009C212.794 30.9289 209.513 33.0418 206.519 33.2708Z" fill="#F7F7F7"/>
<path d="M196.795 28.2655C196.796 28.2816 196.802 28.2953 196.803 28.3109C197.41 28.1761 198 28.1021 198.568 28.0908C198.344 23.4786 198.233 18.8347 199.282 14.3072C200.277 10.0122 202.724 6.51157 205.943 3.69258C205.829 3.07475 205.508 2.56307 205.034 2.16113C201.984 4.77974 199.612 7.88021 198.174 11.781C196.26 16.9699 196.528 22.844 196.795 28.2655Z" fill="#F7F7F7"/>
<path d="M190.976 40.4068L191.835 43.0683C193.112 45.1979 195.445 46.6047 197.778 46.8266C197.799 46.8218 197.82 46.8146 197.84 46.8111C201.346 46.0847 201.471 40.3579 201.141 37.6951C200.792 34.8779 200.027 31.6648 197.925 29.6085C193.376 29.2346 190.471 35.8428 190.976 40.4068Z" fill="#F7F7F7"/>
<path d="M201.129 29.8304C200.967 29.9562 200.744 30.0647 200.515 30.1291C203.863 34.7467 204.523 43.8907 199.47 46.7699C201.114 46.4914 202.622 45.5361 203.59 43.7178C205.664 39.8206 205.223 32.0619 201.129 29.8304Z" fill="#F7F7F7"/>
<path d="M219.699 38.7089C219.547 39.5337 219.298 43.4989 221.127 41.7426C222.409 40.5117 223.121 38.3994 223.387 36.6867C223.576 35.4755 223.86 32.8068 221.929 33.7705C221.867 33.8015 221.804 33.8242 221.741 33.8421C220.576 34.9537 219.971 37.2347 219.699 38.7089Z" fill="#F7F7F7"/>
<path d="M194.828 61.7588C194.565 68.339 193.087 74.3837 190.898 80.3693C195.92 85.5362 203.531 89.143 210.465 90.6863C218.88 92.5595 228.187 91.3357 236.569 89.5723C240.931 88.6545 245.058 87.2173 249.254 85.7503C250.326 85.3756 250.329 85.2794 250.37 84.105L250.371 84.0781C250.424 82.5938 250.369 81.1089 250.314 79.625L250.304 79.3424C250.173 75.7947 250.062 72.2499 250.251 68.7046C246.224 70.5473 241.776 71.6488 237.488 72.5564C233.019 73.5023 228.397 74.4004 223.811 74.3682C218.429 74.3306 213.227 73.5339 208.313 71.2403C205.437 69.8985 202.641 68.4112 200.194 66.3764C198.736 65.1634 196.774 62.4148 194.828 61.7588Z" fill="#F7F7F7"/>
<path d="M252.126 82.6045C252.126 82.6695 252.126 82.7327 252.127 82.7959C256.277 78.8957 264.391 79.9847 269.383 80.2256C273.801 80.4397 279.81 81.2877 282.477 76.7584C282.85 76.1268 283.144 75.4362 283.341 74.723C283.212 74.6353 283.275 74.4779 283.439 74.33C283.875 72.3757 283.564 70.2903 282.061 68.7517C281.097 67.7659 277.142 64.5879 277.027 68.3384C276.974 70.0994 277.636 71.412 278.6 72.8612C278.973 73.4206 277.294 73.9764 276.992 73.5225C276.747 73.1546 276.482 72.7216 276.231 72.2535C276.213 72.6059 275.882 72.9751 275.343 72.9608C273.038 72.8988 270.269 72.2326 268.845 70.2265C267.327 68.0873 267.994 65.8349 269.613 63.9695C269.775 63.7822 270.037 63.6838 270.306 63.6588C270.567 63.4656 271.049 63.2705 271.304 63.2711C274.428 63.2807 281.217 64.2182 281.871 59.8773C281.941 59.4133 282.358 56.5896 281.214 56.617C279.964 56.6474 278.716 56.6438 277.467 56.6659C275.872 56.6939 274.255 56.7697 272.695 57.0631C272.678 57.0887 272.663 57.1155 272.646 57.1418C272.397 57.527 271.416 57.6827 271.067 57.465C270.004 57.796 268.982 58.2617 268.029 58.9314C262.697 62.6784 258.5 66.9727 252.109 67.7659C252.082 67.7856 252.049 67.8047 252.018 67.8243C251.701 72.758 252.094 77.6702 252.126 82.6045Z" fill="#F7F7F7"/>
<path d="M273.081 56.4321C276.268 55.865 279.543 55.958 282.932 55.8161L282.944 55.8155C283.067 55.81 283.399 55.7951 283.43 55.964C284.953 63.9695 277.108 64.0518 271.232 64.0321C271.274 64.1663 271.237 64.3309 271.07 64.5235C267.856 68.2299 271.456 71.5253 275.479 71.6339C275.698 71.6398 275.866 71.6917 275.987 71.771C275.185 70.0959 274.721 68.085 276.109 66.7402C277.264 65.6208 279.141 65.1467 280.66 65.8546C280.885 65.9595 281.087 66.0806 281.294 66.1969C281.638 64.9893 282.462 64.0852 283.921 63.8908C285.119 63.7309 286.358 64.0363 287.337 64.7364C287.241 62.4667 287.257 58.3917 289.142 57.1996C289.301 57.0988 289.454 57.0183 289.604 56.9509C292.459 52.5808 296.808 44.2909 290.03 42.5489C289.695 42.4624 289.534 42.2901 289.492 42.0969C284.311 40.8236 280.621 42.2835 278.03 46.9315C276.288 50.0564 274.944 53.377 273.081 56.4321Z" fill="#F7F7F7"/>
<path d="M290.668 58.1246C290.493 58.384 290.321 58.6339 290.157 58.867C290.027 59.0507 289.82 59.1587 289.596 59.2052C289.115 61.0569 288.993 63.0058 289.096 64.9087C289.11 65.1491 288.566 65.3423 288.085 65.4216C288.133 65.4771 288.187 65.526 288.233 65.5832C289.582 67.2781 289.774 69.1602 289.188 70.7817C293.797 70.9409 293.012 63.4912 291.973 60.7295C291.641 59.8469 291.259 58.87 290.668 58.1246Z" fill="#F7F7F7"/>
<path d="M287.248 67.2178C286.75 66.2243 285.924 65.2982 284.854 64.8974C283.264 64.3017 282.88 65.6142 282.835 66.9966C282.832 67.0723 282.8 67.1421 282.748 67.2065C284.759 68.9556 285.517 71.3816 285.116 73.7653C287.56 72.8409 288.415 69.5419 287.248 67.2178Z" fill="#F7F7F7"/>
<path d="M194.874 127.616C194.663 127.581 194.493 127.482 194.436 127.295C193.022 122.606 188.85 118.659 184.697 116.278C182.97 115.288 181.131 114.564 179.251 113.937C174.428 114.969 170.118 118.917 168.124 123.341C168.074 123.451 167.939 123.544 167.766 123.617C171.068 125.557 173.161 128.39 175.092 132.001C175.125 132.063 175.061 132.143 174.946 132.225C175.392 135.472 174.885 138.453 173.957 141.609C173.223 144.102 171.515 146.36 171.149 148.964C170.832 151.216 172.055 152.619 173.947 150.753C174.665 150.046 175.36 149.307 175.951 148.488C177.988 145.663 178.644 142.301 179.517 139.004C179.521 138.942 179.527 138.876 179.526 138.824C179.526 138.744 179.564 138.672 179.625 138.605C179.656 138.494 179.685 138.382 179.716 138.271C179.915 137.559 181.679 137.339 181.462 138.119C181.381 138.407 181.303 138.696 181.226 138.985C181.082 141.67 179.89 144.368 179.336 146.965C179.174 147.726 178.965 148.574 178.858 149.422C179.092 149.605 179.14 149.899 178.799 150.155C178.778 150.689 178.811 151.214 178.948 151.706C179.491 153.634 181.377 153.46 182.418 151.952C185.331 147.732 185.861 140.601 185.092 135.644C185.014 135.144 186.754 134.759 186.819 135.181C187.327 138.448 186.989 142.084 186.381 145.315C186.234 146.1 186.064 146.947 185.839 147.795C186.064 147.789 186.225 147.823 186.223 147.903C186.201 148.505 186.358 152.687 187.953 150.843C189.131 149.482 189.78 147.762 190.224 146.036C191.18 142.32 191.547 138.464 191.055 134.649C190.997 134.203 192.739 133.85 192.782 134.187C193.17 137.189 193.062 140.287 192.484 143.261C192.395 143.72 192.297 144.209 192.193 144.706C192.331 144.77 192.412 144.881 192.387 145.051C192.34 145.359 191.863 148.252 192.935 146.619C193.553 145.679 194.038 144.661 194.357 143.58C194.803 142.066 195.258 140.468 195.426 138.894C195.478 138.403 195.512 137.913 195.538 137.425C195.524 137.403 195.508 137.382 195.494 137.361C195.363 137.168 195.415 136.98 195.56 136.824C195.664 133.728 195.3 130.687 194.874 127.616Z" fill="#F7F7F7"/>
<path d="M201.2 135.014C201.093 134.746 200.986 134.479 200.878 134.212C200.045 132.339 199.157 130.513 198.028 128.795C197.548 128.066 197.049 127.347 196.533 126.642C197 129.898 197.526 133.573 197.407 137.125C197.695 137.562 198.003 138.013 198.387 138.34C201.023 137.744 201.96 136.636 201.2 135.014Z" fill="#F7F7F7"/>
<path d="M307.701 139.378C300.154 146.346 290.219 149.729 280.066 150.465C277.043 156.335 273.772 162.043 269.194 166.454C269.403 166.427 269.582 166.441 269.666 166.527C272.475 169.425 275.803 172.703 279.811 173.843C284.645 175.217 288.848 173.028 292.531 169.994C296.476 166.745 299.933 163.097 303.071 159.078C305.698 155.714 317.593 140.245 307.701 139.378Z" fill="#F7F7F7"/>
<path d="M140.953 128.126L141.058 128.042C141.848 127.412 142.624 126.793 143.323 126.174C145.173 124.535 147.027 122.9 148.872 121.254C149.394 120.788 150.908 119.762 151.108 119.246C151.112 119.235 151.121 119.225 151.127 119.214C148.093 118.094 145.235 116.624 142.644 114.368C137.406 109.807 133.273 103.338 131.604 96.4155C130.317 98.2064 128.72 99.8178 126.887 100.987C123.36 105.031 119.96 109.206 116.915 113.572L116.867 113.642C116.391 114.324 115.913 115.009 115.489 115.725C114.93 116.671 115.291 116.676 116.193 117.341C118.476 119.024 120.781 120.694 123.204 122.176C128.633 125.496 134.469 128.171 140.953 128.126Z" fill="#F7F7F7"/>
<path d="M193.116 61.6723C192.771 61.8065 192.131 61.8995 191.842 61.8727C191.152 67.0079 189.037 72.3465 187.315 76.0416C182.015 87.4123 173.037 100.993 159.714 103.23C162.772 105.925 166.257 107.854 169.964 109.401C171.111 108.86 173.072 107.438 174.131 106.776C174.62 106.47 175.107 106.158 175.595 105.849C175.211 105.848 174.967 105.762 175.345 105.533C181.252 101.934 183.65 93.4576 186.399 87.5137C187.415 85.3179 188.342 83.1269 189.163 80.9221C189.153 80.9108 189.141 80.9007 189.131 80.8894C188.941 80.6908 189.103 80.4671 189.388 80.3019C191.556 74.3246 192.925 68.2334 193.116 61.6723Z" fill="#F7F7F7"/>
<path d="M1.44824 145.96C1.468 145.971 1.48531 145.984 1.49988 146C8.39378 153.416 17.6783 144.943 23.4892 140.304C28.6334 136.196 34.5289 130.473 41.4437 129.862C44.3963 127.373 47.6136 125.191 50.9187 123.388C53.5569 121.948 56.443 120.612 59.4268 119.773C59.1658 119.816 58.9786 119.746 58.9998 119.5C59.1745 117.468 58.1555 114.405 57.3235 112.612C56.0402 109.846 54.3698 106.744 51.9348 104.804C45.0356 99.3061 34.4961 104.364 28.1753 108.491C15.5856 116.711 5.14279 130.251 2.55638 145.28C2.48518 145.694 1.91896 145.952 1.44824 145.96Z" fill="#F7F7F7"/>
</g>
</g>
<defs>
<clipPath id="clip0_806_1600">
<rect width="313" height="175" fill="white"/>
</clipPath>
</defs>
</svg>
