<svg width="315" height="176" viewBox="0 0 315 176" fill="none" xmlns="http://www.w3.org/2000/svg">
<path d="M210.021 49.7218C209.622 49.1171 209.353 48.5428 209.338 47.8099C209.329 47.3787 209.948 47.1265 210.288 47.102C210.683 47.074 211.082 47.2499 211.09 47.6853C211.1 48.1677 211.343 48.5631 211.6 48.9543C212.106 49.7183 210.462 50.3898 210.021 49.7218ZM303.761 161.255C299.595 166.212 294.558 171.681 288.373 173.982C280.684 176.842 274.573 172.765 269.248 167.328C266.78 169.522 263.941 171.345 260.583 172.638C260.633 173.263 259.275 173.712 258.92 173.155C258.914 173.146 258.908 173.138 258.903 173.128C258.395 173.112 258.008 172.869 258.564 172.604C256.704 169.715 254.674 166.779 252.479 163.888C249.983 160.933 247.01 157.443 244.005 153.993C234.063 143.81 221.768 136.078 207.435 136.402C207.243 136.407 207.052 136.402 206.859 136.41C205.806 136.971 204.752 137.529 203.693 138.079C203.566 138.298 203.415 138.503 203.244 138.693C202.707 139.287 201.966 139.736 201.042 139.984C200.398 140.156 199.83 140.129 199.318 139.968C199.101 139.955 198.94 139.91 198.941 139.821C198.69 139.703 198.455 139.549 198.232 139.374C197.934 141.787 197.26 144.085 195.949 146.08C194.833 147.778 193.162 148.65 192.244 148.011C191.827 149.038 191.282 149.983 190.521 150.709C189.726 151.466 188.544 152.255 187.371 152.154C186.417 152.072 185.935 151.521 185.699 150.798C185.047 151.989 184.156 152.994 182.881 153.566C179.473 155.095 178.41 153.528 178.36 150.909C173.763 153.272 169.398 156.333 164.941 158.937C163.728 159.646 161.702 161.319 159.952 161.758C159.758 161.807 159.567 161.845 159.383 161.86C159.118 161.882 158.863 161.868 158.622 161.807C158.252 161.714 158.191 161.523 158.294 161.325C158.109 161.327 157.943 161.293 157.833 161.203C154.266 158.282 151.424 153.721 148.582 150.141C147.576 148.875 146.572 147.607 145.572 146.332C140.257 152.533 133.853 157.89 126.928 162.303C119.229 168.064 109.907 173.352 100.6 174.516C85.8016 176.366 76.493 172.884 71.91 170.34C68.7612 168.811 65.7848 166.839 63.0231 164.348C58.1878 159.99 53.5088 155.553 48.4856 151.396C43.651 147.395 38.9046 143.321 34.7408 138.609C34.7229 138.589 34.7038 138.57 34.6859 138.549C34.6615 138.521 34.6472 138.494 34.6323 138.466C34.5941 138.393 34.5869 138.319 34.6072 138.248C34.6221 138.15 34.6674 138.041 34.7569 137.922C36.7082 135.319 38.9869 132.895 41.4772 130.694C37.2067 131.209 33.2451 134.6 29.9956 137.14C26.2105 140.098 22.5572 143.286 18.5204 145.905C13.0441 149.458 5.89674 152.463 0.682185 146.854C0.338683 146.484 1.96257 145.867 2.30189 146.232C9.19579 153.648 18.6785 144.943 24.4894 140.304C29.6336 136.196 35.5292 130.473 42.4439 129.862C45.3965 127.373 48.6139 125.191 51.9189 123.388C57.7584 120.201 64.8115 117.523 71.4526 119.615C71.8402 119.475 72.2905 119.421 72.4718 119.591C76.852 123.695 80.649 128.371 84.916 132.588C89.0893 136.714 93.9198 141.194 99.7176 142.81C101.217 143.228 102.6 143.385 103.887 143.338C106.548 142.79 108.775 141.831 110.406 140.946C115.789 136.884 118.972 128.585 122.555 123.113C122.579 123.075 122.619 123.04 122.666 123.006L122.684 122.961C119.812 121.161 117.063 119.147 114.417 117.166C114.236 117.03 114.177 116.897 114.288 116.684C116.487 112.469 119.832 108.725 122.845 105.085C123.613 104.157 124.385 103.232 125.161 102.31C123.458 102.893 121.616 103.08 119.68 102.713C113.234 101.492 105.687 96.0266 105.97 88.7785C106.217 82.4875 110.254 76.9605 114.182 72.331C115.828 70.3916 117.59 68.5435 119.354 66.6984C121.528 64.4244 123.698 62.1464 125.669 59.7102C125.594 59.7299 125.519 59.755 125.443 59.7728C125.32 59.8015 125.187 59.8259 125.048 59.8462C122.781 60.1772 118.488 59.3602 119.981 56.3009C121.214 53.7753 123.779 51.7566 126.267 50.0737C127.057 49.5393 127.839 49.0384 128.569 48.5667C130.416 47.3716 132.435 46.186 134.575 45.0649C148.975 37.5192 168.865 32.9147 179.009 48.2488C179.176 48.2297 179.344 48.2107 179.511 48.194C179.469 48.1892 179.432 48.1814 179.389 48.1767C178.948 48.1284 180.408 47.473 180.812 47.5177C181.814 47.6274 182.709 47.8254 183.524 48.0854C183.986 48.1075 184.448 48.1379 184.909 48.1856C185.037 47.7717 185.767 47.3614 186.263 47.5559C187.156 47.9065 187.934 48.3329 188.629 48.8124C189.075 48.2315 189.561 47.6614 190.08 47.1235C187.28 47.0311 183.861 45.5634 184.006 42.5381C182.599 42.9108 181.088 42.8315 180.013 41.8344C178.238 40.1873 179.137 38.2193 180.75 37.0009C179.906 36.729 179.125 36.1905 178.489 35.3717C177.026 33.486 176.373 30.7952 177.917 28.9877C175.817 28.7771 173.75 28.0937 173.117 25.8258C172.455 23.4588 172.854 20.3828 175.195 19.196C175.265 19.0547 175.315 18.9235 175.351 18.8037C175.023 18.9468 174.633 18.9933 174.368 18.8376C171.004 16.8494 172.817 12.7476 175.428 10.8953C178.211 8.91961 181.731 8.25765 185.075 8.75263C185.142 8.74011 185.205 8.72699 185.264 8.71566C185.482 8.01494 185.97 7.28558 186.504 6.66716C186.775 6.23361 187.178 5.79827 187.787 5.43986C189.644 4.02529 192.118 3.21843 194.128 4.1732C195.549 1.18842 200.624 -0.229119 204.394 0.303429C204.437 0.309989 204.482 0.313563 204.525 0.319526C204.55 0.322508 204.574 0.327282 204.6 0.330264C204.779 0.359485 204.952 0.395861 205.124 0.434028C207.341 0.92483 208.927 2.17361 208.688 4.27637C208.673 4.40518 208.528 4.52386 208.332 4.61808C208.344 4.64253 208.355 4.66459 208.364 4.68308C208.392 4.66101 208.417 4.63895 208.452 4.61629C208.856 4.34793 209.326 4.11117 209.835 3.90304C211.454 3.00672 214.226 1.91479 216.855 2.98227C221.217 3.39257 224.919 5.65336 222.97 10.4004C223.324 10.3723 223.69 10.3503 224.067 10.3378C224.501 10.2722 225.06 10.2477 225.689 10.3521C228.077 10.4892 230.485 11.2055 231.553 13.4633C233.069 16.6717 231.934 20.3381 228.723 21.7693C229.919 23.1594 231.39 25.3475 230.31 27.1586C229.411 28.6668 227.817 29.352 226.142 29.6502C225.436 29.776 224.678 29.8333 223.904 29.819C223.346 30.7415 222.782 31.6558 222.328 32.6242C224.656 31.5597 226.426 32.703 226.275 35.3621C226.159 37.4029 225.471 40.1831 223.999 41.897C225.297 42.89 227.597 44.6629 225.402 46.0369C223.609 47.1599 221.518 47.0919 219.565 47.6716C219.843 47.6596 220.048 47.696 220.012 47.7849C218.538 51.4972 217.414 57.1966 212.971 58.4704C210.781 59.0984 208.756 58.7024 206.72 57.6993C203.919 56.3199 201.779 56.5728 199.038 58.2253C197.94 58.8873 196.889 59.6029 195.868 60.3621C195.868 60.4002 195.865 60.439 195.865 60.4783C195.916 60.4771 195.967 60.4801 196.017 60.4885C197.468 60.7282 198.565 61.8297 199.616 62.7892C201.673 64.6654 203.67 66.5516 206.106 67.934C211.601 71.0524 217.256 73.0442 223.617 73.1849C228.806 73.2988 233.987 72.4598 239.034 71.3046C242.926 70.4137 246.914 69.4285 250.572 67.7658C250.692 67.5685 251.452 67.2244 251.814 67.1593C251.939 67.0961 252.067 67.0395 252.19 66.9739C252.629 66.7419 253.097 66.8546 253.292 67.092C259.849 66.4878 263.134 61.1117 268.745 58.1961C269.86 57.6164 270.986 57.1942 272.121 56.8775C274.773 52.7024 276.143 47.4068 279.554 43.7678C282.814 40.2892 287.096 39.9756 291.541 41.0699C291.751 41.1218 291.852 41.2035 291.881 41.2983C299.401 43.4535 295.716 51.7417 292.456 56.9199C293.424 57.3993 294.097 58.6541 294.567 59.904C296.356 64.6624 295.678 71.109 289.91 71.4245C289.148 72.9082 287.709 74.0908 285.93 74.5774C285.47 76.215 284.471 77.79 282.944 79.0555C279.396 81.9961 273.942 81.3688 269.7 81.1577C264.82 80.9149 256.282 79.4652 253.359 84.5271C253.297 84.6338 253.156 84.7263 252.983 84.7978C252.788 85.4878 252.343 85.9923 251.332 86.346C246.567 88.0122 241.883 89.682 236.907 90.638C228.088 92.3328 218.272 93.8106 209.468 91.4049C203.04 89.648 196.258 86.6489 191.281 82.014C190.529 83.9552 189.711 85.8951 188.836 87.8494C186.65 92.73 184.53 99.1361 180.595 103.275C180.819 103.129 181.046 102.984 181.27 102.836C185.346 100.142 188.834 96.2348 193.331 94.2543C193.462 94.197 193.594 94.1434 193.727 94.0891C193.95 93.9984 194.174 93.906 194.402 93.8249C195.091 93.5798 196.178 93.8905 195.022 94.3026C194.989 94.3145 194.958 94.3282 194.926 94.3401C201.463 100.505 208.134 106.531 214.689 112.677C227.399 112.777 240.119 114.668 251.983 119.349C260.291 121.992 269.259 127.814 275.777 132.638C279.109 135.045 282.34 137.602 285.485 140.269C285.925 140.208 286.319 140.26 286.217 140.448C286.162 140.548 286.109 140.65 286.054 140.751C286.09 140.781 286.127 140.811 286.162 140.841C286.397 141.042 286.082 141.315 285.662 141.481C284.219 144.193 282.842 146.999 281.42 149.781C281.47 149.768 281.516 149.76 281.555 149.757C291.337 149.091 300.719 145.759 307.833 138.845C308.113 138.573 309.516 138.392 309.454 138.653C321.752 139.206 306.902 157.518 303.761 161.255ZM288.248 67.2178C287.75 66.2243 286.924 65.2981 285.854 64.8974C284.264 64.3016 283.88 65.6142 283.835 66.9965C283.832 67.0723 283.8 67.142 283.748 67.2065C285.759 68.9556 286.517 71.3816 286.116 73.7652C288.56 72.8409 289.415 69.5418 288.248 67.2178ZM291.668 58.1245C291.493 58.3839 291.321 58.6338 291.157 58.867C291.027 59.0507 290.82 59.1586 290.596 59.2051C290.116 61.0568 289.993 63.0057 290.097 64.9087C290.11 65.149 289.566 65.3422 289.085 65.4216C289.133 65.477 289.187 65.5259 289.234 65.5832C290.583 67.278 290.775 69.1601 290.188 70.7816C294.797 70.9408 294.012 63.4911 292.973 60.7294C292.641 59.8468 292.259 58.87 291.668 58.1245ZM274.081 56.4321C277.268 55.8649 280.543 55.9579 283.933 55.816C284.044 55.8112 284.398 55.7892 284.431 55.9639C285.954 63.9694 278.109 64.0517 272.232 64.032C272.274 64.1662 272.237 64.3308 272.07 64.5234C268.856 68.2298 272.456 71.5253 276.479 71.6338C276.698 71.6398 276.866 71.6917 276.987 71.771C276.185 70.0958 275.721 68.0849 277.109 66.7401C278.264 65.6207 280.141 65.1466 281.66 65.8545C281.885 65.9595 282.087 66.0805 282.294 66.1968C282.638 64.9892 283.462 64.0851 284.921 63.8907C286.119 63.7309 287.359 64.0362 288.337 64.7363C288.241 62.4666 288.257 58.3917 290.142 57.1996C290.301 57.0988 290.454 57.0183 290.604 56.9509C293.459 52.5808 297.808 44.2908 291.03 42.5488C290.695 42.4624 290.534 42.29 290.493 42.0968C285.311 40.8236 281.621 42.2835 279.03 46.9315C277.289 50.0564 275.944 53.3769 274.081 56.4321ZM253.126 82.6044C253.126 82.6694 253.127 82.7326 253.127 82.7959C257.277 78.8957 265.391 79.9846 270.383 80.2255C274.801 80.4396 280.81 81.2877 283.478 76.7583C283.85 76.1268 284.144 75.4362 284.341 74.7229C284.212 74.6353 284.275 74.4778 284.439 74.3299C284.875 72.3757 284.564 70.2902 283.061 68.7516C282.097 67.7658 278.142 64.5878 278.027 68.3383C277.974 70.0994 278.636 71.412 279.601 72.8611C279.973 73.4205 278.295 73.9763 277.992 73.5225C277.747 73.1545 277.482 72.7216 277.231 72.2534C277.213 72.6059 276.882 72.975 276.343 72.9607C274.038 72.8987 271.269 72.2326 269.845 70.2264C268.327 68.0873 268.994 65.8348 270.613 63.9694C270.775 63.7822 271.038 63.6838 271.306 63.6587C271.567 63.4655 272.049 63.2705 272.304 63.2711C275.428 63.2806 282.217 64.2181 282.871 59.8772C282.941 59.4132 283.358 56.5895 282.214 56.6169C280.965 56.6473 279.716 56.6438 278.467 56.6658C276.872 56.6939 275.256 56.7696 273.695 57.063C273.678 57.0886 273.663 57.1155 273.647 57.1417C273.397 57.527 272.416 57.6826 272.067 57.4649C271.004 57.7959 269.982 58.2617 269.029 58.9314C263.697 62.6783 259.5 66.9727 253.109 67.7658C253.082 67.7855 253.05 67.8046 253.019 67.8243C252.701 72.758 253.094 77.6702 253.126 82.6044ZM224.683 28.464C224.918 28.4575 225.145 28.4414 225.369 28.4187C225.13 28.4295 224.901 28.4384 224.693 28.4444C224.69 28.4509 224.687 28.4575 224.683 28.464ZM175.009 17.2901L174.289 15.8511C174.342 16.3651 174.566 16.8553 175.009 17.2901ZM55.5012 122.965C54.0115 123.68 52.5844 124.474 51.2563 125.283C50.5258 125.728 49.8012 126.19 49.0838 126.665C49.3188 126.531 49.5549 126.398 49.7958 126.267C52.3769 124.87 54.1683 123.794 55.5012 122.965ZM69.2079 120.488C67.4665 120.121 65.6888 120.094 63.9152 120.316C65.6667 120.343 67.5751 120.414 69.2079 120.488ZM97.7001 143.41C95.9045 142.82 94.178 141.952 92.5386 140.926C94.1595 142.012 95.9182 142.928 97.7001 143.41ZM194.116 61.6722C193.772 61.8064 193.131 61.8995 192.842 61.8726C192.152 67.0079 190.037 72.3465 188.315 76.0415C183.015 87.4123 174.038 100.993 160.714 103.229C163.772 105.925 167.257 107.854 170.964 109.401C172.111 108.86 174.072 107.438 175.131 106.776C175.62 106.469 176.107 106.158 176.595 105.849C176.211 105.848 175.967 105.762 176.345 105.533C182.252 101.934 184.65 93.4575 187.4 87.5136C188.415 85.3178 189.342 83.1268 190.164 80.9221C190.153 80.9108 190.141 80.9006 190.131 80.8893C189.941 80.6907 190.103 80.4671 190.388 80.3019C192.556 74.3246 193.925 68.2334 194.116 61.6722ZM195.828 61.7587C195.565 68.3389 194.087 74.3836 191.898 80.3693C196.92 85.5361 204.531 89.1429 211.465 90.6863C219.88 92.5594 229.187 91.3357 237.569 89.5723C241.931 88.6545 246.058 87.2172 250.254 85.7502C251.334 85.3727 251.329 85.2779 251.371 84.078C251.427 82.4995 251.362 80.9203 251.304 79.3423C251.173 75.7946 251.062 72.2498 251.252 68.7045C247.224 70.5472 242.776 71.6487 238.488 72.5564C234.019 73.5022 229.397 74.4003 224.811 74.3681C219.429 74.3305 214.227 73.5338 209.313 71.2402C206.437 69.8984 203.641 68.4111 201.194 66.3763C199.736 65.1633 197.774 62.4147 195.828 61.7587ZM220.699 38.7089C220.547 39.5336 220.298 43.4988 222.127 41.7426C223.409 40.5117 224.121 38.3994 224.387 36.6866C224.576 35.4754 224.86 32.8067 222.929 33.7705C222.867 33.8015 222.804 33.8241 222.741 33.842C221.576 34.9536 220.971 37.2347 220.699 38.7089ZM220.084 27.4586C221.026 27.9619 222.112 28.2649 223.192 28.3925C223.196 28.3847 223.201 28.377 223.205 28.3692L220.084 27.4586ZM207.519 33.2707C207.776 34.9011 213.1 35.3013 214.293 35.4957C215.986 35.7718 217.844 35.9048 219.516 36.4278C219.671 35.9764 219.853 35.5369 220.058 35.1176C219.95 35.0961 219.886 35.0544 219.9 34.9864C220.343 33.0214 221.453 31.4011 222.459 29.7087C220.182 29.3979 217.953 28.433 216.652 26.6648C215.624 27.5451 214.357 28.105 213.102 28.1009C213.794 30.9288 210.513 33.0417 207.519 33.2707ZM197.795 28.2655C197.796 28.2816 197.802 28.2953 197.804 28.3108C198.41 28.176 199 28.1021 199.568 28.0907C199.344 23.4785 199.234 18.8347 200.282 14.3071C201.277 10.0121 203.724 6.51152 206.943 3.69253C206.829 3.0747 206.509 2.56302 206.034 2.16108C202.984 4.77969 200.612 7.88016 199.174 11.7809C197.26 16.9699 197.528 22.844 197.795 28.2655ZM202.129 29.8303C201.967 29.9561 201.744 30.0647 201.515 30.1291C204.863 34.7467 205.523 43.8906 200.47 46.7699C202.114 46.4914 203.622 45.536 204.59 43.7177C206.664 39.8205 206.223 32.0619 202.129 29.8303ZM191.977 40.4067L192.835 43.0683C194.112 45.1979 196.445 46.6047 198.778 46.8265C198.799 46.8217 198.82 46.8146 198.84 46.811C202.347 46.0846 202.471 40.3578 202.141 37.6951C201.792 34.8779 201.027 31.6647 198.925 29.6085C194.376 29.2345 191.471 35.8428 191.977 40.4067ZM189.634 49.6014C192.84 52.4901 193.464 56.964 192.876 61.6353C193.28 61.3055 193.702 60.9656 194.143 60.6209C194.143 60.6143 194.144 60.6083 194.144 60.6024C194.146 60.3537 194.492 60.1629 194.874 60.0597C198.154 57.5884 202.242 55.1982 206.188 56.1858C207.717 56.568 208.97 57.6355 210.532 57.9671C212.878 58.4656 214.347 57.0976 215.366 55.2417C216.611 52.972 217.359 50.5054 218.311 48.1081C218.353 48.0001 218.494 47.9113 218.677 47.8415C218.164 47.835 217.808 47.6262 218.659 47.34C220.241 46.8074 221.988 46.8325 223.541 46.2308C225.67 45.4042 224.09 43.862 222.865 42.8798C220.765 44.1817 218.63 43.0414 218.748 40.4616C218.786 39.6171 218.919 38.6534 219.153 37.6849C219.127 37.6778 219.1 37.6724 219.077 37.6629C216.495 36.5423 213.234 36.6067 210.498 36.0265C209.851 35.8893 208.503 35.6985 207.411 35.2679C207.415 35.2929 207.422 35.3162 207.426 35.3412C208.113 39.4639 207.174 45.5288 202.633 47.2142C199.215 48.4832 195.526 47.897 193.021 45.9034C191.725 46.9261 190.561 48.2679 189.634 49.6014ZM186.04 49.2805C192.417 53.5737 190.016 64.2956 186.478 71.0512C180.362 82.7261 169.285 94.2722 156.373 98.2147C156.812 98.9816 157.336 99.7312 157.961 100.458C158.468 101.047 158.997 101.597 159.536 102.129C172.652 100.68 181.656 86.798 186.66 75.8346C189.862 68.8184 195.392 54.4337 186.704 49.4332C186.483 49.3795 186.262 49.3264 186.04 49.2805ZM177.557 49.1302C177.263 49.1744 176.968 49.2197 176.675 49.2734C173.571 49.8333 170.521 50.8645 167.615 52.0995C167.274 52.2444 166.934 52.3899 166.597 52.5402C161.48 54.8195 156.252 57.3874 151.631 60.572C142.136 67.1164 132.889 78.0805 133.522 90.3404C133.581 91.4794 133.712 92.6238 133.903 93.7659C134.079 93.7832 134.185 93.8338 134.139 93.9221C134.087 94.0205 134.033 94.1183 133.98 94.2167C135.698 103.602 141.758 112.74 150.162 117.131C155.206 119.766 160.896 120.365 166.172 122.377C166.71 122.582 167.216 122.808 167.703 123.048C169.968 118.511 174.323 115.021 179.186 113.592C176.779 112.836 174.326 112.189 171.967 111.315C164.867 108.685 155.974 104.046 153.496 96.2205C150.917 88.0736 155.793 79.4062 161.332 73.6626C167.035 67.7486 174.102 63.2741 181.853 60.566C182.889 60.204 183.131 61.2148 182.121 61.5679C173.686 64.5145 165.402 69.9491 160.056 77.2002C155.695 83.1137 152.65 91.0071 156.078 97.6798C156.087 97.6976 156.098 97.7155 156.107 97.7334C159.923 96.5598 163.49 94.5966 166.757 92.2022C169.607 90.1138 172.232 87.7045 174.599 85.2141C178.771 80.8249 182.695 75.8853 185.269 70.3612C188.629 63.1488 190.92 51.8598 182.379 48.835C181.222 48.7927 180.065 48.8428 178.912 48.9603C178.526 49.2346 177.815 49.3676 177.557 49.1302ZM126.223 101.062C126.386 100.87 126.55 100.676 126.714 100.485C128.501 98.3948 130.314 96.3266 132.173 94.3032C131.537 90.4591 131.683 86.5225 132.845 82.7338C136.528 70.7286 146.134 62.5978 156.751 56.7326C156.853 56.6766 156.954 56.6199 157.056 56.5638C157.398 56.3766 157.744 56.1881 158.092 56.0003C163.881 52.87 170.438 49.6908 177.129 48.522C170.4 38.7602 159.516 37.6861 148.953 40.3298C148.343 40.4831 147.733 40.6471 147.126 40.8236C140.746 42.6788 134.581 45.7966 129.634 49.0646C127.792 50.2824 120.546 54.5601 121.47 57.3385C121.904 58.641 122.76 59.1383 123.837 59.1288C124.153 59.1258 124.489 59.0793 124.839 58.9958C125.254 58.8962 125.688 58.7465 126.134 58.5569C126.652 58.3356 127.185 58.0619 127.719 57.7548C130.386 56.2203 133.091 53.851 134.162 53.065C140.841 48.1635 148.574 42.5542 157.178 42.2948C158.343 42.2596 157.13 43.2412 156.502 43.2603C149.049 43.4845 142.191 48.5554 136.36 52.7531C133.677 54.6847 130.924 57.4125 127.802 58.9165C121.586 66.857 112.509 73.2165 108.862 82.9312C106.96 87.9973 107.413 93.2959 111.663 97.044C114.372 99.4337 118.009 101.988 121.772 102.076C122.559 102.094 123.301 102.01 124.007 101.854C124.794 101.681 125.533 101.414 126.223 101.062ZM141.953 128.126C142.779 127.467 143.593 126.821 144.323 126.174C146.173 124.535 148.027 122.9 149.872 121.254C150.394 120.788 151.908 119.762 152.108 119.246C152.112 119.235 152.121 119.225 152.127 119.214C149.093 118.094 146.235 116.624 143.644 114.368C138.406 109.807 134.274 103.338 132.604 96.4155C131.317 98.2063 129.72 99.8177 127.887 100.987C124.36 105.03 120.96 109.206 117.915 113.572C117.423 114.278 116.928 114.984 116.49 115.725C115.93 116.671 116.291 116.676 117.193 117.34C119.476 119.024 121.782 120.694 124.204 122.176C129.633 125.496 135.469 128.171 141.953 128.126ZM159.634 160.703C159.591 160.692 159.556 160.682 159.526 160.671C159.527 160.677 159.526 160.682 159.526 160.687C159.563 160.69 159.6 160.694 159.634 160.703ZM172.158 153.197C172.127 153.189 172.097 153.186 172.067 153.177C169.492 152.36 170.334 148.785 171.053 146.937C172.956 142.044 175.05 137.703 174.166 132.264C174.157 132.207 174.16 132.153 174.169 132.1C172.511 129.031 170.727 126.187 167.583 124.429C164.94 122.951 162.081 122.062 159.16 121.312C157.168 120.8 155.221 120.273 153.333 119.638C152.844 120.121 152.148 120.573 151.774 120.908C150.182 122.328 148.584 123.742 146.987 125.156C146.183 125.868 138.819 132.131 138.921 132.298C139.014 132.452 138.697 132.673 138.306 132.812C138.288 132.819 138.271 132.826 138.253 132.831L137.981 133.104C137.983 133.108 137.985 133.111 137.988 133.115C141.868 138.983 146.253 144.535 150.641 150.027C153.352 153.42 156.044 157.735 159.432 160.51C159.439 160.516 159.44 160.522 159.446 160.526C159.595 160.408 160.165 160.282 160.459 160.123C161.366 159.635 162.261 159.128 163.15 158.608C164.572 157.778 165.987 156.937 167.414 156.116C169.02 155.19 170.586 154.189 172.158 153.197ZM178.485 148.8C178.231 149.156 177.963 149.506 177.667 149.844C177.616 149.902 177.56 149.966 177.504 150.03C177.802 149.872 178.104 149.722 178.406 149.572C178.427 149.32 178.452 149.062 178.485 148.8ZM195.874 127.616C195.663 127.581 195.493 127.482 195.436 127.295C194.022 122.606 189.85 118.658 185.698 116.278C183.97 115.288 182.131 114.564 180.251 113.937C175.428 114.969 171.118 118.917 169.124 123.34C169.075 123.451 168.939 123.544 168.766 123.617C172.068 125.557 174.162 128.39 176.092 132.001C176.125 132.063 176.062 132.143 175.946 132.225C176.393 135.472 175.886 138.453 174.957 141.609C174.224 144.102 172.515 146.36 172.149 148.964C171.832 151.216 173.055 152.619 174.948 150.753C175.665 150.046 176.36 149.307 176.951 148.488C178.988 145.663 179.644 142.3 180.518 139.004C180.521 138.942 180.527 138.876 180.526 138.824C180.526 138.744 180.564 138.672 180.625 138.605C180.656 138.494 180.685 138.382 180.716 138.271C180.915 137.559 182.679 137.339 182.462 138.119C182.381 138.407 182.304 138.696 182.226 138.985C182.082 141.67 180.89 144.368 180.336 146.965C180.174 147.726 179.965 148.574 179.859 149.422C180.092 149.605 180.141 149.899 179.8 150.155C179.778 150.689 179.811 151.214 179.949 151.706C180.491 153.634 182.377 153.46 183.418 151.952C186.331 147.732 186.862 140.601 186.092 135.644C186.014 135.144 187.754 134.759 187.819 135.181C188.327 138.448 187.989 142.084 187.382 145.314C187.234 146.1 187.064 146.947 186.839 147.795C187.064 147.789 187.225 147.823 187.223 147.903C187.201 148.505 187.358 152.687 188.953 150.843C190.131 149.482 190.78 147.762 191.225 146.035C192.18 142.32 192.547 138.464 192.055 134.649C191.997 134.203 193.739 133.85 193.782 134.187C194.17 137.188 194.063 140.287 193.484 143.261C193.395 143.72 193.297 144.209 193.193 144.706C193.331 144.77 193.413 144.881 193.387 145.051C193.34 145.359 192.863 148.252 193.936 146.619C194.553 145.679 195.038 144.661 195.357 143.58C195.803 142.066 196.258 140.468 196.426 138.894C196.478 138.403 196.512 137.913 196.538 137.425C196.524 137.403 196.508 137.382 196.494 137.361C196.363 137.168 196.415 136.98 196.56 136.824C196.665 133.728 196.3 130.687 195.874 127.616ZM202.201 135.014C202.093 134.746 201.986 134.479 201.878 134.212C201.045 132.339 200.157 130.513 199.028 128.795C198.548 128.066 198.049 127.347 197.533 126.642C198 129.898 198.526 133.573 198.407 137.125C198.695 137.562 199.003 138.013 199.387 138.339C202.023 137.744 202.96 136.636 202.201 135.014ZM225.398 125.263C221.496 121.294 217.491 117.432 213.435 113.623C212.955 113.617 212.895 113.444 213.033 113.248C206.518 107.14 199.89 101.149 193.391 95.0236C190.322 96.6314 188.008 99.3007 185.132 101.258C183.094 102.646 181.03 103.997 178.951 105.321C177.319 106.361 175.423 107.87 173.467 108.982C172.939 109.281 172.407 109.553 171.875 109.777C174.218 110.709 176.642 111.503 179.095 112.257C179.894 112.502 180.695 112.745 181.499 112.985C185.17 114.083 189.007 116.166 192.03 118.985C192.096 119 192.157 119.022 192.207 119.054C195.121 120.979 197.545 123.59 199.526 126.455C201.217 128.899 203.742 132.322 204.171 135.354C204.257 135.958 204.229 136.527 204.103 137.051C204.746 136.713 205.387 136.37 206.029 136.028C205.971 135.685 206.341 135.232 206.921 135.209C207.144 135.2 207.364 135.206 207.586 135.2C210.305 133.735 213.009 132.243 215.71 130.746C216.786 130.15 217.885 129.569 218.985 128.986L225.398 125.263ZM235.182 144.325C232.83 142.256 229.975 140.684 226.992 139.498C229.837 140.852 232.568 142.48 235.182 144.325ZM260.375 171.916C260.309 171.918 260.246 171.917 260.186 171.917C260.199 171.938 260.212 171.959 260.226 171.979C260.277 171.959 260.325 171.937 260.375 171.916ZM308.701 139.378C301.154 146.346 291.219 149.729 281.066 150.465C278.044 156.335 274.772 162.043 270.194 166.454C270.404 166.427 270.582 166.441 270.666 166.527C273.475 169.425 276.803 172.703 280.811 173.843C285.645 175.217 289.848 173.028 293.532 169.994C297.476 166.745 300.933 163.097 304.072 159.078C306.698 155.714 318.594 140.245 308.701 139.378ZM3.55663 145.28C6.14304 130.25 16.5859 116.711 29.1756 108.491C35.4964 104.364 46.0358 99.306 52.9351 104.804C55.37 106.744 57.0404 109.845 58.3238 112.612C59.1557 114.405 60.2267 116.754 60.052 118.786C59.9769 119.66 61.7349 119.402 61.8005 118.644C62.2078 113.915 58.1097 107.251 54.7558 104.258C48.4552 98.6345 38.7227 101.917 32.1842 105.308C17.2371 113.058 4.68911 128.686 1.80811 145.423C1.6626 146.27 3.42722 146.033 3.55663 145.28Z" fill="#A51361"/>
</svg>
