<svg width="20" height="20" viewBox="0 0 20 20" fill="none" xmlns="http://www.w3.org/2000/svg">
<path d="M4.50197 4.97506C4.63733 3.61089 5.27501 2.34575 6.2911 1.4255C7.30718 0.505249 8.6291 -0.00439453 9.99997 -0.00439453C11.3708 -0.00439453 12.6928 0.505249 13.7088 1.4255C14.7249 2.34575 15.3626 3.61089 15.498 4.97506L15.784 7.84106C15.802 8.01606 15.81 8.10306 15.821 8.18906C15.965 9.3722 16.3716 10.5082 17.011 11.5141L17.203 11.8051L18.064 13.0971C18.851 14.2771 19.244 14.8661 19.072 15.3411C19.0386 15.4317 18.9936 15.5157 18.937 15.5931C18.637 16.0001 17.928 16.0001 16.511 16.0001H3.48897C2.07197 16.0001 1.36297 16.0001 1.06297 15.5931C1.00648 15.5159 0.961359 15.431 0.928971 15.3411C0.755971 14.8661 1.14897 14.2761 1.93497 13.0971L2.79697 11.8051L2.98897 11.5141C3.62837 10.5082 4.03494 9.3722 4.17897 8.18906C4.18897 8.10306 4.19897 8.01606 4.21597 7.84106L4.50197 4.97506Z" fill="#B8B8B8"/>
<path d="M8.06787 18.6301C8.18187 18.7361 8.43287 18.8302 8.78287 18.8972C9.13187 18.9642 9.55987 19.0002 9.99987 19.0002C10.4399 19.0002 10.8679 18.9642 11.2169 18.8972C11.5659 18.8302 11.8169 18.7362 11.9319 18.6292" stroke="#B8B8B8" stroke-width="2" stroke-linecap="round"/>
</svg>
