<svg width="53" height="54" viewBox="0 0 53 54" fill="none" xmlns="http://www.w3.org/2000/svg">
<path d="M52.5 27C52.5 41.6444 40.8506 53.5 26.5 53.5C12.1494 53.5 0.5 41.6444 0.5 27C0.5 12.3556 12.1494 0.5 26.5 0.5C40.8506 0.5 52.5 12.3556 52.5 27Z" fill="#A51361" stroke="#A51361"/>
<path d="M13.5 14.5H16.1422C17.0636 14.5 17.5235 14.5 17.8908 14.7015C18.0422 14.7848 18.1793 14.8918 18.297 15.0184C18.5814 15.3255 18.6935 15.7724 18.9161 16.6661L19.2119 17.8475C19.376 18.504 19.4589 18.8322 19.5856 19.1085C19.8023 19.5799 20.1287 19.9926 20.5375 20.312C20.9462 20.6315 21.4256 20.8484 21.9354 20.9448C22.2344 21 22.5724 21 23.25 21" stroke="#F7F7F7" stroke-width="3" stroke-linecap="round"/>
<path d="M36.25 35.625H19.2687C19.0331 35.625 18.9145 35.625 18.8235 35.6152C18.5979 35.5901 18.38 35.5179 18.184 35.4034C17.988 35.2889 17.8181 35.1346 17.6854 34.9504C17.5526 34.7662 17.4599 34.5562 17.4133 34.3341C17.3667 34.1119 17.3671 33.8824 17.4146 33.6604C17.452 33.5165 17.4959 33.3745 17.5462 33.2346C17.6307 32.9844 17.6714 32.8593 17.7185 32.7471C17.9498 32.1931 18.3301 31.7139 18.8171 31.3628C19.3042 31.0117 19.879 30.8024 20.4777 30.7581C20.598 30.75 20.7312 30.75 20.9929 30.75H29.75" stroke="#F7F7F7" stroke-width="3" stroke-linecap="round" stroke-linejoin="round"/>
<path d="M30.6081 30.75H24.8328C22.8568 30.75 21.8688 30.75 21.1067 30.3031C20.7854 30.114 20.499 29.8711 20.2601 29.5849C19.6913 28.9056 19.5288 27.9306 19.2054 25.9822C18.8756 24.0079 18.7114 23.0199 19.1031 22.2886C19.266 21.9835 19.492 21.7165 19.7661 21.5054C20.4226 21 21.4236 21 23.4256 21H34.2416C36.5978 21 37.7759 21 38.2537 21.7702C38.7298 22.5421 38.2017 23.5951 37.1487 25.7028L36.4223 27.1571C35.5481 28.9056 35.1109 29.7799 34.3261 30.2641C33.5396 30.75 32.5629 30.75 30.6081 30.75Z" stroke="#F7F7F7" stroke-width="3" stroke-linecap="round"/>
<path d="M34.625 42.125C35.5225 42.125 36.25 41.3975 36.25 40.5C36.25 39.6025 35.5225 38.875 34.625 38.875C33.7275 38.875 33 39.6025 33 40.5C33 41.3975 33.7275 42.125 34.625 42.125Z" fill="#F7F7F7"/>
<path d="M21.625 42.125C22.5225 42.125 23.25 41.3975 23.25 40.5C23.25 39.6025 22.5225 38.875 21.625 38.875C20.7275 38.875 20 39.6025 20 40.5C20 41.3975 20.7275 42.125 21.625 42.125Z" fill="#F7F7F7"/>
</svg>
