<svg width="63" height="62" viewBox="0 0 63 62" fill="none" xmlns="http://www.w3.org/2000/svg">
<path d="M9.80005 17.05C9.80005 14.9946 10.6166 13.0234 12.07 11.57C13.5234 10.1166 15.4946 9.30005 17.55 9.30005H45.45C47.5055 9.30005 49.4767 10.1166 50.9301 11.57C52.3835 13.0234 53.2 14.9946 53.2 17.05V29.76C51.7345 29.0114 50.1682 28.4789 48.55 28.179V17.05C48.55 16.2279 48.2234 15.4394 47.6421 14.858C47.0607 14.2767 46.2722 13.95 45.45 13.95H17.55C16.7279 13.95 15.9394 14.2767 15.358 14.858C14.7767 15.4394 14.45 16.2279 14.45 17.05V44.95C14.45 45.7722 14.7767 46.5607 15.358 47.1421C15.9394 47.7234 16.7279 48.05 17.55 48.05H28.679C28.9789 49.6682 29.5114 51.2345 30.26 52.7H17.55C15.4946 52.7 13.5234 51.8835 12.07 50.4301C10.6166 48.9767 9.80005 47.0055 9.80005 44.95V17.05ZM59.4 44.95C59.4 48.6498 57.9303 52.1981 55.3142 54.8142C52.6981 57.4303 49.1498 58.9 45.45 58.9C41.7503 58.9 38.202 57.4303 35.5859 54.8142C32.9698 52.1981 31.5 48.6498 31.5 44.95C31.5 41.2503 32.9698 37.702 35.5859 35.0859C38.202 32.4698 41.7503 31 45.45 31C49.1498 31 52.6981 32.4698 55.3142 35.0859C57.9303 37.702 59.4 41.2503 59.4 44.95ZM47 38.75C47 38.339 46.8367 37.9447 46.5461 37.654C46.2554 37.3633 45.8611 37.2 45.45 37.2C45.039 37.2 44.6447 37.3633 44.354 37.654C44.0633 37.9447 43.9 38.339 43.9 38.75V43.4H39.25C38.839 43.4 38.4447 43.5633 38.154 43.854C37.8633 44.1447 37.7 44.539 37.7 44.95C37.7 45.3611 37.8633 45.7554 38.154 46.0461C38.4447 46.3367 38.839 46.5 39.25 46.5H43.9V51.15C43.9 51.5611 44.0633 51.9554 44.354 52.2461C44.6447 52.5367 45.039 52.7 45.45 52.7C45.8611 52.7 46.2554 52.5367 46.5461 52.2461C46.8367 51.9554 47 51.5611 47 51.15V46.5H51.65C52.0611 46.5 52.4554 46.3367 52.7461 46.0461C53.0367 45.7554 53.2 45.3611 53.2 44.95C53.2 44.539 53.0367 44.1447 52.7461 43.854C52.4554 43.5633 52.0611 43.4 51.65 43.4H47V38.75Z" fill="#F7F7F7"/>
</svg>
