<svg width="137" height="137" viewBox="0 0 137 137" fill="none" xmlns="http://www.w3.org/2000/svg">
<path d="M68.5 126.984C100.438 126.984 126.984 100.494 126.984 68.4999C126.984 36.5618 100.379 10.0156 68.4413 10.0156C36.4493 10.0156 10.0181 36.5618 10.0181 68.4999C10.0181 100.494 36.5056 126.984 68.5 126.984ZM68.4462 77.1016C65.4053 77.1016 63.7441 75.323 63.6267 72.2821L62.8243 43.9623C62.7093 40.8064 65.1166 38.5728 68.385 38.5728C71.5972 38.5728 74.0607 40.8651 73.9482 44.0185L73.1433 72.287C73.0283 75.3818 71.3085 77.104 68.4437 77.104M68.4437 98.2045C65.1166 98.2045 62.0194 95.5672 62.0194 92.0101C62.0194 88.453 65.0603 85.8207 68.4437 85.8207C71.7684 85.8207 74.8632 88.3992 74.8632 92.0101C74.8632 95.6235 71.7097 98.2045 68.4437 98.2045Z" fill="#A51361"/>
</svg>
