<svg width="136" height="133" viewBox="0 0 136 133" fill="none" xmlns="http://www.w3.org/2000/svg">
<g clip-path="url(#clip0_164_733)">
<path fill-rule="evenodd" clip-rule="evenodd" d="M26.8564 0.918023C27.7801 -0.294041 29.5957 -0.308208 30.5381 0.889296L57.7998 35.533C59.2542 37.3813 57.3772 39.9818 55.1712 39.1748L46.2457 35.9092C46.2377 36.1032 46.2297 36.2973 46.2217 36.4912L46.207 36.8462L46.1867 37.3378C46.0149 41.4998 45.8398 45.7435 45.7579 50.112C45.5816 59.5259 45.8691 68.6295 47.3408 76.579C48.831 84.6272 51.272 90.0038 54.2454 93.2951C56.7516 96.0694 60.7793 98.6765 68.961 98.9989C85.6855 99.658 93.8445 95.6717 97.4978 92.4111C100.886 89.3872 102.522 85.1173 102.078 79.5312C101.611 73.6498 98.7868 67.1887 94.2318 62.2951C89.7582 57.4884 84.5307 55.0975 79.4501 55.0975V55.0109C78.6311 54.7611 78.035 53.9978 78.035 53.0949V23.2241C78.035 22.3213 78.6311 21.558 79.4501 21.3082V21.2218C79.6119 21.2218 79.7736 21.2224 79.9349 21.2241C79.9672 21.2224 79.9998 21.2216 80.0326 21.2216C80.0817 21.2216 80.1301 21.2234 80.1782 21.2269C96.0874 21.4535 109.541 29.0869 118.939 39.1848C128.399 49.3492 134.657 62.9018 135.764 76.8435C136.894 91.0801 132.596 106.442 119.968 117.713C107.604 128.746 89.6648 133.717 67.6334 132.849C51.4699 132.212 38.4977 126.329 29.1982 116.035C20.3655 106.257 16.1949 93.9869 14.1164 82.761C12.0197 71.4363 11.7816 59.6387 11.972 49.476C12.0613 44.7092 12.2515 40.1059 12.4209 36.0056L12.421 36.0049L12.421 36.0041L12.4369 35.6186L3.16482 39.1217C0.973196 39.9497 -0.930792 37.3832 0.490988 35.5173L26.8564 0.918023Z" fill="#FCA311"/>
</g>
<defs>
<clipPath id="clip0_164_733">
<rect width="136" height="133" fill="white"/>
</clipPath>
</defs>
</svg>
