<svg width="205" height="162" viewBox="0 0 205 162" fill="none" xmlns="http://www.w3.org/2000/svg">
<g clip-path="url(#clip0_913_1302)">
<path d="M144.656 101.19C146.636 99.0484 148.873 96.4398 150.68 94.2873C150.163 95.0045 149.632 95.7154 149.075 96.4129C147.744 98.0792 146.264 99.6979 144.656 101.19ZM175.299 66.7921C173.105 64.7867 170.483 64.5727 167.778 64.6768C167.592 64.7342 167.386 64.7477 167.226 64.7015C166.113 64.7593 164.991 64.8535 163.882 64.884C161.052 78.1353 156.121 91.9419 145.704 101.18C144.142 102.566 142.512 103.824 140.799 104.927C140.156 105.397 139.354 105.858 138.463 106.299C136.283 107.466 133.971 108.387 131.496 109.002C131.044 109.114 127.231 110.034 124.731 110.352C124.595 110.428 124.447 110.478 124.31 110.478C122.196 110.477 120.118 110.43 118.069 110.044C118.052 110.045 118.042 110.046 118.042 110.046C118.042 110.046 118.029 110.04 118.011 110.032C117.367 109.908 116.726 109.754 116.088 109.554C115.887 109.491 115.812 109.395 115.817 109.289C90.4144 99.9406 106.166 64.649 117.552 49.4295C117.47 49.1286 117.362 48.8469 117.23 48.5836C116.291 47.7906 114.835 46.6424 113.353 45.7888C111.383 45.2573 109.058 45.2905 107.067 45.6951C106.94 45.7404 106.8 45.7718 106.669 45.783C105.676 46.0149 104.783 46.3387 104.081 46.7303C103.921 46.8195 103.615 46.855 103.377 46.8334C102.535 47.9498 101.718 49.0999 100.94 50.2894C100.957 50.6392 100.97 50.9891 100.975 51.3394C100.978 51.6058 100.378 51.7856 99.9923 51.7951C94.4548 60.7759 90.7997 71.4711 90.1278 81.8034C89.5003 91.4584 90.1978 104.344 97.7994 111.403C97.9021 111.498 97.4473 111.743 97.0535 111.842C96.9248 111.9 96.7956 111.94 96.6965 111.944C96.5094 111.951 96.3215 111.95 96.134 111.953C91.9125 117.159 85.9044 121.021 78.9985 120.759C78.1171 120.725 78.9612 119.947 79.4891 119.967C85.704 120.202 91.063 116.604 94.8678 111.95C94.5951 111.944 94.322 111.936 94.0484 111.923L93.1482 112.065C93.1482 112.065 92.749 111.958 92.0681 111.773C87.3344 111.274 82.5916 109.85 78.2714 108.15C76.5248 107.462 74.6885 106.692 72.8944 105.793C72.21 105.492 71.5717 105.145 70.9765 104.769C68.428 103.31 66.0813 101.532 64.3343 99.2951C61.064 112.961 63.0735 127.299 71.7561 138.697C77.9265 146.797 87.1236 153.951 97.3029 156.067C97.3617 156.036 97.4267 156.008 97.5047 155.99C102.79 154.709 107.922 152.845 112.764 150.363C128.233 142.434 140.457 129.543 150.131 115.3C153.763 109.953 157.597 104.723 161.162 99.3404C164.62 94.1213 167.19 88.6722 169.665 82.9458C171.873 77.8362 174.434 72.7028 175.69 67.2522C175.716 67.1401 175.782 67.0446 175.871 66.9661C175.842 66.9392 175.808 66.9078 175.775 66.8773C175.581 66.9033 175.4 66.8845 175.299 66.7921ZM72.1553 141.265C73.8135 143.638 76.0113 145.741 78.4185 147.573C76.1265 145.638 74.0202 143.509 72.1553 141.265ZM126.178 109.7C126.022 109.688 125.841 109.679 125.642 109.674C125.604 109.723 125.566 109.772 125.527 109.821C125.731 109.786 125.949 109.745 126.178 109.7ZM171.725 64.104C171.698 64.0942 171.669 64.0812 171.642 64.0722C170.922 63.8322 169.633 63.8497 168.272 63.9699C168.271 63.9726 168.271 63.9753 168.271 63.978C169.446 63.9349 170.604 63.9421 171.725 64.104ZM109.191 44.8146C109.48 44.7882 109.771 44.7689 110.062 44.7559C109.778 44.7599 109.488 44.7792 109.191 44.8146Z" fill="#F6B00E"/>
<path d="M115.557 95.6289C115.545 96.3416 115.309 97.1391 114.648 97.5114C114.381 97.6621 114.012 97.7823 113.722 97.6101C113.462 97.4562 113.594 97.1378 113.812 97.0149C114.203 96.7946 114.242 96.1613 114.249 95.7576C114.257 95.2468 115.567 95.0086 115.557 95.6289ZM121.797 90.7705C121.313 90.2726 120.942 89.6702 120.711 89.0154C120.616 88.7462 119.334 89.1441 119.411 89.3634C119.655 90.0559 120.057 90.6713 120.568 91.1965C120.783 91.419 121.957 90.9351 121.797 90.7705ZM119.599 91.8371C119.636 91.4921 119.259 91.3858 118.992 91.3858C118.768 91.3858 118.543 91.3858 118.319 91.3858C118.027 91.3858 117.64 91.6087 117.607 91.9254C117.571 92.2703 117.947 92.3766 118.214 92.3766C118.438 92.3766 118.663 92.3766 118.887 92.3766C119.179 92.3762 119.566 92.1533 119.599 91.8371ZM154.311 111.076C150.976 116.214 147.492 121.251 143.594 125.982C131.845 140.244 116.794 152.057 98.6727 156.715C98.5516 156.954 98.1739 157.183 97.847 157.126C93.9928 156.457 90.2368 155.086 86.706 153.211C86.2996 153.34 85.7161 153.346 85.7807 153.221C85.6322 153.509 82.5495 152.95 82.0772 152.886C79.3362 152.512 76.6123 151.955 73.9669 151.139C66.8223 148.937 60.0966 145.066 55.3049 139.232C48.1832 130.561 45.3445 118.562 43.8877 107.661C42.5008 97.2822 42.5327 86.5897 42.6573 76.1341C42.73 70.0067 42.9596 63.8834 43.2862 57.765C43.3925 55.7713 43.5131 53.7776 43.6132 51.7835C43.6239 51.5655 43.8415 50.032 43.7168 49.7023C43.6423 49.6852 43.601 49.6556 43.619 49.6112C43.6212 49.6059 43.6248 49.6018 43.6271 49.5969C43.6405 49.5673 43.658 49.5413 43.6773 49.5171C43.6872 49.5049 43.6966 49.4928 43.7074 49.4798C43.7549 49.4233 43.8433 49.3663 43.9509 49.3148C45.1148 48.489 46.3447 47.8369 47.6181 47.3453C46.2465 43.5673 46.1267 38.9883 46.168 35.0264C46.1998 31.9415 46.068 26.2097 48.9565 24.1241C52.067 21.8783 55.2682 24.3313 57.0461 27.0547C58.4621 29.2238 59.8589 31.8778 60.1132 34.5048C60.5119 38.629 59.9844 42.8793 60.1522 47.0331C61.348 47.3785 62.52 47.8221 63.6552 48.3509C63.8369 48.3231 64.0033 48.3181 64.0822 48.3419C64.1342 48.3455 64.1724 48.3693 64.1966 48.4132C64.1979 48.4796 64.1988 48.5464 64.2002 48.6128C64.3356 48.6796 64.4711 48.746 64.6047 48.816C64.711 48.8712 64.4962 49.0317 64.21 49.156C64.38 57.0573 64.3948 64.9639 64.5406 72.8661C64.6447 78.4844 64.7554 84.1035 64.9595 89.7191C65.0295 91.6469 65.0981 93.5769 65.2372 95.5011C65.2789 96.073 65.1708 97.2687 65.5422 97.7626C65.5852 97.8195 65.3201 97.9828 65.0151 98.094C68.2082 102.804 74.2041 105.615 79.3205 107.571C80.697 108.097 82.1095 108.602 83.5461 109.061C85.3393 87.3684 84.4373 65.5753 84.4261 43.8387C84.4261 43.383 85.7255 43.1578 85.7259 43.4906C85.7372 65.3416 86.6432 87.2491 84.8253 109.056C84.8154 109.174 84.6831 109.281 84.5059 109.359C88.052 110.433 91.7322 111.197 95.3908 111.294C95.485 111.172 95.5792 111.049 95.6712 110.926C88.9078 103.71 88.1426 91.4361 88.8293 82.1524C89.642 71.1693 93.5541 59.8982 99.6379 50.5765C99.533 48.4792 99.2495 46.3895 99.2275 44.2877C99.2235 43.8947 100.525 43.6916 100.527 43.9396C100.544 45.5646 100.717 47.182 100.844 48.8016C101.343 48.0898 101.853 47.3879 102.378 46.703C102.516 46.524 102.97 46.4473 103.299 46.4294C104.072 45.9974 105.077 45.618 106.204 45.3278C106.44 42.9824 108.003 36.1473 110.42 30.8704C109.896 31.6401 109.105 32.3093 108.524 32.7138C104.639 35.4189 98.1771 36.5048 96.9728 41.7127C98.3202 41.888 99.59 42.3298 100.703 43.1784C101.091 43.4745 99.8869 43.9966 99.4998 43.7019C95.9708 41.0107 90.3642 43.1417 86.5158 44.0172C85.7291 44.1957 85.5295 43.4933 86.3265 43.3121C86.5091 43.2704 86.6957 43.2264 86.884 43.1811C86.9311 40.3698 85.0531 37.444 85.9601 34.6555C86.5674 32.7892 88.3642 32.264 89.9493 31.4086C95.2128 28.5672 100.429 27.3019 106.389 27.1996C107.916 27.1732 109.991 26.9911 110.783 28.5672C111 28.9973 111.01 29.4423 110.893 29.8782C112.997 25.667 115.674 22.809 118.65 24.8117C118.931 25.0009 117.78 25.5217 117.435 25.2898C113.181 22.4273 108.01 41.0883 107.507 45.0439C108.055 44.9448 108.619 44.8667 109.191 44.8147C109.48 44.7882 109.77 44.7689 110.061 44.7559C113.109 44.6196 116.203 45.243 117.847 47.1591C119.715 45.0941 122.703 44.0939 125.112 42.8963C126.651 42.1316 128.809 41.2009 129.577 39.5342C131.031 36.3828 124.245 39.0125 122.762 39.7225C122.738 39.7759 122.712 39.8275 122.688 39.8809C122.5 40.3007 121.199 40.4299 121.469 39.823C122.449 37.6266 123.791 35.6625 125.057 33.6275C125.686 32.6183 126.331 31.6006 126.83 30.5192C127.202 29.7141 128.814 26.0707 125.985 27.4454C122.962 28.9152 121.752 32.9825 119.996 35.6194C119.743 36.0002 118.426 36.0904 118.778 35.5615C120.302 33.2718 121.98 29.1068 124.572 27.3418C124.607 26.225 124.439 25.0377 123.179 26.0671C122.034 27.0032 121.021 28.1021 120.074 29.2355C118.717 30.8601 117.115 32.6353 116.214 34.5748C116.064 34.8977 114.851 34.9915 114.934 34.8111C116.281 31.9132 118.926 28.9251 121.291 26.7964C121.134 26.7731 121.011 26.7031 120.979 26.5694C120.648 25.1826 120.159 24.7655 119.086 25.8392C118.139 26.787 117.349 27.8841 116.615 29.0018C115.49 30.7138 114.528 32.5089 113.492 34.272C113.26 34.6658 111.948 34.7721 112.274 34.2169C113.846 31.54 115.257 28.7287 117.307 26.3689C118.772 24.6834 121.406 23.0794 122.232 26.0442C123.777 24.9651 125.774 24.2878 125.867 26.7004C126.822 26.4039 127.889 26.4394 129.095 26.9623C129.191 27.0041 129.257 27.1135 129.233 27.2185C128.215 31.5871 125.149 34.9758 123.157 38.9031C125.673 37.7454 128.399 36.8627 131.127 37.7791C131.225 37.8118 131.255 37.8589 131.245 37.9562C130.981 40.4962 128.386 41.9123 126.327 42.9358C123.657 44.263 120.149 45.3197 118.412 47.9019C118.406 47.9113 118.395 47.9198 118.387 47.9288C118.512 48.1526 118.621 48.3899 118.713 48.6411C119.044 48.6693 119.29 48.8523 119.023 49.2008C118.987 49.2475 118.952 49.2968 118.916 49.3439C118.925 49.4587 118.83 49.5655 118.684 49.6507C107.807 64.1485 92.2897 98.3353 115.536 108.073C116.451 107.302 117.706 106.02 117.671 104.747C117.643 103.7 116.032 103.343 115.326 103.04C113.922 102.44 112.803 101.837 111.892 100.59C110.086 98.1182 113.241 95.0342 113.572 92.6117C113.591 92.4749 113.689 92.36 113.822 92.2744C113.714 92.2327 113.626 92.1622 113.579 92.055C113.126 91.0364 113.319 89.8442 113.572 88.7983C113.665 88.4161 114.112 88.2802 114.46 88.2937C115.227 88.3224 115.557 88.6547 115.896 89.158C116.94 87.4155 117.901 85.6133 119.642 84.4579C119.824 84.3372 120.098 84.3107 120.325 84.3507C119.959 83.1374 119.888 81.9062 120.246 80.8163C121.396 77.3128 125.292 76.3857 128.492 75.6254C128.552 75.6111 128.601 75.6106 128.654 75.6057C128.672 75.5784 128.687 75.5514 128.705 75.5241C129.058 74.9984 130.27 75.2505 129.803 75.9452C125.406 82.4861 134.939 87.3262 138.903 90.814C141.111 92.7574 140.664 95.2764 139.27 97.4759C139.028 98.0554 138.775 98.539 138.561 98.8336C137.689 100.033 133.425 103.558 129.685 104.887C128.2 106.352 126.912 108.032 125.64 109.675C125.601 109.724 125.563 109.773 125.525 109.822C125.729 109.787 125.947 109.746 126.176 109.701C129.382 109.069 134.826 107.559 135.376 107.332C138.779 105.925 141.905 103.743 144.655 101.191C146.262 99.6984 147.742 98.0801 149.073 96.4138C149.63 95.7159 150.161 95.005 150.678 94.2883C156.982 85.5514 160.415 75.4092 162.646 64.8863C162.644 64.8863 162.642 64.8863 162.64 64.8863C161.76 64.8603 162.662 64.1422 163.147 64.1566C164.41 64.1938 165.691 64.1117 166.964 64.0413C167.093 61.6062 167.829 58.811 166.396 56.6576C165.39 55.1452 164.017 53.8794 163.075 52.3307C162.188 50.8725 160.999 48.5411 161.728 46.8057C162.25 45.5628 164.327 44.5971 165.525 45.5606C167.317 47.0026 167.711 49.7386 169.395 51.2255C171.635 51.8256 173.759 47.0932 174.585 45.5781C175.577 43.7606 176.396 41.8275 178.219 40.7174C179.722 39.8015 180.957 40.5012 181.143 42.0468C181.152 42.045 181.161 42.0423 181.17 42.041C183.012 41.7508 183.834 42.4299 184.047 43.5808C185.866 43.1713 187.07 44.5438 186.92 46.7465C187.066 46.7662 187.193 46.834 187.26 46.964C188.98 50.2778 186.464 53.6713 184.304 56.0997C181.632 59.1052 177.446 61.9399 175.851 65.7224C175.849 65.7287 175.844 65.7336 175.842 65.7394C176.066 65.9072 176.287 66.0875 176.505 66.2866C176.748 66.5087 176.226 66.8168 175.774 66.8778C175.58 66.9043 175.399 66.8854 175.298 66.793C173.104 64.7877 170.482 64.5737 167.777 64.6778C167.59 64.7352 167.385 64.7486 167.224 64.7024C166.112 64.7603 164.99 64.8545 163.881 64.885C161.05 78.1363 156.12 91.9429 145.703 101.181C144.141 102.567 142.511 103.825 140.797 104.928C140.036 105.418 139.256 105.874 138.461 106.3C136.282 107.467 133.97 108.388 131.495 109.003C131.043 109.115 127.23 110.035 124.73 110.353C124.594 110.429 124.446 110.479 124.309 110.479C122.194 110.478 120.117 110.431 118.068 110.045C118.048 110.041 118.029 110.036 118.009 110.032C117.366 109.909 116.725 109.755 116.087 109.555C115.885 109.492 115.811 109.396 115.815 109.29C90.4131 99.9415 106.165 64.6499 117.55 49.4305C117.468 49.1295 117.361 48.8478 117.228 48.5846C116.503 47.1421 115.063 46.2513 113.352 45.7898C111.381 45.2583 109.057 45.2915 107.066 45.696C106.939 45.7413 106.799 45.7727 106.667 45.784C105.675 46.0158 104.781 46.3397 104.079 46.7312C103.92 46.8205 103.614 46.8559 103.376 46.8344C102.533 47.9508 101.717 49.1008 100.939 50.2903C100.955 50.6402 100.968 50.99 100.973 51.3403C100.977 51.6067 100.377 51.7866 99.9909 51.796C94.4534 60.7769 90.7983 71.4721 90.1265 81.8044C89.499 91.4594 90.1964 104.345 97.7981 111.404C97.9008 111.499 97.446 111.744 97.0522 111.843C96.9234 111.901 96.7943 111.941 96.6951 111.945C96.5081 111.952 96.3202 111.951 96.1327 111.954C91.9111 117.16 85.9031 121.022 78.9971 120.76C78.1158 120.726 78.9599 119.948 79.4878 119.968C85.7026 120.203 91.0616 116.605 94.8665 111.951C94.5938 111.945 94.3206 111.937 94.047 111.923C93.3877 111.892 92.7279 111.843 92.0668 111.774C87.333 111.275 82.5903 109.851 78.2701 108.151C76.5235 107.463 74.6872 106.693 72.8931 105.793C72.2463 105.469 71.6045 105.13 70.9752 104.769C68.4266 103.311 66.0799 101.533 64.3329 99.2961C61.0627 112.962 63.0721 127.3 71.7547 138.698C77.9251 146.798 87.1222 153.952 97.3016 156.068C97.3603 156.037 97.4254 156.009 97.5034 155.991C102.788 154.71 107.921 152.846 112.763 150.364C128.232 142.435 140.455 129.543 150.13 115.3C153.761 109.954 157.595 104.724 161.161 99.3414C164.618 94.1223 167.189 88.6731 169.664 82.9468C171.872 77.8371 174.432 72.7037 175.689 67.2532C175.715 67.1411 175.781 67.0455 175.869 66.967C176.269 66.6154 177.137 66.6221 177.01 67.1725C175.352 74.3669 171.851 81.4451 168.793 88.1421C164.977 96.5022 159.273 103.432 154.311 111.076ZM167.928 56.6962C169.142 58.8258 168.39 61.6372 168.272 63.97C168.272 63.9727 168.272 63.9754 168.271 63.9781C169.446 63.935 170.604 63.9422 171.725 64.1041C172.799 64.2588 173.838 64.5576 174.826 65.09C176.259 62.1656 179.223 59.9121 181.423 57.6282C183.466 55.508 187.029 52.132 186.499 48.8272C185.737 51.1663 184.102 53.369 182.498 55.0573C182.112 55.4636 180.857 55.2869 181.417 54.6971C182.912 53.1241 184.337 51.1448 185.107 49.1004C185.502 48.0504 186.23 43.8629 184.103 44.4873C183.974 47.3731 181.491 51.8871 180.533 53.2784C180.342 53.5569 179.067 53.7413 179.346 53.3363C180.05 52.3132 182.591 47.4718 182.788 44.6384C182.653 44.5065 182.625 44.3128 182.799 44.132C182.754 43.117 182.294 42.4814 181.168 42.577C181.099 46.0894 178.862 48.7779 176.97 51.5771C176.67 52.0212 175.343 52.0275 175.733 51.4502C177.413 48.9663 180.871 45.1412 179.759 41.84C179.026 39.6624 175.734 45.8804 175.367 46.533C174.268 48.4827 172.152 52.3567 169.545 52.3055C169.309 52.3876 169.049 52.4074 168.891 52.3087C168.81 52.258 168.743 52.1943 168.667 52.1387C168.374 52.032 168.077 51.8745 167.775 51.6538C167.566 51.5013 167.579 51.3255 167.699 51.1757C166.904 50.1369 166.387 48.8209 165.712 47.7512C165.409 47.2717 165.028 46.5366 164.51 46.2536C163.309 45.5983 162.88 46.768 162.878 47.4821C162.876 48.3809 163.085 49.2771 163.422 50.1091C164.438 52.6227 166.599 54.3661 167.928 56.6962ZM118.642 105.827C118.645 105.828 118.648 105.828 118.651 105.829C121.247 106.642 123.88 106.698 126.576 106.699C126.685 106.699 126.768 106.712 126.829 106.735C127.271 106.216 127.728 105.71 128.202 105.221C127.631 105.259 127.07 105.199 126.533 105.069C124.747 104.965 123.016 104.261 121.514 102.743C121.269 102.665 121.028 102.558 120.795 102.423C120.722 102.38 120.827 102.28 121.005 102.18C120.828 101.855 121.991 101.443 122.238 101.732C122.395 101.916 122.555 102.086 122.716 102.249C122.937 102.262 123.17 102.275 123.379 102.286C123.5 102.223 123.617 102.127 123.732 101.977C124.106 101.487 124.315 100.828 124.322 100.214C124.336 99.066 123.774 97.9411 122.697 97.7433C122.45 98.1905 121.295 98.3156 121.424 97.7742C122.088 95.0046 122.376 91.7097 124.936 90.1143C123.091 89.1719 121.35 87.119 120.52 84.9203C120.505 84.9306 120.495 84.9409 120.478 84.9517C118.77 86.0856 117.905 87.99 116.862 89.6837C116.748 89.8685 116.433 89.9837 116.142 90.0079C115.893 90.3228 115.192 90.4749 114.979 90.1412C114.871 89.9725 114.787 89.7971 114.694 89.6437C114.59 90.3421 114.59 91.0526 114.88 91.7065C114.958 91.8824 114.857 92.0416 114.683 92.1546C114.822 92.2116 114.91 92.3206 114.886 92.4955C114.606 94.5403 112.858 96.2102 112.714 98.2093C112.513 101.006 115.258 101.765 117.285 102.719C118.945 103.499 119.131 104.66 118.642 105.827ZM116.546 108.472C116.798 108.565 117.046 108.66 117.306 108.748C117.454 108.798 117.532 108.865 117.561 108.94C119.846 109.539 122.161 109.608 124.523 109.613C125.056 108.927 125.592 108.237 126.142 107.56C126.13 107.56 126.116 107.563 126.104 107.563C123.398 107.562 120.753 107.48 118.15 106.713C117.716 107.349 117.136 107.955 116.546 108.472ZM109.373 28.6968C108.715 27.9464 107.144 28.0935 106.267 28.1245C100.862 28.3142 96.0134 29.1817 91.1908 31.7849C89.1684 32.8766 86.9249 33.4517 87.0787 36.2106C87.2052 38.4877 88.1834 40.5667 88.2009 42.8542C90.5696 42.2558 93.2235 41.5808 95.7088 41.6238C96.5862 38.18 99.4034 36.4429 102.482 34.9798C104.23 34.1482 106.124 33.3319 107.668 32.1442C108.476 31.5221 110.45 29.9262 109.373 28.6968ZM48.8914 46.9102C52.098 45.9548 55.5234 45.9477 58.829 46.6931C58.7088 40.991 59.8006 35.0489 57.1314 29.8042C55.583 26.7614 50.699 20.4273 48.5896 26.3972C47.3081 30.0245 47.3292 34.1572 47.5499 37.954C47.7199 40.8918 47.8944 44.1033 48.8914 46.9102ZM85.7165 152.669C83.1357 151.212 80.6858 149.489 78.4185 147.573C76.1265 145.638 74.0198 143.509 72.1553 141.265C71.7121 140.732 71.282 140.192 70.8666 139.647C61.6453 127.542 59.5041 112.487 63.3942 97.9604C63.3785 97.9348 63.3601 97.9115 63.3448 97.8859C63.2982 97.8088 63.3619 97.7173 63.4816 97.6334C63.5099 97.5307 63.535 97.4275 63.5641 97.3248C63.6086 97.1669 63.7633 97.0418 63.9517 96.9597C63.923 96.4703 63.944 95.9631 63.9234 95.6437C63.801 93.7868 63.7261 91.9263 63.6597 90.0667C63.4605 84.4507 63.3444 78.832 63.2412 73.2137C63.1389 67.6336 63.0569 62.0525 62.9869 56.4715C62.9793 55.879 63.0524 50.3657 63.0264 49.0954C61.8934 48.5303 60.7133 48.0499 59.5054 47.674C59.1843 47.7404 58.8645 47.7436 58.86 47.6498C58.8573 47.5938 58.8568 47.5377 58.8546 47.4816C54.1733 46.18 49.1556 46.4653 45.0076 49.3681C45.1857 49.9095 44.9125 51.4587 44.8959 51.7731C44.7744 54.0517 44.6403 56.3293 44.5241 58.6078C44.1617 65.7435 43.9043 72.8899 43.9419 80.0354C43.9958 90.282 43.9348 100.674 45.7275 110.794C47.6526 121.661 50.7519 133.562 58.9918 141.446C64.3101 146.535 71.0384 149.847 78.1848 151.485C80.4163 151.996 82.6759 152.372 84.9536 152.602C85.0092 152.608 85.3357 152.631 85.7165 152.669ZM148.525 61.9947C148.525 47.6418 148.525 33.2888 148.525 18.9359C148.525 18.2918 147.214 18.5188 147.214 19.0543C147.214 33.4073 147.214 47.7602 147.214 62.1131C147.214 62.7572 148.525 62.5298 148.525 61.9947ZM134.175 77.2536C134.175 69.3294 134.175 61.4057 134.175 53.4816C134.175 52.7998 132.858 52.9985 132.858 53.5816C132.858 61.5058 132.858 69.4295 132.858 77.3536C132.858 78.0354 134.175 77.8367 134.175 77.2536ZM116.715 64.3589C116.715 66.9007 116.715 69.442 116.715 71.9838C116.715 72.6145 118.024 72.3781 118.024 71.8592C118.024 69.3173 118.024 66.776 118.024 64.2342C118.024 63.6035 116.715 63.8395 116.715 64.3589ZM77.652 54.2544C77.652 42.1441 77.652 30.0339 77.652 17.9236C77.652 17.7384 76.3521 17.9173 76.3521 18.2717C76.3521 30.3819 76.3521 42.4922 76.3521 54.6025C76.3521 54.7882 77.652 54.6092 77.652 54.2544ZM76.8007 77.4779C76.8007 82.7108 76.8007 87.9434 76.8007 93.1764C76.8007 93.5401 78.1005 93.3055 78.1005 92.8283C78.1005 87.5953 78.1005 82.3628 78.1005 77.1298C78.1005 76.766 76.8007 77.0002 76.8007 77.4779ZM182.323 138.444C175.504 140.667 163.178 141.879 160.235 149.754C157.326 146.48 155.104 142.615 150.916 140.83C151.036 140.769 151.132 140.687 151.173 140.588C152.691 136.903 155.14 134.354 158.422 132.657C158.422 133.656 158.422 134.654 158.422 135.652C158.422 136.371 159.743 136.204 159.743 135.572C159.743 134.393 159.743 133.214 159.743 132.035C160.264 131.815 160.8 131.612 161.357 131.427C165.342 130.107 169.547 129.558 173.598 128.468C176.499 131.265 177.669 135.299 180.007 138.55C180.247 138.884 181.504 138.454 181.217 138.055C178.678 134.523 177.537 130.092 174.041 127.291C173.699 127.016 172.503 127.524 172.83 127.786C172.854 127.805 172.875 127.826 172.899 127.845C168.494 128.998 163.826 129.726 159.743 131.336C159.743 129.309 159.743 127.282 159.743 125.256C159.743 124.537 158.422 124.703 158.422 125.336C158.422 127.523 158.422 129.71 158.422 131.897C154.806 133.565 151.763 136.097 149.948 140.504C149.895 140.633 149.907 140.731 149.96 140.803C149.598 140.943 149.302 141.17 149.588 141.283C154.271 143.133 156.478 147.662 159.821 151.103C159.827 151.11 159.836 151.113 159.843 151.119C159.823 151.213 159.797 151.302 159.779 151.397C159.69 151.873 160.997 151.65 161.076 151.225C162.736 142.357 175.546 141.324 182.488 139.06C183.245 138.814 183.095 138.192 182.323 138.444ZM164.712 109.323C164.712 114.706 164.712 120.088 164.712 125.47C164.712 125.637 166.012 125.463 166.012 125.122C166.012 119.74 166.012 114.358 166.012 108.975C166.012 108.808 164.712 108.982 164.712 109.323ZM12.1902 72.3543C14.2426 69.7219 17.4523 68.7356 20.74 68.0485C20.7306 68.0121 20.7256 67.9731 20.7256 67.93C20.7256 62.9962 20.7256 58.0624 20.7256 53.1286C20.7256 52.5267 22.0439 52.3401 22.0439 53.0367C22.0439 57.9539 22.0439 62.8711 22.0439 67.7883C23.2778 67.551 24.5018 67.3299 25.6599 67.0545C25.6599 65.7022 25.6599 64.3499 25.6599 62.998C25.6599 62.4033 26.9777 62.2122 26.9777 62.9029C26.9777 64.1781 26.9777 65.4537 26.9777 66.7289C26.9916 66.7275 27.001 66.7289 27.0145 66.7284C26.857 66.314 27.7698 65.8686 28.1658 66.166C31.6132 68.7504 34.0173 72.5059 35.0422 76.6808C35.1754 77.2244 34.1263 77.5555 33.8164 77.172C33.8007 77.1796 33.7881 77.1877 33.7715 77.1948C30.2649 78.7409 26.7216 80.1829 23.3168 81.9398C23.3195 81.9434 23.3226 81.947 23.3253 81.9506C23.7218 82.4767 22.5467 82.9741 22.1614 82.5498C22.1443 82.5592 22.1268 82.5678 22.1098 82.5772C21.4886 82.9163 20.7768 82.3229 21.5572 81.8968C21.5819 81.8833 21.607 81.8708 21.6317 81.8573C18.9459 78.3229 15.9179 74.6965 11.5909 73.2572C10.8751 73.0195 11.629 72.3279 12.1902 72.3543ZM13.0886 72.6575C17.1854 74.2965 20.1565 77.7891 22.7911 81.2459C26.1874 79.4949 29.7213 78.0569 33.2185 76.5153C33.341 76.461 33.4674 76.4404 33.5854 76.4436C32.5394 72.7046 30.3555 69.3425 27.2522 66.9823C27.1948 67.0352 27.1024 67.0872 26.9772 67.1361C26.9772 68.7154 26.9772 70.2947 26.9772 71.874C26.9772 72.4687 25.6595 72.6598 25.6595 71.969C25.6595 70.4745 25.6595 68.9805 25.6595 67.486C24.4251 67.7663 23.1109 67.9803 21.7985 68.2292C21.6083 68.3517 21.3428 68.4032 21.1221 68.3615C17.96 68.9993 14.8943 69.9489 13.0886 72.6575ZM88.7239 17.6312C88.7948 17.6267 88.8647 17.6267 88.9361 17.6231C88.9553 17.5773 88.9818 17.5302 89.0226 17.4782C92.9876 12.4767 98.8602 9.78506 105.058 8.34528C105.058 5.67385 105.058 3.00241 105.058 0.330977C105.058 -0.0758384 106.358 -0.277677 106.358 -0.0170817C106.358 2.67633 106.358 5.3702 106.358 8.06406C107.714 7.78776 109.08 7.56619 110.44 7.39081C110.44 6.68214 110.44 5.97391 110.44 5.26524C110.44 4.84407 111.74 4.63461 111.74 4.91718C111.74 5.69044 111.74 6.46326 111.74 7.23652C113.21 7.07595 114.666 6.96337 116.089 6.88622C116.599 6.85841 116.715 7.14412 116.587 7.40023C121.332 6.50138 125.343 8.29684 129.191 11.1351C129.458 11.332 128.298 11.8451 127.974 11.6065C127.731 11.4271 127.485 11.2508 127.239 11.0777C127.116 11.2015 126.929 11.3029 126.71 11.3222C122.189 11.7267 117.709 13.8743 113.657 15.7895C110.259 17.3957 106.888 19.1162 103.674 21.0772C103.713 21.3939 103.109 21.7818 102.696 21.6841C102.34 21.9088 101.985 22.133 101.634 22.3645C101.181 22.6637 100.072 22.3927 100.809 21.9065C101.106 21.7101 101.409 21.5208 101.71 21.3284C97.4352 19.7585 93.2626 18.2735 88.6028 18.565C87.7161 18.6202 87.9968 17.6769 88.7239 17.6312ZM90.2839 17.598C94.692 17.6558 98.7059 19.088 102.857 20.6094C106.33 18.4793 109.991 16.6067 113.681 14.9131C117.689 13.0737 122.042 11.0508 126.487 10.5637C123.366 8.49644 119.988 7.11183 116.092 8.0358C115.606 8.15107 115.372 7.99005 115.461 7.80974C114.239 7.8824 112.995 7.98108 111.74 8.11609C111.74 9.29213 111.74 10.4682 111.74 11.6442C111.74 12.0654 110.44 12.2748 110.44 11.9923C110.44 10.7512 110.44 9.51011 110.44 8.26904C109.079 8.44306 107.713 8.66329 106.358 8.94227C106.358 9.39439 106.358 9.8465 106.358 10.2982C106.358 10.705 105.058 10.9068 105.058 10.6462C105.058 10.1744 105.058 9.70253 105.058 9.23068C99.3661 10.5781 93.9972 13.0517 90.2839 17.598ZM34.8162 125.371C34.8494 125.321 34.8767 125.267 34.8888 125.207C37.4706 112.56 14.1251 111.607 15.0083 123.86C11.9749 123.398 8.90737 124.109 6.47859 126.132C4.44137 127.829 2.7262 131.618 5.60934 133.365C5.92914 133.558 7.00695 133.026 6.83382 132.922C4.94417 131.778 5.15453 129.651 6.08972 127.918C7.94976 124.472 12.0453 123.692 15.5496 124.716C15.8479 124.803 16.9979 124.324 16.6176 124.212C16.5126 124.182 16.4063 124.157 16.3009 124.129C16.3328 124.057 16.348 123.979 16.339 123.895C15.1101 112.835 35.8994 113.887 33.5702 125.299C33.5464 125.414 33.5697 125.502 33.6213 125.57C33.2862 125.731 33.0315 125.929 33.419 125.932C36.2869 125.957 39.3266 126.192 41.6553 128.04C43.8325 129.769 44.2496 132.794 44.2972 135.384C44.3447 137.993 44.0532 140.9 41.7204 142.476C38.6982 144.519 33.7572 144.283 30.2681 144.547C26.3314 144.844 22.3839 145.015 18.4364 145.078C14.6615 145.138 10.6719 145.242 6.93923 144.558C4.34449 144.083 2.32342 142.095 1.61834 139.6C0.70558 136.37 2.86211 133.835 6.2005 134.216C6.5055 134.251 7.70576 133.723 7.03252 133.646C4.68941 133.378 2.21802 133.864 0.817262 135.917C-0.693382 138.131 0.398785 141.185 2.01214 142.98C4.49295 145.742 8.91769 145.503 12.2839 145.615C17.6568 145.794 23.0504 145.562 28.4116 145.21C33.8859 144.85 44.0047 145.388 45.3673 138.306C45.9899 135.072 45.7688 131.08 43.6863 128.4C41.6818 125.821 37.8935 125.43 34.8162 125.371ZM204.594 97.4342C203.37 102.01 196.345 101.635 192.7 101.866C188.927 102.105 185.123 102.277 181.344 102.102C179.108 101.998 176.214 102.056 174.731 100.024C172.498 96.9669 174.399 94.1851 177.495 93.8626C177.468 93.8559 177.444 93.8465 177.423 93.8339C175.453 92.6408 176.627 90.0541 178.017 88.8956C179.64 87.5437 181.703 86.9943 183.746 87.2109C183.459 78.8813 199.284 79.5465 197.6 88.2403C197.597 88.2533 197.591 88.265 197.588 88.2775C199.664 88.3314 202.259 88.609 203.559 90.3816C204.954 92.2842 205.196 95.1831 204.594 97.4342ZM203.512 94.6206C203.204 90.2506 200.338 88.8907 196.259 88.8382C195.934 88.8342 196.059 88.6951 196.304 88.5556C196.276 88.4955 196.264 88.4224 196.281 88.3336C197.73 80.8607 184.351 80.1017 185.076 87.3141C185.082 87.3652 185.075 87.4137 185.064 87.4603C185.118 87.4751 185.173 87.4872 185.227 87.5029C185.607 87.6142 184.457 88.0941 184.159 88.0066C181.894 87.3446 179.356 87.8232 178.155 90.0492C177.53 91.206 177.385 92.6269 178.648 93.3917C178.766 93.463 178.303 93.7321 177.895 93.8352C178.163 93.8258 178.437 93.8326 178.718 93.8608C179.39 93.9276 178.191 94.4609 177.886 94.4309C175.533 94.1968 174.462 96.2806 175.246 98.2721C176.033 100.27 177.7 101.188 179.787 101.374C184.687 101.811 189.674 101.584 194.572 101.203C196.774 101.031 200.191 101.219 202.024 99.7738C203.524 98.5888 203.636 96.3824 203.512 94.6206Z" fill="#A51361"/>
</g>
<defs>
<clipPath id="clip0_913_1302">
<rect width="205" height="162" fill="white"/>
</clipPath>
</defs>
</svg>
