<svg width="22" height="22" viewBox="0 0 22 22" fill="none" xmlns="http://www.w3.org/2000/svg">
<path d="M21.1828 10.8358L11.5289 1.18895C11.4594 1.1193 11.3768 1.06404 11.2859 1.02634C11.1951 0.988644 11.0976 0.969238 10.9992 0.969238C10.9008 0.969238 10.8034 0.988644 10.7125 1.02634C10.6216 1.06404 10.539 1.1193 10.4695 1.18895L0.815625 10.8358C0.534375 11.1171 0.375 11.4991 0.375 11.8975C0.375 12.7249 1.04766 13.3975 1.875 13.3975H2.89219V20.2811C2.89219 20.696 3.22734 21.0311 3.64219 21.0311H9.49922V15.7811H12.1242V21.0311H18.3563C18.7711 21.0311 19.1063 20.696 19.1063 20.2811V13.3975H20.1234C20.5219 13.3975 20.9039 13.2405 21.1852 12.9569C21.7687 12.371 21.7687 11.4218 21.1828 10.8358Z" fill="#A51361"/>
</svg>
