<svg width="87" height="86" viewBox="0 0 87 86" fill="none" xmlns="http://www.w3.org/2000/svg">
<g filter="url(#filter0_d_999_1769)">
<g clip-path="url(#clip0_999_1769)">
<path fill-rule="evenodd" clip-rule="evenodd" d="M63.8013 79.9999L53.0806 22.8433L4.83325 27.2286V66.1333C4.83325 70.9866 4.83325 73.4133 5.77792 75.2679C6.60881 76.8986 7.93459 78.2244 9.56525 79.0553C11.4199 79.9999 13.8466 79.9999 18.6999 79.9999H63.8013ZM45.9999 54.1299C45.9999 63.4813 36.7266 70.0506 32.6836 72.4729C32.1246 72.8083 31.4851 72.9854 30.8333 72.9854C30.1814 72.9854 29.5419 72.8083 28.9829 72.4729C24.9399 70.0506 15.6666 63.4813 15.6666 54.1256C15.6666 44.9519 23.0159 38.8333 30.8333 38.8333C38.9236 38.8333 45.9999 44.9519 45.9999 54.1299Z" fill="#F6B00E"/>
<path d="M5.77792 6.732C4.83325 8.58667 4.83325 11.0133 4.83325 15.8667V18.5273L82.7899 11.438C82.7076 9.32333 82.4866 7.91067 81.8886 6.732C81.0577 5.10133 79.7319 3.77556 78.1013 2.94467C76.2466 2 73.8199 2 68.9666 2H18.6999C13.8466 2 11.4199 2 9.56525 2.94467C7.93459 3.77556 6.60881 5.10133 5.77792 6.732ZM82.8333 20.1393L61.7516 22.0547L72.6109 79.9783C75.1763 79.922 76.7839 79.727 78.1013 79.0553C79.7319 78.2244 81.0577 76.8987 81.8886 75.268C82.8333 73.4133 82.8333 70.9867 82.8333 66.1333V20.1393Z" fill="#8CBFAE"/>
<path d="M42.1371 43.1131C45.0287 46.0043 46.6825 49.9068 46.7487 53.9953C46.815 58.0838 45.2887 62.0379 42.4923 65.0213L42.1371 65.3888L34.7118 72.8123C33.7697 73.7539 32.5049 74.3021 31.1736 74.346C29.8424 74.3899 28.5442 73.9261 27.5421 73.0486L27.2901 72.8123L19.8631 65.3871C16.9094 62.4334 15.25 58.4273 15.25 54.2501C15.25 50.0729 16.9094 46.0668 19.8631 43.1131C22.8168 40.1594 26.8229 38.5 31.0001 38.5C35.1773 38.5 39.1834 40.1594 42.1371 43.1131ZM31.0001 49.0001C30.3107 49.0001 29.628 49.1359 28.991 49.3997C28.354 49.6636 27.7753 50.0503 27.2878 50.5378C26.8003 51.0253 26.4136 51.604 26.1497 52.241C25.8859 52.878 25.7501 53.5607 25.7501 54.2501C25.7501 54.9395 25.8859 55.6222 26.1497 56.2592C26.4136 56.8961 26.8003 57.4749 27.2878 57.9624C27.7753 58.4499 28.354 58.8366 28.991 59.1005C29.628 59.3643 30.3107 59.5001 31.0001 59.5001C32.3925 59.5001 33.7278 58.947 34.7124 57.9624C35.697 56.9778 36.2501 55.6425 36.2501 54.2501C36.2501 52.8577 35.697 51.5223 34.7124 50.5378C33.7278 49.5532 32.3925 49.0001 31.0001 49.0001Z" fill="#A51361"/>
</g>
</g>
<defs>
<filter id="filter0_d_999_1769" x="0.5" y="0" width="86" height="86" filterUnits="userSpaceOnUse" color-interpolation-filters="sRGB">
<feFlood flood-opacity="0" result="BackgroundImageFix"/>
<feColorMatrix in="SourceAlpha" type="matrix" values="0 0 0 0 0 0 0 0 0 0 0 0 0 0 0 0 0 0 127 0" result="hardAlpha"/>
<feOffset dy="2"/>
<feGaussianBlur stdDeviation="2"/>
<feComposite in2="hardAlpha" operator="out"/>
<feColorMatrix type="matrix" values="0 0 0 0 0 0 0 0 0 0 0 0 0 0 0 0 0 0 0.25 0"/>
<feBlend mode="normal" in2="BackgroundImageFix" result="effect1_dropShadow_999_1769"/>
<feBlend mode="normal" in="SourceGraphic" in2="effect1_dropShadow_999_1769" result="shape"/>
</filter>
<clipPath id="clip0_999_1769">
<rect x="4.5" y="2" width="78" height="78" rx="9" fill="white"/>
</clipPath>
</defs>
</svg>
