<svg width="202" height="186" viewBox="0 0 202 186" fill="none" xmlns="http://www.w3.org/2000/svg">
<g clip-path="url(#clip0_455_1254)">
<path d="M54.6681 111.912C54.6681 111.931 54.6686 111.95 54.6691 111.97L54.6631 111.92C54.6646 111.917 54.6666 111.914 54.6681 111.912ZM52.5176 131.184C52.8343 129.886 53.1457 128.586 53.4317 127.281C53.4803 127.059 53.5155 126.838 53.5606 126.617C53.2508 127.922 52.8904 129.508 52.5176 131.184ZM57.4918 107.472C57.1378 107.577 56.7294 107.602 56.6134 107.413C56.8845 107.855 57.2786 107.639 57.4918 107.472ZM73.4605 98.6839C73.4446 98.4429 73.3648 98.0523 73.3321 97.6661C63.0619 102.386 50.9099 101.595 41.0576 96.4073C39.9055 95.8004 38.4218 94.8831 37.4199 93.7869C37.1066 94.7376 36.8106 95.6927 36.5137 96.6474C35.605 99.5724 34.6958 102.498 33.7132 105.403C32.1893 109.91 30.7026 114.885 28.2914 119.237C27.8224 120.887 24.9957 124.517 22.3841 127.627C15.7685 136.747 9.70019 146.22 2.62402 155.04C2.8134 155.335 3.0454 155.605 3.30517 155.852C4.06117 156.371 5.08636 157.047 6.29744 157.781C6.83185 158.049 7.43665 158.348 8.06029 158.649C10.249 159.644 12.7143 160.489 15.0789 160.861C15.4279 160.471 16.4328 160.443 16.4184 161.017C17.1085 161.071 17.7847 161.082 18.4326 161.031C19.5857 160.94 21.004 158.303 21.6757 157.432C26.53 151.133 31.2762 144.764 35.9535 138.357C40.6432 131.932 45.2233 125.487 49.2938 118.72C50.9778 115.92 52.5785 113.048 54.3483 110.281C54.4068 110.16 54.4395 110.092 54.4395 110.092L54.4445 110.131C54.8421 109.512 55.2451 108.897 55.6635 108.292C55.9198 107.921 57.4169 106.028 58.05 107.062C58.1244 107.184 57.8695 107.348 57.5528 107.452C57.5091 107.508 57.4511 107.584 57.3694 107.695C57.1245 108.028 56.8949 108.371 56.6728 108.717C56.4691 109.034 56.2718 109.353 56.07 109.672C56.2088 115.477 56.2202 121.352 54.85 127.055C53.8333 131.286 52.7357 135.465 51.8919 139.735C50.1469 148.565 48.8481 157.541 46.5251 166.266C49.7385 168.576 55.7889 168.36 59.6265 168.019C61.1831 167.834 62.4923 167.608 63.3881 167.435C63.7654 167.272 64.043 167.058 64.1297 166.772C64.33 166.11 64.4981 165.44 64.6671 164.771C66.3725 158.021 67.8844 151.227 69.3622 144.433C70.8842 137.434 72.5414 130.393 73.464 123.303C74.2621 117.172 74.2066 110.937 73.8645 104.779C73.7515 102.745 73.5948 100.715 73.4605 98.6839ZM157.966 18.5909C157.966 18.5909 157.76 18.8657 157.423 19.3194C157.863 18.9437 158.319 18.5859 158.789 18.2444L157.966 18.5909ZM196.08 50.9203C187.24 61.1948 167.833 63.152 157.19 54.1981C150.769 48.7955 150.035 40.4071 151.31 32.9924C153.049 22.8806 160.645 15.492 172.019 14.4805C183.348 13.9142 194.29 18.2967 198.918 28.1354C202.376 35.4875 201.539 44.5748 196.08 50.9203ZM190.258 24.5269C185.823 20.435 179.393 19.0978 173.266 19.3555C173.215 19.3537 173.158 19.355 173.096 19.3609C163.113 20.2809 157.137 26.8423 155.999 35.6624C155.1 42.6369 157.526 49.5038 164.64 52.9235C176.647 58.6955 194.145 52.1891 195.768 39.4096C196.458 33.9782 194.482 28.4238 190.258 24.5269ZM187.075 38.8005C186.554 43.6664 181.806 46.8235 176.768 47.4146C171.848 47.9918 166.833 45.8962 165.114 41.5146C164.625 40.2688 164.39 38.9645 164.381 37.6678C164.394 37.2632 164.413 36.8676 164.435 36.4864C164.912 31.7268 168.45 27.3614 174.023 26.8045C181.867 26.49 187.853 31.5276 187.075 38.8005ZM175.499 32.167C175.414 32.1498 175.31 32.1462 175.182 32.1616C175.086 32.1638 174.998 32.1796 174.918 32.2048C171.459 32.7383 169.777 35.3524 170.163 38.5054C170.49 41.1753 173.525 42.2895 176.125 42.09C178.729 41.8899 181.025 40.281 181.542 37.9241C182.316 34.3972 178.938 32.2183 175.499 32.167ZM121.136 101.048C120.993 100.27 120.772 99.0318 120.591 97.8743C120.596 98.9682 120.825 100.037 121.136 101.048ZM129.322 49.7651C129.363 48.8027 129.352 48.1864 128.651 47.6619L128.727 47.5777L128.481 47.5971C127.143 48.1413 125.617 48.4482 124.234 48.2905C124.214 48.3337 124.183 48.3774 124.138 48.4225C125.637 56.6059 126.795 70.1459 121.957 83.002C121.961 83.0024 121.965 83.0033 121.969 83.0042C122.497 83.0966 122.165 83.398 121.741 83.5787C120.536 86.6609 118.98 89.6986 116.993 92.6069C114.912 95.9175 113.225 99.1768 115.506 102.493C115.996 103.085 116.766 103.429 117.648 103.429C118.691 103.429 119.755 102.959 120.479 102.19C119.607 99.7464 118.988 96.8822 120.59 93.9698C121.018 93.3435 121.423 92.7673 121.824 92.1964C123.86 89.2962 125.783 86.5569 127.008 83.2156C130.264 73.0695 131.048 62.9749 129.471 51.4669C129.274 50.896 129.298 50.3211 129.322 49.7651ZM118.756 34.3945L118.561 34.5563C118.607 34.5445 118.65 34.5288 118.698 34.5184C119.514 34.3346 120.749 34.2801 121.285 35.0194C121.654 35.5276 121.613 36.1174 121.408 36.6806C122.333 36.4094 123.311 36.1882 124.292 36.1007L124.146 35.7854C124.171 35.7759 124.193 35.7669 124.213 35.7583C124.188 35.7317 124.163 35.7056 124.141 35.6822C123.9 35.4281 123.571 35.0802 123.426 34.5599C120.757 24.9788 110.44 15.7488 99.4268 13.0887C97.5306 12.631 95.2061 12.4084 92.7452 12.1728C85.2378 11.4541 76.7423 10.6359 76.2059 2.73864C76.0567 2.28673 75.8564 1.86636 75.5332 1.51538C74.9715 1.20855 74.2215 1.21216 74.0058 1.22117C72.6946 1.27479 71.309 1.92584 71.3561 2.88416C71.5876 7.56721 73.7351 10.6517 78.1145 12.5922C81.4954 14.0903 85.4831 14.4656 89.3395 14.8279C90.4802 14.9351 91.6596 15.0459 92.7854 15.1843C105.125 16.6999 115.65 24.5112 118.477 34.2201C118.604 34.262 118.697 34.3355 118.756 34.3945ZM72.2152 50.39C72.0943 50.3761 71.9966 50.3382 71.9485 50.2675C71.9123 50.2143 71.8727 50.1634 71.836 50.1102C71.778 50.0607 71.7423 50.0093 71.7264 49.9571C71.6352 49.8269 71.542 49.6975 71.4483 49.5691C70.7726 50.996 70.0979 52.4234 69.4207 53.8494C70.7934 56.2499 71.9495 58.7469 72.9633 61.1812C72.996 61.2596 73.0253 61.3389 73.0575 61.4173C74.2591 60.9024 75.4633 60.391 76.6684 59.8823C76.4751 59.0299 76.2629 58.1828 76.0106 57.3452C75.5 55.6471 74.8882 53.643 73.7753 52.0395C73.7753 52.0395 73.7738 52.0391 73.7728 52.0391C73.4932 51.9381 73.4218 51.7836 73.4709 51.6295C73.1065 51.1663 72.6901 50.7482 72.2152 50.39ZM77.9504 70.2221C77.7957 67.0506 77.4963 63.8395 76.8504 60.701C75.6864 61.1925 74.5239 61.6863 73.3638 62.1842C74.8188 65.7922 76.0483 69.4777 77.0586 73.2133C77.3892 73.2872 77.7199 73.361 78.0505 73.4349C78.0362 72.3541 78.002 71.2818 77.9504 70.2221ZM68.6662 52.5757C69.3156 51.2064 69.9636 49.8372 70.612 48.468C68.9632 46.3923 67.1007 44.4612 65.4925 42.3549C63.7802 42.7491 62.067 43.1253 60.3244 43.3727C63.7976 45.8025 66.4939 49.046 68.6662 52.5757ZM65.2164 49.9836C64.8545 49.4993 64.4822 49.0231 64.0935 48.559C64.4589 49.0145 64.8337 49.4889 65.2164 49.9836ZM78.0193 77.025C78.0481 76.1261 78.0575 75.2313 78.055 74.3396C77.8101 74.2851 77.5657 74.2302 77.3213 74.1757C77.5672 75.1232 77.8012 76.0725 78.0193 77.025ZM52.9384 93.3021C54.1024 92.9813 55.2506 92.4532 56.2301 91.6549C56.5514 91.303 56.8384 90.897 57.0749 90.4149C59.3122 85.8504 58.7916 80.4208 58.7272 75.5066C57.53 75.8927 55.9362 76.0121 55.0815 76.186C53.2017 76.569 51.3159 76.9321 49.4266 77.2809C48.2691 80.482 46.1454 83.5111 42.2008 84.0054C41.5355 85.2597 40.7388 86.4537 39.9843 87.5373C39.3329 88.4735 38.6369 89.3773 37.9449 90.2874C41.7159 91.0327 48.3558 94.0144 52.9384 93.3021ZM48.7435 66.8533C51.416 66.2085 54.3453 65.234 57.0208 65.1858C57.4338 64.6838 57.8646 64.1995 58.3365 63.7566C57.7382 60.1666 56.6406 56.5712 55.2654 53.1682C54.1847 50.4932 52.4244 45.4344 48.9597 44.4198L39.7226 49.0109C45.1841 53.2925 48.5437 60.3383 48.7435 66.8533ZM56.2371 65.8566C56.1855 65.8264 56.1429 65.7873 56.1176 65.7359C56.1439 65.7895 56.1791 65.8292 56.2158 65.8598L56.2371 65.8566ZM46.1696 60.8726C46.5836 62.4216 46.9137 63.9715 47.1413 65.1434C46.9574 63.7183 46.6292 62.2842 46.1696 60.8726ZM175.566 35.5993C174.653 35.5993 173.913 36.2715 173.913 37.101C173.913 37.9309 174.653 38.6031 175.566 38.6031C176.478 38.6031 177.218 37.9309 177.218 37.101C177.218 36.2715 176.478 35.5993 175.566 35.5993Z" fill="#F6B00E"/>
<path d="M55.8994 30.5238C55.3729 30.7554 54.782 30.9059 54.1955 30.9176C53.9581 30.9221 53.4911 30.8829 53.552 30.558C53.6071 30.2638 54.0637 30.075 54.3551 30.0692C54.7304 30.062 54.9832 29.9989 55.2951 29.8619C55.5593 29.7457 56.0431 29.6835 56.2593 29.92C56.4843 30.1674 56.115 30.4287 55.8994 30.5238ZM57.3702 35.2528C56.985 35.2528 56.5993 35.2528 56.2137 35.2528C55.8949 35.2528 55.4651 35.3551 55.2628 35.5993C55.0576 35.8466 55.4363 35.9457 55.6411 35.9457C56.0263 35.9457 56.412 35.9457 56.7976 35.9457C57.1164 35.9457 57.5462 35.8435 57.7485 35.5993C57.9537 35.3519 57.5755 35.2528 57.3702 35.2528ZM47.2319 34.0372C46.7892 33.6817 45.5122 34.2751 46.1155 34.7594C46.232 34.8531 46.3976 34.8878 46.5091 34.9775C46.7808 35.196 47.1565 35.1888 47.4783 35.0527C47.6681 34.9725 48.1014 34.6382 47.8293 34.4188C47.6419 34.2683 47.4163 34.1854 47.2319 34.0372ZM130.228 46.6838C129.992 46.841 129.738 46.9911 129.471 47.1334C130.38 47.9408 130.35 48.9239 130.313 49.8003C130.291 50.313 130.27 50.7969 130.428 51.2263L130.449 51.3128C132.052 62.9645 131.259 73.1871 127.955 83.4841C126.685 86.9475 124.73 89.7323 122.66 92.6812C122.261 93.2494 121.858 93.8238 121.455 94.41C120.82 95.5661 120.585 96.7335 120.591 97.8738C120.597 98.9682 120.825 100.037 121.136 101.047C121.251 101.419 121.374 101.784 121.505 102.138L121.587 102.362L121.431 102.551C120.526 103.648 119.077 104.329 117.649 104.329C116.447 104.329 115.396 103.858 114.69 103.002C112.097 99.2345 113.987 95.5742 116.143 92.1451C118.017 89.4016 119.496 86.5393 120.661 83.6323C110.877 81.8995 101.199 79.5025 91.5236 77.3453C87.515 76.4514 83.5065 75.5552 79.498 74.6609C79.4881 77.1844 79.3607 79.7305 79.0741 82.259C79.0885 82.3419 79.1058 82.4239 79.1202 82.5064C79.1291 82.5577 79.0925 82.6082 79.0295 82.656C78.445 87.5233 77.2558 92.3122 75.1201 96.7137C75.0572 96.8434 74.9149 96.9416 74.7444 97.0056C74.7473 97.4562 74.8841 98.123 74.899 98.3334C74.9714 99.3787 75.0512 100.424 75.1211 101.47C75.7497 110.85 75.5841 120.102 73.8421 129.368C72.3187 137.471 70.5415 145.537 68.6998 153.585C67.9617 156.812 67.2151 160.038 66.4209 163.254C66.2107 164.104 66.1071 166.421 65.2886 167.029C64.4355 167.663 63.3429 168.064 62.1615 168.321C64.606 168.925 70.9589 170.517 70.1761 172.928C69.7518 174.235 68.0707 174.95 66.3788 175.376C66.1854 175.425 65.9921 175.471 65.8002 175.512C64.9322 175.7 64.0989 175.821 63.4737 175.914C59.2411 176.543 54.6967 176.642 50.4829 175.834C48.8787 175.527 46.2394 175.108 45.3015 173.721C44.0007 171.797 45.0452 169.441 45.7075 167.466C45.7397 167.369 45.8349 167.285 45.9593 167.217C45.6668 167.06 45.3838 166.891 45.1225 166.699C45.0819 166.67 45.0739 166.634 45.0868 166.596C45.0868 166.59 45.0843 166.584 45.0863 166.576C47.4237 157.824 48.7151 148.818 50.4745 139.96C51.0605 137.009 51.8061 134.101 52.5184 131.184C52.8352 129.886 53.1465 128.586 53.4326 127.281C53.4812 127.059 53.5164 126.838 53.5615 126.617C54.5495 121.764 54.7334 116.884 54.6699 111.97C54.6699 111.95 54.6694 111.931 54.6689 111.912C54.6675 111.914 54.6655 111.917 54.664 111.92C51.2186 117.512 47.9963 123.209 44.2094 128.628C39.3323 135.607 34.2545 142.473 29.128 149.302C27.033 152.093 24.9311 154.879 22.7935 157.642C21.9954 158.675 21.104 160.418 19.9366 161.163C19.0259 161.744 17.7558 161.858 16.4228 161.751C16.6116 164.863 19.2232 167.628 19.4165 170.766C19.6347 174.306 15.5007 174.761 12.4628 174.484C4.93156 173.796 -5.49579 162.533 2.8103 157.09C2.147 156.58 1.57889 156.011 1.1699 155.363C1.12826 155.297 1.18924 155.217 1.30524 155.14C5.8457 149.464 9.84482 143.409 13.9971 137.499C16.2592 134.279 18.5163 131.055 20.8443 127.873C22.3503 125.815 24.1379 123.851 25.471 121.697C29.1816 115.702 31.2989 108.823 33.4053 102.255C34.2361 99.6648 35.0105 97.0588 35.8527 94.4713C36.0664 93.8153 36.1621 93.1079 36.637 92.688C36.1665 91.7648 36.1378 90.7605 36.927 89.7342C39.2976 86.6519 42.624 82.4784 42.2482 78.5172C42.2036 78.5244 42.159 78.532 42.1144 78.5392C38.0325 79.1853 28.086 80.8618 26.9562 75.2236C26.3598 72.2486 27.6691 69.1254 28.6938 66.3446C30.0209 62.7447 31.5289 59.2029 32.8624 55.6056C33.9283 52.7293 35.881 50.8361 38.2124 49.3073C38.1921 49.224 38.439 49.0807 38.7339 48.9748C41.7247 47.1222 45.2539 45.7728 48.3285 43.7146C48.3904 43.6732 48.4841 43.6403 48.5922 43.6146C48.6338 43.5835 48.6844 43.5542 48.7379 43.5267C48.6487 42.6126 48.5491 41.6804 48.384 40.7631C48.2799 40.7667 48.1768 40.7536 48.0826 40.7135C43.5857 38.8036 37.4614 33.7844 37.5243 28.8058C37.5833 24.1507 42.6022 21.328 46.8482 19.7903C50.9455 18.3061 64.957 14.0678 62.6067 22.4909C62.574 22.608 62.4912 22.7071 62.3811 22.7869C62.3618 22.8171 62.342 22.8477 62.3137 22.8801C61.7387 23.5411 60.8716 23.9881 59.9624 24.3291C60.5796 25.3176 61.2395 26.2895 61.878 27.2721C61.9132 27.2897 61.931 27.314 61.9261 27.3465C62.6949 28.5323 63.4286 29.7349 64.0082 31.0059C64.729 32.5869 65.8151 35.0649 64.319 36.5833C63.2447 37.6736 61.6762 38.0778 60.1677 38.4427C59.1965 38.6774 57.5229 38.9027 57.2998 39.9998C57.0996 40.982 57.5512 41.9147 58.0494 42.7743C58.1406 42.7838 58.215 42.8027 58.2625 42.832C63.0266 42.5707 67.4446 40.7518 72.169 40.2557C72.9741 40.171 73.7712 40.1318 74.5634 40.1273C74.5867 40.0782 74.61 40.0291 74.6333 39.9795C78.5144 31.7903 82.2231 23.4924 86.4631 15.4483C83.4217 15.1108 80.3933 14.6053 77.6811 13.4032C73.0053 11.3311 70.6129 7.90421 70.3665 2.92559C70.2906 1.39056 72.1353 0.396189 73.9621 0.321848C75.8196 0.244803 77.1125 1.11933 77.1804 2.49441C77.5423 9.81185 85.3244 10.5571 92.8502 11.2775C95.3502 11.5167 97.7114 11.7429 99.6819 12.2187C111.016 14.9563 121.637 24.4661 124.387 34.3395C124.475 34.654 124.697 34.8883 124.893 35.0951C125.122 35.337 125.382 35.6114 125.288 35.9746C125.286 35.9818 125.28 35.9863 125.278 35.9935C125.552 35.8917 125.867 35.8466 126.058 35.93C127.668 36.6328 128.585 37.9822 127.061 39.2753C126.992 39.333 126.916 39.3848 126.844 39.4407C127.019 39.4344 127.193 39.4312 127.364 39.4344C127.663 39.2916 128.062 39.2104 128.288 39.3096C129.104 39.6655 130.206 40.2792 130.123 41.2433C130.058 41.9931 129.438 42.6022 128.801 43.037C128.818 43.037 128.834 43.0388 128.851 43.0388C129.15 42.896 129.549 42.8149 129.775 42.914C130.591 43.2699 131.693 43.8836 131.609 44.8478C131.544 45.6205 130.885 46.2463 130.228 46.6838ZM125.096 40.4725C124.434 40.764 123.729 40.9852 123.018 41.1276C122.931 41.165 122.841 41.201 122.758 41.2402C122.237 41.4857 121.337 41.9674 121.574 42.6315C121.796 43.2519 122.409 43.7088 123.11 43.8169C123.568 43.8876 124.179 43.843 124.826 43.7142C125.275 43.5596 125.737 43.4285 126.21 43.3236C128.085 42.6329 129.56 41.3803 127.715 40.2823C127.63 40.3012 127.544 40.3089 127.463 40.3012C126.718 40.2346 125.897 40.3076 125.096 40.4725ZM122.726 44.6833C122.567 44.6644 122.41 44.6414 122.255 44.6099C120.334 44.2188 119.489 42.5004 120.903 41.3217C120.327 41.3105 119.747 41.2316 119.242 40.9928C118.44 40.6135 117.575 39.7142 117.952 38.8433C118.249 38.1575 118.919 37.6736 119.661 37.3177C120.001 36.7748 120.353 36.0435 119.971 35.5952C119.687 35.2632 119.146 35.3253 118.743 35.4776C116.779 36.2174 116.105 38.1413 116.546 39.9295C116.566 40.007 116.559 40.0796 116.535 40.1472C118.953 42.0521 120.392 45.9431 119.85 48.8226C119.858 48.8212 119.868 48.819 119.877 48.8176C119.88 48.8171 119.884 48.8166 119.887 48.8162C120.97 48.6608 122.015 48.5108 122.942 47.9444C121.506 47.2524 121.127 45.6858 122.726 44.6833ZM94.5015 53.2006C94.0097 53.411 93.5179 53.62 93.0262 53.8305C94.5991 53.8305 96.1518 53.7899 97.6668 53.7178C98.0936 53.0492 98.5641 52.4036 98.9775 51.7277C98.9824 51.7197 98.9874 51.7116 98.9923 51.7034C99.1144 51.5035 99.2485 51.2838 99.3424 51.0704C99.3146 51.092 99.2928 51.1141 99.2566 51.1348C97.7922 51.9683 96.0596 52.5338 94.5015 53.2006ZM98.7138 51.3074C98.7197 51.3056 98.7232 51.3047 98.7291 51.3033C98.7232 51.3038 98.7177 51.3038 98.7118 51.3038C98.7128 51.3051 98.7133 51.3065 98.7138 51.3074ZM99.0573 53.6345C102.616 53.3799 106.148 52.7356 109.615 51.9899C112.369 51.3979 115.766 50.9604 118.235 49.625C118.241 49.6218 118.247 49.62 118.253 49.6169C119.117 46.7806 117.634 42.3175 115.012 40.508C114.988 40.6166 114.878 40.7378 114.634 40.8536C106.383 44.7721 96.767 43.734 87.8804 42.6675C83.794 42.1769 79.6824 41.0798 75.5484 40.9131C75.3793 41.27 75.2102 41.6269 75.0411 41.9838C74.0636 44.0467 73.0862 46.1094 72.1095 48.1724C72.4426 48.5977 72.7654 49.0303 73.0752 49.4718C73.7945 49.9575 74.3983 50.5671 74.9104 51.2524C79.8475 52.9794 85.4751 53.6741 90.9763 53.8061C91.9514 53.3894 92.9275 52.9744 93.9021 52.5572C95.0944 52.0467 97.1894 51.2416 98.1338 50.7595C98.1992 50.7027 98.2924 50.6468 98.4262 50.5955C98.574 50.5392 98.7182 50.4977 98.8784 50.4779C99.1332 50.4459 99.3627 50.5374 99.4584 50.6743C99.4941 50.3468 99.3255 50.0819 98.7088 49.998C97.0377 49.7714 95.2654 50.1138 93.69 49.4231C93.109 49.1686 94.4311 48.6279 94.8371 48.8063C95.95 49.2943 97.2231 49.1659 98.4228 49.2141C99.0886 49.2411 100.217 49.2168 100.698 49.7408C101.198 50.2861 100.813 50.9156 100.479 51.4626C100.471 51.4743 100.464 51.4859 100.457 51.4975C100.015 52.2233 99.5154 52.9176 99.0573 53.6345ZM52.9388 93.3021C54.2416 93.0993 55.3749 92.5924 56.2305 91.6548C56.5518 91.303 56.8388 90.897 57.0753 90.4149C59.3125 85.8504 58.792 80.4208 58.7275 75.5066C57.5303 75.8927 55.9366 76.0121 55.0819 76.186C53.2021 76.569 51.3163 76.9321 49.427 77.2809C48.2695 80.482 46.1457 83.5111 42.2011 84.0054C41.5359 85.2597 40.7392 86.4537 39.9847 87.5373C39.3333 88.4735 38.6373 89.3773 37.9452 90.2874C41.7163 91.0326 48.3562 94.0144 52.9388 93.3021ZM59.9783 72.4239C63.2249 71.4336 73.7435 71.1984 69.8127 67.4291C69.7533 67.3723 69.7215 67.3142 69.7091 67.2574C69.554 67.2191 69.4598 67.1348 69.5024 66.9907C69.8787 65.712 69.5411 64.7983 68.3017 64.1576C68.1768 64.1301 68.0821 64.0724 68.038 63.9837C68.0216 63.9508 68.0137 63.9129 68.0137 63.8706C68.0137 63.8562 68.0102 63.8431 68.0127 63.8273C68.1818 62.5604 67.4679 61.5007 65.9896 61.4696C65.833 61.466 65.659 61.4002 65.5782 61.2921C65.3199 61.3813 64.9917 61.416 64.7741 61.3727C63.8237 61.7462 62.8516 62.0404 61.8745 62.3806C60.2177 62.9573 59.1534 64.1477 58.1312 65.4187C58.8014 67.5678 59.6853 70.0576 59.9783 72.4239ZM73.0578 61.4173C74.2595 60.9023 75.4637 60.391 76.6688 59.8823C76.4755 59.0298 76.2633 58.1828 76.011 57.3452C75.5003 55.6471 74.8886 53.643 73.7757 52.0395C73.7757 52.0395 73.7742 52.0391 73.7732 52.0391C73.4936 51.9381 73.4222 51.7836 73.4713 51.6295C73.1064 51.1663 72.6895 50.7482 72.2151 50.3905C72.0941 50.3765 71.9965 50.3387 71.9484 50.2679C71.9122 50.2148 71.8725 50.1639 71.8359 50.1107C71.7779 50.0611 71.7422 50.0098 71.7263 49.9575C71.6351 49.8273 71.5419 49.698 71.4482 49.5696C70.7725 50.9965 70.0978 52.4238 69.4206 53.8498C70.7933 56.2504 71.9494 58.7473 72.9632 61.1817C72.9964 61.2596 73.0256 61.3389 73.0578 61.4173ZM68.6666 52.5757C69.316 51.2064 69.9639 49.8372 70.6124 48.468C68.9635 46.3923 67.1011 44.4612 65.4929 42.3549C63.7806 42.7491 62.0673 43.1253 60.3248 43.3727C63.798 45.8025 66.4943 49.046 68.6666 52.5757ZM68.6636 55.4682C67.8843 57.2001 67.167 59.0506 66.1725 60.678C66.2915 60.6541 66.411 60.6392 66.5215 60.6415C68.1932 60.6766 69.3279 61.6025 69.4672 62.9785C70.2153 62.6487 70.9658 62.3225 71.7169 61.9976C71.6519 61.8426 71.5929 61.6859 71.527 61.5309C70.6714 59.5223 69.7334 57.4714 68.6636 55.4682ZM69.4261 71.4557C71.4512 71.8048 73.4872 72.4104 75.4488 72.8524C74.5054 69.4331 73.3707 66.0594 72.0287 62.7649C72.0056 62.7749 71.9825 62.7849 71.9594 62.7949C71.2523 63.1012 70.5448 63.4077 69.8405 63.7187C70.2872 63.9832 70.6892 64.3144 70.9083 64.7627C71.2206 65.4016 71.1483 66.0864 70.9638 66.7465C71.0238 66.7721 71.0799 66.8032 71.125 66.8469C73.2755 68.9087 71.876 70.5847 69.4261 71.4557ZM78.0549 74.3396C77.81 74.2851 77.5656 74.2302 77.3212 74.1756C77.5671 75.1232 77.8011 76.0725 78.0192 77.0249C78.0479 76.1261 78.0574 75.2313 78.0549 74.3396ZM78.0509 73.4345C78.0365 72.3545 78.0023 71.2822 77.9508 70.222C77.7961 67.0506 77.4967 63.8395 76.8507 60.7009C75.6867 61.1925 74.5242 61.6863 73.3642 62.1842C74.8192 65.7922 76.0486 69.4777 77.0589 73.2133C77.3896 73.2862 77.7203 73.3606 78.0509 73.4345ZM78.0385 59.3056C79.9793 58.4887 81.9212 57.6728 83.8565 56.8474C85.5356 56.1314 87.2141 55.4137 88.8932 54.6973C84.4301 54.4995 79.9546 53.9224 75.8166 52.6996C76.4819 53.9575 76.9449 55.324 77.3187 56.5667C77.5914 57.4723 77.8273 58.3865 78.0385 59.3056ZM125.486 36.8982C125.4 36.918 125.314 36.9279 125.232 36.9216C124.578 36.8734 122.375 37.1708 120.843 37.7597C120.805 37.8169 120.767 37.8732 120.73 37.9277C120.575 38.1535 120.176 38.2688 119.835 38.267C119.236 38.6892 119.044 39.2032 119.684 39.7998C120.491 40.5522 121.574 40.5792 122.645 40.3688C123.304 40.0953 124.014 39.875 124.741 39.7146C125.275 39.4695 125.764 39.1564 126.119 38.7459C126.802 37.9561 126.226 37.3276 125.486 36.8982ZM75.5346 1.51491C74.9729 1.20808 74.2228 1.21169 74.0072 1.2207C72.696 1.27431 71.3104 1.92537 71.3575 2.88369C71.589 7.56674 73.7365 10.6512 78.1159 12.5918C81.4968 14.0899 85.4845 14.4652 89.3409 14.8274C90.4816 14.9346 91.6609 15.0455 92.7867 15.1838C105.126 16.6995 115.652 24.5107 118.479 34.2197C118.605 34.2616 118.698 34.335 118.757 34.394L118.562 34.5558C118.608 34.5441 118.651 34.5283 118.698 34.5179C119.515 34.3341 120.75 34.2796 121.286 35.019C121.655 35.5272 121.613 36.1169 121.409 36.6801C122.334 36.4089 123.312 36.1877 124.293 36.1003L124.147 35.7849C124.171 35.7754 124.194 35.7664 124.214 35.7579C124.189 35.7313 124.164 35.7052 124.142 35.6817C123.901 35.4276 123.572 35.0798 123.427 34.5594C120.758 24.9784 110.44 15.7483 99.4276 13.0883C97.5314 12.6305 95.2069 12.4079 92.7461 12.1723C85.2386 11.4537 76.7432 10.6355 76.2068 2.73816C76.2023 2.66923 76.1934 2.6039 76.1899 2.53361C76.1651 2.02088 75.8865 1.7073 75.5346 1.51491ZM75.9078 40.1526C78.9566 40.2792 81.9459 40.8577 84.9947 41.3695C94.2551 42.9248 105.382 44.3729 114.049 40.2566C114.184 40.1922 114.325 40.1638 114.456 40.1598C114.186 39.9575 114.571 39.6885 114.996 39.5691C114.82 37.6596 115.791 35.7403 117.673 34.8667C117.617 34.7815 117.59 34.6986 117.579 34.659C114.985 25.3474 104.503 17.5325 92.6534 16.0777C91.5429 15.9412 90.4235 15.8358 89.2382 15.7245C88.7425 15.6776 88.2443 15.6307 87.7451 15.5816C83.504 23.6389 79.785 31.9471 75.9078 40.1526ZM66.9573 42.0169C68.3121 43.7705 69.8331 45.4078 71.2539 47.1132C72.2349 45.0397 73.2175 42.9667 74.1995 40.8937C73.1753 40.9072 72.1497 40.9865 71.123 41.1586C69.72 41.3938 68.3359 41.7002 66.9573 42.0169ZM58.7201 43.5601C58.3815 43.5898 58.041 43.6124 57.6994 43.6295C56.811 44.6252 56.112 45.5042 54.543 45.3596C53.8227 45.2934 53.0454 45.2303 52.2671 45.1262C54.2565 46.8721 55.479 49.8732 56.295 51.8264C57.7614 55.3367 58.9655 59.0195 59.6496 62.7356C59.9074 62.5734 60.1741 62.4198 60.4607 62.2869C61.8557 61.6399 63.4073 61.3457 64.8098 60.6919C66.0417 58.6964 66.8691 56.3653 67.8576 54.2837C67.8814 54.2341 67.9047 54.1841 67.9284 54.1341C67.109 52.7023 66.2082 51.3096 65.2168 49.9832C64.8549 49.4988 64.4826 49.0226 64.0939 48.5585C62.5418 46.705 60.7735 45.0235 58.7196 43.6254C58.6963 43.6101 58.6993 43.5871 58.7201 43.5601ZM58.5878 24.7761C58.4182 24.8247 58.2502 24.872 58.0881 24.9175C55.6936 25.5871 53.2511 26.0331 50.7759 26.3472C51.7451 28.7225 50.9807 30.9752 49.8395 33.2735C49.6377 33.6799 48.7493 33.7745 48.4876 33.4934C48.3181 33.4974 48.1748 33.4641 48.1034 33.3713C47.4213 32.4814 46.287 32.522 45.5727 33.0135C45.3357 33.2663 45.1424 33.5132 44.9916 33.7493C44.8826 34.0633 44.893 34.4197 45.0953 34.7914C45.4165 35.3807 46.0124 35.4925 46.6509 35.6367C47.4574 35.8187 48.1074 36.0156 48.5342 36.7193C49.7904 38.7905 49.9922 41.3267 50.2202 43.6538C51.7074 44.3603 53.6309 44.5464 55.3114 44.6617C55.7665 44.1891 56.2261 43.7191 56.6896 43.2528C55.9668 41.9962 55.1454 40.2039 56.6544 39.1821C58.032 38.249 59.7458 38.1386 61.3118 37.6074C65.4463 36.2048 63.1619 31.6601 60.8716 28.1453C60.7283 28.2336 60.5851 28.3206 60.4423 28.4071C60.2475 28.5247 59.9902 28.6008 59.7398 28.6342C61.0387 29.9052 63.0311 31.6804 60.653 32.8838C60.2569 33.0843 58.9526 33.0347 59.7949 32.6089C61.6147 31.688 58.8044 29.5447 58.0648 28.7797C57.7673 28.4715 59.1301 28.0147 59.4092 28.303C59.4156 28.3098 59.4226 28.3165 59.429 28.3228C59.8028 28.0971 60.1766 27.8687 60.5053 27.5898C59.7488 26.4598 59.0329 25.4731 58.5878 24.7761ZM61.1239 22.4742C61.1418 22.4553 61.1616 22.4368 61.1824 22.4201C61.2008 22.3485 61.2152 22.2796 61.2305 22.2102C61.1978 22.3003 61.1616 22.3881 61.1239 22.4742ZM39.7205 49.0086L39.7225 49.0104C45.184 53.2929 48.5436 60.3387 48.7434 66.8532C51.4159 66.2085 54.3452 65.234 57.0207 65.1857C57.4337 64.6838 57.8645 64.1995 58.3364 63.7566C57.7381 60.1666 56.6405 56.5712 55.2653 53.1681C54.1846 50.4932 52.4242 45.4344 48.9595 44.4198C48.9015 44.4026 48.8445 44.3837 48.7855 44.3693C46.1224 45.9787 42.622 47.2627 39.7205 49.0086ZM53.0023 75.9094C54.315 75.6503 55.6287 75.3903 56.9325 75.0961C57.2726 75.0195 58.4063 74.6721 58.6284 74.7127C58.7543 71.8778 57.5968 68.6424 56.7431 65.9256C56.5468 65.9472 56.3609 65.9301 56.237 65.8571C56.1854 65.8269 56.1428 65.7877 56.1175 65.7363C56.1438 65.7899 56.179 65.8296 56.2156 65.8602C56.4323 66.0404 56.7357 65.8828 56.0387 66.0233C55.6203 66.108 55.2019 66.1941 54.784 66.2828C53.617 66.5297 52.451 66.7812 51.2845 67.029C48.9377 67.5273 46.5869 68.049 44.2128 68.4315C43.4459 68.555 41.5106 69.0767 41.2692 67.9539C40.7516 65.5502 41.9642 62.8555 42.2378 60.4626C42.2879 60.0242 43.7335 59.7746 43.6735 60.2977C43.5292 61.562 43.2471 62.8032 43.0062 64.054C42.8188 65.0276 42.2666 66.6442 42.7058 67.6039C43.0369 68.3275 46.1294 67.4764 47.3067 67.1803C47.2854 66.5063 47.2309 65.8264 47.1422 65.1434C46.9577 63.7183 46.6296 62.2842 46.1705 60.8726C44.78 56.5991 42.1773 52.554 38.6606 49.6885C36.869 50.9199 35.414 52.3927 34.7061 54.3346C32.6329 60.0197 29.5673 65.7106 28.4469 71.639C27.9819 74.1013 28.3299 76.8898 31.2666 77.8774C34.2787 78.8907 37.7638 78.4933 40.8592 78.0364C44.9247 77.4358 48.9764 76.7032 53.0023 75.9094ZM43.6943 78.2793C43.8277 79.9571 43.3398 81.6449 42.5789 83.2516C45.538 82.7587 47.0762 79.9657 47.9562 77.5489C46.5374 77.803 45.1166 78.0459 43.6943 78.2793ZM59.7384 168.661C59.3854 168.689 59.0339 168.71 58.6854 168.724C59.147 168.724 59.5123 168.707 59.7284 168.663C59.7319 168.662 59.7344 168.662 59.7384 168.661ZM51.5721 175.148L48.3696 174.333C49.3155 174.727 50.3798 174.945 51.3584 175.115C51.4293 175.127 51.5012 175.136 51.5721 175.148ZM63.3885 167.435C63.7657 167.271 64.0434 167.058 64.1301 166.772C64.3304 166.11 64.4984 165.439 64.6675 164.77C66.3728 158.02 67.8848 151.226 69.3626 144.432C70.8845 137.434 72.5418 130.393 73.4644 123.303C74.2625 117.171 74.207 110.936 73.8649 104.778C73.7519 102.745 73.5957 100.715 73.4614 98.6839C73.4455 98.4429 73.3657 98.0523 73.333 97.6661C63.0628 102.386 50.9108 101.595 41.0585 96.4073C39.9064 95.8004 38.4226 94.8831 37.4207 93.7869C37.1074 94.7375 36.8115 95.6927 36.5145 96.6474C35.6058 99.5724 34.6967 102.498 33.7141 105.403C32.1902 109.91 30.7035 114.885 28.2922 119.237C27.6205 120.449 26.8814 121.616 26.0445 122.707C24.7997 124.331 23.5847 125.974 22.385 127.627C15.7694 136.747 9.70105 146.22 2.62489 155.04C2.81426 155.335 3.04627 155.605 3.30604 155.852C3.73485 156.261 4.23753 156.612 4.75012 156.92C5.16109 157.167 5.6018 157.416 6.06184 157.662C6.13967 157.701 6.218 157.741 6.29881 157.781C6.83321 158.049 7.43801 158.348 8.06165 158.649C10.2503 159.644 12.7156 160.489 15.0803 160.861C15.4293 160.471 16.4342 160.443 16.4198 161.017C17.1099 161.071 17.786 161.082 18.434 161.031C19.5871 160.94 21.0054 158.303 21.6771 157.432C26.5314 151.133 31.2776 144.764 35.9548 138.356C40.6445 131.932 45.2246 125.487 49.2951 118.72C50.9792 115.92 52.5799 113.048 54.3497 110.281C54.3814 110.231 54.4136 110.181 54.4459 110.131C54.5108 110.03 54.5797 109.932 54.6447 109.831C54.6551 109.803 54.6724 109.777 54.6967 109.752C55.015 109.262 55.3327 108.773 55.6649 108.292C55.9212 107.921 57.4183 106.028 58.0514 107.062C58.1257 107.184 57.8709 107.348 57.5541 107.452C57.5105 107.508 57.4525 107.584 57.3707 107.695C57.1258 108.028 56.8963 108.371 56.6742 108.717C56.4705 109.034 56.2732 109.353 56.0714 109.672C56.2102 115.477 56.2216 121.352 54.8514 127.055C53.8346 131.286 52.7371 135.465 51.8933 139.735C50.1483 148.565 48.8495 157.541 46.5264 166.266C49.7398 168.576 55.7903 168.36 59.6278 168.019C59.6516 168.017 59.6779 168.015 59.7012 168.012C60.4329 167.946 62.3192 167.898 63.3885 167.435ZM57.4922 107.472C57.1382 107.576 56.7297 107.602 56.6137 107.413C56.8849 107.855 57.279 107.639 57.4922 107.472ZM77.6186 82.5122C77.1075 79.6012 76.472 76.6956 75.7091 73.8161C75.4914 73.7674 75.2738 73.7188 75.0562 73.6701C72.7297 73.1533 69.606 72.231 67.4872 72.0022C66.3227 72.2752 65.1369 72.4762 63.9511 72.6609C62.9502 72.8168 61.1656 72.778 60.2906 73.3047C60.2202 73.3466 60.1419 73.3764 60.0601 73.3966C60.0765 73.7323 60.0789 74.0639 60.0636 74.3905C60.1206 74.4185 60.1568 74.4563 60.1573 74.51C60.1697 77.8292 60.3446 81.17 59.9699 84.4789C59.6367 87.4201 59.1023 90.6105 56.4318 92.5681C51.235 96.3776 43.2258 92.2996 37.5853 91.052C37.5442 92.2654 39.4196 94.1775 40.1433 94.5789C45.3882 97.4904 50.8215 99.75 57.0624 99.8946C62.7951 100.028 68.5719 99.0349 73.6299 96.5195C73.6899 96.4897 73.7504 96.4695 73.8109 96.4533C75.8974 92.1068 77.057 87.3422 77.6186 82.5122ZM120.976 82.8213C125.721 70.3135 124.682 57.106 123.231 48.9595C122.616 49.2591 121.959 49.4799 121.269 49.6047C120.948 49.6628 120.623 49.7074 120.299 49.7498C120.096 49.9188 119.756 50.0409 119.461 50.0282C119.382 50.117 119.251 50.19 119.099 50.245C119.043 50.3013 118.971 50.3567 118.875 50.4085C116.292 51.8061 112.763 52.2959 109.883 52.8987C105.998 53.712 102.016 54.4928 98.0222 54.6653C95.6913 54.7662 93.2815 54.8104 90.8514 54.7586C88.7197 55.6692 86.5875 56.5802 84.4554 57.4899C82.3802 58.3743 80.2986 59.2479 78.2175 60.1247C78.8317 63.0371 79.1753 66.0013 79.3423 68.9573C79.4315 70.537 79.4846 72.1414 79.4955 73.7571C83.798 74.7167 88.0995 75.6787 92.402 76.6379C101.892 78.7528 111.385 81.0966 120.976 82.8213ZM128.854 47.4371C128.732 47.4925 128.607 47.5452 128.482 47.5966C127.144 48.1409 125.617 48.4477 124.235 48.29C124.215 48.3333 124.184 48.377 124.139 48.422C125.638 56.6054 126.796 70.1454 121.957 83.0015C121.962 83.002 121.966 83.0029 121.97 83.0038C122.498 83.0961 122.166 83.3976 121.742 83.5782C120.537 86.6605 118.981 89.6981 116.994 92.6064C114.913 95.9171 113.226 99.1764 115.506 102.493C115.997 103.085 116.767 103.428 117.649 103.428C118.692 103.428 119.756 102.959 120.48 102.19C119.608 99.7459 118.989 96.8817 120.591 93.9694C121.019 93.3431 121.424 92.7668 121.825 92.196C123.861 89.2958 125.784 86.5564 127.009 83.2151C130.265 73.0691 131.049 62.9744 129.472 51.4664C129.275 50.8956 129.299 50.3211 129.323 49.7647C129.364 48.8023 129.353 48.1859 128.651 47.6615L128.728 47.5772L128.854 47.4371ZM129.202 43.8863C129.116 43.9052 129.031 43.9129 128.95 43.9052C128.319 43.8489 127.633 43.8958 126.95 44.0106C126.251 44.2918 125.502 44.5072 124.748 44.6261C124.574 44.6955 124.406 44.7685 124.245 44.8442C123.724 45.0897 122.823 45.5714 123.061 46.2355C123.283 46.8559 123.895 47.3127 124.597 47.4209C126.722 47.7498 132.121 45.6241 129.202 43.8863ZM188.185 57.8715C187.656 58.1049 187.11 58.3207 186.558 58.5279C187.345 60.9587 187.475 63.7746 187.915 66.2459C188.936 71.9837 189.946 77.7233 190.947 83.4638C191.986 89.4179 193.02 95.3728 194.019 101.332C194.493 104.156 195.298 107.126 195.37 109.991C195.378 110.331 193.938 110.522 193.934 110.341C193.859 107.362 193.018 104.27 192.525 101.334C191.542 95.4909 190.53 89.6517 189.511 83.8139C188.49 77.9621 187.462 72.1112 186.42 66.2621C186.007 63.944 185.877 61.3114 185.165 59.0163C182.056 60.0292 178.676 60.6352 175.273 60.7735C174.778 73.9287 174.585 87.143 174.549 100.304C174.549 100.651 173.113 100.825 173.113 100.654C173.149 87.3863 173.345 74.0652 173.847 60.8046C170.23 60.8109 166.63 60.2756 163.346 59.1281C162.688 61.4561 162.545 64.0801 162.128 66.3964C161.109 72.0468 160.101 77.6985 159.102 83.3516C158.071 89.1822 157.046 95.0133 156.055 100.849C155.586 103.608 154.791 106.514 154.72 109.315C154.711 109.667 153.279 109.827 153.284 109.664C153.357 106.749 154.188 103.722 154.678 100.85C155.678 94.9804 156.708 89.1151 157.746 83.2502C158.759 77.5232 159.779 71.7972 160.813 66.0729C161.242 63.7016 161.367 60.9947 162.153 58.6766C158.167 57.0591 154.725 54.4806 152.416 50.7838C148.119 43.9034 148.417 34.5945 151.516 27.3686C152.894 24.1566 154.913 21.4645 157.425 19.3181C157.865 18.9423 158.321 18.5846 158.791 18.2431C162.461 15.5758 167.017 13.9493 172.139 13.4938C179.536 13.1239 187.35 14.5138 193.163 18.9405C198.275 22.8337 201.562 28.4134 202.215 34.4652C203.287 44.4215 198.202 53.4606 188.185 57.8715ZM151.31 32.9924C150.035 40.4071 150.769 48.796 157.19 54.1981C167.833 63.1524 187.24 61.1947 196.08 50.9203C201.539 44.5747 202.376 35.4875 198.918 28.135C194.29 18.2962 183.349 13.9137 172.019 14.48C160.645 15.492 153.05 22.8801 151.31 32.9924ZM156 35.6623C157.136 26.8423 163.113 20.2814 173.097 19.3609C173.153 19.3582 173.21 19.3582 173.267 19.3555C179.393 19.0978 185.823 20.435 190.259 24.5269C194.483 28.4238 196.458 33.9786 195.769 39.4096C194.146 52.1886 176.648 58.6951 164.64 52.9235C157.527 49.5033 155.1 42.6369 156 35.6623ZM160.588 48.3409C165.248 53.6484 173.532 55.0916 180.512 53.3353C188.111 51.4231 194.105 45.9151 194.399 38.5044C194.586 33.7763 193.072 28.9054 189.345 25.4668C184.993 21.4523 179.037 20.0061 172.962 20.2917C169.351 20.6247 165.698 21.7123 163.051 24.071C156.634 29.7885 154.753 41.6957 160.588 48.3409ZM163.326 40.6441C161.968 33.6137 165.902 26.786 174 25.8934C174.053 25.8876 174.104 25.879 174.158 25.8736C174.22 25.8709 174.283 25.8709 174.345 25.8691C178.268 25.7425 182.428 26.5765 185.212 29.2789C187.88 31.8696 189.165 35.5921 188.464 39.1158C187.397 44.4756 182.034 48.0048 176.213 48.3833C170.519 48.7536 164.402 46.2152 163.326 40.6441ZM164.381 37.6678C164.391 38.964 164.626 40.2684 165.114 41.5146C166.834 45.8962 171.848 47.9917 176.768 47.4146C181.806 46.8235 186.554 43.6664 187.075 38.8004C187.853 31.5276 181.867 26.49 174.023 26.8045C168.45 27.3609 164.913 31.7268 164.436 36.4864C164.397 36.8784 164.378 37.2722 164.381 37.6678ZM170.163 38.5053C169.778 35.3524 171.459 32.7378 174.918 32.2048C175.007 32.1913 175.092 32.1728 175.182 32.1615C175.31 32.1462 175.414 32.1498 175.5 32.167C178.938 32.2183 182.316 34.3972 181.543 37.9241C181.026 40.2805 178.73 41.8899 176.126 42.0899C173.526 42.2895 170.491 41.1753 170.163 38.5053ZM176.261 41.1586C178.235 40.9059 180.057 39.6173 180.134 37.6822C180.245 34.8806 178.123 33.0203 175.047 33.0924C169.759 33.7263 170.688 41.8719 176.261 41.1586Z" fill="#A51361"/>
<path d="M77.6186 82.5122C77.1075 79.6012 76.472 76.6956 75.7091 73.8161L75.0562 73.6701C72.7297 73.1533 69.606 72.231 67.4872 72.0022C66.3227 72.2752 65.1369 72.4762 63.9511 72.6609C62.9502 72.8168 61.1656 72.778 60.2906 73.3047C60.2202 73.3466 60.1419 73.3764 60.0601 73.3966C60.0765 73.7323 60.0789 74.0639 60.0636 74.3905C60.1206 74.4185 60.1568 74.4563 60.1573 74.51C60.1697 77.8292 60.3446 81.17 59.9699 84.4789C59.6367 87.4201 59.1023 90.6105 56.4318 92.5681C51.235 96.3776 43.2258 92.2996 37.5853 91.052C37.5442 92.2654 39.4196 94.1775 40.1433 94.5789C45.3882 97.4904 50.8215 99.75 57.0624 99.8946C62.7951 100.028 68.5719 99.0349 73.6299 96.5195C73.6899 96.4897 73.7504 96.4695 73.8109 96.4533C75.8974 92.1068 77.057 87.3422 77.6186 82.5122Z" fill="white"/>
<path d="M53.0023 75.9094C54.315 75.6503 55.6287 75.3903 56.9325 75.0961C57.2726 75.0195 58.4063 74.6721 58.6284 74.7127C58.7543 71.8778 57.5968 68.6424 56.7431 65.9256C56.5468 65.9472 56.3609 65.9301 56.237 65.8571C56.1854 65.8269 56.1428 65.7877 56.1175 65.7363C56.1438 65.7899 56.179 65.8296 56.2156 65.8602C56.4323 66.0404 56.7357 65.8828 56.0387 66.0233C55.6203 66.108 55.2019 66.1941 54.784 66.2828C53.617 66.5297 52.451 66.7812 51.2845 67.029C48.9377 67.5273 46.5869 68.049 44.2128 68.4315C43.4459 68.555 41.5106 69.0767 41.2692 67.9539C40.7516 65.5502 41.9642 62.8555 42.2378 60.4626C42.2879 60.0242 43.7335 59.7746 43.6735 60.2977C43.5292 61.562 43.2471 62.8032 43.0062 64.054C42.8188 65.0276 42.2666 66.6442 42.7058 67.6039C43.0369 68.3275 46.1294 67.4764 47.3067 67.1803C47.2854 66.5063 47.2309 65.8264 47.1422 65.1434C46.9577 63.7183 46.6296 62.2842 46.1705 60.8726C44.78 56.5991 42.1773 52.554 38.6606 49.6885C36.869 50.9199 35.414 52.3927 34.7061 54.3346C32.6329 60.0197 29.5673 65.7106 28.4469 71.639C27.9819 74.1013 28.3299 76.8898 31.2666 77.8774C34.2787 78.8907 37.7638 78.4933 40.8592 78.0364C44.9247 77.4358 48.9764 76.7032 53.0023 75.9094Z" fill="white"/>
<path fill-rule="evenodd" clip-rule="evenodd" d="M160.588 48.3409C165.248 53.6484 173.532 55.0916 180.512 53.3353C188.111 51.4231 194.105 45.9151 194.399 38.5044C194.586 33.7763 193.072 28.9054 189.345 25.4668C184.993 21.4523 179.037 20.0061 172.962 20.2917C169.351 20.6247 165.698 21.7123 163.051 24.071C156.634 29.7885 154.753 41.6957 160.588 48.3409ZM174 25.8934C165.902 26.786 161.968 33.6137 163.326 40.6441C164.402 46.2152 170.519 48.7536 176.213 48.3833C182.034 48.0048 187.397 44.4756 188.464 39.1158C189.165 35.5921 187.88 31.8696 185.212 29.2789C182.428 26.5765 178.268 25.7425 174.345 25.8691C174.283 25.8709 174.22 25.8709 174.158 25.8736C174.104 25.879 174.053 25.8876 174 25.8934Z" fill="white"/>
<path d="M176.261 41.1586C178.235 40.9059 180.057 39.6173 180.134 37.6822C180.245 34.8806 178.123 33.0203 175.047 33.0924C169.759 33.7263 170.688 41.8719 176.261 41.1586Z" fill="white"/>
<path fill-rule="evenodd" clip-rule="evenodd" d="M58.5878 24.7761C58.4182 24.8247 58.2502 24.872 58.0881 24.9175C55.6936 25.5871 53.2511 26.0331 50.7759 26.3472C51.7451 28.7225 50.9807 30.9752 49.8395 33.2735C49.6377 33.6799 48.7493 33.7745 48.4876 33.4934C48.3181 33.4974 48.1748 33.4641 48.1034 33.3713C47.4213 32.4814 46.287 32.522 45.5727 33.0135C45.3357 33.2663 45.1424 33.5132 44.9916 33.7493C44.8826 34.0633 44.893 34.4197 45.0953 34.7914C45.4165 35.3807 46.0124 35.4925 46.6509 35.6367C47.4574 35.8187 48.1074 36.0156 48.5342 36.7193C49.7904 38.7905 49.9922 41.3267 50.2202 43.6538C51.7074 44.3603 53.6309 44.5464 55.3114 44.6617C55.7665 44.1891 56.2261 43.7191 56.6896 43.2528C55.9668 41.9962 55.1454 40.2039 56.6544 39.1821C58.032 38.249 59.7458 38.1386 61.3118 37.6074C65.4463 36.2048 63.1619 31.6601 60.8716 28.1453C60.7283 28.2336 60.5851 28.3206 60.4423 28.4071C60.2475 28.5247 59.9902 28.6008 59.7398 28.6342C61.0387 29.9052 63.0311 31.6804 60.653 32.8838C60.2569 33.0843 58.9526 33.0347 59.7949 32.6089C61.6147 31.688 58.8044 29.5447 58.0648 28.7797C57.7673 28.4715 59.1301 28.0147 59.4092 28.303C59.4156 28.3098 59.4226 28.3165 59.429 28.3228C59.8028 28.0971 60.1766 27.8687 60.5053 27.5898C59.7488 26.4598 59.0329 25.4731 58.5878 24.7761ZM54.1955 30.9176C54.782 30.9059 55.3729 30.7554 55.8994 30.5238C56.115 30.4287 56.4843 30.1674 56.2593 29.92C56.0431 29.6835 55.5593 29.7457 55.2951 29.8619C54.9832 29.9989 54.7304 30.062 54.3551 30.0692C54.0637 30.075 53.6071 30.2638 53.552 30.558C53.4911 30.8829 53.9581 30.9221 54.1955 30.9176ZM56.2137 35.2528H57.3702C57.5755 35.2528 57.9537 35.3519 57.7485 35.5993C57.5462 35.8435 57.1164 35.9457 56.7976 35.9457H55.6411C55.4363 35.9457 55.0576 35.8466 55.2628 35.5993C55.4651 35.3551 55.8949 35.2528 56.2137 35.2528ZM46.1155 34.7594C45.5122 34.2751 46.7892 33.6817 47.2319 34.0372C47.4163 34.1854 47.6419 34.2683 47.8293 34.4188C48.1014 34.6382 47.6681 34.9725 47.4783 35.0527C47.1565 35.1888 46.7808 35.196 46.5091 34.9775C46.3976 34.8878 46.232 34.8531 46.1155 34.7594Z" fill="white"/>
<path d="M58.7201 43.5601C58.3815 43.5898 58.041 43.6124 57.6994 43.6295C56.811 44.6252 56.112 45.5042 54.543 45.3596C53.8227 45.2934 53.0454 45.2303 52.2671 45.1262C54.2565 46.8721 55.479 49.8732 56.295 51.8264C57.7614 55.3367 58.9655 59.0195 59.6496 62.7356C59.9074 62.5734 60.1741 62.4198 60.4607 62.2869C61.8557 61.6399 63.4073 61.3457 64.8098 60.6919C66.0417 58.6964 66.8691 56.3653 67.8576 54.2837C67.8814 54.2341 67.9047 54.1841 67.9284 54.1341C67.109 52.7023 66.2082 51.3096 65.2168 49.9832C64.8549 49.4988 64.4826 49.0226 64.0939 48.5585C62.5418 46.705 60.7735 45.0235 58.7196 43.6254C58.6963 43.6101 58.6993 43.5871 58.7201 43.5601Z" fill="white"/>
<path d="M68.6636 55.4682C67.8843 57.2001 67.167 59.0506 66.1725 60.678C66.2915 60.6541 66.411 60.6392 66.5215 60.6415C68.1932 60.6766 69.3279 61.6025 69.4672 62.9785C70.2153 62.6487 70.9658 62.3225 71.7169 61.9976C71.6519 61.8426 71.5929 61.6859 71.527 61.5309C70.6714 59.5223 69.7334 57.4714 68.6636 55.4682Z" fill="white"/>
<path d="M59.9783 72.4239C63.2249 71.4336 73.7435 71.1984 69.8127 67.4291C69.7533 67.3723 69.7215 67.3142 69.7091 67.2574C69.554 67.2191 69.4598 67.1348 69.5024 66.9907C69.8787 65.712 69.5411 64.7983 68.3017 64.1576C68.1768 64.1301 68.0821 64.0724 68.038 63.9837C68.0216 63.9508 68.0137 63.9129 68.0137 63.8706C68.0137 63.8562 68.0102 63.8431 68.0127 63.8273C68.1818 62.5604 67.4679 61.5007 65.9896 61.4696C65.833 61.466 65.659 61.4002 65.5782 61.2921C65.3199 61.3813 64.9917 61.416 64.7741 61.3727C63.8237 61.7462 62.8516 62.0404 61.8745 62.3806C60.2177 62.9573 59.1534 64.1477 58.1312 65.4187C58.8014 67.5678 59.6853 70.0576 59.9783 72.4239Z" fill="white"/>
<path d="M69.4261 71.4557C71.4512 71.8048 73.4872 72.4104 75.4488 72.8524C74.5054 69.4331 73.3707 66.0594 72.0287 62.7649L71.9594 62.7949C71.2523 63.1012 70.5448 63.4077 69.8405 63.7187C70.2872 63.9832 70.6892 64.3144 70.9083 64.7627C71.2206 65.4016 71.1483 66.0864 70.9638 66.7465C71.0238 66.7721 71.0799 66.8032 71.125 66.8469C73.2755 68.9087 71.876 70.5847 69.4261 71.4557Z" fill="white"/>
<path d="M99.0573 53.6345C102.616 53.3799 106.148 52.7356 109.615 51.9899C112.369 51.3979 115.766 50.9604 118.235 49.625C118.241 49.6218 118.247 49.62 118.253 49.6169C119.117 46.7806 117.634 42.3175 115.012 40.508C114.988 40.6166 114.878 40.7378 114.634 40.8536C106.383 44.7721 96.767 43.734 87.8804 42.6675C83.794 42.1769 79.6824 41.0798 75.5484 40.9131L75.0411 41.9838C74.0636 44.0467 73.0862 46.1094 72.1095 48.1724C72.4426 48.5977 72.7654 49.0303 73.0752 49.4718C73.7945 49.9575 74.3983 50.5671 74.9104 51.2524C79.8475 52.9794 85.4751 53.6741 90.9763 53.8061C91.9514 53.3894 92.9275 52.9744 93.9021 52.5572C95.0944 52.0467 97.1894 51.2416 98.1338 50.7595C98.1992 50.7027 98.2924 50.6468 98.4262 50.5955C98.574 50.5392 98.7182 50.4977 98.8784 50.4779C99.1332 50.4459 99.3627 50.5374 99.4584 50.6743C99.4941 50.3468 99.3255 50.0819 98.7088 49.998C97.0377 49.7714 95.2654 50.1138 93.69 49.4231C93.109 49.1686 94.4311 48.6279 94.8371 48.8063C95.95 49.2943 97.2231 49.1659 98.4228 49.2141C99.0886 49.2411 100.217 49.2168 100.698 49.7408C101.198 50.2861 100.813 50.9156 100.479 51.4626L100.457 51.4975C100.015 52.2233 99.5154 52.9176 99.0573 53.6345Z" fill="white"/>
<path d="M66.9573 42.0169C68.3121 43.7705 69.8331 45.4078 71.2539 47.1132C72.2349 45.0397 73.2175 42.9667 74.1995 40.8937C73.1753 40.9072 72.1497 40.9865 71.123 41.1586C69.72 41.3938 68.3359 41.7002 66.9573 42.0169Z" fill="white"/>
<path d="M94.5015 53.2006C94.0097 53.411 93.5179 53.62 93.0262 53.8305C94.5991 53.8305 96.1518 53.7899 97.6668 53.7178C98.0936 53.0492 98.5641 52.4036 98.9775 51.7277L98.9923 51.7034C99.1144 51.5035 99.2485 51.2838 99.3424 51.0704C99.3146 51.092 99.2928 51.1141 99.2566 51.1348C97.7922 51.9683 96.0596 52.5338 94.5015 53.2006Z" fill="white"/>
<path d="M125.486 36.8982C125.4 36.918 125.314 36.9279 125.232 36.9216C124.578 36.8734 122.375 37.1708 120.843 37.7597C120.805 37.8169 120.767 37.8732 120.73 37.9277C120.575 38.1535 120.176 38.2688 119.835 38.267C119.236 38.6892 119.044 39.2032 119.684 39.7998C120.491 40.5522 121.574 40.5792 122.645 40.3688C123.304 40.0953 124.014 39.875 124.741 39.7146C125.275 39.4695 125.764 39.1564 126.119 38.7459C126.802 37.9561 126.226 37.3276 125.486 36.8982Z" fill="white"/>
<path d="M125.096 40.4725C124.434 40.764 123.729 40.9852 123.018 41.1276C122.931 41.165 122.841 41.201 122.758 41.2402C122.237 41.4857 121.337 41.9674 121.574 42.6315C121.796 43.2519 122.409 43.7088 123.11 43.8169C123.568 43.8876 124.179 43.843 124.826 43.7142C125.275 43.5596 125.737 43.4285 126.21 43.3236C128.085 42.6329 129.56 41.3803 127.715 40.2823C127.63 40.3012 127.544 40.3089 127.463 40.3012C126.718 40.2346 125.897 40.3076 125.096 40.4725Z" fill="white"/>
<path d="M129.202 43.8863C129.116 43.9052 129.031 43.9129 128.95 43.9052C128.319 43.8489 127.633 43.8958 126.95 44.0106C126.251 44.2918 125.502 44.5072 124.748 44.6261C124.574 44.6955 124.406 44.7685 124.245 44.8442C123.724 45.0897 122.823 45.5714 123.061 46.2355C123.283 46.8559 123.895 47.3127 124.597 47.4209C126.722 47.7498 132.121 45.6241 129.202 43.8863Z" fill="white"/>
<path d="M122.726 44.6833C122.567 44.6644 122.41 44.6414 122.255 44.6099C120.334 44.2188 119.489 42.5004 120.903 41.3217C120.327 41.3105 119.747 41.2316 119.242 40.9928C118.44 40.6135 117.575 39.7142 117.952 38.8433C118.249 38.1575 118.919 37.6736 119.661 37.3177C120.001 36.7748 120.353 36.0435 119.971 35.5952C119.687 35.2632 119.146 35.3253 118.743 35.4776C116.779 36.2174 116.105 38.1413 116.546 39.9295C116.566 40.007 116.559 40.0796 116.535 40.1472C118.953 42.0521 120.392 45.9431 119.85 48.8226C119.858 48.8212 119.868 48.819 119.877 48.8176L119.887 48.8162C120.97 48.6608 122.015 48.5108 122.942 47.9444C121.506 47.2524 121.127 45.6858 122.726 44.6833Z" fill="white"/>
</g>
<defs>
<clipPath id="clip0_455_1254">
<rect width="202" height="186" fill="white"/>
</clipPath>
</defs>
</svg>
