<svg width="290" height="323" viewBox="0 0 290 323" fill="none" xmlns="http://www.w3.org/2000/svg">
<g clip-path="url(#clip0_208_1028)">
<path d="M212.934 156.94C212.897 156.846 212.859 156.752 212.823 156.658C213.435 156.496 214.047 156.332 214.656 156.158L212.934 156.94ZM220.564 153.175C220.757 152.956 220.989 152.676 221.228 152.359C221.235 152.338 221.243 152.322 221.248 152.3C221.815 150.23 221.967 146.584 220.249 144.916C219.813 144.493 219.282 144.168 218.699 143.914C218.181 146.194 217.948 148.764 218.883 150.981C219.202 151.737 219.943 153.149 220.564 153.175ZM212.509 155.791C214.598 155.24 216.665 154.606 218.741 154.009C218.408 153.827 218.104 153.589 217.861 153.274C215.878 150.7 216.001 147.212 216.687 144.198C216.756 143.897 217.279 143.665 217.776 143.583C216.073 143.096 214.087 143.097 212.462 143.254C211.634 146.219 211.284 149.177 211.583 151.846C211.731 153.163 212.061 154.485 212.509 155.791ZM214.815 220.284C214.92 220.241 215.033 220.208 215.152 220.193C219.185 219.662 223.212 219.064 227.236 218.439L214.849 220.077L214.815 220.284ZM276.305 213.776C271.064 213.926 265.851 214.325 260.655 214.878C261.395 217.335 262.042 219.809 262.416 222.263C262.525 222.979 260.489 223.449 260.391 222.806C260.001 220.252 259.298 217.671 258.51 215.119C250.175 216.073 241.88 217.391 233.585 218.708C233.309 220.392 233.05 222.078 232.814 223.769C232.666 224.832 232.868 227.705 231.553 228.149C231.281 228.24 230.469 228.516 230.231 228.198C230.166 228.111 230.141 228.06 230.124 227.958C230.104 227.837 230.164 227.722 230.274 227.619C230.298 227.533 230.326 227.423 230.352 227.257C230.445 226.667 230.527 226.077 230.608 225.486C230.858 223.677 231.109 221.867 231.396 220.064C231.45 219.718 231.508 219.374 231.564 219.029C226.133 219.888 220.699 220.731 215.251 221.451C215.228 221.559 215.207 221.667 215.183 221.775C215.608 221.7 215.999 221.73 216.05 221.941C218.983 234.271 220.319 247.18 222.368 259.677C224.527 272.852 226.433 286.101 228.929 299.217C229.033 299.769 226.996 300.247 226.904 299.76C224.362 286.401 222.423 272.906 220.223 259.488C218.351 248.064 217.066 236.297 214.573 224.959C214.179 227.283 213.85 229.624 213.466 231.932C211.281 245.083 209.149 258.242 207.023 271.402C206.009 277.677 204.999 283.952 203.994 290.229C203.742 291.806 202.38 295.326 203.834 296.492C205.784 298.056 208.385 298.857 210.789 299.404C220.274 301.563 229.839 300.083 239.235 298.195C240.898 297.86 242.554 297.499 244.21 297.135C248.823 296.076 253.775 294.877 258.645 293.662C260.763 293.109 262.878 292.541 264.989 291.959C271.281 290.228 277.537 288.377 283.807 286.567C284.121 286.476 286.064 285.757 287.715 285.363C285.383 273.015 283.724 260.512 281.78 248.1C280.005 236.749 278.9 224.988 276.305 213.776ZM288.081 285.914C288.093 285.944 288.109 285.963 288.125 285.984C288.126 285.984 288.128 285.984 288.13 285.983C288.11 285.962 288.092 285.941 288.081 285.914ZM275.648 212.04L269.976 212.789C272.069 212.652 274.166 212.546 276.268 212.483L275.648 212.04ZM116.261 68.8841C114.141 69.9323 111.853 70.715 109.574 71.2336C109.608 71.2308 109.643 71.228 109.676 71.2252C112.285 71.0078 114.384 70.1755 116.261 68.8841ZM124.192 55.4428C123.153 52.7537 122.746 49.727 123.148 46.4153C110.285 46.5313 97.423 46.6983 84.5631 46.9387C83.8643 52.9319 84.3577 59.5421 88.3145 64.3822C91.7066 68.5312 96.8661 70.824 102.174 71.1483C111.622 71.7248 124.339 66.5123 124.192 55.4428ZM125.109 47.1574C125.03 48.2476 125.043 49.307 125.146 50.3315C125.167 49.031 125.141 47.9192 125.109 47.1574ZM82.844 59.278C82.967 59.1906 83.1403 59.1151 83.3311 59.055C83.1396 58.4296 82.9677 57.7978 82.8328 57.1556L82.6546 59.113L82.844 59.278ZM82.6602 46.1644L82.6644 46.2322C82.6987 46.2315 82.7322 46.2308 82.7657 46.2301C82.7301 46.2091 82.6959 46.1854 82.6602 46.1644ZM84.4646 45.235C84.8028 45.4327 84.7581 45.685 84.5338 45.9037C84.6302 45.9177 84.6882 45.9422 84.6833 45.9785C84.6736 46.0491 84.6666 46.1211 84.6568 46.1917C97.5286 45.9464 110.401 45.7772 123.275 45.6577C123.324 45.5536 123.401 45.4607 123.495 45.3803C121.718 44.1119 120.053 42.5473 118.387 41.2265C113.871 37.645 109.363 34.0516 104.847 30.4687C100.285 26.8487 95.7228 23.2281 91.1245 19.655C89.4934 18.3873 87.863 17.1175 86.2033 15.8869C85.712 15.5221 85.2214 15.1538 84.7141 14.81C84.1977 14.4599 83.9237 14.578 84.6854 14.5137C84.7085 14.4983 84.7323 14.4829 84.7567 14.4668C84.1921 14.5703 83.6435 14.4473 83.7791 13.9958C83.7812 13.9902 83.7825 13.9839 83.7846 13.9777C83.923 13.5129 84.4695 13.2704 84.9195 13.232C85.039 13.2215 85.1627 13.2264 85.2892 13.2411L84.9845 12.9895L43.0547 12.5234L44.2539 13.5395C46.1261 14.3914 48.3392 16.7653 49.4574 17.6311C54.106 21.2308 58.7162 24.8829 63.3229 28.5371C68.0644 32.2982 72.7976 36.0705 77.5399 39.8316C79.7706 41.601 81.9956 43.7947 84.4646 45.235ZM201.22 67.3704C199.542 68.3069 197.758 69.0588 195.917 69.6269C197.944 69.2531 199.659 68.4746 201.22 67.3704ZM205.574 62.5702C207.829 59.7532 209.118 56.5588 209.676 53.1974C209.936 50.8396 209.965 48.5523 209.935 46.9387C209.916 46.6766 209.89 46.4139 209.863 46.1511C195.96 46.1511 182.056 46.1518 168.152 46.1812C168.046 46.2315 167.933 46.2741 167.818 46.3084C168.105 48.4216 168.173 50.5691 167.96 52.6635C168.13 52.6684 168.241 52.6936 168.236 52.7397C167.884 55.7859 168.4 58.4499 169.532 60.7238C169.606 60.7979 169.657 60.893 169.679 61.009C170.643 62.8329 172.009 64.3955 173.649 65.689C174.632 66.2027 175.905 66.9358 176.933 67.7562C179.137 68.8568 181.592 69.599 184.105 69.968C186.368 70.1161 188.905 70.114 191.224 70.0225C196.698 69.3223 202.072 66.9462 205.574 62.5702ZM168.695 45.4146C182.126 45.3852 195.556 45.3831 208.984 45.3831C207.206 44.1147 205.54 42.5487 203.873 41.2272C199.356 37.6457 194.848 34.0523 190.332 30.4694C185.77 26.8494 181.208 23.2288 176.61 19.6557C174.979 18.388 173.348 17.1182 171.689 15.8876C171.197 15.5228 170.707 15.1545 170.2 14.8107C169.683 14.4605 169.41 14.5787 170.171 14.5144C170.194 14.499 170.217 14.4836 170.242 14.4675C169.677 14.571 169.129 14.448 169.264 13.9965C169.266 13.9909 169.268 13.9846 169.27 13.9784C169.345 13.7254 169.544 13.5444 169.78 13.42L126.448 12.2914L127.777 13.3417C129.74 13.9329 132.272 16.6856 133.494 17.6318C138.143 21.2315 142.752 24.8836 147.359 28.5378C152.1 32.2989 156.834 36.0712 161.576 39.8323C163.807 41.6017 166.032 43.7954 168.501 45.2357C168.598 45.2909 168.657 45.3517 168.695 45.4146ZM108.627 274.585C108.948 274.544 109.349 274.439 109.802 274.289C109.145 274.427 108.486 274.52 107.829 274.569C108.113 274.601 108.386 274.616 108.627 274.585ZM74.7341 246.282C74.7341 246.282 75.1869 247.518 75.8669 249.267C75.2554 247.141 74.6998 245.009 74.2449 242.858L74.7341 246.282ZM117.973 255.482C117.626 255.453 117.303 255.415 117.013 255.367C116.518 255.285 115.856 255.006 115.078 254.581C110.872 253.04 106.915 250.607 103.55 247.883C93.2741 239.564 88.6534 226.295 87.248 213.508C87.0845 212.017 86.9483 210.494 86.8406 208.956C86.8218 208.954 86.7973 208.951 86.7749 208.949C83.684 216.196 79.8397 223.004 74.9312 229.236C74.9018 229.273 74.8557 229.308 74.8005 229.343C74.8627 230.879 74.9598 232.395 75.0695 233.87C75.449 238.966 76.4427 243.91 77.9047 248.805C78.6329 251.243 79.4107 253.663 80.1913 256.085C80.895 258.269 81.3408 260.766 83.2347 262.252C83.5701 262.515 83.5687 262.82 83.3947 263.078C85.0782 264.649 87.0223 265.963 89.0587 267.249C93.0022 269.74 96.0729 270.5 97.9241 270.711C97.7647 270.55 97.6047 270.395 97.4475 270.222C97.089 269.829 98.9828 269.11 99.3504 269.513C103.32 273.869 108.47 275.06 113.88 272.154C115.755 271.147 117.489 269.949 119.132 268.629C119.11 268.554 119.164 268.452 119.338 268.316C124.181 264.545 127.66 260.016 131.444 255.257C129.03 255.916 126.554 256.292 124.087 256.294C122.035 256.294 119.985 255.998 117.973 255.482ZM125.42 255.533C127.049 255.459 128.666 255.228 130.257 254.878C128.539 255.068 125.817 255.339 123.169 255.476C123.905 255.543 124.654 255.568 125.42 255.533ZM158.179 176.204C153.142 173.382 148.468 170.157 142.693 170.02C146.239 175.034 145.808 185.288 139.073 185.904C137.167 186.079 133.629 184.963 132.56 182.946C127.681 185.597 121.661 185.717 119.121 179.821C117.342 175.693 117.535 170.516 120.624 167.349C119.097 167.178 117.201 167.371 115.949 167.336C113.492 167.268 110.876 167.069 108.448 167.538C104.436 168.312 99.8661 169.226 96.8779 172.271C95.1232 174.06 93.9876 176.183 93.0197 178.417C91.9694 181.468 91.063 184.344 90.3117 186.871C88.7002 193.599 88.2914 200.814 88.7484 207.832C88.8344 207.848 88.9085 207.876 88.9651 207.92C90.1482 208.866 91.6185 209.41 93.1937 209.706C94.8017 209.831 96.6438 209.944 98.4552 209.991C99.4063 209.955 100.327 209.891 101.175 209.831C104.206 209.612 107.743 209.446 110.699 208.431C110.161 200.451 110.875 192.426 110.912 184.409C110.915 183.719 112.939 183.383 112.937 183.867C112.894 193.099 111.859 202.354 113.049 211.561C113.641 216.133 114.567 221.245 117.352 225.06C119.625 228.173 123.531 231.136 127.631 230.011C128.618 229.741 129.567 229.354 130.483 228.877C132.458 227.519 134.685 225.66 136.459 224.103C140.231 220.001 143.18 214.676 145.422 210.506C147.656 206.352 149.795 202.018 151.54 197.561L153.004 193.17L153.652 191.348C153.759 190.976 153.867 190.605 153.967 190.232C153.915 190.202 153.891 190.163 153.91 190.111C155.411 186.188 156.044 180.779 158.441 176.988L158.179 176.204ZM140.463 184.197C138.798 184.808 137.279 184.436 137.279 184.436L135.539 183.231C135.559 183.251 135.574 183.27 135.594 183.29C137.688 185.316 139.303 185.249 140.463 184.197Z" fill="#F6B00E"/>
<path d="M153.077 129.985C154.703 131.721 152.37 132.595 150.874 132.965C150.73 133.001 149.865 133.247 149.79 132.973C149.718 132.703 150.59 132.473 150.732 132.439C152.826 131.921 150.716 130.144 149.848 129.493C148.635 128.582 147.197 127.826 146.168 126.695C146.093 126.611 147.79 125.708 148.194 126.153C149.584 127.682 151.654 128.465 153.077 129.985ZM137.084 129.008C137.053 129.026 137.021 129.044 136.989 129.062C135.516 129.903 134.048 130.742 132.31 130.796C131.19 130.831 130.724 132.237 132.108 132.194C134.26 132.128 136.127 131.162 137.958 130.118C139.156 129.434 138.061 128.45 137.084 129.008ZM147.484 123.758C148.443 123.756 149.604 123.543 150.117 122.643C150.327 122.276 149.389 122.336 149.282 122.353C148.931 122.408 148.492 122.541 148.233 122.819C147.805 122.841 147.26 123.006 146.979 123.322C146.658 123.681 147.254 123.758 147.484 123.758ZM133.636 120.247C133.322 119.953 132.644 120.126 132.307 120.268C130.863 120.877 129.621 121.822 128.51 122.918C127.693 123.724 129.689 123.585 130.112 123.167C130.981 122.308 131.938 121.467 133.076 120.987C133.27 120.906 133.961 120.551 133.636 120.247ZM143.195 116.904C143.94 116.872 144.587 116.527 145.107 116.01C145.419 115.698 145.321 115.312 144.89 115.202C144.417 115.08 143.804 115.24 143.458 115.586C143.449 115.594 143.412 115.628 143.374 115.662L143.37 115.665C142.97 115.706 142.381 115.966 142.299 116.391C142.205 116.878 142.887 116.917 143.195 116.904ZM119.975 142.356C117.614 141.133 114.744 142.704 114.05 145.145C113.845 145.868 115.88 145.572 116.074 144.89C116.254 144.259 116.544 143.737 117.04 143.303C117.46 142.936 117.915 143.101 118.361 143.332C118.946 143.635 120.811 142.789 119.975 142.356ZM153.254 141.014C153.332 141.133 153.336 141.293 153.217 141.5C151.325 144.786 147.179 147.933 143.162 147.406C140.801 147.097 135.933 143.955 137.413 140.906C138.506 138.653 142.015 138.943 144.057 139.143C146.721 139.405 149.841 140.54 152.508 140.193C153.339 140.085 153.496 140.575 153.254 141.014ZM151.026 141.708C147.652 141.702 144.233 140.182 140.825 140.514C137.885 140.799 140.106 144.161 141.613 145.133C144.999 147.315 149.08 144.707 151.026 141.708ZM288.13 285.983C288.111 285.962 288.092 285.941 288.081 285.914C288.094 285.944 288.11 285.963 288.125 285.984C288.299 286.23 288.604 286.007 287.703 286.243C287.237 286.364 286.772 286.489 286.309 286.619C284.983 286.991 283.658 287.375 282.336 287.761C278.127 288.99 273.92 290.226 269.699 291.413C261.612 293.687 253.486 295.855 245.281 297.669C237.119 299.474 228.786 301.296 220.398 301.43C214.825 301.518 207.318 301.028 202.556 297.671C201.016 296.584 201.133 295.953 201.417 294.172C201.823 291.624 202.231 289.077 202.64 286.531C204.823 272.936 207.021 259.343 209.244 245.754C210.582 237.58 211.496 229.163 213.395 221.093C213.455 220.838 213.933 220.634 214.409 220.544C214.521 220.44 214.658 220.349 214.817 220.284C214.921 220.241 215.034 220.208 215.153 220.193C219.186 219.662 223.213 219.063 227.237 218.439C228.752 218.205 230.267 217.966 231.782 217.727C232.529 213.32 233.437 208.921 234.796 204.666C234.907 204.32 235.025 203.96 235.151 203.593C232.935 202.199 230.884 200.248 228.876 198.947C228.531 199.021 228.175 199.041 227.969 199.006C223.47 198.228 218.961 198.632 214.43 198.742C209.676 198.857 204.916 198.723 200.161 198.711C194.34 198.697 188.523 198.779 182.738 199.229C182.738 218.873 182.738 238.516 182.738 258.159C182.738 269.205 182.738 280.25 182.738 291.297C182.738 297.43 182.925 307.816 175.952 310.264C175.996 310.943 175.007 311.429 174.4 311.208C174.426 311.211 174.417 311.202 174.342 311.191C174.262 311.179 174.11 311.168 173.849 311.173C173.262 311.183 172.676 311.205 172.089 311.231C170.033 311.323 167.977 311.448 165.922 311.579C159.149 312.011 152.38 312.511 145.613 313.024C123.531 314.698 101.459 316.521 79.4042 318.504C70.3941 319.315 61.3848 320.137 52.3888 321.091C49.5697 321.39 46.7492 321.69 43.9385 322.065C43.1181 322.174 42.2935 322.278 41.4793 322.43C41.1446 322.493 40.9559 322.534 40.8581 322.555C40.4472 322.843 39.8119 322.939 39.4387 322.653C37.3297 322.813 35.0655 322.838 32.9382 322.406C32.7677 322.507 32.563 322.582 32.3407 322.602C19.2712 323.746 7.44347 316.631 5.20791 303.087C4.46995 298.62 4.83683 294.309 4.87457 289.814C4.91859 284.702 4.7369 279.59 4.7383 274.477C4.7404 264.705 4.75437 254.933 4.77813 245.161C4.82705 224.623 4.90951 204.085 4.99757 183.546C5.16738 144.101 5.37983 104.656 5.38193 65.211C5.38193 65.0028 5.5734 64.8183 5.83756 64.6869C5.56571 64.6736 5.29318 64.6534 5.02203 64.6457C3.65721 64.6079 5.13943 63.5779 5.83687 63.5974C11.1284 63.7442 16.515 64.8735 21.7562 65.5444C26.7682 66.1852 31.7879 66.8638 36.8202 67.3879C37.0222 67.3704 37.2151 67.3865 37.3667 67.4452C38.7602 67.587 40.1543 67.7135 41.5506 67.826C40.6037 61.2801 40.7903 54.6734 40.4919 48.0841C40.1117 48.0946 40.2082 47.9681 40.4786 47.815C40.45 47.2084 40.4094 46.6026 40.371 45.996C38.2437 44.65 36.2975 42.773 34.3499 41.2279C29.8326 37.6463 25.3245 34.053 20.8093 30.47C16.2473 26.8501 11.6854 23.2295 7.08777 19.6563C5.456 18.3887 3.82562 17.1189 2.1666 15.8882C1.67532 15.5235 1.18474 15.1552 0.67739 14.8114C0.160954 14.4605 -0.112289 14.5793 0.648738 14.515C0.671799 14.4997 0.695558 14.4843 0.719318 14.4689C0.155362 14.5724 -0.392518 14.4487 -0.257644 13.9972C-0.256246 13.9916 -0.254153 13.9853 -0.252056 13.979C-0.114386 13.5136 0.432804 13.2718 0.882851 13.2334C2.89478 13.0622 6.03324 16.5438 7.43928 17.6325C12.0879 21.2322 16.6974 24.8843 21.3041 28.5385C26.0457 32.2996 30.7795 36.0719 35.5211 39.833C37.3996 41.3229 39.2759 43.1084 41.2948 44.497C41.8071 44.3824 42.3312 44.3726 42.3431 44.5312C42.3592 44.7528 42.3675 44.975 42.3829 45.1965C42.4039 45.2091 42.4255 45.2238 42.4465 45.2363C42.8239 45.4565 42.7219 45.7444 42.429 45.9778C42.4549 46.4167 42.4863 46.8548 42.5066 47.2944C55.8906 46.8416 69.2774 46.497 82.6656 46.2329C82.6999 46.2322 82.7334 46.2315 82.767 46.2308C82.7313 46.2098 82.6971 46.1868 82.6621 46.1651C80.4294 44.8122 78.4007 42.8373 76.3712 41.2279C71.854 37.6463 67.3458 34.053 62.83 30.47C58.2687 26.8501 53.7068 23.2295 49.1085 19.6563C47.4767 18.3887 45.8463 17.1189 44.1873 15.8882C43.6953 15.5235 43.2047 15.1552 42.6981 14.8114C42.181 14.4612 41.907 14.5793 42.6687 14.515C42.6925 14.4997 42.7163 14.4836 42.7407 14.4682C42.1761 14.5724 41.6261 14.4494 41.7624 13.9972C41.7638 13.9916 41.7658 13.9853 41.7679 13.979C41.907 13.5143 42.4521 13.2718 42.9028 13.2334C43.3145 13.1985 43.775 13.3214 44.2565 13.5409C46.1287 14.3928 48.3418 16.7667 49.46 17.6325C54.1086 21.2322 58.7188 24.8843 63.3255 28.5385C68.067 32.2996 72.8002 36.0719 77.5425 39.833C79.7732 41.6024 81.9982 43.7961 84.4672 45.2363C84.8054 45.4341 84.7607 45.6864 84.5364 45.9051C84.6328 45.9191 84.6908 45.9436 84.6859 45.9799C84.6762 46.0505 84.6692 46.1225 84.6594 46.193C97.5312 45.9478 110.404 45.7786 123.277 45.6591C123.327 45.555 123.403 45.4621 123.498 45.3817C121.72 44.1133 120.056 42.5486 118.39 41.2279C113.873 37.6463 109.365 34.053 104.849 30.47C100.287 26.8501 95.7254 23.2295 91.1271 19.6563C89.496 18.3887 87.8656 17.1189 86.2059 15.8882C85.7146 15.5235 85.224 15.1552 84.7167 14.8114C84.2003 14.4612 83.9263 14.5793 84.688 14.515C84.7111 14.4997 84.7349 14.4843 84.7593 14.4682C84.1947 14.5717 83.6461 14.4487 83.7817 13.9972C83.7838 13.9916 83.7851 13.9853 83.7872 13.979C83.9256 13.5143 84.4721 13.2718 84.9221 13.2334C85.0416 13.2229 85.1653 13.2278 85.2918 13.2425C87.301 13.4689 90.1557 16.608 91.4793 17.6325C96.1279 21.2322 100.737 24.8843 105.344 28.5385C110.086 32.2996 114.82 36.0719 119.562 39.833C121.792 41.6024 124.018 43.7961 126.487 45.2363C126.687 45.353 126.747 45.4893 126.721 45.627C139.673 45.5166 152.624 45.4572 165.577 45.4243C163.778 44.149 162.094 42.564 160.409 41.2279C155.892 37.6463 151.384 34.053 146.868 30.47C142.307 26.8501 137.745 23.2295 133.146 19.6563C131.515 18.3887 129.885 17.1189 128.226 15.8882C127.734 15.5235 127.244 15.1552 126.737 14.8114C126.22 14.4605 125.947 14.5793 126.708 14.515C126.731 14.4997 126.754 14.485 126.778 14.4696C126.215 14.5724 125.667 14.4494 125.802 13.9972C125.803 13.9916 125.805 13.9853 125.807 13.979C125.945 13.5136 126.493 13.2718 126.942 13.2334C127.205 13.211 127.487 13.2537 127.782 13.3424C129.744 13.9336 132.276 16.6863 133.499 17.6325C138.147 21.2322 142.757 24.8843 147.363 28.5385C152.105 32.2996 156.839 36.0719 161.581 39.833C163.812 41.6024 166.037 43.7961 168.506 45.2363C168.602 45.2923 168.661 45.3531 168.699 45.4159C182.13 45.3866 195.56 45.3845 208.988 45.3845C207.21 44.1161 205.544 42.55 203.877 41.2286C199.36 37.647 194.852 34.0537 190.336 30.4708C185.774 26.8508 181.212 23.2302 176.614 19.657C174.983 18.3894 173.352 17.1196 171.693 15.8889C171.201 15.5242 170.711 15.1559 170.204 14.812C169.687 14.4619 169.414 14.58 170.175 14.5157C170.198 14.5004 170.221 14.485 170.246 14.4689C169.681 14.5724 169.133 14.4494 169.268 13.9979C169.27 13.9923 169.272 13.986 169.274 13.9797C169.349 13.7268 169.548 13.5458 169.784 13.4214C169.981 13.3173 170.203 13.2516 170.409 13.2341C172.421 13.0629 175.559 16.5445 176.965 17.6332C181.615 21.2329 186.225 24.885 190.831 28.5392C195.573 32.3003 200.307 36.0726 205.048 39.8337C206.76 41.1908 208.469 42.7946 210.285 44.1196C210.872 43.9135 211.675 43.8317 211.708 44.0483C211.761 44.4166 211.805 44.787 211.845 45.1567C211.889 45.1825 211.93 45.2119 211.973 45.2363C212.364 45.4649 212.242 45.7661 211.925 46.0037C212.471 52.5293 210.97 59.1731 206.045 63.8532C204.595 65.2306 202.967 66.399 201.224 67.3718C199.547 68.3082 197.763 69.0602 195.922 69.6283C194.107 70.1881 192.239 70.5745 190.367 70.7842C187.922 71.0574 185.312 71.0197 182.742 70.6514C182.742 92.434 182.742 114.217 182.742 135.999C182.742 136.142 182.682 136.269 182.589 136.379C185.662 135.541 188.734 134.699 191.808 133.863C201.996 131.093 212.314 128.59 222.39 125.424C222.617 125.353 222.799 125.344 222.956 125.359C223.412 125.186 223.96 125.116 224.198 125.32C231.979 131.942 234.076 143.901 232.782 153.552C232.005 159.353 231.147 171.595 223.824 173.052C223.129 173.19 222.978 172.987 223.112 172.725C222.662 172.965 221.93 173.257 221.572 173.128C221.154 172.978 220.753 172.774 220.367 172.526C207.636 170.98 195.235 167.496 182.741 164.624C182.741 165.647 182.741 166.67 182.741 167.693C182.741 168.62 182.741 169.546 182.741 170.472C182.741 171.7 182.741 172.927 182.741 174.154C182.741 174.245 182.714 174.328 182.675 174.405C185.782 175.492 184.237 177.41 181.914 179.1C182.43 179.027 182.96 179.19 182.981 179.704C182.994 180.016 182.971 180.305 182.935 180.585C183.146 180.48 183.368 180.41 183.556 180.41C200.572 180.406 217.81 180.1 234.573 183.453C238.049 181.606 241.634 179.602 245.69 180.427C248.808 181.062 252.69 183.968 253.497 187.285C253.909 187.182 254.36 187.232 254.603 187.544C255.869 189.165 256.136 191 255.737 192.759C257.998 194.265 257.273 197.17 255.7 199.72C256.505 201.929 257.241 204.164 257.94 206.407C258.677 208.768 259.511 211.194 260.28 213.643C263.506 213.293 266.738 213.003 269.98 212.791C272.073 212.654 274.17 212.548 276.272 212.484C276.427 212.479 276.581 212.47 276.735 212.466C276.869 212.462 276.98 212.474 277.079 212.493C277.59 212.357 278.136 212.351 278.196 212.605C280.897 224.005 282 235.996 283.812 247.56C285.767 260.049 287.434 272.63 289.789 285.051C289.796 285.085 289.793 285.119 289.784 285.152C289.946 285.192 290.064 285.261 290.111 285.373C290.276 285.781 288.498 286.387 288.13 285.983ZM253.598 202.432C252.851 203.218 252.101 203.844 251.479 204.202C249.525 205.329 246.738 205.575 244.636 204.887C244.581 204.944 244.516 205.002 244.429 205.062C241.713 206.949 244.005 208.919 246.507 208.995C247.922 209.039 249.177 208.546 250.372 207.821C252.159 206.737 255.336 204.396 253.598 202.432ZM248.661 198.406C249.939 197.963 251.141 197.045 252.062 195.899C251.491 194.402 250.71 192.769 249.645 192.42C249.546 192.388 249.488 192.346 249.462 192.297C249.222 192.322 248.986 192.339 248.757 192.337C248.649 192.554 248.431 192.748 248.08 192.853C244.32 193.971 244.011 200.019 248.661 198.406ZM244.084 199.241C242.062 204.04 248.588 205.553 251.565 202.447C252.094 201.896 252.862 200.978 253.554 199.924L253.552 199.919C253.318 199.287 253.085 198.654 252.835 198.029C252.791 197.92 252.745 197.794 252.697 197.661C250.994 199.192 248.831 200.196 246.743 200.191C245.757 200.187 244.796 199.84 244.084 199.241ZM254.965 194.79C254.751 195.192 254.505 195.582 254.233 195.958C254.441 196.451 254.633 196.951 254.83 197.449C255.169 196.491 255.277 195.558 254.965 194.79ZM253.399 189.594C253.053 190.431 252.373 191.124 251.563 191.603C252.293 191.993 252.859 192.867 253.307 193.78C253.848 192.407 253.954 190.932 253.399 189.594ZM180.823 175.159C177.177 174.394 171.807 175.102 168.105 176.398C167.676 176.637 166.924 176.879 166.639 176.805C166.336 176.802 166.09 176.73 166.047 176.607C165.001 176.199 164.214 175.551 163.285 174.839C161.696 173.624 160.372 176.801 159.795 178.184C159.781 178.218 159.768 178.25 159.755 178.28C158.28 181.81 157.439 185.55 156.13 189.137C156.159 189.181 156.172 189.234 156.155 189.298C153.907 198.041 149.728 206.566 145.103 214.268C141.097 220.939 135.473 229.139 127.345 230.948C118.282 232.964 113.136 223.649 111.673 216.149C111.228 213.868 110.945 211.58 110.764 209.29C107.462 210.327 103.693 210.591 100.335 210.788C100.242 210.793 100.149 210.799 100.054 210.804C96.5957 211.008 92.2258 211.265 88.8936 209.752C89.1319 212.467 89.4918 215.143 89.9663 217.737C92.5282 231.751 98.8009 243.873 111.465 251.067C115.168 253.17 118.944 255.094 123.168 255.477C123.904 255.543 124.653 255.568 125.419 255.534C127.048 255.46 128.665 255.229 130.256 254.879C134.151 254.021 137.87 252.37 141.071 249.971C147.571 245.101 152.216 238.402 156.538 231.626C160.439 225.509 163.229 219.945 164.891 212.829C166.195 207.247 167.565 201.285 167.66 195.518C167.662 195.443 167.706 195.374 167.777 195.31C167.866 195.205 168.019 195.102 168.256 195.008C173.198 193.056 181.164 190.314 180.81 183.936C179.633 184.831 178.158 185.486 176.837 186.139C175.841 186.632 174.719 185.652 175.964 185.035C178.309 183.875 181.058 182.963 180.932 179.881C180.93 179.84 180.938 179.802 180.946 179.763C179.173 180.923 177.273 181.891 176.701 182.266C176.308 182.523 174.265 182.717 175.134 182.148C176.707 181.119 178.485 180.444 180.048 179.396C181.34 178.531 183.995 175.826 180.823 175.159ZM154.862 172.084C154.717 172.075 154.554 172.061 154.381 172.044C154.599 172.161 154.816 172.28 155.033 172.4C154.929 172.306 154.866 172.197 154.862 172.084ZM158.754 176.519C158.74 176.513 158.725 176.51 158.712 176.503C158.534 176.405 158.357 176.304 158.178 176.205C153.141 173.383 148.468 170.158 142.693 170.02C146.239 175.035 145.808 185.288 139.072 185.905C137.167 186.079 133.629 184.963 132.56 182.947C127.681 185.598 121.66 185.717 119.121 179.822C117.342 175.693 117.534 170.516 120.624 167.349C119.097 167.179 117.2 167.372 115.949 167.337C113.492 167.268 110.875 167.07 108.448 167.539C104.436 168.313 99.866 169.226 96.8778 172.272C95.123 174.061 93.9874 176.183 93.0195 178.417C92.6484 179.276 92.299 180.149 91.9531 181.028C92.0425 181.049 92.09 181.083 92.0712 181.131C91.8496 181.686 91.6351 182.243 91.4499 182.812C91.0181 184.141 90.6407 185.497 90.3115 186.873C88.7 193.6 88.2912 200.816 88.7483 207.833C88.8342 207.849 88.9083 207.877 88.9649 207.921C90.148 208.868 91.6183 209.411 93.1935 209.708C94.9008 210.029 96.7303 210.058 98.455 209.992C99.4061 209.956 100.326 209.893 101.175 209.832C104.206 209.613 107.743 209.447 110.699 208.432C110.16 200.452 110.875 192.428 110.912 184.411C110.915 183.721 112.939 183.384 112.937 183.868C112.894 193.101 111.859 202.355 113.049 211.562C113.641 216.135 114.567 221.246 117.352 225.062C119.625 228.174 123.531 231.137 127.631 230.013C128.618 229.742 129.567 229.356 130.482 228.879C132.67 227.737 134.659 226.061 136.459 224.104C140.231 220.002 143.18 214.677 145.422 210.508C147.656 206.353 149.795 202.02 151.54 197.562C152.341 195.516 153.046 193.442 153.651 191.349C153.758 190.977 153.866 190.606 153.966 190.233C153.914 190.203 153.89 190.164 153.909 190.112C155.41 186.19 156.043 180.78 158.441 176.99C158.542 176.829 158.645 176.672 158.754 176.519ZM135.539 183.232C135.559 183.251 135.573 183.271 135.594 183.29C137.688 185.316 139.303 185.249 140.463 184.197C142.251 182.577 142.955 178.611 142.648 176.315C142.368 174.222 141.766 171.782 140.332 170.129C140.33 170.129 140.328 170.129 140.325 170.13C139.54 170.226 139.351 169.791 139.537 169.372C139.413 169.275 139.283 169.183 139.149 169.096C139.1 169.302 139.049 169.507 139.003 169.714C138.988 169.785 138.931 169.852 138.853 169.914C138.083 172.136 136.905 174.287 136.014 176.445C134.993 178.918 133.373 181.069 135.539 183.232ZM130.893 180.86C130.132 179.174 129.174 177.617 128.114 176.104C126.208 173.383 124.195 170.748 122.744 167.747C122.727 167.713 122.721 167.681 122.713 167.648C122.653 167.664 122.591 167.678 122.529 167.69C118.224 171.741 119.463 183.044 126.185 183.383C127.617 183.455 131.907 183.103 130.893 180.86ZM158.419 143.416C158.872 136.181 155.647 130.073 151.948 124.081C149.212 119.652 145.37 114.75 144.598 109.397C144.372 108.559 144.242 107.782 144.168 107.097C142.896 107.439 141.611 107.72 140.332 108.042C139.307 108.301 137.659 108.608 138.8 109.779C138.97 109.953 139.436 110.396 139.543 110.624C140.363 112.374 138.318 113.864 136.978 114.649C132.917 117.026 127.398 115.644 123.048 114.382L122.832 114.372C122.843 114.421 122.852 114.47 122.853 114.525C123.011 121.693 127.923 132.639 120.017 137.522C118.349 138.552 116.664 139.131 114.774 139.598C113.251 139.975 110.139 140.403 110.097 142.479C110.043 145.14 111.667 147.779 114.141 148.811C116.748 149.898 119.854 150.059 120.474 146.611C120.647 145.645 122.724 145.414 122.532 146.482C122.528 146.5 122.523 146.516 122.519 146.535C125.837 151.786 126.816 160.008 124.129 165.859C124.342 166.115 124.307 166.486 123.79 166.788C123.791 166.791 123.795 166.794 123.797 166.797C124.206 166.762 124.608 166.871 124.769 167.204C126.945 171.706 130.716 175.352 132.722 179.92C133.447 177.929 134.282 175.976 135.121 174.033C135.421 173.337 136.471 170.365 137.054 169.868C137.055 169.863 137.056 169.857 137.057 169.852C137.063 169.83 137.069 169.808 137.073 169.786C136.963 169.702 136.938 169.574 137.062 169.388C137.081 169.358 137.102 169.329 137.121 169.299C137.146 169.261 137.183 169.226 137.216 169.191C138.381 164.679 140.56 161.492 144.89 159.326C148.018 157.761 151.53 156.681 153.907 153.97C154.672 153.097 155.349 152.145 155.946 151.143C155.978 150.981 156.014 150.82 156.06 150.666C156.118 150.477 156.278 150.32 156.48 150.2C157.573 148.099 158.27 145.792 158.419 143.416ZM143.453 106.735C143.639 106.685 143.818 106.617 144 106.554L142.598 106.904C142.996 106.832 143.3 106.776 143.453 106.735ZM162.754 128.388C162.272 127.157 161.592 126.002 160.582 125.206C161.299 126.095 162.063 127.14 162.754 128.388ZM131.466 89.8099C131.248 89.7721 131.032 89.7288 130.816 89.6869C131.004 89.7449 131.22 89.7875 131.466 89.8099ZM180.693 164.157C179.651 163.924 178.61 163.697 177.566 163.475C176.946 166.91 176.646 170.387 176.199 173.848C176.172 174.059 175.899 174.243 175.563 174.364C175.624 174.356 175.686 174.348 175.748 174.339C177.301 174.13 179.071 173.892 180.689 174.011C180.689 172.888 180.689 171.765 180.689 170.642C180.689 169.716 180.689 168.789 180.689 167.862C180.689 166.635 180.689 165.407 180.689 164.18C180.689 164.172 180.693 164.165 180.693 164.157ZM222.965 126.694C218.586 130.11 214.681 136.137 212.752 142.274C215.909 141.937 220.426 141.978 222.464 144.576C224.041 146.586 224.307 151.455 222.439 153.445C222.54 153.669 222.316 153.99 221.676 154.154C219.318 154.758 216.996 155.489 214.655 156.157C214.047 156.331 213.434 156.494 212.822 156.657C212.859 156.751 212.896 156.845 212.933 156.939C213.9 159.395 215.214 161.773 216.43 163.931C217.762 166.293 219.439 169.745 221.85 171.548C221.883 171.551 221.916 171.557 221.95 171.561C222.277 171.6 222.344 171.711 222.269 171.844C222.623 172.072 222.994 172.26 223.38 172.407C223.578 172.243 223.848 172.098 224.126 172.043C227.396 171.392 228.749 164.467 229.343 161.856C230.116 158.457 230.662 155.011 231.037 151.546C231.943 143.198 229.282 132.62 222.965 126.694ZM212.508 155.791C214.598 155.24 216.664 154.606 218.741 154.009C218.408 153.827 218.104 153.589 217.861 153.274C215.878 150.7 216.001 147.212 216.687 144.198C216.756 143.897 217.279 143.665 217.776 143.583C216.073 143.096 214.087 143.097 212.462 143.254C211.634 146.219 211.283 149.177 211.583 151.846C211.731 153.163 212.061 154.485 212.508 155.791ZM221.228 152.359C221.235 152.338 221.242 152.322 221.248 152.3C221.815 150.23 221.967 146.584 220.249 144.916C219.813 144.493 219.282 144.168 218.699 143.914C218.181 146.194 217.947 148.764 218.882 150.981C219.201 151.738 219.943 153.15 220.563 153.176C220.818 153.185 221.052 152.96 221.228 152.359ZM176.111 139.251C175.955 139.294 175.798 139.337 175.642 139.381C173.792 139.889 171.943 140.397 170.098 140.92C170.052 140.933 170.007 140.946 169.961 140.959C169.422 141.112 168.882 141.264 168.345 141.426C168.109 141.496 167.958 141.575 167.912 141.601C167.854 141.633 167.964 141.582 168.28 141.328C168.181 141.407 168.026 141.47 167.846 141.516C167.578 141.833 167.237 142.179 167.108 142.381C166.627 143.143 166.183 143.929 165.824 144.758C165.011 146.633 164.34 148.623 164.087 150.66C163.592 154.639 164.272 159.035 168.785 160.094C168.958 160.135 168.889 160.239 168.705 160.359C168.994 160.352 169.211 160.43 169.214 160.641C169.215 160.684 169.21 160.729 169.21 160.773H169.211C169.211 160.773 169.21 160.775 169.21 160.778C169.212 163.042 168.235 165.655 167.785 167.846C167.303 170.203 166.818 172.558 166.332 174.913C166.751 175.235 167.179 175.545 167.653 175.772C169.807 175.082 172.147 174.792 174.373 174.516C174.436 174.508 174.498 174.501 174.56 174.493C174.321 174.455 174.161 174.347 174.187 174.143C174.654 170.516 174.952 166.871 175.636 163.276C175.648 163.213 175.684 163.154 175.734 163.096C175.424 163.033 175.113 162.966 174.803 162.905C173.693 162.684 175.503 161.789 176.069 161.901C190.315 164.736 204.328 169.059 218.722 171.132C216.877 169.193 215.468 166.421 214.407 164.473C212.353 160.703 209.552 156.061 209.515 151.635C209.445 142.923 214.078 132.411 221.066 126.944C211.964 129.733 202.677 132.013 193.497 134.509C187.7 136.088 181.903 137.66 176.111 139.251ZM180.689 136.168C180.689 114.273 180.689 92.3781 180.689 70.4837C180.689 70.4152 180.706 70.3509 180.73 70.2894C176.448 69.3712 172.443 67.4913 169.707 64.5562C169.767 89.4171 170.332 114.275 170.341 139.136C170.341 139.283 170.279 139.413 170.181 139.526C171.651 139.174 173.187 138.945 174.304 138.637C176.592 138.007 178.883 137.388 181.173 136.762C180.894 136.683 180.689 136.494 180.689 136.168ZM168.152 46.1812C168.047 46.2315 167.933 46.2741 167.819 46.3083C168.105 48.4216 168.174 50.5691 167.961 52.6635C168.131 52.6684 168.242 52.6936 168.237 52.7397C167.885 55.7859 168.401 58.4498 169.532 60.7238C169.606 60.7979 169.657 60.8929 169.68 61.0089C170.644 62.8329 172.009 64.3955 173.65 65.689C174.653 66.4794 175.757 67.1692 176.934 67.7562C179.138 68.8568 181.592 69.599 184.105 69.968C185.665 70.1972 187.247 70.2859 188.803 70.2251C189.608 70.1937 190.418 70.1259 191.225 70.0225C196.698 69.3222 202.071 66.9462 205.574 62.5701C207.829 59.7532 209.118 56.5588 209.676 53.1974C210.015 51.1575 210.088 49.0569 209.935 46.9387C209.916 46.6766 209.89 46.4139 209.863 46.1511C195.961 46.1511 182.056 46.1518 168.152 46.1812ZM125.182 46.395C125.153 46.6508 125.128 46.9045 125.109 47.1567C125.029 48.2469 125.043 49.3063 125.145 50.3308C125.294 51.8235 125.63 53.2428 126.125 54.5818C126.183 54.6021 126.217 54.6321 126.218 54.6713C126.22 54.7237 126.216 54.7733 126.217 54.825C129.071 62.2053 136.825 67.0566 145.34 67.7107C150.703 68.1224 156.602 67.0923 160.757 63.4311C165.687 59.0865 166.673 52.5866 165.729 46.358C165.72 46.2993 165.72 46.2413 165.727 46.1861C152.211 46.2196 138.696 46.2797 125.182 46.395ZM84.5629 46.9387C83.8641 52.9319 84.3575 59.5421 88.3143 64.3822C91.7064 68.5312 96.8659 70.824 102.174 71.1483C111.622 71.7255 124.339 66.5122 124.192 55.4428C123.153 52.7537 122.746 49.727 123.147 46.4153C110.284 46.5306 97.4228 46.6983 84.5629 46.9387ZM42.5346 48.0177C42.566 48.7598 42.5947 49.5013 42.6163 50.2435C42.9245 50.2253 43.1565 50.2533 43.1474 50.3252C42.8784 52.2687 42.7253 54.2932 42.7673 56.3128C42.768 56.3408 42.7694 56.3687 42.7701 56.3967C42.8742 60.8308 43.9266 65.2397 46.7786 68.7282C50.17 72.8772 55.3302 75.1701 60.6371 75.4943C70.1517 76.0757 82.985 70.7891 82.6572 59.561C82.6544 59.4569 82.7264 59.3618 82.8438 59.2772C82.9668 59.1899 83.1401 59.1144 83.3309 59.0543C83.1394 58.4289 82.9675 57.7971 82.8326 57.1549C82.1422 53.8725 82.1667 50.3874 82.602 46.9736C69.2446 47.2315 55.8885 47.5732 42.5346 48.0177ZM37.6735 68.6136C37.6735 70.135 37.6735 71.6563 37.6735 73.1777C37.6735 150.927 37.6735 228.676 37.6735 306.425C40.2438 305.802 44.0454 305.524 44.4424 305.479C53.1834 304.489 61.946 303.681 70.7065 302.881C92.8336 300.861 114.98 299.017 137.134 297.313C145.49 296.67 153.847 296.033 162.211 295.504C162.982 295.455 166.934 294.792 169.593 294.836C169.593 263.563 169.593 232.291 169.593 201.018C169.462 201.046 169.331 201.07 169.2 201.097C168.579 205.814 167.447 210.557 166.238 215.005C164.325 222.041 160.954 227.624 156.953 233.676C152.893 239.817 148.362 246.138 142.153 250.293C139.417 252.124 136.351 253.672 133.138 254.739C133.413 254.772 133.56 254.884 133.383 255.108C130.619 258.583 127.995 261.926 124.931 264.961C124.926 264.966 124.927 264.97 124.92 264.975C124.475 265.414 124.011 265.855 123.533 266.294C123.525 266.302 123.517 266.309 123.509 266.316C123.111 266.68 122.701 267.042 122.283 267.4C118.625 270.534 114.234 273.356 109.803 274.286C109.146 274.424 108.487 274.517 107.831 274.566C104.379 274.825 100.968 273.784 97.9267 270.706C97.7673 270.545 97.6073 270.39 97.4501 270.217C97.0916 269.824 98.9854 269.105 99.353 269.508C103.323 273.864 108.473 275.055 113.882 272.149C115.758 271.142 117.492 269.944 119.135 268.624C119.112 268.549 119.166 268.447 119.341 268.311C124.184 264.54 127.663 260.011 131.446 255.252C129.033 255.911 126.557 256.287 124.09 256.289C122.036 256.291 119.987 255.995 117.975 255.479C117 255.229 116.034 254.927 115.08 254.577C110.874 253.036 106.917 250.604 103.552 247.88C93.276 239.561 88.6553 226.291 87.25 213.505C87.0864 212.014 86.9501 210.491 86.8425 208.952C86.8237 208.95 86.7992 208.947 86.7768 208.945C83.6859 216.192 79.8417 223.001 74.9331 229.233C74.9037 229.27 74.8576 229.305 74.8024 229.339C74.8646 230.876 74.9617 232.392 75.0714 233.867C75.4509 238.963 76.4446 243.907 77.9066 248.802C78.6348 251.239 79.4126 253.66 80.1932 256.081C80.8969 258.265 81.3427 260.763 83.2366 262.248C83.572 262.512 83.5706 262.817 83.3966 263.074C83.0807 263.547 82.1862 263.862 81.6901 263.473C78.2469 260.773 77.4279 254.524 76.2469 250.57C76.1169 250.136 75.9932 249.7 75.8681 249.266C75.2566 247.14 74.701 245.008 74.2461 242.857C73.6912 240.236 73.2789 237.588 73.0784 234.891C72.4361 226.281 72.0371 216.402 76.4167 208.625C76.8877 207.79 78.9485 207.883 78.3685 208.913C75.3251 214.316 74.6472 220.839 74.743 227.162C78.9241 221.449 82.2701 215.284 85.0053 208.763C83.7411 208.624 82.4797 208.459 81.2302 208.223C77.567 207.531 73.8485 206.461 70.6129 204.565C61.0724 198.974 59.0675 187.902 62.751 177.883C65.5324 170.318 70.9029 165.53 76.4572 160.017C79.4776 157.019 78.0946 152.612 80.7837 149.48C83.0004 146.897 88.6686 145.255 89.4065 141.847C90.2179 138.096 88.4575 134.371 90.1697 130.668C90.4918 129.972 90.9363 129.288 91.4318 128.609C92.378 125.769 93.8839 124.525 94.8316 123.81C95.0657 123.338 95.2544 122.858 95.3683 122.368C96.2097 118.729 94.884 114.931 96.3103 111.253C97.0406 109.373 98.0504 107.903 99.5067 106.738C100.047 106.205 100.649 105.817 101.273 105.524C102.295 104.773 103.51 104.176 105.075 103.761C107.956 102.998 110.593 103.659 112.362 100.747C113.467 98.9282 114.335 96.9463 115.626 95.2433C118.198 91.8511 123.018 88.306 127.489 88.2585C128.932 88.2431 130.296 88.5317 131.705 88.8182C133.767 89.2368 135.253 88.8056 137.156 88.0991C137.464 87.9845 137.776 87.8734 138.091 87.7658C138.091 87.7658 138.095 87.7637 138.097 87.763C139.766 86.8245 141.53 86.4506 143.51 86.6113C144.105 86.5785 144.699 86.575 145.294 86.6239C148.482 86.8881 151.231 88.032 152.741 90.0866C153.921 91.0747 154.206 92.5723 153.97 94.2558C153.952 94.9477 153.85 95.6856 153.65 96.4725C153.213 98.1916 152.528 99.9177 151.592 101.471C155.025 102.626 158.567 103.934 158.397 108.057C158.19 113.04 155.895 119.899 160.754 123.239C167.718 128.028 167.554 139.777 161.11 145.078C160.914 145.238 160.452 145.341 160.041 145.355C159.618 147.176 158.977 148.864 158.118 150.396C158.113 150.422 158.114 150.446 158.105 150.475C156.111 156.991 166.114 169.056 156.31 172.596C156.007 172.706 155.688 172.693 155.427 172.611C156.907 173.431 158.39 174.298 159.908 175.141C160.01 175.039 160.106 174.929 160.214 174.831C161.117 174.009 162.386 173.205 163.683 173.419C164.017 173.474 164.321 173.595 164.615 173.74C165.001 171.868 165.386 169.996 165.77 168.124C166.192 166.062 167.204 163.193 167.189 161.244C167.173 161.2 167.167 161.151 167.183 161.092C167.187 161.078 167.191 161.064 167.195 161.05C167.214 160.983 167.265 160.916 167.335 160.851C167.247 160.861 167.171 160.861 167.115 160.847C160.937 159.398 161.294 152.269 162.956 147.403C163.763 145.038 165.318 140.974 168.124 140.158C168.345 140.068 168.574 139.982 168.81 139.905C168.516 139.831 168.297 139.642 168.297 139.305C168.286 113.432 167.67 87.5617 167.654 61.6882C167.135 60.7126 166.736 59.6546 166.472 58.5148C165.575 60.561 164.278 62.4409 162.475 64.03C158.067 67.9141 152.04 69.5004 146.247 69.2761C137.939 68.9561 129.867 65.0559 125.77 58.5637C124.512 63.2215 120.772 66.652 116.264 68.8813C114.144 69.9295 111.856 70.7122 109.576 71.2308C107.48 71.7074 105.392 71.9652 103.45 71.9981C97.8407 72.0931 91.7826 70.6346 87.7224 66.5192C86.3401 65.1181 85.2737 63.5653 84.4602 61.9132C82.681 71.439 70.7743 76.1952 61.9145 76.3455C56.305 76.4405 50.2462 74.9821 46.1867 70.8667C45.1636 69.8296 44.3138 68.7101 43.6094 67.5283C43.6185 67.5891 43.6233 67.6499 43.6324 67.71C43.6471 67.8065 43.5702 67.9001 43.443 67.9868C44.093 68.1713 42.5136 69.0099 41.9888 68.9735C40.5478 68.8743 39.1103 68.7499 37.6735 68.6136ZM41.1257 321.567C41.3004 321.83 41.2662 322.084 41.1208 322.295C41.2599 322.131 41.3417 321.892 41.1257 321.567ZM180.689 285.443C180.689 274.777 180.689 264.112 180.689 253.446C180.689 235.431 180.689 217.417 180.689 199.403C177.654 199.686 174.628 200.085 171.618 200.63C171.618 232.136 171.618 263.641 171.618 295.147C171.807 295.237 171.943 295.349 172.011 295.486C172.43 296.323 171.164 297.008 170.483 296.702C170.56 296.729 170.585 296.716 170.478 296.7L170.476 296.699C170.395 296.688 170.243 296.676 169.984 296.681C169.398 296.692 168.811 296.713 168.225 296.74C166.168 296.832 164.112 296.957 162.057 297.088C155.284 297.52 148.515 298.02 141.747 298.533C119.665 300.207 97.5933 302.03 75.5382 304.013C66.5282 304.824 57.5189 305.646 48.5228 306.6C45.7038 306.899 42.8833 307.199 40.0726 307.574C39.2522 307.684 38.4275 307.787 37.6134 307.939C37.2794 308.002 37.09 308.043 36.9921 308.064C36.5155 308.397 35.7321 308.477 35.4135 307.997C35.2171 307.701 35.3289 307.436 35.6448 307.199C35.6448 305.58 35.6448 303.962 35.6448 302.342C35.6448 224.366 35.6448 146.39 35.6448 68.4138C30.5832 67.8896 25.5334 67.2076 20.492 66.5605C16.1761 66.0063 11.7434 65.1216 7.36241 64.7771C7.38757 64.8316 7.40643 64.891 7.40643 64.9622C7.40573 79.9151 7.37149 94.868 7.32257 109.82C7.1891 150.819 6.95569 191.818 6.83479 232.818C6.80544 242.773 6.78238 252.728 6.7705 262.683C6.75862 272.904 7.25968 283.199 6.76211 293.407C6.38474 301.148 7.73699 309.765 13.6023 315.382C18.1698 319.757 24.1183 321.629 30.2869 321.563C29.558 321.231 28.8661 320.82 28.2274 320.304C24.6403 317.407 23.5033 312.617 23.0973 308.222C22.2608 299.156 23.2748 289.946 23.1294 280.853C22.9736 271.096 23.0875 261.329 23.0875 251.571C23.0875 230.716 23.0875 209.862 23.0875 189.007C23.0875 148.707 23.0875 108.407 23.0875 68.107C23.0875 67.4277 25.1141 66.9965 25.1141 67.8596C25.1141 80.8341 25.1141 93.8093 25.1141 106.784C25.1141 148.384 25.1141 189.984 25.1141 231.584C25.1141 241.8 25.1141 252.015 25.1141 262.232C25.1141 272.59 25.7102 283.067 25.1141 293.406C24.7193 300.263 23.9254 308.478 26.7675 314.979C29.1953 320.53 34.2122 321.886 39.828 321.488C41.8288 320.455 47.8003 320.024 48.3034 319.968C57.0444 318.977 65.807 318.17 74.5676 317.37C96.6947 315.35 118.84 313.506 140.994 311.802C149.35 311.159 157.707 310.522 166.072 309.993C166.908 309.94 171.488 309.164 174.099 309.352C174.163 309.331 174.213 309.303 174.289 309.289C182.717 307.711 180.689 291.653 180.689 285.443ZM228.162 198.035C230.039 193.638 229.833 188.672 231.823 184.288C215.687 181.279 199.122 181.584 182.772 181.589C182.74 181.589 182.718 181.586 182.689 181.585C182.621 181.763 182.543 181.935 182.455 182.1C182.597 182.162 182.698 182.264 182.726 182.418C184.085 189.996 175.44 193.465 169.653 195.747C169.601 197.31 169.476 198.888 169.284 200.474C169.289 200.472 169.294 200.471 169.3 200.469C169.318 200.464 169.336 200.459 169.353 200.456C169.433 200.439 169.514 200.424 169.593 200.408C169.593 200.307 169.593 200.207 169.593 200.106C169.593 199.576 171.618 199.305 171.618 199.564C171.618 199.711 171.618 199.86 171.618 200.008C174.628 199.446 177.654 199.026 180.69 198.718C180.69 198.637 180.69 198.555 180.69 198.472C180.69 197.604 182.738 197.27 182.738 198.301C182.738 198.376 182.738 198.451 182.738 198.526C188.518 198.032 194.336 197.908 200.15 197.922C205.728 197.936 211.323 198.135 216.899 197.918C220.662 197.771 224.425 197.577 228.162 198.035ZM235.754 201.924C237.578 197.16 240.604 191.704 245.345 190.948C244.89 190.486 244.501 189.924 244.212 189.239C243.854 188.393 245.862 187.809 246.237 188.697C246.975 190.446 250.205 192.265 251.319 189.692C252.276 187.483 250.26 185.19 248.623 183.942C243.645 180.153 239.668 182.411 234.801 184.961C234.255 185.248 233.682 185.069 233.466 184.744C231.807 189.014 231.916 193.75 230.025 197.948C230.206 197.934 230.366 197.953 230.475 198.02C232.051 198.99 233.448 200.215 234.935 201.308C235.184 201.491 235.46 201.702 235.754 201.924ZM233.798 217.407C233.868 217.395 233.938 217.384 234.008 217.373C242.034 216.099 250.06 214.825 258.123 213.884C257.524 212.002 256.898 210.138 256.336 208.316C256.032 207.334 255.725 206.352 255.413 205.371C254.082 207.319 251.263 209.046 249.537 209.706C247.383 210.529 244.634 210.727 242.601 209.428C240.107 207.835 241.004 205.739 243.12 204.267C243.154 204.243 243.192 204.224 243.23 204.205C241.74 203.179 241.088 201.405 242.348 198.841C242.473 198.587 242.901 198.402 243.324 198.335C243.004 197.767 242.856 197.092 242.97 196.336C243.272 194.339 244.516 192.871 246.188 191.981C241.746 191.736 238.898 197.396 237.123 202.911C238.513 203.84 240.098 204.624 241.495 204.272C242.69 203.97 242.908 204.756 241.706 205.06C239.904 205.515 238.237 205.164 236.659 204.425C235.844 207.225 235.298 209.836 234.953 211.422C234.524 213.408 234.144 215.404 233.798 217.407ZM258.647 293.664C260.765 293.11 262.879 292.542 264.991 291.961C271.283 290.23 277.539 288.378 283.809 286.568C284.123 286.478 286.066 285.759 287.717 285.364C285.385 273.017 283.726 260.513 281.782 248.101C280.005 236.749 278.9 224.988 276.305 213.776C271.064 213.926 265.851 214.325 260.654 214.878C261.394 217.335 262.042 219.809 262.416 222.263C262.525 222.979 260.489 223.449 260.391 222.806C260.001 220.251 259.298 217.671 258.51 215.119C250.175 216.073 241.88 217.391 233.585 218.708C233.308 220.392 233.05 222.078 232.814 223.769C232.666 224.832 232.867 227.705 231.553 228.149C231.281 228.24 230.469 228.516 230.231 228.198C230.166 228.111 230.141 228.06 230.124 227.958C230.104 227.837 230.164 227.722 230.273 227.619C230.298 227.533 230.326 227.423 230.352 227.257C230.445 226.667 230.526 226.077 230.607 225.486C230.858 223.677 231.109 221.867 231.396 220.064C231.45 219.718 231.508 219.374 231.564 219.029C226.133 219.888 220.699 220.731 215.251 221.451C215.228 221.559 215.207 221.667 215.183 221.775C215.608 221.7 215.999 221.73 216.049 221.941C218.982 234.271 220.319 247.18 222.368 259.677C224.527 272.852 226.433 286.101 228.929 299.217C229.033 299.769 226.996 300.247 226.904 299.76C224.362 286.401 222.423 272.906 220.223 259.488C218.351 248.064 217.065 236.297 214.573 224.959C214.179 227.283 213.849 229.624 213.466 231.932C211.281 245.083 209.148 258.242 207.023 271.402C206.009 277.677 204.999 283.952 203.994 290.229C203.742 291.805 202.38 295.325 203.834 296.492C205.784 298.056 208.385 298.857 210.789 299.404C220.274 301.563 229.839 300.083 239.235 298.195C240.898 297.86 242.554 297.499 244.21 297.135C249.047 296.077 253.858 294.915 258.647 293.664ZM89.2758 280.442C89.8335 280.4 91.48 279.475 90.1382 279.575C72.738 280.873 66.921 255.988 66.3298 242.79C66.3116 242.386 64.2773 242.733 64.3045 243.332C64.9342 257.358 71.1118 281.796 89.2758 280.442ZM174.399 311.206C174.381 311.199 174.36 311.199 174.343 311.191C174.369 311.2 174.387 311.204 174.399 311.206ZM170.478 296.7L170.477 296.701C170.479 296.701 170.48 296.701 170.483 296.702C170.483 296.702 170.48 296.701 170.478 296.7Z" fill="#A51361"/>
<path fill-rule="evenodd" clip-rule="evenodd" d="M158.419 143.416C158.872 136.181 155.647 130.073 151.948 124.081C149.212 119.652 145.37 114.75 144.598 109.397C144.372 108.559 144.242 107.782 144.168 107.097C142.896 107.439 141.611 107.72 140.332 108.042C139.307 108.301 137.659 108.608 138.8 109.779C138.97 109.953 139.436 110.396 139.543 110.624C140.363 112.374 138.318 113.864 136.978 114.649C132.917 117.026 127.398 115.644 123.048 114.382L122.832 114.372C122.843 114.421 122.852 114.47 122.853 114.525C123.011 121.693 127.923 132.639 120.017 137.522C118.349 138.552 116.664 139.131 114.774 139.598C113.251 139.975 110.139 140.403 110.097 142.479C110.043 145.14 111.667 147.779 114.141 148.811C116.748 149.898 119.854 150.059 120.474 146.611C120.647 145.645 122.724 145.414 122.532 146.482C122.528 146.5 122.523 146.516 122.519 146.535C125.837 151.786 126.816 160.008 124.129 165.859C124.342 166.115 124.307 166.486 123.79 166.788C123.791 166.791 123.795 166.794 123.797 166.797C124.206 166.762 124.608 166.871 124.769 167.204C126.945 171.706 130.716 175.352 132.722 179.92C133.447 177.929 134.282 175.976 135.121 174.033C135.421 173.337 136.471 170.365 137.054 169.868L137.057 169.852C137.063 169.83 137.069 169.808 137.073 169.786C136.963 169.702 136.938 169.574 137.062 169.388C137.081 169.358 137.102 169.329 137.121 169.299C137.146 169.261 137.183 169.226 137.216 169.191C138.381 164.679 140.56 161.492 144.89 159.326C148.018 157.761 151.53 156.681 153.907 153.97C154.672 153.097 155.349 152.145 155.946 151.143C155.978 150.981 156.014 150.82 156.06 150.666C156.118 150.477 156.278 150.32 156.48 150.2C157.573 148.099 158.27 145.792 158.419 143.416ZM150.874 132.965C152.37 132.595 154.703 131.721 153.077 129.985C151.654 128.465 149.584 127.682 148.194 126.153C147.79 125.708 146.093 126.611 146.168 126.695C147.197 127.826 148.635 128.582 149.848 129.493C150.716 130.144 152.826 131.921 150.732 132.439C150.59 132.473 149.718 132.703 149.79 132.973C149.865 133.247 150.73 133.001 150.874 132.965ZM136.989 129.062L137.084 129.008C138.061 128.45 139.156 129.434 137.958 130.118C136.127 131.162 134.26 132.128 132.108 132.194C130.724 132.237 131.19 130.831 132.31 130.796C134.048 130.742 135.516 129.903 136.989 129.062ZM150.117 122.643C149.604 123.543 148.443 123.756 147.484 123.758C147.254 123.758 146.658 123.681 146.979 123.322C147.26 123.006 147.805 122.841 148.233 122.819C148.492 122.541 148.931 122.408 149.282 122.353C149.389 122.336 150.327 122.276 150.117 122.643ZM132.307 120.268C132.644 120.126 133.322 119.953 133.636 120.247C133.961 120.551 133.27 120.906 133.076 120.987C131.938 121.467 130.981 122.308 130.112 123.167C129.689 123.585 127.693 123.724 128.51 122.918C129.621 121.822 130.863 120.877 132.307 120.268ZM145.107 116.01C144.587 116.527 143.94 116.872 143.195 116.904C142.887 116.917 142.205 116.878 142.299 116.391C142.381 115.966 142.97 115.706 143.37 115.665L143.374 115.662C143.412 115.628 143.449 115.594 143.458 115.586C143.804 115.24 144.417 115.08 144.89 115.202C145.321 115.312 145.419 115.698 145.107 116.01ZM114.05 145.145C114.744 142.704 117.614 141.133 119.975 142.356C120.811 142.789 118.946 143.635 118.361 143.332C117.915 143.101 117.46 142.936 117.04 143.303C116.544 143.737 116.254 144.259 116.074 144.89C115.88 145.572 113.845 145.868 114.05 145.145ZM153.217 141.5C153.336 141.293 153.332 141.133 153.254 141.014C153.496 140.575 153.339 140.085 152.508 140.193C149.841 140.54 146.721 139.405 144.057 139.143C142.015 138.943 138.506 138.653 137.413 140.906C135.933 143.955 140.801 147.097 143.162 147.406C147.179 147.933 151.325 144.786 153.217 141.5Z" fill="white"/>
<path d="M176.111 139.251L175.642 139.381C173.792 139.889 171.943 140.397 170.098 140.92L169.961 140.959C169.422 141.112 168.882 141.264 168.345 141.426C168.109 141.496 167.958 141.575 167.912 141.601C167.892 141.613 167.893 141.612 167.912 141.601C167.951 141.576 168.07 141.497 168.28 141.328C168.181 141.407 168.026 141.47 167.846 141.516C167.578 141.833 167.237 142.179 167.108 142.381C166.627 143.143 166.183 143.929 165.824 144.758C165.011 146.633 164.34 148.623 164.087 150.66C163.592 154.639 164.272 159.035 168.785 160.094C168.958 160.135 168.889 160.239 168.705 160.359C168.994 160.352 169.211 160.43 169.214 160.641C169.215 160.684 169.21 160.729 169.21 160.773H169.211C169.211 160.773 169.21 160.775 169.21 160.778C169.212 163.042 168.235 165.655 167.785 167.846C167.303 170.203 166.818 172.558 166.332 174.913C166.751 175.235 167.179 175.545 167.653 175.772C169.807 175.082 172.147 174.792 174.373 174.516L174.56 174.493C174.321 174.455 174.161 174.347 174.187 174.143C174.654 170.516 174.952 166.871 175.636 163.276C175.648 163.213 175.684 163.154 175.734 163.096C175.424 163.033 175.113 162.966 174.803 162.905C173.693 162.684 175.503 161.789 176.069 161.901C190.315 164.736 204.328 169.059 218.722 171.132C216.877 169.193 215.468 166.421 214.407 164.473C212.353 160.703 209.552 156.061 209.515 151.635C209.445 142.923 214.078 132.411 221.066 126.944C211.964 129.733 202.677 132.013 193.497 134.509C187.7 136.088 181.903 137.66 176.111 139.251Z" fill="white"/>
<path d="M151.026 141.708C147.652 141.702 144.233 140.182 140.825 140.514C137.885 140.799 140.106 144.161 141.613 145.133C144.999 147.315 149.08 144.707 151.026 141.708Z" fill="white"/>
<path d="M135.539 183.232C135.559 183.251 135.573 183.271 135.594 183.29C137.688 185.316 139.303 185.249 140.463 184.197C142.251 182.577 142.955 178.611 142.648 176.315C142.368 174.222 141.766 171.782 140.332 170.129C140.33 170.129 140.328 170.129 140.325 170.13C139.54 170.226 139.351 169.791 139.537 169.372C139.413 169.275 139.283 169.183 139.149 169.096C139.1 169.302 139.049 169.507 139.003 169.714C138.988 169.785 138.931 169.852 138.853 169.914C138.083 172.136 136.905 174.287 136.014 176.445C134.993 178.918 133.373 181.069 135.539 183.232Z" fill="white"/>
<path d="M130.893 180.86C130.132 179.174 129.174 177.617 128.114 176.104C126.208 173.383 124.195 170.748 122.744 167.747C122.727 167.713 122.721 167.681 122.713 167.648C122.653 167.664 122.591 167.678 122.529 167.69C118.224 171.741 119.463 183.044 126.185 183.383C127.617 183.455 131.907 183.103 130.893 180.86Z" fill="white"/>
<path d="M180.823 175.159C177.177 174.394 171.807 175.102 168.105 176.398C167.676 176.637 166.924 176.879 166.639 176.805C166.336 176.802 166.09 176.73 166.047 176.607C165.001 176.199 164.214 175.551 163.285 174.839C161.696 173.624 160.372 176.801 159.795 178.184L159.755 178.28C158.28 181.81 157.439 185.55 156.13 189.137C156.159 189.181 156.172 189.234 156.155 189.298C153.907 198.041 149.728 206.566 145.103 214.268C141.097 220.939 135.473 229.139 127.345 230.948C118.282 232.964 113.136 223.649 111.673 216.149C111.228 213.868 110.945 211.58 110.764 209.29C107.462 210.327 103.693 210.591 100.335 210.788L100.054 210.804C96.5957 211.008 92.2258 211.265 88.8936 209.752C89.1319 212.467 89.4918 215.143 89.9663 217.737C92.5282 231.751 98.8009 243.873 111.465 251.067C115.168 253.17 118.944 255.094 123.168 255.477C123.904 255.543 124.653 255.568 125.419 255.534C127.048 255.46 128.665 255.229 130.256 254.879C134.151 254.021 137.87 252.37 141.071 249.971C147.571 245.101 152.216 238.402 156.538 231.626C160.439 225.509 163.229 219.945 164.891 212.829C166.195 207.247 167.565 201.285 167.66 195.518C167.662 195.443 167.706 195.374 167.777 195.31C167.866 195.205 168.019 195.102 168.256 195.008C173.198 193.056 181.164 190.314 180.81 183.936C179.633 184.831 178.158 185.486 176.837 186.139C175.841 186.632 174.719 185.652 175.964 185.035C178.309 183.875 181.058 182.963 180.932 179.881C180.93 179.84 180.938 179.802 180.946 179.763C179.173 180.923 177.273 181.891 176.701 182.266C176.308 182.523 174.265 182.717 175.134 182.148C176.707 181.119 178.485 180.444 180.048 179.396C181.34 178.531 183.995 175.826 180.823 175.159Z" fill="white"/>
<path d="M228.162 198.035C230.039 193.638 229.833 188.672 231.823 184.288C215.687 181.279 199.122 181.584 182.772 181.589C182.74 181.589 182.718 181.586 182.689 181.585C182.621 181.763 182.543 181.935 182.455 182.1C182.597 182.162 182.698 182.264 182.726 182.418C184.085 189.996 175.44 193.465 169.653 195.747C169.601 197.31 169.476 198.888 169.284 200.474L169.3 200.469C169.318 200.464 169.336 200.459 169.353 200.456C169.433 200.439 169.514 200.424 169.593 200.408V200.106C169.593 199.576 171.618 199.305 171.618 199.564V200.008C174.628 199.446 177.654 199.026 180.69 198.718V198.472C180.69 197.604 182.738 197.27 182.738 198.301V198.526C188.518 198.032 194.336 197.908 200.15 197.922C205.728 197.936 211.323 198.135 216.899 197.918C220.662 197.771 224.425 197.577 228.162 198.035Z" fill="white"/>
<path d="M180.689 285.443V253.446V199.403C177.654 199.686 174.628 200.085 171.618 200.63V295.147C171.807 295.237 171.943 295.349 172.011 295.486C172.43 296.323 171.164 297.008 170.483 296.702C170.48 296.701 170.479 296.701 170.477 296.701L170.478 296.7L170.476 296.699C170.395 296.688 170.243 296.676 169.984 296.681C169.398 296.692 168.811 296.713 168.225 296.74C166.168 296.832 164.112 296.957 162.057 297.088C155.284 297.52 148.515 298.02 141.747 298.533C119.665 300.207 97.5933 302.03 75.5382 304.013C66.5282 304.824 57.5189 305.646 48.5228 306.6C45.7038 306.899 42.8833 307.199 40.0726 307.574C39.2522 307.684 38.4275 307.787 37.6134 307.939C37.2794 308.002 37.09 308.043 36.9921 308.064C36.5155 308.397 35.7321 308.477 35.4135 307.997C35.2171 307.701 35.3289 307.436 35.6448 307.199V302.342V68.4138C30.5832 67.8896 25.5334 67.2076 20.492 66.5605C16.1761 66.0063 11.7434 65.1216 7.36241 64.7771C7.38757 64.8316 7.40643 64.891 7.40643 64.9622C7.40573 79.9151 7.37149 94.868 7.32257 109.82C7.1891 150.819 6.95569 191.818 6.83479 232.818C6.80544 242.773 6.78238 252.728 6.7705 262.683C6.75862 272.904 7.25968 283.199 6.76211 293.407C6.38474 301.148 7.73699 309.765 13.6023 315.382C18.1698 319.757 24.1183 321.629 30.2869 321.563C29.558 321.231 28.8661 320.82 28.2274 320.304C24.6403 317.407 23.5033 312.617 23.0973 308.222C22.2608 299.156 23.2748 289.946 23.1294 280.853C22.9736 271.096 23.0875 261.329 23.0875 251.571V189.007V68.107C23.0875 67.4277 25.1141 66.9965 25.1141 67.8596V106.784V231.584V262.232C25.1141 272.59 25.7102 283.067 25.1141 293.406C24.7193 300.263 23.9254 308.478 26.7675 314.979C29.1953 320.53 34.2122 321.886 39.828 321.488C41.8288 320.455 47.8003 320.024 48.3034 319.968C57.0444 318.977 65.807 318.17 74.5676 317.37C96.6947 315.35 118.84 313.506 140.994 311.802C149.35 311.159 157.707 310.522 166.072 309.993C166.908 309.94 171.488 309.164 174.099 309.352C174.163 309.331 174.213 309.303 174.289 309.289C182.717 307.711 180.689 291.653 180.689 285.443Z" fill="white"/>
<path d="M180.689 136.168V70.4837C180.689 70.4152 180.706 70.3509 180.73 70.2894C176.448 69.3712 172.443 67.4913 169.707 64.5562C169.767 89.4171 170.332 114.275 170.341 139.136C170.341 139.283 170.279 139.413 170.181 139.526C171.651 139.174 173.187 138.945 174.304 138.637C176.592 138.007 178.883 137.388 181.173 136.762C180.894 136.683 180.689 136.494 180.689 136.168Z" fill="white"/>
<path d="M180.693 164.157C179.651 163.924 178.61 163.697 177.566 163.475C176.946 166.91 176.646 170.387 176.199 173.848C176.172 174.059 175.899 174.243 175.563 174.364L175.748 174.339C177.301 174.13 179.071 173.892 180.689 174.011V170.642V167.862V164.18C180.689 164.172 180.693 164.165 180.693 164.157Z" fill="white"/>
<path d="M235.754 201.924C237.578 197.16 240.604 191.704 245.345 190.948C244.89 190.486 244.501 189.924 244.212 189.239C243.854 188.393 245.862 187.809 246.237 188.697C246.975 190.446 250.205 192.265 251.319 189.692C252.276 187.483 250.26 185.19 248.623 183.942C243.645 180.153 239.668 182.411 234.801 184.961C234.255 185.248 233.682 185.069 233.466 184.744C231.807 189.014 231.916 193.75 230.025 197.948C230.206 197.934 230.366 197.953 230.475 198.02C232.051 198.99 233.448 200.215 234.935 201.308C235.184 201.491 235.46 201.702 235.754 201.924Z" fill="white"/>
<path d="M233.798 217.407L234.008 217.373C242.034 216.099 250.06 214.825 258.123 213.884C257.524 212.002 256.898 210.138 256.336 208.316C256.032 207.334 255.725 206.352 255.413 205.371C254.082 207.319 251.263 209.046 249.537 209.706C247.383 210.529 244.634 210.727 242.601 209.428C240.107 207.835 241.004 205.739 243.12 204.267C243.154 204.243 243.192 204.224 243.23 204.205C241.74 203.179 241.088 201.405 242.348 198.841C242.473 198.587 242.901 198.402 243.324 198.335C243.004 197.767 242.856 197.092 242.97 196.336C243.272 194.339 244.516 192.871 246.188 191.981C241.746 191.736 238.898 197.396 237.123 202.911C238.513 203.84 240.098 204.624 241.495 204.272C242.69 203.97 242.908 204.756 241.706 205.06C239.904 205.515 238.237 205.164 236.659 204.425C235.844 207.225 235.298 209.836 234.953 211.422C234.524 213.408 234.144 215.404 233.798 217.407Z" fill="white"/>
<path d="M244.084 199.241C242.062 204.04 248.588 205.553 251.565 202.447C252.094 201.896 252.862 200.978 253.554 199.924L253.552 199.919C253.318 199.287 253.085 198.654 252.835 198.029C252.791 197.92 252.745 197.794 252.697 197.661C250.994 199.192 248.831 200.196 246.743 200.191C245.757 200.187 244.796 199.84 244.084 199.241Z" fill="white"/>
<path d="M248.661 198.406C249.939 197.963 251.141 197.045 252.062 195.899C251.491 194.402 250.71 192.769 249.645 192.42C249.546 192.388 249.488 192.346 249.462 192.297C249.222 192.322 248.986 192.339 248.757 192.337C248.649 192.554 248.431 192.748 248.08 192.853C244.32 193.971 244.011 200.019 248.661 198.406Z" fill="white"/>
<path d="M253.598 202.432C252.851 203.218 252.101 203.844 251.479 204.202C249.525 205.329 246.738 205.575 244.636 204.887C244.581 204.944 244.516 205.002 244.429 205.062C241.713 206.949 244.005 208.919 246.507 208.995C247.922 209.039 249.177 208.546 250.372 207.821C252.159 206.737 255.336 204.396 253.598 202.432Z" fill="white"/>
<path d="M253.399 189.594C253.053 190.431 252.373 191.124 251.563 191.603C252.293 191.993 252.859 192.867 253.307 193.78C253.848 192.407 253.954 190.932 253.399 189.594Z" fill="white"/>
<path d="M254.965 194.79C254.751 195.192 254.505 195.582 254.233 195.958C254.441 196.451 254.633 196.951 254.83 197.449C255.169 196.491 255.277 195.558 254.965 194.79Z" fill="white"/>
<path d="M222.965 126.694C218.586 130.11 214.681 136.137 212.752 142.274C215.909 141.937 220.426 141.978 222.464 144.576C224.041 146.586 224.307 151.455 222.439 153.445C222.54 153.669 222.316 153.99 221.676 154.154C219.318 154.758 216.996 155.489 214.655 156.157C214.047 156.331 213.434 156.494 212.822 156.657C212.859 156.751 212.896 156.845 212.933 156.939C213.9 159.395 215.214 161.773 216.43 163.931C217.762 166.293 219.439 169.745 221.85 171.548C221.883 171.551 221.916 171.557 221.95 171.561C222.277 171.6 222.344 171.711 222.269 171.844C222.623 172.072 222.994 172.26 223.38 172.407C223.578 172.243 223.848 172.098 224.126 172.043C227.396 171.392 228.749 164.467 229.343 161.856C230.116 158.457 230.662 155.011 231.037 151.546C231.943 143.198 229.282 132.62 222.965 126.694Z" fill="white"/>
</g>
<defs>
<clipPath id="clip0_208_1028">
<rect width="290" height="323" fill="white"/>
</clipPath>
</defs>
</svg>
