<svg width="24" height="24" viewBox="0 0 24 24" fill="none" xmlns="http://www.w3.org/2000/svg">
<path d="M12.7281 2.21596C12.8 2.14605 12.8852 2.09127 12.9786 2.05485C13.072 2.01844 13.1718 2.00113 13.2721 2.00396C15.5639 2.07323 17.7428 3.0146 19.3641 4.63589C20.9854 6.25719 21.9268 8.43615 21.9961 10.728C21.999 10.8283 21.9818 10.9282 21.9454 11.0217C21.909 11.1153 21.8543 11.2006 21.7843 11.2726C21.7144 11.3446 21.6307 11.4018 21.5383 11.4408C21.4458 11.4799 21.3464 11.5 21.2461 11.5H13.2501C13.0512 11.5 12.8604 11.4209 12.7197 11.2803C12.5791 11.1396 12.5001 10.9489 12.5001 10.75V2.75396C12.5001 2.65359 12.5204 2.55426 12.5595 2.46184C12.5987 2.36943 12.656 2.28582 12.7281 2.21596ZM11.0001 4.78396C11.0001 4.67982 10.9784 4.57682 10.9364 4.48153C10.8944 4.38623 10.833 4.30072 10.7562 4.23045C10.6793 4.16018 10.5887 4.10668 10.49 4.07337C10.3913 4.04006 10.2868 4.02766 10.1831 4.03696C8.47974 4.19226 6.85592 4.82971 5.50184 5.87465C4.14775 6.9196 3.11945 8.32875 2.5374 9.93707C1.95535 11.5454 1.84364 13.2863 2.21537 14.9558C2.58709 16.6253 3.42685 18.1543 4.63628 19.3637C5.84572 20.5732 7.37474 21.4129 9.04426 21.7847C10.7138 22.1564 12.4546 22.0447 14.063 21.4626C15.6713 20.8806 17.0804 19.8523 18.1254 18.4982C19.1703 17.1441 19.8078 15.5203 19.9631 13.817C19.9724 13.7132 19.96 13.6087 19.9267 13.51C19.8933 13.4114 19.8399 13.3207 19.7696 13.2439C19.6993 13.167 19.6138 13.1056 19.5185 13.0636C19.4232 13.0216 19.3202 13 19.2161 13H11.0001V4.78396Z" fill="#B8B8B8"/>
</svg>
