<svg width="47" height="48" viewBox="0 0 47 48" fill="none" xmlns="http://www.w3.org/2000/svg">
<path d="M15.75 0.75C17.1203 0.75 18.4344 1.29434 19.4034 2.26328C20.3723 3.23222 20.9167 4.54638 20.9167 5.91667V21.4167C20.9167 22.787 20.3723 24.1011 19.4034 25.07C18.4344 26.039 17.1203 26.5833 15.75 26.5833H5.41667C4.04638 26.5833 2.73222 26.039 1.76328 25.07C0.794343 24.1011 0.25 22.787 0.25 21.4167V5.91667C0.25 4.54638 0.794343 3.23222 1.76328 2.26328C2.73222 1.29434 4.04638 0.75 5.41667 0.75H15.75ZM15.75 31.75C17.1203 31.75 18.4344 32.2943 19.4034 33.2633C20.3723 34.2322 20.9167 35.5464 20.9167 36.9167V42.0833C20.9167 43.4536 20.3723 44.7678 19.4034 45.7367C18.4344 46.7057 17.1203 47.25 15.75 47.25H5.41667C4.04638 47.25 2.73222 46.7057 1.76328 45.7367C0.794343 44.7678 0.25 43.4536 0.25 42.0833V36.9167C0.25 35.5464 0.794343 34.2322 1.76328 33.2633C2.73222 32.2943 4.04638 31.75 5.41667 31.75H15.75ZM41.5833 21.4167C42.9536 21.4167 44.2678 21.961 45.2367 22.9299C46.2057 23.8989 46.75 25.213 46.75 26.5833V42.0833C46.75 43.4536 46.2057 44.7678 45.2367 45.7367C44.2678 46.7057 42.9536 47.25 41.5833 47.25H31.25C29.8797 47.25 28.5656 46.7057 27.5966 45.7367C26.6277 44.7678 26.0833 43.4536 26.0833 42.0833V26.5833C26.0833 25.213 26.6277 23.8989 27.5966 22.9299C28.5656 21.961 29.8797 21.4167 31.25 21.4167H41.5833ZM41.5833 0.75C42.9536 0.75 44.2678 1.29434 45.2367 2.26328C46.2057 3.23222 46.75 4.54638 46.75 5.91667V11.0833C46.75 12.4536 46.2057 13.7678 45.2367 14.7367C44.2678 15.7057 42.9536 16.25 41.5833 16.25H31.25C29.8797 16.25 28.5656 15.7057 27.5966 14.7367C26.6277 13.7678 26.0833 12.4536 26.0833 11.0833V5.91667C26.0833 4.54638 26.6277 3.23222 27.5966 2.26328C28.5656 1.29434 29.8797 0.75 31.25 0.75H41.5833Z" fill="#F7F7F7"/>
</svg>
